<svg viewBox="-16 -32 880 192" width="880" height="192" xmlns="http://www.w3.org/2000/svg"><desc>Generated with https://github.com/Platane/snk</desc><style>:root{--cb:#1b1f230a;--cs:blue;--ce:#161b22;--c0:#161b22;--c1:#01311f;--c2:#034525;--c3:#0f6d31;--c4:#00c647}.c{shape-rendering:geometricPrecision;fill:var(--ce);stroke-width:1px;stroke:var(--cb);animation:none 25700ms linear infinite;width:12px;height:12px}@keyframes c0{31.9%{fill:var(--c1)}31.92%,100%{fill:var(--ce)}}.c.c0{fill:var(--c1);animation-name:c0}@keyframes c1{31.51%{fill:var(--c1)}31.53%,100%{fill:var(--ce)}}.c.c1{fill:var(--c1);animation-name:c1}@keyframes c2{31.12%{fill:var(--c1)}31.14%,100%{fill:var(--ce)}}.c.c2{fill:var(--c1);animation-name:c2}@keyframes c3{17.5%{fill:var(--c1)}17.52%,100%{fill:var(--ce)}}.c.c3{fill:var(--c1);animation-name:c3}@keyframes c4{55.24%{fill:var(--c2)}55.26%,100%{fill:var(--ce)}}.c.c4{fill:var(--c2);animation-name:c4}@keyframes c5{57.19%{fill:var(--c3)}57.21%,100%{fill:var(--ce)}}.c.c5{fill:var(--c3);animation-name:c5}@keyframes c6{56.8%{fill:var(--c2)}56.82%,100%{fill:var(--ce)}}.c.c6{fill:var(--c2);animation-name:c6}@keyframes c7{71.2%{fill:var(--c3)}71.22%,100%{fill:var(--ce)}}.c.c7{fill:var(--c3);animation-name:c7}@keyframes c8{17.89%{fill:var(--c1)}17.91%,100%{fill:var(--ce)}}.c.c8{fill:var(--c1);animation-name:c8}@keyframes c9{54.85%{fill:var(--c2)}54.87%,100%{fill:var(--ce)}}.c.c9{fill:var(--c2);animation-name:c9}@keyframes ca{72.36%{fill:var(--c3)}72.38%,100%{fill:var(--ce)}}.c.ca{fill:var(--c3);animation-name:ca}@keyframes cb{80.53%{fill:var(--c4)}80.55%,100%{fill:var(--ce)}}.c.cb{fill:var(--c4);animation-name:cb}@keyframes cc{59.91%{fill:var(--c2)}59.93%,100%{fill:var(--ce)}}.c.cc{fill:var(--c2);animation-name:cc}@keyframes cd{29.95%{fill:var(--c1)}29.97%,100%{fill:var(--ce)}}.c.cd{fill:var(--c1);animation-name:cd}@keyframes ce{18.67%{fill:var(--c1)}18.69%,100%{fill:var(--ce)}}.c.ce{fill:var(--c1);animation-name:ce}@keyframes cf{54.08%{fill:var(--c2)}54.1%,100%{fill:var(--ce)}}.c.cf{fill:var(--c2);animation-name:cf}@keyframes cg{73.14%{fill:var(--c3)}73.16%,100%{fill:var(--ce)}}.c.cg{fill:var(--c3);animation-name:cg}@keyframes ch{50.18%{fill:var(--c2)}50.2%,100%{fill:var(--ce)}}.c.ch{fill:var(--c2);animation-name:ch}@keyframes ci{49.8%{fill:var(--c2)}49.82%,100%{fill:var(--ce)}}.c.ci{fill:var(--c2);animation-name:ci}@keyframes cj{60.3%{fill:var(--c3)}60.32%,100%{fill:var(--ce)}}.c.cj{fill:var(--c3);animation-name:cj}@keyframes ck{29.56%{fill:var(--c1)}29.58%,100%{fill:var(--ce)}}.c.ck{fill:var(--c1);animation-name:ck}@keyframes cl{19.06%{fill:var(--c1)}19.08%,100%{fill:var(--ce)}}.c.cl{fill:var(--c1);animation-name:cl}@keyframes cm{37.34%{fill:var(--c1)}37.36%,100%{fill:var(--ce)}}.c.cm{fill:var(--c1);animation-name:cm}@keyframes cn{36.95%{fill:var(--c2)}36.97%,100%{fill:var(--ce)}}.c.cn{fill:var(--c2);animation-name:cn}@keyframes co{36.57%{fill:var(--c1)}36.59%,100%{fill:var(--ce)}}.c.co{fill:var(--c1);animation-name:co}@keyframes cp{36.18%{fill:var(--c1)}36.2%,100%{fill:var(--ce)}}.c.cp{fill:var(--c1);animation-name:cp}@keyframes cq{35.79%{fill:var(--c1)}35.81%,100%{fill:var(--ce)}}.c.cq{fill:var(--c1);animation-name:cq}@keyframes cr{29.17%{fill:var(--c1)}29.19%,100%{fill:var(--ce)}}.c.cr{fill:var(--c1);animation-name:cr}@keyframes cs{19.45%{fill:var(--c1)}19.47%,100%{fill:var(--ce)}}.c.cs{fill:var(--c1);animation-name:cs}@keyframes ct{51.74%{fill:var(--c2)}51.76%,100%{fill:var(--ce)}}.c.ct{fill:var(--c2);animation-name:ct}@keyframes cu{73.92%{fill:var(--c4)}73.94%,100%{fill:var(--ce)}}.c.cu{fill:var(--c4);animation-name:cu}@keyframes cv{47.85%{fill:var(--c2)}47.87%,100%{fill:var(--ce)}}.c.cv{fill:var(--c2);animation-name:cv}@keyframes cw{43.57%{fill:var(--c2)}43.59%,100%{fill:var(--ce)}}.c.cw{fill:var(--c2);animation-name:cw}@keyframes cx{47.07%{fill:var(--c2)}47.09%,100%{fill:var(--ce)}}.c.cx{fill:var(--c2);animation-name:cx}@keyframes cy{28.78%{fill:var(--c1)}28.8%,100%{fill:var(--ce)}}.c.cy{fill:var(--c1);animation-name:cy}@keyframes cz{19.83%{fill:var(--c1)}19.85%,100%{fill:var(--ce)}}.c.cz{fill:var(--c1);animation-name:cz}@keyframes c10{52.13%{fill:var(--c2)}52.15%,100%{fill:var(--ce)}}.c.c10{fill:var(--c2);animation-name:c10}@keyframes c11{67.31%{fill:var(--c3)}67.33%,100%{fill:var(--ce)}}.c.c11{fill:var(--c3);animation-name:c11}@keyframes c12{48.24%{fill:var(--c2)}48.26%,100%{fill:var(--ce)}}.c.c12{fill:var(--c2);animation-name:c12}@keyframes c13{43.96%{fill:var(--c1)}43.98%,100%{fill:var(--ce)}}.c.c13{fill:var(--c1);animation-name:c13}@keyframes c14{44.35%{fill:var(--c2)}44.37%,100%{fill:var(--ce)}}.c.c14{fill:var(--c2);animation-name:c14}@keyframes c15{28.39%{fill:var(--c1)}28.41%,100%{fill:var(--ce)}}.c.c15{fill:var(--c1);animation-name:c15}@keyframes c16{20.22%{fill:var(--c1)}20.24%,100%{fill:var(--ce)}}.c.c16{fill:var(--c1);animation-name:c16}@keyframes c17{40.07%{fill:var(--c2)}40.09%,100%{fill:var(--ce)}}.c.c17{fill:var(--c2);animation-name:c17}@keyframes c18{66.92%{fill:var(--c3)}66.94%,100%{fill:var(--ce)}}.c.c18{fill:var(--c3);animation-name:c18}@keyframes c19{75.09%{fill:var(--c4)}75.11%,100%{fill:var(--ce)}}.c.c19{fill:var(--c4);animation-name:c19}@keyframes c1a{68.47%{fill:var(--c3)}68.49%,100%{fill:var(--ce)}}.c.c1a{fill:var(--c3);animation-name:c1a}@keyframes c1b{44.74%{fill:var(--c2)}44.76%,100%{fill:var(--ce)}}.c.c1b{fill:var(--c2);animation-name:c1b}@keyframes c1c{28.01%{fill:var(--c1)}28.03%,100%{fill:var(--ce)}}.c.c1c{fill:var(--c1);animation-name:c1c}@keyframes c1d{20.61%{fill:var(--c1)}20.63%,100%{fill:var(--ce)}}.c.c1d{fill:var(--c1);animation-name:c1d}@keyframes c1e{39.68%{fill:var(--c1)}39.7%,100%{fill:var(--ce)}}.c.c1e{fill:var(--c1);animation-name:c1e}@keyframes c1f{63.41%{fill:var(--c3)}63.43%,100%{fill:var(--ce)}}.c.c1f{fill:var(--c3);animation-name:c1f}@keyframes c1g{63.03%{fill:var(--c2)}63.05%,100%{fill:var(--ce)}}.c.c1g{fill:var(--c2);animation-name:c1g}@keyframes c1h{24.5%{fill:var(--c1)}24.52%,100%{fill:var(--ce)}}.c.c1h{fill:var(--c1);animation-name:c1h}@keyframes c1i{24.89%{fill:var(--c1)}24.91%,100%{fill:var(--ce)}}.c.c1i{fill:var(--c1);animation-name:c1i}@keyframes c1j{45.52%{fill:var(--c2)}45.54%,100%{fill:var(--ce)}}.c.c1j{fill:var(--c2);animation-name:c1j}@keyframes c1k{65.36%{fill:var(--c3)}65.38%,100%{fill:var(--ce)}}.c.c1k{fill:var(--c3);animation-name:c1k}@keyframes c1l{76.64%{fill:var(--c4)}76.66%,100%{fill:var(--ce)}}.c.c1l{fill:var(--c4);animation-name:c1l}@keyframes c1m{63.8%{fill:var(--c2)}63.82%,100%{fill:var(--ce)}}.c.c1m{fill:var(--c2);animation-name:c1m}@keyframes c1n{75.87%{fill:var(--c4)}75.89%,100%{fill:var(--ce)}}.c.c1n{fill:var(--c4);animation-name:c1n}@keyframes c1o{24.11%{fill:var(--c1)}24.13%,100%{fill:var(--ce)}}.c.c1o{fill:var(--c1);animation-name:c1o}@keyframes c1p{25.28%{fill:var(--c1)}25.3%,100%{fill:var(--ce)}}.c.c1p{fill:var(--c1);animation-name:c1p}@keyframes c1q{26.45%{fill:var(--c1)}26.47%,100%{fill:var(--ce)}}.c.c1q{fill:var(--c1);animation-name:c1q}@keyframes c1r{22.17%{fill:var(--c1)}22.19%,100%{fill:var(--ce)}}.c.c1r{fill:var(--c1);animation-name:c1r}@keyframes c1s{22.56%{fill:var(--c1)}22.58%,100%{fill:var(--ce)}}.c.c1s{fill:var(--c1);animation-name:c1s}@keyframes c1t{22.95%{fill:var(--c1)}22.97%,100%{fill:var(--ce)}}.c.c1t{fill:var(--c1);animation-name:c1t}@keyframes c1u{23.34%{fill:var(--c1)}23.36%,100%{fill:var(--ce)}}.c.c1u{fill:var(--c1);animation-name:c1u}@keyframes c1v{23.73%{fill:var(--c1)}23.75%,100%{fill:var(--ce)}}.c.c1v{fill:var(--c1);animation-name:c1v}@keyframes c1w{25.67%{fill:var(--c1)}25.69%,100%{fill:var(--ce)}}.c.c1w{fill:var(--c1);animation-name:c1w}.u{transform-origin:0 0;transform:scale(0,1);animation:none linear 25700ms infinite}@keyframes u0{17.5%{transform:scale(0.000,1)}17.52%,17.89%{transform:scale(0.032,1)}17.91%,18.67%{transform:scale(0.065,1)}18.69%,19.06%{transform:scale(0.097,1)}19.08%,19.45%{transform:scale(0.129,1)}19.47%,19.83%{transform:scale(0.161,1)}19.85%,20.22%{transform:scale(0.194,1)}20.24%,20.61%{transform:scale(0.226,1)}20.63%,22.17%{transform:scale(0.258,1)}22.19%,22.56%{transform:scale(0.290,1)}22.58%,22.95%{transform:scale(0.323,1)}22.97%,23.34%{transform:scale(0.355,1)}23.36%,23.73%{transform:scale(0.387,1)}23.75%,24.11%{transform:scale(0.419,1)}24.13%,24.5%{transform:scale(0.452,1)}24.52%,24.89%{transform:scale(0.484,1)}24.91%,25.28%{transform:scale(0.516,1)}25.3%,25.67%{transform:scale(0.548,1)}25.69%,26.45%{transform:scale(0.581,1)}26.47%,28.01%{transform:scale(0.613,1)}28.03%,28.39%{transform:scale(0.645,1)}28.41%,28.78%{transform:scale(0.677,1)}28.8%,29.17%{transform:scale(0.710,1)}29.19%,29.56%{transform:scale(0.742,1)}29.58%,29.95%{transform:scale(0.774,1)}29.97%,31.12%{transform:scale(0.806,1)}31.14%,31.51%{transform:scale(0.839,1)}31.53%,31.9%{transform:scale(0.871,1)}31.92%,35.79%{transform:scale(0.903,1)}35.81%,36.18%{transform:scale(0.935,1)}36.2%,36.57%{transform:scale(0.968,1)}36.59%,100%{transform:scale(1.000,1)}}.u.u0{fill:var(--c1);animation-name:u0;transform-origin:0.0px 0}@keyframes u1{36.95%{transform:scale(0.000,1)}36.97%,100%{transform:scale(1.000,1)}}.u.u1{fill:var(--c2);animation-name:u1;transform-origin:381.0px 0}@keyframes u2{37.34%{transform:scale(0.000,1)}37.36%,39.68%{transform:scale(0.500,1)}39.7%,100%{transform:scale(1.000,1)}}.u.u2{fill:var(--c1);animation-name:u2;transform-origin:393.3px 0}@keyframes u3{40.07%{transform:scale(0.000,1)}40.09%,43.57%{transform:scale(0.500,1)}43.59%,100%{transform:scale(1.000,1)}}.u.u3{fill:var(--c2);animation-name:u3;transform-origin:417.9px 0}@keyframes u4{43.96%{transform:scale(0.000,1)}43.98%,100%{transform:scale(1.000,1)}}.u.u4{fill:var(--c1);animation-name:u4;transform-origin:442.4px 0}@keyframes u5{44.35%{transform:scale(0.000,1)}44.37%,44.74%{transform:scale(0.071,1)}44.76%,45.52%{transform:scale(0.143,1)}45.54%,47.07%{transform:scale(0.214,1)}47.09%,47.85%{transform:scale(0.286,1)}47.87%,48.24%{transform:scale(0.357,1)}48.26%,49.8%{transform:scale(0.429,1)}49.82%,50.18%{transform:scale(0.500,1)}50.2%,51.74%{transform:scale(0.571,1)}51.76%,52.13%{transform:scale(0.643,1)}52.15%,54.08%{transform:scale(0.714,1)}54.1%,54.85%{transform:scale(0.786,1)}54.87%,55.24%{transform:scale(0.857,1)}55.26%,56.8%{transform:scale(0.929,1)}56.82%,100%{transform:scale(1.000,1)}}.u.u5{fill:var(--c2);animation-name:u5;transform-origin:454.7px 0}@keyframes u6{57.19%{transform:scale(0.000,1)}57.21%,100%{transform:scale(1.000,1)}}.u.u6{fill:var(--c3);animation-name:u6;transform-origin:626.8px 0}@keyframes u7{59.91%{transform:scale(0.000,1)}59.93%,100%{transform:scale(1.000,1)}}.u.u7{fill:var(--c2);animation-name:u7;transform-origin:639.1px 0}@keyframes u8{60.3%{transform:scale(0.000,1)}60.32%,100%{transform:scale(1.000,1)}}.u.u8{fill:var(--c3);animation-name:u8;transform-origin:651.4px 0}@keyframes u9{63.03%{transform:scale(0.000,1)}63.05%,100%{transform:scale(1.000,1)}}.u.u9{fill:var(--c2);animation-name:u9;transform-origin:663.7px 0}@keyframes ua{63.41%{transform:scale(0.000,1)}63.43%,100%{transform:scale(1.000,1)}}.u.ua{fill:var(--c3);animation-name:ua;transform-origin:675.9px 0}@keyframes ub{63.8%{transform:scale(0.000,1)}63.82%,100%{transform:scale(1.000,1)}}.u.ub{fill:var(--c2);animation-name:ub;transform-origin:688.2px 0}@keyframes uc{65.36%{transform:scale(0.000,1)}65.38%,66.92%{transform:scale(0.143,1)}66.94%,67.31%{transform:scale(0.286,1)}67.33%,68.47%{transform:scale(0.429,1)}68.49%,71.2%{transform:scale(0.571,1)}71.22%,72.36%{transform:scale(0.714,1)}72.38%,73.14%{transform:scale(0.857,1)}73.16%,100%{transform:scale(1.000,1)}}.u.uc{fill:var(--c3);animation-name:uc;transform-origin:700.5px 0}@keyframes ud{73.92%{transform:scale(0.000,1)}73.94%,75.09%{transform:scale(0.200,1)}75.11%,75.87%{transform:scale(0.400,1)}75.89%,76.64%{transform:scale(0.600,1)}76.66%,80.53%{transform:scale(0.800,1)}80.55%,100%{transform:scale(1.000,1)}}.u.ud{fill:var(--c4);animation-name:ud;transform-origin:786.6px 0}.s{shape-rendering:geometricPrecision;fill:var(--cs);animation:none linear 25700ms infinite}@keyframes s0{0%,99.61%{transform:translate(0px,-16px)}0.39%{transform:translate(0px,0px)}17.12%{transform:translate(688px,0px)}17.51%{transform:translate(688px,16px)}17.9%,54.47%,79.38%{transform:translate(704px,16px)}18.29%{transform:translate(704px,0px)}20.62%,39.3%{transform:translate(800px,0px)}21.01%{transform:translate(800px,-16px)}21.79%{transform:translate(832px,-16px)}23.74%{transform:translate(832px,64px)}24.51%{transform:translate(800px,64px)}24.9%,45.14%,62.26%{transform:translate(800px,80px)}25.68%{transform:translate(832px,80px)}26.07%{transform:translate(832px,96px)}26.46%{transform:translate(816px,96px)}26.85%{transform:translate(816px,112px)}27.63%{transform:translate(784px,112px)}28.02%,45.91%{transform:translate(784px,96px)}30.74%,58.75%{transform:translate(672px,96px)}31.91%,57.59%{transform:translate(672px,48px)}32.3%{transform:translate(656px,48px)}33.46%{transform:translate(656px,96px)}35.41%{transform:translate(736px,96px)}37.74%,41.63%{transform:translate(736px,0px)}39.69%{transform:translate(800px,16px)}40.08%{transform:translate(784px,16px)}40.47%,66.15%{transform:translate(784px,0px)}43.19%{transform:translate(736px,64px)}43.97%,48.64%,68.09%{transform:translate(768px,64px)}44.36%{transform:translate(768px,80px)}45.53%{transform:translate(800px,96px)}46.3%,68.87%{transform:translate(784px,80px)}47.08%{transform:translate(752px,80px)}47.86%{transform:translate(752px,48px)}48.25%{transform:translate(768px,48px)}49.81%{transform:translate(720px,64px)}50.19%,72.76%{transform:translate(720px,48px)}50.58%{transform:translate(736px,48px)}51.36%{transform:translate(736px,16px)}52.14%{transform:translate(768px,16px)}52.53%{transform:translate(768px,0px)}53.7%{transform:translate(720px,0px)}54.09%{transform:translate(720px,16px)}54.86%{transform:translate(704px,32px)}55.64%{transform:translate(672px,32px)}56.42%{transform:translate(672px,64px)}56.81%{transform:translate(688px,64px)}57.2%,71.98%{transform:translate(688px,48px)}59.53%{transform:translate(704px,96px)}59.92%{transform:translate(704px,80px)}63.42%{transform:translate(800px,32px)}64.2%{transform:translate(832px,32px)}64.98%{transform:translate(832px,0px)}66.93%,74.71%{transform:translate(784px,32px)}67.32%{transform:translate(768px,32px)}68.48%{transform:translate(784px,64px)}71.21%{transform:translate(688px,80px)}73.15%{transform:translate(720px,32px)}75.1%{transform:translate(784px,48px)}75.88%{transform:translate(816px,48px)}76.65%{transform:translate(816px,16px)}80.54%{transform:translate(704px,64px)}95.72%{transform:translate(80px,64px)}96.89%{transform:translate(80px,16px)}97.28%{transform:translate(64px,16px)}97.67%{transform:translate(64px,0px)}98.05%{transform:translate(48px,0px)}98.44%{transform:translate(48px,-16px)}}.s.s0{transform:translate(0px,-16px);animation-name:s0}@keyframes s1{0%,99.61%{transform:translate(16px,-16px)}0.39%{transform:translate(0px,-16px)}0.78%{transform:translate(0px,0px)}17.51%{transform:translate(688px,0px)}17.9%{transform:translate(688px,16px)}18.29%,54.86%,79.77%{transform:translate(704px,16px)}18.68%{transform:translate(704px,0px)}21.01%,39.69%{transform:translate(800px,0px)}21.4%{transform:translate(800px,-16px)}22.18%{transform:translate(832px,-16px)}24.12%{transform:translate(832px,64px)}24.9%{transform:translate(800px,64px)}25.29%,45.53%,62.65%{transform:translate(800px,80px)}26.07%{transform:translate(832px,80px)}26.46%{transform:translate(832px,96px)}26.85%{transform:translate(816px,96px)}27.24%{transform:translate(816px,112px)}28.02%{transform:translate(784px,112px)}28.4%,46.3%{transform:translate(784px,96px)}31.13%,59.14%{transform:translate(672px,96px)}32.3%,57.98%{transform:translate(672px,48px)}32.68%{transform:translate(656px,48px)}33.85%{transform:translate(656px,96px)}35.8%{transform:translate(736px,96px)}38.13%,42.02%{transform:translate(736px,0px)}40.08%{transform:translate(800px,16px)}40.47%{transform:translate(784px,16px)}40.86%,66.54%{transform:translate(784px,0px)}43.58%{transform:translate(736px,64px)}44.36%,49.03%,68.48%{transform:translate(768px,64px)}44.75%{transform:translate(768px,80px)}45.91%{transform:translate(800px,96px)}46.69%,69.26%{transform:translate(784px,80px)}47.47%{transform:translate(752px,80px)}48.25%{transform:translate(752px,48px)}48.64%{transform:translate(768px,48px)}50.19%{transform:translate(720px,64px)}50.58%,73.15%{transform:translate(720px,48px)}50.97%{transform:translate(736px,48px)}51.75%{transform:translate(736px,16px)}52.53%{transform:translate(768px,16px)}52.92%{transform:translate(768px,0px)}54.09%{transform:translate(720px,0px)}54.47%{transform:translate(720px,16px)}55.25%{transform:translate(704px,32px)}56.03%{transform:translate(672px,32px)}56.81%{transform:translate(672px,64px)}57.2%{transform:translate(688px,64px)}57.59%,72.37%{transform:translate(688px,48px)}59.92%{transform:translate(704px,96px)}60.31%{transform:translate(704px,80px)}63.81%{transform:translate(800px,32px)}64.59%{transform:translate(832px,32px)}65.37%{transform:translate(832px,0px)}67.32%,75.1%{transform:translate(784px,32px)}67.7%{transform:translate(768px,32px)}68.87%{transform:translate(784px,64px)}71.6%{transform:translate(688px,80px)}73.54%{transform:translate(720px,32px)}75.49%{transform:translate(784px,48px)}76.26%{transform:translate(816px,48px)}77.04%{transform:translate(816px,16px)}80.93%{transform:translate(704px,64px)}96.11%{transform:translate(80px,64px)}97.28%{transform:translate(80px,16px)}97.67%{transform:translate(64px,16px)}98.05%{transform:translate(64px,0px)}98.44%{transform:translate(48px,0px)}98.83%{transform:translate(48px,-16px)}}.s.s1{transform:translate(16px,-16px);animation-name:s1}@keyframes s2{0%,99.61%{transform:translate(32px,-16px)}0.78%{transform:translate(0px,-16px)}1.17%{transform:translate(0px,0px)}17.9%{transform:translate(688px,0px)}18.29%{transform:translate(688px,16px)}18.68%,55.25%,80.16%{transform:translate(704px,16px)}19.07%{transform:translate(704px,0px)}21.4%,40.08%{transform:translate(800px,0px)}21.79%{transform:translate(800px,-16px)}22.57%{transform:translate(832px,-16px)}24.51%{transform:translate(832px,64px)}25.29%{transform:translate(800px,64px)}25.68%,45.91%,63.04%{transform:translate(800px,80px)}26.46%{transform:translate(832px,80px)}26.85%{transform:translate(832px,96px)}27.24%{transform:translate(816px,96px)}27.63%{transform:translate(816px,112px)}28.4%{transform:translate(784px,112px)}28.79%,46.69%{transform:translate(784px,96px)}31.52%,59.53%{transform:translate(672px,96px)}32.68%,58.37%{transform:translate(672px,48px)}33.07%{transform:translate(656px,48px)}34.24%{transform:translate(656px,96px)}36.19%{transform:translate(736px,96px)}38.52%,42.41%{transform:translate(736px,0px)}40.47%{transform:translate(800px,16px)}40.86%{transform:translate(784px,16px)}41.25%,66.93%{transform:translate(784px,0px)}43.97%{transform:translate(736px,64px)}44.75%,49.42%,68.87%{transform:translate(768px,64px)}45.14%{transform:translate(768px,80px)}46.3%{transform:translate(800px,96px)}47.08%,69.65%{transform:translate(784px,80px)}47.86%{transform:translate(752px,80px)}48.64%{transform:translate(752px,48px)}49.03%{transform:translate(768px,48px)}50.58%{transform:translate(720px,64px)}50.97%,73.54%{transform:translate(720px,48px)}51.36%{transform:translate(736px,48px)}52.14%{transform:translate(736px,16px)}52.92%{transform:translate(768px,16px)}53.31%{transform:translate(768px,0px)}54.47%{transform:translate(720px,0px)}54.86%{transform:translate(720px,16px)}55.64%{transform:translate(704px,32px)}56.42%{transform:translate(672px,32px)}57.2%{transform:translate(672px,64px)}57.59%{transform:translate(688px,64px)}57.98%,72.76%{transform:translate(688px,48px)}60.31%{transform:translate(704px,96px)}60.7%{transform:translate(704px,80px)}64.2%{transform:translate(800px,32px)}64.98%{transform:translate(832px,32px)}65.76%{transform:translate(832px,0px)}67.7%,75.49%{transform:translate(784px,32px)}68.09%{transform:translate(768px,32px)}69.26%{transform:translate(784px,64px)}71.98%{transform:translate(688px,80px)}73.93%{transform:translate(720px,32px)}75.88%{transform:translate(784px,48px)}76.65%{transform:translate(816px,48px)}77.43%{transform:translate(816px,16px)}81.32%{transform:translate(704px,64px)}96.5%{transform:translate(80px,64px)}97.67%{transform:translate(80px,16px)}98.05%{transform:translate(64px,16px)}98.44%{transform:translate(64px,0px)}98.83%{transform:translate(48px,0px)}99.22%{transform:translate(48px,-16px)}}.s.s2{transform:translate(32px,-16px);animation-name:s2}@keyframes s3{0%,99.61%{transform:translate(48px,-16px)}1.17%{transform:translate(0px,-16px)}1.56%{transform:translate(0px,0px)}18.29%{transform:translate(688px,0px)}18.68%{transform:translate(688px,16px)}19.07%,55.64%,80.54%{transform:translate(704px,16px)}19.46%{transform:translate(704px,0px)}21.79%,40.47%{transform:translate(800px,0px)}22.18%{transform:translate(800px,-16px)}22.96%{transform:translate(832px,-16px)}24.9%{transform:translate(832px,64px)}25.68%{transform:translate(800px,64px)}26.07%,46.3%,63.42%{transform:translate(800px,80px)}26.85%{transform:translate(832px,80px)}27.24%{transform:translate(832px,96px)}27.63%{transform:translate(816px,96px)}28.02%{transform:translate(816px,112px)}28.79%{transform:translate(784px,112px)}29.18%,47.08%{transform:translate(784px,96px)}31.91%,59.92%{transform:translate(672px,96px)}33.07%,58.75%{transform:translate(672px,48px)}33.46%{transform:translate(656px,48px)}34.63%{transform:translate(656px,96px)}36.58%{transform:translate(736px,96px)}38.91%,42.8%{transform:translate(736px,0px)}40.86%{transform:translate(800px,16px)}41.25%{transform:translate(784px,16px)}41.63%,67.32%{transform:translate(784px,0px)}44.36%{transform:translate(736px,64px)}45.14%,49.81%,69.26%{transform:translate(768px,64px)}45.53%{transform:translate(768px,80px)}46.69%{transform:translate(800px,96px)}47.47%,70.04%{transform:translate(784px,80px)}48.25%{transform:translate(752px,80px)}49.03%{transform:translate(752px,48px)}49.42%{transform:translate(768px,48px)}50.97%{transform:translate(720px,64px)}51.36%,73.93%{transform:translate(720px,48px)}51.75%{transform:translate(736px,48px)}52.53%{transform:translate(736px,16px)}53.31%{transform:translate(768px,16px)}53.7%{transform:translate(768px,0px)}54.86%{transform:translate(720px,0px)}55.25%{transform:translate(720px,16px)}56.03%{transform:translate(704px,32px)}56.81%{transform:translate(672px,32px)}57.59%{transform:translate(672px,64px)}57.98%{transform:translate(688px,64px)}58.37%,73.15%{transform:translate(688px,48px)}60.7%{transform:translate(704px,96px)}61.09%{transform:translate(704px,80px)}64.59%{transform:translate(800px,32px)}65.37%{transform:translate(832px,32px)}66.15%{transform:translate(832px,0px)}68.09%,75.88%{transform:translate(784px,32px)}68.48%{transform:translate(768px,32px)}69.65%{transform:translate(784px,64px)}72.37%{transform:translate(688px,80px)}74.32%{transform:translate(720px,32px)}76.26%{transform:translate(784px,48px)}77.04%{transform:translate(816px,48px)}77.82%{transform:translate(816px,16px)}81.71%{transform:translate(704px,64px)}96.89%{transform:translate(80px,64px)}98.05%{transform:translate(80px,16px)}98.44%{transform:translate(64px,16px)}98.83%{transform:translate(64px,0px)}99.22%{transform:translate(48px,0px)}}.s.s3{transform:translate(48px,-16px);animation-name:s3}</style><rect class="c" x="2" y="2" rx="2" ry="2"/><rect class="c" x="2" y="18" rx="2" ry="2"/><rect class="c" x="2" y="34" rx="2" ry="2"/><rect class="c" x="2" y="50" rx="2" ry="2"/><rect class="c" x="2" y="66" rx="2" ry="2"/><rect class="c" x="2" y="82" rx="2" ry="2"/><rect class="c" x="2" y="98" rx="2" ry="2"/><rect class="c" x="18" y="2" rx="2" ry="2"/><rect class="c" x="18" y="18" rx="2" ry="2"/><rect class="c" x="18" y="34" rx="2" ry="2"/><rect class="c" x="18" y="50" rx="2" ry="2"/><rect class="c" x="18" y="66" rx="2" ry="2"/><rect class="c" x="18" y="82" rx="2" ry="2"/><rect class="c" x="18" y="98" rx="2" ry="2"/><rect class="c" x="34" y="2" rx="2" ry="2"/><rect class="c" x="34" y="18" rx="2" ry="2"/><rect class="c" x="34" y="34" rx="2" ry="2"/><rect class="c" x="34" y="50" rx="2" ry="2"/><rect class="c" x="34" y="66" rx="2" ry="2"/><rect class="c" x="34" y="82" rx="2" ry="2"/><rect class="c" x="34" y="98" rx="2" ry="2"/><rect class="c" x="50" y="2" rx="2" ry="2"/><rect class="c" x="50" y="18" rx="2" ry="2"/><rect class="c" x="50" y="34" rx="2" ry="2"/><rect class="c" x="50" y="50" rx="2" ry="2"/><rect class="c" x="50" y="66" rx="2" ry="2"/><rect class="c" x="50" y="82" rx="2" ry="2"/><rect class="c" x="50" y="98" rx="2" ry="2"/><rect class="c" x="66" y="2" rx="2" ry="2"/><rect class="c" x="66" y="18" rx="2" ry="2"/><rect class="c" x="66" y="34" rx="2" ry="2"/><rect class="c" x="66" y="50" rx="2" ry="2"/><rect class="c" x="66" y="66" rx="2" ry="2"/><rect class="c" x="66" y="82" rx="2" ry="2"/><rect class="c" x="66" y="98" rx="2" ry="2"/><rect class="c" x="82" y="2" rx="2" ry="2"/><rect class="c" x="82" y="18" rx="2" ry="2"/><rect class="c" x="82" y="34" rx="2" ry="2"/><rect class="c" x="82" y="50" rx="2" ry="2"/><rect class="c" x="82" y="66" rx="2" ry="2"/><rect class="c" x="82" y="82" rx="2" ry="2"/><rect class="c" x="82" y="98" rx="2" ry="2"/><rect class="c" x="98" y="2" rx="2" ry="2"/><rect class="c" x="98" y="18" rx="2" ry="2"/><rect class="c" x="98" y="34" rx="2" ry="2"/><rect class="c" x="98" y="50" rx="2" ry="2"/><rect class="c" x="98" y="66" rx="2" ry="2"/><rect class="c" x="98" y="82" rx="2" ry="2"/><rect class="c" x="98" y="98" rx="2" ry="2"/><rect class="c" x="114" y="2" rx="2" ry="2"/><rect class="c" x="114" y="18" rx="2" ry="2"/><rect class="c" x="114" y="34" rx="2" ry="2"/><rect class="c" x="114" y="50" rx="2" ry="2"/><rect class="c" x="114" y="66" rx="2" ry="2"/><rect class="c" x="114" y="82" rx="2" ry="2"/><rect class="c" x="114" y="98" rx="2" ry="2"/><rect class="c" x="130" y="2" rx="2" ry="2"/><rect class="c" x="130" y="18" rx="2" ry="2"/><rect class="c" x="130" y="34" rx="2" ry="2"/><rect class="c" x="130" y="50" rx="2" ry="2"/><rect class="c" x="130" y="66" rx="2" ry="2"/><rect class="c" x="130" y="82" rx="2" ry="2"/><rect class="c" x="130" y="98" rx="2" ry="2"/><rect class="c" x="146" y="2" rx="2" ry="2"/><rect class="c" x="146" y="18" rx="2" ry="2"/><rect class="c" x="146" y="34" rx="2" ry="2"/><rect class="c" x="146" y="50" rx="2" ry="2"/><rect class="c" x="146" y="66" rx="2" ry="2"/><rect class="c" x="146" y="82" rx="2" ry="2"/><rect class="c" x="146" y="98" rx="2" ry="2"/><rect class="c" x="162" y="2" rx="2" ry="2"/><rect class="c" x="162" y="18" rx="2" ry="2"/><rect class="c" x="162" y="34" rx="2" ry="2"/><rect class="c" x="162" y="50" rx="2" ry="2"/><rect class="c" x="162" y="66" rx="2" ry="2"/><rect class="c" x="162" y="82" rx="2" ry="2"/><rect class="c" x="162" y="98" rx="2" ry="2"/><rect class="c" x="178" y="2" rx="2" ry="2"/><rect class="c" x="178" y="18" rx="2" ry="2"/><rect class="c" x="178" y="34" rx="2" ry="2"/><rect class="c" x="178" y="50" rx="2" ry="2"/><rect class="c" x="178" y="66" rx="2" ry="2"/><rect class="c" x="178" y="82" rx="2" ry="2"/><rect class="c" x="178" y="98" rx="2" ry="2"/><rect class="c" x="194" y="2" rx="2" ry="2"/><rect class="c" x="194" y="18" rx="2" ry="2"/><rect class="c" x="194" y="34" rx="2" ry="2"/><rect class="c" x="194" y="50" rx="2" ry="2"/><rect class="c" x="194" y="66" rx="2" ry="2"/><rect class="c" x="194" y="82" rx="2" ry="2"/><rect class="c" x="194" y="98" rx="2" ry="2"/><rect class="c" x="210" y="2" rx="2" ry="2"/><rect class="c" x="210" y="18" rx="2" ry="2"/><rect class="c" x="210" y="34" rx="2" ry="2"/><rect class="c" x="210" y="50" rx="2" ry="2"/><rect class="c" x="210" y="66" rx="2" ry="2"/><rect class="c" x="210" y="82" rx="2" ry="2"/><rect class="c" x="210" y="98" rx="2" ry="2"/><rect class="c" x="226" y="2" rx="2" ry="2"/><rect class="c" x="226" y="18" rx="2" ry="2"/><rect class="c" x="226" y="34" rx="2" ry="2"/><rect class="c" x="226" y="50" rx="2" ry="2"/><rect class="c" x="226" y="66" rx="2" ry="2"/><rect class="c" x="226" y="82" rx="2" ry="2"/><rect class="c" x="226" y="98" rx="2" ry="2"/><rect class="c" x="242" y="2" rx="2" ry="2"/><rect class="c" x="242" y="18" rx="2" ry="2"/><rect class="c" x="242" y="34" rx="2" ry="2"/><rect class="c" x="242" y="50" rx="2" ry="2"/><rect class="c" x="242" y="66" rx="2" ry="2"/><rect class="c" x="242" y="82" rx="2" ry="2"/><rect class="c" x="242" y="98" rx="2" ry="2"/><rect class="c" x="258" y="2" rx="2" ry="2"/><rect class="c" x="258" y="18" rx="2" ry="2"/><rect class="c" x="258" y="34" rx="2" ry="2"/><rect class="c" x="258" y="50" rx="2" ry="2"/><rect class="c" x="258" y="66" rx="2" ry="2"/><rect class="c" x="258" y="82" rx="2" ry="2"/><rect class="c" x="258" y="98" rx="2" ry="2"/><rect class="c" x="274" y="2" rx="2" ry="2"/><rect class="c" x="274" y="18" rx="2" ry="2"/><rect class="c" x="274" y="34" rx="2" ry="2"/><rect class="c" x="274" y="50" rx="2" ry="2"/><rect class="c" x="274" y="66" rx="2" ry="2"/><rect class="c" x="274" y="82" rx="2" ry="2"/><rect class="c" x="274" y="98" rx="2" ry="2"/><rect class="c" x="290" y="2" rx="2" ry="2"/><rect class="c" x="290" y="18" rx="2" ry="2"/><rect class="c" x="290" y="34" rx="2" ry="2"/><rect class="c" x="290" y="50" rx="2" ry="2"/><rect class="c" x="290" y="66" rx="2" ry="2"/><rect class="c" x="290" y="82" rx="2" ry="2"/><rect class="c" x="290" y="98" rx="2" ry="2"/><rect class="c" x="306" y="2" rx="2" ry="2"/><rect class="c" x="306" y="18" rx="2" ry="2"/><rect class="c" x="306" y="34" rx="2" ry="2"/><rect class="c" x="306" y="50" rx="2" ry="2"/><rect class="c" x="306" y="66" rx="2" ry="2"/><rect class="c" x="306" y="82" rx="2" ry="2"/><rect class="c" x="306" y="98" rx="2" ry="2"/><rect class="c" x="322" y="2" rx="2" ry="2"/><rect class="c" x="322" y="18" rx="2" ry="2"/><rect class="c" x="322" y="34" rx="2" ry="2"/><rect class="c" x="322" y="50" rx="2" ry="2"/><rect class="c" x="322" y="66" rx="2" ry="2"/><rect class="c" x="322" y="82" rx="2" ry="2"/><rect class="c" x="322" y="98" rx="2" ry="2"/><rect class="c" x="338" y="2" rx="2" ry="2"/><rect class="c" x="338" y="18" rx="2" ry="2"/><rect class="c" x="338" y="34" rx="2" ry="2"/><rect class="c" x="338" y="50" rx="2" ry="2"/><rect class="c" x="338" y="66" rx="2" ry="2"/><rect class="c" x="338" y="82" rx="2" ry="2"/><rect class="c" x="338" y="98" rx="2" ry="2"/><rect class="c" x="354" y="2" rx="2" ry="2"/><rect class="c" x="354" y="18" rx="2" ry="2"/><rect class="c" x="354" y="34" rx="2" ry="2"/><rect class="c" x="354" y="50" rx="2" ry="2"/><rect class="c" x="354" y="66" rx="2" ry="2"/><rect class="c" x="354" y="82" rx="2" ry="2"/><rect class="c" x="354" y="98" rx="2" ry="2"/><rect class="c" x="370" y="2" rx="2" ry="2"/><rect class="c" x="370" y="18" rx="2" ry="2"/><rect class="c" x="370" y="34" rx="2" ry="2"/><rect class="c" x="370" y="50" rx="2" ry="2"/><rect class="c" x="370" y="66" rx="2" ry="2"/><rect class="c" x="370" y="82" rx="2" ry="2"/><rect class="c" x="370" y="98" rx="2" ry="2"/><rect class="c" x="386" y="2" rx="2" ry="2"/><rect class="c" x="386" y="18" rx="2" ry="2"/><rect class="c" x="386" y="34" rx="2" ry="2"/><rect class="c" x="386" y="50" rx="2" ry="2"/><rect class="c" x="386" y="66" rx="2" ry="2"/><rect class="c" x="386" y="82" rx="2" ry="2"/><rect class="c" x="386" y="98" rx="2" ry="2"/><rect class="c" x="402" y="2" rx="2" ry="2"/><rect class="c" x="402" y="18" rx="2" ry="2"/><rect class="c" x="402" y="34" rx="2" ry="2"/><rect class="c" x="402" y="50" rx="2" ry="2"/><rect class="c" x="402" y="66" rx="2" ry="2"/><rect class="c" x="402" y="82" rx="2" ry="2"/><rect class="c" x="402" y="98" rx="2" ry="2"/><rect class="c" x="418" y="2" rx="2" ry="2"/><rect class="c" x="418" y="18" rx="2" ry="2"/><rect class="c" x="418" y="34" rx="2" ry="2"/><rect class="c" x="418" y="50" rx="2" ry="2"/><rect class="c" x="418" y="66" rx="2" ry="2"/><rect class="c" x="418" y="82" rx="2" ry="2"/><rect class="c" x="418" y="98" rx="2" ry="2"/><rect class="c" x="434" y="2" rx="2" ry="2"/><rect class="c" x="434" y="18" rx="2" ry="2"/><rect class="c" x="434" y="34" rx="2" ry="2"/><rect class="c" x="434" y="50" rx="2" ry="2"/><rect class="c" x="434" y="66" rx="2" ry="2"/><rect class="c" x="434" y="82" rx="2" ry="2"/><rect class="c" x="434" y="98" rx="2" ry="2"/><rect class="c" x="450" y="2" rx="2" ry="2"/><rect class="c" x="450" y="18" rx="2" ry="2"/><rect class="c" x="450" y="34" rx="2" ry="2"/><rect class="c" x="450" y="50" rx="2" ry="2"/><rect class="c" x="450" y="66" rx="2" ry="2"/><rect class="c" x="450" y="82" rx="2" ry="2"/><rect class="c" x="450" y="98" rx="2" ry="2"/><rect class="c" x="466" y="2" rx="2" ry="2"/><rect class="c" x="466" y="18" rx="2" ry="2"/><rect class="c" x="466" y="34" rx="2" ry="2"/><rect class="c" x="466" y="50" rx="2" ry="2"/><rect class="c" x="466" y="66" rx="2" ry="2"/><rect class="c" x="466" y="82" rx="2" ry="2"/><rect class="c" x="466" y="98" rx="2" ry="2"/><rect class="c" x="482" y="2" rx="2" ry="2"/><rect class="c" x="482" y="18" rx="2" ry="2"/><rect class="c" x="482" y="34" rx="2" ry="2"/><rect class="c" x="482" y="50" rx="2" ry="2"/><rect class="c" x="482" y="66" rx="2" ry="2"/><rect class="c" x="482" y="82" rx="2" ry="2"/><rect class="c" x="482" y="98" rx="2" ry="2"/><rect class="c" x="498" y="2" rx="2" ry="2"/><rect class="c" x="498" y="18" rx="2" ry="2"/><rect class="c" x="498" y="34" rx="2" ry="2"/><rect class="c" x="498" y="50" rx="2" ry="2"/><rect class="c" x="498" y="66" rx="2" ry="2"/><rect class="c" x="498" y="82" rx="2" ry="2"/><rect class="c" x="498" y="98" rx="2" ry="2"/><rect class="c" x="514" y="2" rx="2" ry="2"/><rect class="c" x="514" y="18" rx="2" ry="2"/><rect class="c" x="514" y="34" rx="2" ry="2"/><rect class="c" x="514" y="50" rx="2" ry="2"/><rect class="c" x="514" y="66" rx="2" ry="2"/><rect class="c" x="514" y="82" rx="2" ry="2"/><rect class="c" x="514" y="98" rx="2" ry="2"/><rect class="c" x="530" y="2" rx="2" ry="2"/><rect class="c" x="530" y="18" rx="2" ry="2"/><rect class="c" x="530" y="34" rx="2" ry="2"/><rect class="c" x="530" y="50" rx="2" ry="2"/><rect class="c" x="530" y="66" rx="2" ry="2"/><rect class="c" x="530" y="82" rx="2" ry="2"/><rect class="c" x="530" y="98" rx="2" ry="2"/><rect class="c" x="546" y="2" rx="2" ry="2"/><rect class="c" x="546" y="18" rx="2" ry="2"/><rect class="c" x="546" y="34" rx="2" ry="2"/><rect class="c" x="546" y="50" rx="2" ry="2"/><rect class="c" x="546" y="66" rx="2" ry="2"/><rect class="c" x="546" y="82" rx="2" ry="2"/><rect class="c" x="546" y="98" rx="2" ry="2"/><rect class="c" x="562" y="2" rx="2" ry="2"/><rect class="c" x="562" y="18" rx="2" ry="2"/><rect class="c" x="562" y="34" rx="2" ry="2"/><rect class="c" x="562" y="50" rx="2" ry="2"/><rect class="c" x="562" y="66" rx="2" ry="2"/><rect class="c" x="562" y="82" rx="2" ry="2"/><rect class="c" x="562" y="98" rx="2" ry="2"/><rect class="c" x="578" y="2" rx="2" ry="2"/><rect class="c" x="578" y="18" rx="2" ry="2"/><rect class="c" x="578" y="34" rx="2" ry="2"/><rect class="c" x="578" y="50" rx="2" ry="2"/><rect class="c" x="578" y="66" rx="2" ry="2"/><rect class="c" x="578" y="82" rx="2" ry="2"/><rect class="c" x="578" y="98" rx="2" ry="2"/><rect class="c" x="594" y="2" rx="2" ry="2"/><rect class="c" x="594" y="18" rx="2" ry="2"/><rect class="c" x="594" y="34" rx="2" ry="2"/><rect class="c" x="594" y="50" rx="2" ry="2"/><rect class="c" x="594" y="66" rx="2" ry="2"/><rect class="c" x="594" y="82" rx="2" ry="2"/><rect class="c" x="594" y="98" rx="2" ry="2"/><rect class="c" x="610" y="2" rx="2" ry="2"/><rect class="c" x="610" y="18" rx="2" ry="2"/><rect class="c" x="610" y="34" rx="2" ry="2"/><rect class="c" x="610" y="50" rx="2" ry="2"/><rect class="c" x="610" y="66" rx="2" ry="2"/><rect class="c" x="610" y="82" rx="2" ry="2"/><rect class="c" x="610" y="98" rx="2" ry="2"/><rect class="c" x="626" y="2" rx="2" ry="2"/><rect class="c" x="626" y="18" rx="2" ry="2"/><rect class="c" x="626" y="34" rx="2" ry="2"/><rect class="c" x="626" y="50" rx="2" ry="2"/><rect class="c" x="626" y="66" rx="2" ry="2"/><rect class="c" x="626" y="82" rx="2" ry="2"/><rect class="c" x="626" y="98" rx="2" ry="2"/><rect class="c" x="642" y="2" rx="2" ry="2"/><rect class="c" x="642" y="18" rx="2" ry="2"/><rect class="c" x="642" y="34" rx="2" ry="2"/><rect class="c" x="642" y="50" rx="2" ry="2"/><rect class="c" x="642" y="66" rx="2" ry="2"/><rect class="c" x="642" y="82" rx="2" ry="2"/><rect class="c" x="642" y="98" rx="2" ry="2"/><rect class="c" x="658" y="2" rx="2" ry="2"/><rect class="c" x="658" y="18" rx="2" ry="2"/><rect class="c" x="658" y="34" rx="2" ry="2"/><rect class="c" x="658" y="50" rx="2" ry="2"/><rect class="c" x="658" y="66" rx="2" ry="2"/><rect class="c" x="658" y="82" rx="2" ry="2"/><rect class="c" x="658" y="98" rx="2" ry="2"/><rect class="c" x="674" y="2" rx="2" ry="2"/><rect class="c" x="674" y="18" rx="2" ry="2"/><rect class="c" x="674" y="34" rx="2" ry="2"/><rect class="c c0" x="674" y="50" rx="2" ry="2"/><rect class="c c1" x="674" y="66" rx="2" ry="2"/><rect class="c c2" x="674" y="82" rx="2" ry="2"/><rect class="c" x="674" y="98" rx="2" ry="2"/><rect class="c" x="690" y="2" rx="2" ry="2"/><rect class="c c3" x="690" y="18" rx="2" ry="2"/><rect class="c c4" x="690" y="34" rx="2" ry="2"/><rect class="c c5" x="690" y="50" rx="2" ry="2"/><rect class="c c6" x="690" y="66" rx="2" ry="2"/><rect class="c c7" x="690" y="82" rx="2" ry="2"/><rect class="c" x="690" y="98" rx="2" ry="2"/><rect class="c" x="706" y="2" rx="2" ry="2"/><rect class="c c8" x="706" y="18" rx="2" ry="2"/><rect class="c c9" x="706" y="34" rx="2" ry="2"/><rect class="c ca" x="706" y="50" rx="2" ry="2"/><rect class="c cb" x="706" y="66" rx="2" ry="2"/><rect class="c cc" x="706" y="82" rx="2" ry="2"/><rect class="c cd" x="706" y="98" rx="2" ry="2"/><rect class="c ce" x="722" y="2" rx="2" ry="2"/><rect class="c cf" x="722" y="18" rx="2" ry="2"/><rect class="c cg" x="722" y="34" rx="2" ry="2"/><rect class="c ch" x="722" y="50" rx="2" ry="2"/><rect class="c ci" x="722" y="66" rx="2" ry="2"/><rect class="c cj" x="722" y="82" rx="2" ry="2"/><rect class="c ck" x="722" y="98" rx="2" ry="2"/><rect class="c cl" x="738" y="2" rx="2" ry="2"/><rect class="c cm" x="738" y="18" rx="2" ry="2"/><rect class="c cn" x="738" y="34" rx="2" ry="2"/><rect class="c co" x="738" y="50" rx="2" ry="2"/><rect class="c cp" x="738" y="66" rx="2" ry="2"/><rect class="c cq" x="738" y="82" rx="2" ry="2"/><rect class="c cr" x="738" y="98" rx="2" ry="2"/><rect class="c cs" x="754" y="2" rx="2" ry="2"/><rect class="c ct" x="754" y="18" rx="2" ry="2"/><rect class="c cu" x="754" y="34" rx="2" ry="2"/><rect class="c cv" x="754" y="50" rx="2" ry="2"/><rect class="c cw" x="754" y="66" rx="2" ry="2"/><rect class="c cx" x="754" y="82" rx="2" ry="2"/><rect class="c cy" x="754" y="98" rx="2" ry="2"/><rect class="c cz" x="770" y="2" rx="2" ry="2"/><rect class="c c10" x="770" y="18" rx="2" ry="2"/><rect class="c c11" x="770" y="34" rx="2" ry="2"/><rect class="c c12" x="770" y="50" rx="2" ry="2"/><rect class="c c13" x="770" y="66" rx="2" ry="2"/><rect class="c c14" x="770" y="82" rx="2" ry="2"/><rect class="c c15" x="770" y="98" rx="2" ry="2"/><rect class="c c16" x="786" y="2" rx="2" ry="2"/><rect class="c c17" x="786" y="18" rx="2" ry="2"/><rect class="c c18" x="786" y="34" rx="2" ry="2"/><rect class="c c19" x="786" y="50" rx="2" ry="2"/><rect class="c c1a" x="786" y="66" rx="2" ry="2"/><rect class="c c1b" x="786" y="82" rx="2" ry="2"/><rect class="c c1c" x="786" y="98" rx="2" ry="2"/><rect class="c c1d" x="802" y="2" rx="2" ry="2"/><rect class="c c1e" x="802" y="18" rx="2" ry="2"/><rect class="c c1f" x="802" y="34" rx="2" ry="2"/><rect class="c c1g" x="802" y="50" rx="2" ry="2"/><rect class="c c1h" x="802" y="66" rx="2" ry="2"/><rect class="c c1i" x="802" y="82" rx="2" ry="2"/><rect class="c c1j" x="802" y="98" rx="2" ry="2"/><rect class="c c1k" x="818" y="2" rx="2" ry="2"/><rect class="c c1l" x="818" y="18" rx="2" ry="2"/><rect class="c c1m" x="818" y="34" rx="2" ry="2"/><rect class="c c1n" x="818" y="50" rx="2" ry="2"/><rect class="c c1o" x="818" y="66" rx="2" ry="2"/><rect class="c c1p" x="818" y="82" rx="2" ry="2"/><rect class="c c1q" x="818" y="98" rx="2" ry="2"/><rect class="c c1r" x="834" y="2" rx="2" ry="2"/><rect class="c c1s" x="834" y="18" rx="2" ry="2"/><rect class="c c1t" x="834" y="34" rx="2" ry="2"/><rect class="c c1u" x="834" y="50" rx="2" ry="2"/><rect class="c c1v" x="834" y="66" rx="2" ry="2"/><rect class="c c1w" x="834" y="82" rx="2" ry="2"/><rect class="u u0" height="12" width="381.6" x="0.0" y="144"/><rect class="u u1" height="12" width="12.9" x="381.0" y="144"/><rect class="u u2" height="12" width="25.2" x="393.3" y="144"/><rect class="u u3" height="12" width="25.2" x="417.9" y="144"/><rect class="u u4" height="12" width="12.9" x="442.4" y="144"/><rect class="u u5" height="12" width="172.7" x="454.7" y="144"/><rect class="u u6" height="12" width="12.9" x="626.8" y="144"/><rect class="u u7" height="12" width="12.9" x="639.1" y="144"/><rect class="u u8" height="12" width="12.9" x="651.4" y="144"/><rect class="u u9" height="12" width="12.9" x="663.7" y="144"/><rect class="u ua" height="12" width="12.9" x="675.9" y="144"/><rect class="u ub" height="12" width="12.9" x="688.2" y="144"/><rect class="u uc" height="12" width="86.6" x="700.5" y="144"/><rect class="u ud" height="12" width="62.0" x="786.6" y="144"/><rect class="s s0" x="0.8" y="0.8" width="14.4" height="14.4" rx="4.5" ry="4.5"/><rect class="s s1" x="1.8" y="1.8" width="12.3" height="12.3" rx="4.1" ry="4.1"/><rect class="s s2" x="2.6" y="2.6" width="10.8" height="10.8" rx="3.6" ry="3.6"/><rect class="s s3" x="3.0" y="3.0" width="9.9" height="9.9" rx="3.3" ry="3.3"/></svg>