<svg viewBox="-16 -32 880 192" width="880" height="192" xmlns="http://www.w3.org/2000/svg"><desc>Generated with https://github.com/Platane/snk</desc><style>:root{--cb:#1b1f230a;--cs:blue;--ce:#161b22;--c0:#161b22;--c1:#01311f;--c2:#034525;--c3:#0f6d31;--c4:#00c647}.c{shape-rendering:geometricPrecision;fill:var(--ce);stroke-width:1px;stroke:var(--cb);animation:none 30900ms linear infinite;width:12px;height:12px}@keyframes c0{33.65%{fill:var(--c1)}33.67%,100%{fill:var(--ce)}}.c.c0{fill:var(--c1);animation-name:c0}@keyframes c1{33.32%{fill:var(--c1)}33.34%,100%{fill:var(--ce)}}.c.c1{fill:var(--c1);animation-name:c1}@keyframes c2{33%{fill:var(--c1)}33.02%,100%{fill:var(--ce)}}.c.c2{fill:var(--c1);animation-name:c2}@keyframes c3{13.91%{fill:var(--c1)}13.93%,100%{fill:var(--ce)}}.c.c3{fill:var(--c1);animation-name:c3}@keyframes c4{53.06%{fill:var(--c2)}53.08%,100%{fill:var(--ce)}}.c.c4{fill:var(--c2);animation-name:c4}@keyframes c5{63.1%{fill:var(--c3)}63.12%,100%{fill:var(--ce)}}.c.c5{fill:var(--c3);animation-name:c5}@keyframes c6{62.77%{fill:var(--c2)}62.79%,100%{fill:var(--ce)}}.c.c6{fill:var(--c2);animation-name:c6}@keyframes c7{75.39%{fill:var(--c3)}75.41%,100%{fill:var(--ce)}}.c.c7{fill:var(--c3);animation-name:c7}@keyframes c8{14.23%{fill:var(--c1)}14.25%,100%{fill:var(--ce)}}.c.c8{fill:var(--c1);animation-name:c8}@keyframes c9{52.74%{fill:var(--c2)}52.76%,100%{fill:var(--ce)}}.c.c9{fill:var(--c2);animation-name:c9}@keyframes ca{76.37%{fill:var(--c3)}76.39%,100%{fill:var(--ce)}}.c.ca{fill:var(--c3);animation-name:ca}@keyframes cb{84.46%{fill:var(--c4)}84.48%,100%{fill:var(--ce)}}.c.cb{fill:var(--c4);animation-name:cb}@keyframes cc{60.18%{fill:var(--c2)}60.2%,100%{fill:var(--ce)}}.c.cc{fill:var(--c2);animation-name:cc}@keyframes cd{32.03%{fill:var(--c1)}32.05%,100%{fill:var(--ce)}}.c.cd{fill:var(--c1);animation-name:cd}@keyframes ce{14.88%{fill:var(--c1)}14.9%,100%{fill:var(--ce)}}.c.ce{fill:var(--c1);animation-name:ce}@keyframes cf{52.09%{fill:var(--c2)}52.11%,100%{fill:var(--ce)}}.c.cf{fill:var(--c2);animation-name:cf}@keyframes cg{77.01%{fill:var(--c3)}77.03%,100%{fill:var(--ce)}}.c.cg{fill:var(--c3);animation-name:cg}@keyframes ch{57.92%{fill:var(--c2)}57.94%,100%{fill:var(--ce)}}.c.ch{fill:var(--c2);animation-name:ch}@keyframes ci{57.6%{fill:var(--c2)}57.62%,100%{fill:var(--ce)}}.c.ci{fill:var(--c2);animation-name:ci}@keyframes cj{60.51%{fill:var(--c3)}60.53%,100%{fill:var(--ce)}}.c.cj{fill:var(--c3);animation-name:cj}@keyframes ck{31.71%{fill:var(--c1)}31.73%,100%{fill:var(--ce)}}.c.ck{fill:var(--c1);animation-name:ck}@keyframes cl{15.2%{fill:var(--c1)}15.22%,100%{fill:var(--ce)}}.c.cl{fill:var(--c1);animation-name:cl}@keyframes cm{38.18%{fill:var(--c1)}38.2%,100%{fill:var(--ce)}}.c.cm{fill:var(--c1);animation-name:cm}@keyframes cn{37.85%{fill:var(--c2)}37.87%,100%{fill:var(--ce)}}.c.cn{fill:var(--c2);animation-name:cn}@keyframes co{37.53%{fill:var(--c1)}37.55%,100%{fill:var(--ce)}}.c.co{fill:var(--c1);animation-name:co}@keyframes cp{37.21%{fill:var(--c1)}37.23%,100%{fill:var(--ce)}}.c.cp{fill:var(--c1);animation-name:cp}@keyframes cq{36.88%{fill:var(--c1)}36.9%,100%{fill:var(--ce)}}.c.cq{fill:var(--c1);animation-name:cq}@keyframes cr{31.38%{fill:var(--c1)}31.4%,100%{fill:var(--ce)}}.c.cr{fill:var(--c1);animation-name:cr}@keyframes cs{15.52%{fill:var(--c1)}15.54%,100%{fill:var(--ce)}}.c.cs{fill:var(--c1);animation-name:cs}@keyframes ct{51.45%{fill:var(--c2)}51.47%,100%{fill:var(--ce)}}.c.ct{fill:var(--c2);animation-name:ct}@keyframes cu{77.66%{fill:var(--c4)}77.68%,100%{fill:var(--ce)}}.c.cu{fill:var(--c4);animation-name:cu}@keyframes cv{55.33%{fill:var(--c2)}55.35%,100%{fill:var(--ce)}}.c.cv{fill:var(--c2);animation-name:cv}@keyframes cw{43.36%{fill:var(--c2)}43.38%,100%{fill:var(--ce)}}.c.cw{fill:var(--c2);animation-name:cw}@keyframes cx{56.62%{fill:var(--c2)}56.64%,100%{fill:var(--ce)}}.c.cx{fill:var(--c2);animation-name:cx}@keyframes cy{31.06%{fill:var(--c1)}31.08%,100%{fill:var(--ce)}}.c.cy{fill:var(--c1);animation-name:cy}@keyframes cz{15.85%{fill:var(--c1)}15.87%,100%{fill:var(--ce)}}.c.cz{fill:var(--c1);animation-name:cz}@keyframes c10{51.12%{fill:var(--c2)}51.14%,100%{fill:var(--ce)}}.c.c10{fill:var(--c2);animation-name:c10}@keyframes c11{72.16%{fill:var(--c3)}72.18%,100%{fill:var(--ce)}}.c.c11{fill:var(--c3);animation-name:c11}@keyframes c12{55.65%{fill:var(--c2)}55.67%,100%{fill:var(--ce)}}.c.c12{fill:var(--c2);animation-name:c12}@keyframes c13{43.68%{fill:var(--c1)}43.7%,100%{fill:var(--ce)}}.c.c13{fill:var(--c1);animation-name:c13}@keyframes c14{44%{fill:var(--c2)}44.02%,100%{fill:var(--ce)}}.c.c14{fill:var(--c2);animation-name:c14}@keyframes c15{30.73%{fill:var(--c1)}30.75%,100%{fill:var(--ce)}}.c.c15{fill:var(--c1);animation-name:c15}@keyframes c16{16.17%{fill:var(--c1)}16.19%,100%{fill:var(--ce)}}.c.c16{fill:var(--c1);animation-name:c16}@keyframes c17{40.44%{fill:var(--c2)}40.46%,100%{fill:var(--ce)}}.c.c17{fill:var(--c2);animation-name:c17}@keyframes c18{71.83%{fill:var(--c3)}71.85%,100%{fill:var(--ce)}}.c.c18{fill:var(--c3);animation-name:c18}@keyframes c19{78.63%{fill:var(--c4)}78.65%,100%{fill:var(--ce)}}.c.c19{fill:var(--c4);animation-name:c19}@keyframes c1a{73.13%{fill:var(--c3)}73.15%,100%{fill:var(--ce)}}.c.c1a{fill:var(--c3);animation-name:c1a}@keyframes c1b{44.33%{fill:var(--c2)}44.35%,100%{fill:var(--ce)}}.c.c1b{fill:var(--c2);animation-name:c1b}@keyframes c1c{30.41%{fill:var(--c1)}30.43%,100%{fill:var(--ce)}}.c.c1c{fill:var(--c1);animation-name:c1c}@keyframes c1d{16.49%{fill:var(--c1)}16.51%,100%{fill:var(--ce)}}.c.c1d{fill:var(--c1);animation-name:c1d}@keyframes c1e{40.12%{fill:var(--c1)}40.14%,100%{fill:var(--ce)}}.c.c1e{fill:var(--c1);animation-name:c1e}@keyframes c1f{68.27%{fill:var(--c3)}68.29%,100%{fill:var(--ce)}}.c.c1f{fill:var(--c3);animation-name:c1f}@keyframes c1g{67.95%{fill:var(--c2)}67.97%,100%{fill:var(--ce)}}.c.c1g{fill:var(--c2);animation-name:c1g}@keyframes c1h{25.56%{fill:var(--c1)}25.58%,100%{fill:var(--ce)}}.c.c1h{fill:var(--c1);animation-name:c1h}@keyframes c1i{25.88%{fill:var(--c1)}25.9%,100%{fill:var(--ce)}}.c.c1i{fill:var(--c1);animation-name:c1i}@keyframes c1j{44.97%{fill:var(--c2)}44.99%,100%{fill:var(--ce)}}.c.c1j{fill:var(--c2);animation-name:c1j}@keyframes c1k{70.54%{fill:var(--c3)}70.56%,100%{fill:var(--ce)}}.c.c1k{fill:var(--c3);animation-name:c1k}@keyframes c1l{81.22%{fill:var(--c4)}81.24%,100%{fill:var(--ce)}}.c.c1l{fill:var(--c4);animation-name:c1l}@keyframes c1m{68.6%{fill:var(--c2)}68.62%,100%{fill:var(--ce)}}.c.c1m{fill:var(--c2);animation-name:c1m}@keyframes c1n{79.28%{fill:var(--c4)}79.3%,100%{fill:var(--ce)}}.c.c1n{fill:var(--c4);animation-name:c1n}@keyframes c1o{25.23%{fill:var(--c1)}25.25%,100%{fill:var(--ce)}}.c.c1o{fill:var(--c1);animation-name:c1o}@keyframes c1p{26.2%{fill:var(--c1)}26.22%,100%{fill:var(--ce)}}.c.c1p{fill:var(--c1);animation-name:c1p}@keyframes c1q{26.53%{fill:var(--c1)}26.55%,100%{fill:var(--ce)}}.c.c1q{fill:var(--c1);animation-name:c1q}@keyframes c1r{17.79%{fill:var(--c1)}17.81%,100%{fill:var(--ce)}}.c.c1r{fill:var(--c1);animation-name:c1r}@keyframes c1s{22%{fill:var(--c1)}22.02%,100%{fill:var(--ce)}}.c.c1s{fill:var(--c1);animation-name:c1s}@keyframes c1t{21.67%{fill:var(--c1)}21.69%,100%{fill:var(--ce)}}.c.c1t{fill:var(--c1);animation-name:c1t}@keyframes c1u{21.35%{fill:var(--c1)}21.37%,100%{fill:var(--ce)}}.c.c1u{fill:var(--c1);animation-name:c1u}@keyframes c1v{21.03%{fill:var(--c1)}21.05%,100%{fill:var(--ce)}}.c.c1v{fill:var(--c1);animation-name:c1v}@keyframes c1w{45.94%{fill:var(--c2)}45.96%,100%{fill:var(--ce)}}.c.c1w{fill:var(--c2);animation-name:c1w}@keyframes c1x{26.85%{fill:var(--c1)}26.87%,100%{fill:var(--ce)}}.c.c1x{fill:var(--c1);animation-name:c1x}@keyframes c1y{18.11%{fill:var(--c1)}18.13%,100%{fill:var(--ce)}}.c.c1y{fill:var(--c1);animation-name:c1y}@keyframes c1z{47.56%{fill:var(--c2)}47.58%,100%{fill:var(--ce)}}.c.c1z{fill:var(--c2);animation-name:c1z}@keyframes c20{69.25%{fill:var(--c3)}69.27%,100%{fill:var(--ce)}}.c.c20{fill:var(--c3);animation-name:c20}@keyframes c21{79.93%{fill:var(--c4)}79.95%,100%{fill:var(--ce)}}.c.c21{fill:var(--c4);animation-name:c21}@keyframes c22{20.7%{fill:var(--c1)}20.72%,100%{fill:var(--ce)}}.c.c22{fill:var(--c1);animation-name:c22}@keyframes c23{27.5%{fill:var(--c1)}27.52%,100%{fill:var(--ce)}}.c.c23{fill:var(--c1);animation-name:c23}@keyframes c24{27.17%{fill:var(--c1)}27.19%,100%{fill:var(--ce)}}.c.c24{fill:var(--c1);animation-name:c24}@keyframes c25{18.44%{fill:var(--c1)}18.46%,100%{fill:var(--ce)}}.c.c25{fill:var(--c1);animation-name:c25}@keyframes c26{47.89%{fill:var(--c2)}47.91%,100%{fill:var(--ce)}}.c.c26{fill:var(--c2);animation-name:c26}@keyframes c27{19.73%{fill:var(--c1)}19.75%,100%{fill:var(--ce)}}.c.c27{fill:var(--c1);animation-name:c27}.u{transform-origin:0 0;transform:scale(0,1);animation:none linear 30900ms infinite}@keyframes u0{13.91%{transform:scale(0.000,1)}13.93%,14.23%{transform:scale(0.027,1)}14.25%,14.88%{transform:scale(0.054,1)}14.9%,15.2%{transform:scale(0.081,1)}15.22%,15.52%{transform:scale(0.108,1)}15.54%,15.85%{transform:scale(0.135,1)}15.87%,16.17%{transform:scale(0.162,1)}16.19%,16.49%{transform:scale(0.189,1)}16.51%,17.79%{transform:scale(0.216,1)}17.81%,18.11%{transform:scale(0.243,1)}18.13%,18.44%{transform:scale(0.270,1)}18.46%,19.73%{transform:scale(0.297,1)}19.75%,20.7%{transform:scale(0.324,1)}20.72%,21.03%{transform:scale(0.351,1)}21.05%,21.35%{transform:scale(0.378,1)}21.37%,21.67%{transform:scale(0.405,1)}21.69%,22%{transform:scale(0.432,1)}22.02%,25.23%{transform:scale(0.459,1)}25.25%,25.56%{transform:scale(0.486,1)}25.58%,25.88%{transform:scale(0.514,1)}25.9%,26.2%{transform:scale(0.541,1)}26.22%,26.53%{transform:scale(0.568,1)}26.55%,26.85%{transform:scale(0.595,1)}26.87%,27.17%{transform:scale(0.622,1)}27.19%,27.5%{transform:scale(0.649,1)}27.52%,30.41%{transform:scale(0.676,1)}30.43%,30.73%{transform:scale(0.703,1)}30.75%,31.06%{transform:scale(0.730,1)}31.08%,31.38%{transform:scale(0.757,1)}31.4%,31.71%{transform:scale(0.784,1)}31.73%,32.03%{transform:scale(0.811,1)}32.05%,33%{transform:scale(0.838,1)}33.02%,33.32%{transform:scale(0.865,1)}33.34%,33.65%{transform:scale(0.892,1)}33.67%,36.88%{transform:scale(0.919,1)}36.9%,37.21%{transform:scale(0.946,1)}37.23%,37.53%{transform:scale(0.973,1)}37.55%,100%{transform:scale(1.000,1)}}.u.u0{fill:var(--c1);animation-name:u0;transform-origin:0.0px 0}@keyframes u1{37.85%{transform:scale(0.000,1)}37.87%,100%{transform:scale(1.000,1)}}.u.u1{fill:var(--c2);animation-name:u1;transform-origin:392.2px 0}@keyframes u2{38.18%{transform:scale(0.000,1)}38.2%,40.12%{transform:scale(0.500,1)}40.14%,100%{transform:scale(1.000,1)}}.u.u2{fill:var(--c1);animation-name:u2;transform-origin:402.8px 0}@keyframes u3{40.44%{transform:scale(0.000,1)}40.46%,43.36%{transform:scale(0.500,1)}43.38%,100%{transform:scale(1.000,1)}}.u.u3{fill:var(--c2);animation-name:u3;transform-origin:424.0px 0}@keyframes u4{43.68%{transform:scale(0.000,1)}43.7%,100%{transform:scale(1.000,1)}}.u.u4{fill:var(--c1);animation-name:u4;transform-origin:445.2px 0}@keyframes u5{44%{transform:scale(0.000,1)}44.02%,44.33%{transform:scale(0.059,1)}44.35%,44.97%{transform:scale(0.118,1)}44.99%,45.94%{transform:scale(0.176,1)}45.96%,47.56%{transform:scale(0.235,1)}47.58%,47.89%{transform:scale(0.294,1)}47.91%,51.12%{transform:scale(0.353,1)}51.14%,51.45%{transform:scale(0.412,1)}51.47%,52.09%{transform:scale(0.471,1)}52.11%,52.74%{transform:scale(0.529,1)}52.76%,53.06%{transform:scale(0.588,1)}53.08%,55.33%{transform:scale(0.647,1)}55.35%,55.65%{transform:scale(0.706,1)}55.67%,56.62%{transform:scale(0.765,1)}56.64%,57.6%{transform:scale(0.824,1)}57.62%,57.92%{transform:scale(0.882,1)}57.94%,60.18%{transform:scale(0.941,1)}60.2%,100%{transform:scale(1.000,1)}}.u.u5{fill:var(--c2);animation-name:u5;transform-origin:455.8px 0}@keyframes u6{60.51%{transform:scale(0.000,1)}60.53%,100%{transform:scale(1.000,1)}}.u.u6{fill:var(--c3);animation-name:u6;transform-origin:636.0px 0}@keyframes u7{62.77%{transform:scale(0.000,1)}62.79%,100%{transform:scale(1.000,1)}}.u.u7{fill:var(--c2);animation-name:u7;transform-origin:646.6px 0}@keyframes u8{63.1%{transform:scale(0.000,1)}63.12%,100%{transform:scale(1.000,1)}}.u.u8{fill:var(--c3);animation-name:u8;transform-origin:657.2px 0}@keyframes u9{67.95%{transform:scale(0.000,1)}67.97%,100%{transform:scale(1.000,1)}}.u.u9{fill:var(--c2);animation-name:u9;transform-origin:667.8px 0}@keyframes ua{68.27%{transform:scale(0.000,1)}68.29%,100%{transform:scale(1.000,1)}}.u.ua{fill:var(--c3);animation-name:ua;transform-origin:678.4px 0}@keyframes ub{68.6%{transform:scale(0.000,1)}68.62%,100%{transform:scale(1.000,1)}}.u.ub{fill:var(--c2);animation-name:ub;transform-origin:689.0px 0}@keyframes uc{69.25%{transform:scale(0.000,1)}69.27%,70.54%{transform:scale(0.125,1)}70.56%,71.83%{transform:scale(0.250,1)}71.85%,72.16%{transform:scale(0.375,1)}72.18%,73.13%{transform:scale(0.500,1)}73.15%,75.39%{transform:scale(0.625,1)}75.41%,76.37%{transform:scale(0.750,1)}76.39%,77.01%{transform:scale(0.875,1)}77.03%,100%{transform:scale(1.000,1)}}.u.uc{fill:var(--c3);animation-name:uc;transform-origin:699.6px 0}@keyframes ud{77.66%{transform:scale(0.000,1)}77.68%,78.63%{transform:scale(0.167,1)}78.65%,79.28%{transform:scale(0.333,1)}79.3%,79.93%{transform:scale(0.500,1)}79.95%,81.22%{transform:scale(0.667,1)}81.24%,84.46%{transform:scale(0.833,1)}84.48%,100%{transform:scale(1.000,1)}}.u.ud{fill:var(--c4);animation-name:ud;transform-origin:784.4px 0}.s{shape-rendering:geometricPrecision;fill:var(--cs);animation:none linear 30900ms infinite}@keyframes s0{0%,99.68%{transform:translate(0px,-16px)}0.32%{transform:translate(0px,0px)}13.59%{transform:translate(656px,0px)}13.92%,53.4%{transform:translate(656px,16px)}14.24%,52.43%,83.5%{transform:translate(672px,16px)}14.56%{transform:translate(672px,0px)}16.5%,39.81%{transform:translate(768px,0px)}16.83%{transform:translate(768px,-16px)}17.48%,23.3%{transform:translate(800px,-16px)}17.8%,22.33%{transform:translate(800px,0px)}18.77%{transform:translate(848px,0px)}19.42%{transform:translate(848px,32px)}19.74%{transform:translate(832px,32px)}20.39%{transform:translate(832px,64px)}21.04%,24.92%{transform:translate(800px,64px)}22.65%,69.9%{transform:translate(816px,0px)}22.98%{transform:translate(816px,-16px)}25.57%{transform:translate(768px,64px)}25.89%,44.66%,67.31%{transform:translate(768px,80px)}26.21%{transform:translate(784px,80px)}26.54%,29.13%{transform:translate(784px,96px)}27.18%{transform:translate(816px,96px)}27.51%{transform:translate(816px,80px)}27.83%{transform:translate(832px,80px)}28.16%{transform:translate(832px,96px)}29.45%{transform:translate(784px,112px)}30.1%{transform:translate(752px,112px)}30.42%{transform:translate(752px,96px)}32.69%,61.81%,64.4%{transform:translate(640px,96px)}33.66%,63.43%{transform:translate(640px,48px)}33.98%{transform:translate(624px,48px)}34.95%{transform:translate(624px,96px)}36.57%,59.22%{transform:translate(704px,96px)}38.51%,41.75%{transform:translate(704px,0px)}40.13%{transform:translate(768px,16px)}40.45%{transform:translate(752px,16px)}40.78%,71.2%{transform:translate(752px,0px)}43.04%,57.28%{transform:translate(704px,64px)}43.69%,55.99%,72.82%{transform:translate(736px,64px)}44.01%{transform:translate(736px,80px)}44.98%{transform:translate(768px,96px)}45.63%{transform:translate(800px,96px)}47.25%{transform:translate(800px,16px)}47.9%{transform:translate(832px,16px)}48.54%{transform:translate(832px,-16px)}50.49%{transform:translate(736px,-16px)}51.13%{transform:translate(736px,16px)}52.75%{transform:translate(672px,32px)}53.07%{transform:translate(656px,32px)}54.37%{transform:translate(704px,16px)}55.02%,58.25%{transform:translate(704px,48px)}55.66%{transform:translate(736px,48px)}56.31%{transform:translate(720px,64px)}56.63%{transform:translate(720px,80px)}56.96%{transform:translate(704px,80px)}57.61%{transform:translate(688px,64px)}57.93%,76.7%{transform:translate(688px,48px)}59.87%,65.05%{transform:translate(672px,96px)}60.19%,65.37%{transform:translate(672px,80px)}60.52%{transform:translate(688px,80px)}60.84%{transform:translate(688px,96px)}62.46%{transform:translate(640px,64px)}62.78%{transform:translate(656px,64px)}63.11%,76.05%{transform:translate(656px,48px)}68.28%{transform:translate(768px,32px)}69.26%{transform:translate(816px,32px)}71.84%,78.32%{transform:translate(752px,32px)}72.17%{transform:translate(736px,32px)}73.14%{transform:translate(752px,64px)}73.46%{transform:translate(752px,80px)}75.4%{transform:translate(656px,80px)}77.02%{transform:translate(688px,32px)}78.64%{transform:translate(752px,48px)}79.94%{transform:translate(816px,48px)}80.58%{transform:translate(816px,16px)}84.47%{transform:translate(672px,64px)}96.44%{transform:translate(80px,64px)}97.09%{transform:translate(80px,32px)}97.41%{transform:translate(64px,32px)}98.38%{transform:translate(64px,-16px)}}.s.s0{transform:translate(0px,-16px);animation-name:s0}@keyframes s1{0%,99.68%{transform:translate(16px,-16px)}0.32%{transform:translate(0px,-16px)}0.65%{transform:translate(0px,0px)}13.92%{transform:translate(656px,0px)}14.24%,53.72%{transform:translate(656px,16px)}14.56%,52.75%,83.82%{transform:translate(672px,16px)}14.89%{transform:translate(672px,0px)}16.83%,40.13%{transform:translate(768px,0px)}17.15%{transform:translate(768px,-16px)}17.8%,23.62%{transform:translate(800px,-16px)}18.12%,22.65%{transform:translate(800px,0px)}19.09%{transform:translate(848px,0px)}19.74%{transform:translate(848px,32px)}20.06%{transform:translate(832px,32px)}20.71%{transform:translate(832px,64px)}21.36%,25.24%{transform:translate(800px,64px)}22.98%,70.23%{transform:translate(816px,0px)}23.3%{transform:translate(816px,-16px)}25.89%{transform:translate(768px,64px)}26.21%,44.98%,67.64%{transform:translate(768px,80px)}26.54%{transform:translate(784px,80px)}26.86%,29.45%{transform:translate(784px,96px)}27.51%{transform:translate(816px,96px)}27.83%{transform:translate(816px,80px)}28.16%{transform:translate(832px,80px)}28.48%{transform:translate(832px,96px)}29.77%{transform:translate(784px,112px)}30.42%{transform:translate(752px,112px)}30.74%{transform:translate(752px,96px)}33.01%,62.14%,64.72%{transform:translate(640px,96px)}33.98%,63.75%{transform:translate(640px,48px)}34.3%{transform:translate(624px,48px)}35.28%{transform:translate(624px,96px)}36.89%,59.55%{transform:translate(704px,96px)}38.83%,42.07%{transform:translate(704px,0px)}40.45%{transform:translate(768px,16px)}40.78%{transform:translate(752px,16px)}41.1%,71.52%{transform:translate(752px,0px)}43.37%,57.61%{transform:translate(704px,64px)}44.01%,56.31%,73.14%{transform:translate(736px,64px)}44.34%{transform:translate(736px,80px)}45.31%{transform:translate(768px,96px)}45.95%{transform:translate(800px,96px)}47.57%{transform:translate(800px,16px)}48.22%{transform:translate(832px,16px)}48.87%{transform:translate(832px,-16px)}50.81%{transform:translate(736px,-16px)}51.46%{transform:translate(736px,16px)}53.07%{transform:translate(672px,32px)}53.4%{transform:translate(656px,32px)}54.69%{transform:translate(704px,16px)}55.34%,58.58%{transform:translate(704px,48px)}55.99%{transform:translate(736px,48px)}56.63%{transform:translate(720px,64px)}56.96%{transform:translate(720px,80px)}57.28%{transform:translate(704px,80px)}57.93%{transform:translate(688px,64px)}58.25%,77.02%{transform:translate(688px,48px)}60.19%,65.37%{transform:translate(672px,96px)}60.52%,65.7%{transform:translate(672px,80px)}60.84%{transform:translate(688px,80px)}61.17%{transform:translate(688px,96px)}62.78%{transform:translate(640px,64px)}63.11%{transform:translate(656px,64px)}63.43%,76.38%{transform:translate(656px,48px)}68.61%{transform:translate(768px,32px)}69.58%{transform:translate(816px,32px)}72.17%,78.64%{transform:translate(752px,32px)}72.49%{transform:translate(736px,32px)}73.46%{transform:translate(752px,64px)}73.79%{transform:translate(752px,80px)}75.73%{transform:translate(656px,80px)}77.35%{transform:translate(688px,32px)}78.96%{transform:translate(752px,48px)}80.26%{transform:translate(816px,48px)}80.91%{transform:translate(816px,16px)}84.79%{transform:translate(672px,64px)}96.76%{transform:translate(80px,64px)}97.41%{transform:translate(80px,32px)}97.73%{transform:translate(64px,32px)}98.71%{transform:translate(64px,-16px)}}.s.s1{transform:translate(16px,-16px);animation-name:s1}@keyframes s2{0%,99.68%{transform:translate(32px,-16px)}0.65%{transform:translate(0px,-16px)}0.97%{transform:translate(0px,0px)}14.24%{transform:translate(656px,0px)}14.56%,54.05%{transform:translate(656px,16px)}14.89%,53.07%,84.14%{transform:translate(672px,16px)}15.21%{transform:translate(672px,0px)}17.15%,40.45%{transform:translate(768px,0px)}17.48%{transform:translate(768px,-16px)}18.12%,23.95%{transform:translate(800px,-16px)}18.45%,22.98%{transform:translate(800px,0px)}19.42%{transform:translate(848px,0px)}20.06%{transform:translate(848px,32px)}20.39%{transform:translate(832px,32px)}21.04%{transform:translate(832px,64px)}21.68%,25.57%{transform:translate(800px,64px)}23.3%,70.55%{transform:translate(816px,0px)}23.62%{transform:translate(816px,-16px)}26.21%{transform:translate(768px,64px)}26.54%,45.31%,67.96%{transform:translate(768px,80px)}26.86%{transform:translate(784px,80px)}27.18%,29.77%{transform:translate(784px,96px)}27.83%{transform:translate(816px,96px)}28.16%{transform:translate(816px,80px)}28.48%{transform:translate(832px,80px)}28.8%{transform:translate(832px,96px)}30.1%{transform:translate(784px,112px)}30.74%{transform:translate(752px,112px)}31.07%{transform:translate(752px,96px)}33.33%,62.46%,65.05%{transform:translate(640px,96px)}34.3%,64.08%{transform:translate(640px,48px)}34.63%{transform:translate(624px,48px)}35.6%{transform:translate(624px,96px)}37.22%,59.87%{transform:translate(704px,96px)}39.16%,42.39%{transform:translate(704px,0px)}40.78%{transform:translate(768px,16px)}41.1%{transform:translate(752px,16px)}41.42%,71.84%{transform:translate(752px,0px)}43.69%,57.93%{transform:translate(704px,64px)}44.34%,56.63%,73.46%{transform:translate(736px,64px)}44.66%{transform:translate(736px,80px)}45.63%{transform:translate(768px,96px)}46.28%{transform:translate(800px,96px)}47.9%{transform:translate(800px,16px)}48.54%{transform:translate(832px,16px)}49.19%{transform:translate(832px,-16px)}51.13%{transform:translate(736px,-16px)}51.78%{transform:translate(736px,16px)}53.4%{transform:translate(672px,32px)}53.72%{transform:translate(656px,32px)}55.02%{transform:translate(704px,16px)}55.66%,58.9%{transform:translate(704px,48px)}56.31%{transform:translate(736px,48px)}56.96%{transform:translate(720px,64px)}57.28%{transform:translate(720px,80px)}57.61%{transform:translate(704px,80px)}58.25%{transform:translate(688px,64px)}58.58%,77.35%{transform:translate(688px,48px)}60.52%,65.7%{transform:translate(672px,96px)}60.84%,66.02%{transform:translate(672px,80px)}61.17%{transform:translate(688px,80px)}61.49%{transform:translate(688px,96px)}63.11%{transform:translate(640px,64px)}63.43%{transform:translate(656px,64px)}63.75%,76.7%{transform:translate(656px,48px)}68.93%{transform:translate(768px,32px)}69.9%{transform:translate(816px,32px)}72.49%,78.96%{transform:translate(752px,32px)}72.82%{transform:translate(736px,32px)}73.79%{transform:translate(752px,64px)}74.11%{transform:translate(752px,80px)}76.05%{transform:translate(656px,80px)}77.67%{transform:translate(688px,32px)}79.29%{transform:translate(752px,48px)}80.58%{transform:translate(816px,48px)}81.23%{transform:translate(816px,16px)}85.11%{transform:translate(672px,64px)}97.09%{transform:translate(80px,64px)}97.73%{transform:translate(80px,32px)}98.06%{transform:translate(64px,32px)}99.03%{transform:translate(64px,-16px)}}.s.s2{transform:translate(32px,-16px);animation-name:s2}@keyframes s3{0%,99.68%{transform:translate(48px,-16px)}0.97%{transform:translate(0px,-16px)}1.29%{transform:translate(0px,0px)}14.56%{transform:translate(656px,0px)}14.89%,54.37%{transform:translate(656px,16px)}15.21%,53.4%,84.47%{transform:translate(672px,16px)}15.53%{transform:translate(672px,0px)}17.48%,40.78%{transform:translate(768px,0px)}17.8%{transform:translate(768px,-16px)}18.45%,24.27%{transform:translate(800px,-16px)}18.77%,23.3%{transform:translate(800px,0px)}19.74%{transform:translate(848px,0px)}20.39%{transform:translate(848px,32px)}20.71%{transform:translate(832px,32px)}21.36%{transform:translate(832px,64px)}22.01%,25.89%{transform:translate(800px,64px)}23.62%,70.87%{transform:translate(816px,0px)}23.95%{transform:translate(816px,-16px)}26.54%{transform:translate(768px,64px)}26.86%,45.63%,68.28%{transform:translate(768px,80px)}27.18%{transform:translate(784px,80px)}27.51%,30.1%{transform:translate(784px,96px)}28.16%{transform:translate(816px,96px)}28.48%{transform:translate(816px,80px)}28.8%{transform:translate(832px,80px)}29.13%{transform:translate(832px,96px)}30.42%{transform:translate(784px,112px)}31.07%{transform:translate(752px,112px)}31.39%{transform:translate(752px,96px)}33.66%,62.78%,65.37%{transform:translate(640px,96px)}34.63%,64.4%{transform:translate(640px,48px)}34.95%{transform:translate(624px,48px)}35.92%{transform:translate(624px,96px)}37.54%,60.19%{transform:translate(704px,96px)}39.48%,42.72%{transform:translate(704px,0px)}41.1%{transform:translate(768px,16px)}41.42%{transform:translate(752px,16px)}41.75%,72.17%{transform:translate(752px,0px)}44.01%,58.25%{transform:translate(704px,64px)}44.66%,56.96%,73.79%{transform:translate(736px,64px)}44.98%{transform:translate(736px,80px)}45.95%{transform:translate(768px,96px)}46.6%{transform:translate(800px,96px)}48.22%{transform:translate(800px,16px)}48.87%{transform:translate(832px,16px)}49.51%{transform:translate(832px,-16px)}51.46%{transform:translate(736px,-16px)}52.1%{transform:translate(736px,16px)}53.72%{transform:translate(672px,32px)}54.05%{transform:translate(656px,32px)}55.34%{transform:translate(704px,16px)}55.99%,59.22%{transform:translate(704px,48px)}56.63%{transform:translate(736px,48px)}57.28%{transform:translate(720px,64px)}57.61%{transform:translate(720px,80px)}57.93%{transform:translate(704px,80px)}58.58%{transform:translate(688px,64px)}58.9%,77.67%{transform:translate(688px,48px)}60.84%,66.02%{transform:translate(672px,96px)}61.17%,66.34%{transform:translate(672px,80px)}61.49%{transform:translate(688px,80px)}61.81%{transform:translate(688px,96px)}63.43%{transform:translate(640px,64px)}63.75%{transform:translate(656px,64px)}64.08%,77.02%{transform:translate(656px,48px)}69.26%{transform:translate(768px,32px)}70.23%{transform:translate(816px,32px)}72.82%,79.29%{transform:translate(752px,32px)}73.14%{transform:translate(736px,32px)}74.11%{transform:translate(752px,64px)}74.43%{transform:translate(752px,80px)}76.38%{transform:translate(656px,80px)}77.99%{transform:translate(688px,32px)}79.61%{transform:translate(752px,48px)}80.91%{transform:translate(816px,48px)}81.55%{transform:translate(816px,16px)}85.44%{transform:translate(672px,64px)}97.41%{transform:translate(80px,64px)}98.06%{transform:translate(80px,32px)}98.38%{transform:translate(64px,32px)}99.35%{transform:translate(64px,-16px)}}.s.s3{transform:translate(48px,-16px);animation-name:s3}</style><rect class="c" x="2" y="2" rx="2" ry="2"/><rect class="c" x="2" y="18" rx="2" ry="2"/><rect class="c" x="2" y="34" rx="2" ry="2"/><rect class="c" x="2" y="50" rx="2" ry="2"/><rect class="c" x="2" y="66" rx="2" ry="2"/><rect class="c" x="2" y="82" rx="2" ry="2"/><rect class="c" x="2" y="98" rx="2" ry="2"/><rect class="c" x="18" y="2" rx="2" ry="2"/><rect class="c" x="18" y="18" rx="2" ry="2"/><rect class="c" x="18" y="34" rx="2" ry="2"/><rect class="c" x="18" y="50" rx="2" ry="2"/><rect class="c" x="18" y="66" rx="2" ry="2"/><rect class="c" x="18" y="82" rx="2" ry="2"/><rect class="c" x="18" y="98" rx="2" ry="2"/><rect class="c" x="34" y="2" rx="2" ry="2"/><rect class="c" x="34" y="18" rx="2" ry="2"/><rect class="c" x="34" y="34" rx="2" ry="2"/><rect class="c" x="34" y="50" rx="2" ry="2"/><rect class="c" x="34" y="66" rx="2" ry="2"/><rect class="c" x="34" y="82" rx="2" ry="2"/><rect class="c" x="34" y="98" rx="2" ry="2"/><rect class="c" x="50" y="2" rx="2" ry="2"/><rect class="c" x="50" y="18" rx="2" ry="2"/><rect class="c" x="50" y="34" rx="2" ry="2"/><rect class="c" x="50" y="50" rx="2" ry="2"/><rect class="c" x="50" y="66" rx="2" ry="2"/><rect class="c" x="50" y="82" rx="2" ry="2"/><rect class="c" x="50" y="98" rx="2" ry="2"/><rect class="c" x="66" y="2" rx="2" ry="2"/><rect class="c" x="66" y="18" rx="2" ry="2"/><rect class="c" x="66" y="34" rx="2" ry="2"/><rect class="c" x="66" y="50" rx="2" ry="2"/><rect class="c" x="66" y="66" rx="2" ry="2"/><rect class="c" x="66" y="82" rx="2" ry="2"/><rect class="c" x="66" y="98" rx="2" ry="2"/><rect class="c" x="82" y="2" rx="2" ry="2"/><rect class="c" x="82" y="18" rx="2" ry="2"/><rect class="c" x="82" y="34" rx="2" ry="2"/><rect class="c" x="82" y="50" rx="2" ry="2"/><rect class="c" x="82" y="66" rx="2" ry="2"/><rect class="c" x="82" y="82" rx="2" ry="2"/><rect class="c" x="82" y="98" rx="2" ry="2"/><rect class="c" x="98" y="2" rx="2" ry="2"/><rect class="c" x="98" y="18" rx="2" ry="2"/><rect class="c" x="98" y="34" rx="2" ry="2"/><rect class="c" x="98" y="50" rx="2" ry="2"/><rect class="c" x="98" y="66" rx="2" ry="2"/><rect class="c" x="98" y="82" rx="2" ry="2"/><rect class="c" x="98" y="98" rx="2" ry="2"/><rect class="c" x="114" y="2" rx="2" ry="2"/><rect class="c" x="114" y="18" rx="2" ry="2"/><rect class="c" x="114" y="34" rx="2" ry="2"/><rect class="c" x="114" y="50" rx="2" ry="2"/><rect class="c" x="114" y="66" rx="2" ry="2"/><rect class="c" x="114" y="82" rx="2" ry="2"/><rect class="c" x="114" y="98" rx="2" ry="2"/><rect class="c" x="130" y="2" rx="2" ry="2"/><rect class="c" x="130" y="18" rx="2" ry="2"/><rect class="c" x="130" y="34" rx="2" ry="2"/><rect class="c" x="130" y="50" rx="2" ry="2"/><rect class="c" x="130" y="66" rx="2" ry="2"/><rect class="c" x="130" y="82" rx="2" ry="2"/><rect class="c" x="130" y="98" rx="2" ry="2"/><rect class="c" x="146" y="2" rx="2" ry="2"/><rect class="c" x="146" y="18" rx="2" ry="2"/><rect class="c" x="146" y="34" rx="2" ry="2"/><rect class="c" x="146" y="50" rx="2" ry="2"/><rect class="c" x="146" y="66" rx="2" ry="2"/><rect class="c" x="146" y="82" rx="2" ry="2"/><rect class="c" x="146" y="98" rx="2" ry="2"/><rect class="c" x="162" y="2" rx="2" ry="2"/><rect class="c" x="162" y="18" rx="2" ry="2"/><rect class="c" x="162" y="34" rx="2" ry="2"/><rect class="c" x="162" y="50" rx="2" ry="2"/><rect class="c" x="162" y="66" rx="2" ry="2"/><rect class="c" x="162" y="82" rx="2" ry="2"/><rect class="c" x="162" y="98" rx="2" ry="2"/><rect class="c" x="178" y="2" rx="2" ry="2"/><rect class="c" x="178" y="18" rx="2" ry="2"/><rect class="c" x="178" y="34" rx="2" ry="2"/><rect class="c" x="178" y="50" rx="2" ry="2"/><rect class="c" x="178" y="66" rx="2" ry="2"/><rect class="c" x="178" y="82" rx="2" ry="2"/><rect class="c" x="178" y="98" rx="2" ry="2"/><rect class="c" x="194" y="2" rx="2" ry="2"/><rect class="c" x="194" y="18" rx="2" ry="2"/><rect class="c" x="194" y="34" rx="2" ry="2"/><rect class="c" x="194" y="50" rx="2" ry="2"/><rect class="c" x="194" y="66" rx="2" ry="2"/><rect class="c" x="194" y="82" rx="2" ry="2"/><rect class="c" x="194" y="98" rx="2" ry="2"/><rect class="c" x="210" y="2" rx="2" ry="2"/><rect class="c" x="210" y="18" rx="2" ry="2"/><rect class="c" x="210" y="34" rx="2" ry="2"/><rect class="c" x="210" y="50" rx="2" ry="2"/><rect class="c" x="210" y="66" rx="2" ry="2"/><rect class="c" x="210" y="82" rx="2" ry="2"/><rect class="c" x="210" y="98" rx="2" ry="2"/><rect class="c" x="226" y="2" rx="2" ry="2"/><rect class="c" x="226" y="18" rx="2" ry="2"/><rect class="c" x="226" y="34" rx="2" ry="2"/><rect class="c" x="226" y="50" rx="2" ry="2"/><rect class="c" x="226" y="66" rx="2" ry="2"/><rect class="c" x="226" y="82" rx="2" ry="2"/><rect class="c" x="226" y="98" rx="2" ry="2"/><rect class="c" x="242" y="2" rx="2" ry="2"/><rect class="c" x="242" y="18" rx="2" ry="2"/><rect class="c" x="242" y="34" rx="2" ry="2"/><rect class="c" x="242" y="50" rx="2" ry="2"/><rect class="c" x="242" y="66" rx="2" ry="2"/><rect class="c" x="242" y="82" rx="2" ry="2"/><rect class="c" x="242" y="98" rx="2" ry="2"/><rect class="c" x="258" y="2" rx="2" ry="2"/><rect class="c" x="258" y="18" rx="2" ry="2"/><rect class="c" x="258" y="34" rx="2" ry="2"/><rect class="c" x="258" y="50" rx="2" ry="2"/><rect class="c" x="258" y="66" rx="2" ry="2"/><rect class="c" x="258" y="82" rx="2" ry="2"/><rect class="c" x="258" y="98" rx="2" ry="2"/><rect class="c" x="274" y="2" rx="2" ry="2"/><rect class="c" x="274" y="18" rx="2" ry="2"/><rect class="c" x="274" y="34" rx="2" ry="2"/><rect class="c" x="274" y="50" rx="2" ry="2"/><rect class="c" x="274" y="66" rx="2" ry="2"/><rect class="c" x="274" y="82" rx="2" ry="2"/><rect class="c" x="274" y="98" rx="2" ry="2"/><rect class="c" x="290" y="2" rx="2" ry="2"/><rect class="c" x="290" y="18" rx="2" ry="2"/><rect class="c" x="290" y="34" rx="2" ry="2"/><rect class="c" x="290" y="50" rx="2" ry="2"/><rect class="c" x="290" y="66" rx="2" ry="2"/><rect class="c" x="290" y="82" rx="2" ry="2"/><rect class="c" x="290" y="98" rx="2" ry="2"/><rect class="c" x="306" y="2" rx="2" ry="2"/><rect class="c" x="306" y="18" rx="2" ry="2"/><rect class="c" x="306" y="34" rx="2" ry="2"/><rect class="c" x="306" y="50" rx="2" ry="2"/><rect class="c" x="306" y="66" rx="2" ry="2"/><rect class="c" x="306" y="82" rx="2" ry="2"/><rect class="c" x="306" y="98" rx="2" ry="2"/><rect class="c" x="322" y="2" rx="2" ry="2"/><rect class="c" x="322" y="18" rx="2" ry="2"/><rect class="c" x="322" y="34" rx="2" ry="2"/><rect class="c" x="322" y="50" rx="2" ry="2"/><rect class="c" x="322" y="66" rx="2" ry="2"/><rect class="c" x="322" y="82" rx="2" ry="2"/><rect class="c" x="322" y="98" rx="2" ry="2"/><rect class="c" x="338" y="2" rx="2" ry="2"/><rect class="c" x="338" y="18" rx="2" ry="2"/><rect class="c" x="338" y="34" rx="2" ry="2"/><rect class="c" x="338" y="50" rx="2" ry="2"/><rect class="c" x="338" y="66" rx="2" ry="2"/><rect class="c" x="338" y="82" rx="2" ry="2"/><rect class="c" x="338" y="98" rx="2" ry="2"/><rect class="c" x="354" y="2" rx="2" ry="2"/><rect class="c" x="354" y="18" rx="2" ry="2"/><rect class="c" x="354" y="34" rx="2" ry="2"/><rect class="c" x="354" y="50" rx="2" ry="2"/><rect class="c" x="354" y="66" rx="2" ry="2"/><rect class="c" x="354" y="82" rx="2" ry="2"/><rect class="c" x="354" y="98" rx="2" ry="2"/><rect class="c" x="370" y="2" rx="2" ry="2"/><rect class="c" x="370" y="18" rx="2" ry="2"/><rect class="c" x="370" y="34" rx="2" ry="2"/><rect class="c" x="370" y="50" rx="2" ry="2"/><rect class="c" x="370" y="66" rx="2" ry="2"/><rect class="c" x="370" y="82" rx="2" ry="2"/><rect class="c" x="370" y="98" rx="2" ry="2"/><rect class="c" x="386" y="2" rx="2" ry="2"/><rect class="c" x="386" y="18" rx="2" ry="2"/><rect class="c" x="386" y="34" rx="2" ry="2"/><rect class="c" x="386" y="50" rx="2" ry="2"/><rect class="c" x="386" y="66" rx="2" ry="2"/><rect class="c" x="386" y="82" rx="2" ry="2"/><rect class="c" x="386" y="98" rx="2" ry="2"/><rect class="c" x="402" y="2" rx="2" ry="2"/><rect class="c" x="402" y="18" rx="2" ry="2"/><rect class="c" x="402" y="34" rx="2" ry="2"/><rect class="c" x="402" y="50" rx="2" ry="2"/><rect class="c" x="402" y="66" rx="2" ry="2"/><rect class="c" x="402" y="82" rx="2" ry="2"/><rect class="c" x="402" y="98" rx="2" ry="2"/><rect class="c" x="418" y="2" rx="2" ry="2"/><rect class="c" x="418" y="18" rx="2" ry="2"/><rect class="c" x="418" y="34" rx="2" ry="2"/><rect class="c" x="418" y="50" rx="2" ry="2"/><rect class="c" x="418" y="66" rx="2" ry="2"/><rect class="c" x="418" y="82" rx="2" ry="2"/><rect class="c" x="418" y="98" rx="2" ry="2"/><rect class="c" x="434" y="2" rx="2" ry="2"/><rect class="c" x="434" y="18" rx="2" ry="2"/><rect class="c" x="434" y="34" rx="2" ry="2"/><rect class="c" x="434" y="50" rx="2" ry="2"/><rect class="c" x="434" y="66" rx="2" ry="2"/><rect class="c" x="434" y="82" rx="2" ry="2"/><rect class="c" x="434" y="98" rx="2" ry="2"/><rect class="c" x="450" y="2" rx="2" ry="2"/><rect class="c" x="450" y="18" rx="2" ry="2"/><rect class="c" x="450" y="34" rx="2" ry="2"/><rect class="c" x="450" y="50" rx="2" ry="2"/><rect class="c" x="450" y="66" rx="2" ry="2"/><rect class="c" x="450" y="82" rx="2" ry="2"/><rect class="c" x="450" y="98" rx="2" ry="2"/><rect class="c" x="466" y="2" rx="2" ry="2"/><rect class="c" x="466" y="18" rx="2" ry="2"/><rect class="c" x="466" y="34" rx="2" ry="2"/><rect class="c" x="466" y="50" rx="2" ry="2"/><rect class="c" x="466" y="66" rx="2" ry="2"/><rect class="c" x="466" y="82" rx="2" ry="2"/><rect class="c" x="466" y="98" rx="2" ry="2"/><rect class="c" x="482" y="2" rx="2" ry="2"/><rect class="c" x="482" y="18" rx="2" ry="2"/><rect class="c" x="482" y="34" rx="2" ry="2"/><rect class="c" x="482" y="50" rx="2" ry="2"/><rect class="c" x="482" y="66" rx="2" ry="2"/><rect class="c" x="482" y="82" rx="2" ry="2"/><rect class="c" x="482" y="98" rx="2" ry="2"/><rect class="c" x="498" y="2" rx="2" ry="2"/><rect class="c" x="498" y="18" rx="2" ry="2"/><rect class="c" x="498" y="34" rx="2" ry="2"/><rect class="c" x="498" y="50" rx="2" ry="2"/><rect class="c" x="498" y="66" rx="2" ry="2"/><rect class="c" x="498" y="82" rx="2" ry="2"/><rect class="c" x="498" y="98" rx="2" ry="2"/><rect class="c" x="514" y="2" rx="2" ry="2"/><rect class="c" x="514" y="18" rx="2" ry="2"/><rect class="c" x="514" y="34" rx="2" ry="2"/><rect class="c" x="514" y="50" rx="2" ry="2"/><rect class="c" x="514" y="66" rx="2" ry="2"/><rect class="c" x="514" y="82" rx="2" ry="2"/><rect class="c" x="514" y="98" rx="2" ry="2"/><rect class="c" x="530" y="2" rx="2" ry="2"/><rect class="c" x="530" y="18" rx="2" ry="2"/><rect class="c" x="530" y="34" rx="2" ry="2"/><rect class="c" x="530" y="50" rx="2" ry="2"/><rect class="c" x="530" y="66" rx="2" ry="2"/><rect class="c" x="530" y="82" rx="2" ry="2"/><rect class="c" x="530" y="98" rx="2" ry="2"/><rect class="c" x="546" y="2" rx="2" ry="2"/><rect class="c" x="546" y="18" rx="2" ry="2"/><rect class="c" x="546" y="34" rx="2" ry="2"/><rect class="c" x="546" y="50" rx="2" ry="2"/><rect class="c" x="546" y="66" rx="2" ry="2"/><rect class="c" x="546" y="82" rx="2" ry="2"/><rect class="c" x="546" y="98" rx="2" ry="2"/><rect class="c" x="562" y="2" rx="2" ry="2"/><rect class="c" x="562" y="18" rx="2" ry="2"/><rect class="c" x="562" y="34" rx="2" ry="2"/><rect class="c" x="562" y="50" rx="2" ry="2"/><rect class="c" x="562" y="66" rx="2" ry="2"/><rect class="c" x="562" y="82" rx="2" ry="2"/><rect class="c" x="562" y="98" rx="2" ry="2"/><rect class="c" x="578" y="2" rx="2" ry="2"/><rect class="c" x="578" y="18" rx="2" ry="2"/><rect class="c" x="578" y="34" rx="2" ry="2"/><rect class="c" x="578" y="50" rx="2" ry="2"/><rect class="c" x="578" y="66" rx="2" ry="2"/><rect class="c" x="578" y="82" rx="2" ry="2"/><rect class="c" x="578" y="98" rx="2" ry="2"/><rect class="c" x="594" y="2" rx="2" ry="2"/><rect class="c" x="594" y="18" rx="2" ry="2"/><rect class="c" x="594" y="34" rx="2" ry="2"/><rect class="c" x="594" y="50" rx="2" ry="2"/><rect class="c" x="594" y="66" rx="2" ry="2"/><rect class="c" x="594" y="82" rx="2" ry="2"/><rect class="c" x="594" y="98" rx="2" ry="2"/><rect class="c" x="610" y="2" rx="2" ry="2"/><rect class="c" x="610" y="18" rx="2" ry="2"/><rect class="c" x="610" y="34" rx="2" ry="2"/><rect class="c" x="610" y="50" rx="2" ry="2"/><rect class="c" x="610" y="66" rx="2" ry="2"/><rect class="c" x="610" y="82" rx="2" ry="2"/><rect class="c" x="610" y="98" rx="2" ry="2"/><rect class="c" x="626" y="2" rx="2" ry="2"/><rect class="c" x="626" y="18" rx="2" ry="2"/><rect class="c" x="626" y="34" rx="2" ry="2"/><rect class="c" x="626" y="50" rx="2" ry="2"/><rect class="c" x="626" y="66" rx="2" ry="2"/><rect class="c" x="626" y="82" rx="2" ry="2"/><rect class="c" x="626" y="98" rx="2" ry="2"/><rect class="c" x="642" y="2" rx="2" ry="2"/><rect class="c" x="642" y="18" rx="2" ry="2"/><rect class="c" x="642" y="34" rx="2" ry="2"/><rect class="c c0" x="642" y="50" rx="2" ry="2"/><rect class="c c1" x="642" y="66" rx="2" ry="2"/><rect class="c c2" x="642" y="82" rx="2" ry="2"/><rect class="c" x="642" y="98" rx="2" ry="2"/><rect class="c" x="658" y="2" rx="2" ry="2"/><rect class="c c3" x="658" y="18" rx="2" ry="2"/><rect class="c c4" x="658" y="34" rx="2" ry="2"/><rect class="c c5" x="658" y="50" rx="2" ry="2"/><rect class="c c6" x="658" y="66" rx="2" ry="2"/><rect class="c c7" x="658" y="82" rx="2" ry="2"/><rect class="c" x="658" y="98" rx="2" ry="2"/><rect class="c" x="674" y="2" rx="2" ry="2"/><rect class="c c8" x="674" y="18" rx="2" ry="2"/><rect class="c c9" x="674" y="34" rx="2" ry="2"/><rect class="c ca" x="674" y="50" rx="2" ry="2"/><rect class="c cb" x="674" y="66" rx="2" ry="2"/><rect class="c cc" x="674" y="82" rx="2" ry="2"/><rect class="c cd" x="674" y="98" rx="2" ry="2"/><rect class="c ce" x="690" y="2" rx="2" ry="2"/><rect class="c cf" x="690" y="18" rx="2" ry="2"/><rect class="c cg" x="690" y="34" rx="2" ry="2"/><rect class="c ch" x="690" y="50" rx="2" ry="2"/><rect class="c ci" x="690" y="66" rx="2" ry="2"/><rect class="c cj" x="690" y="82" rx="2" ry="2"/><rect class="c ck" x="690" y="98" rx="2" ry="2"/><rect class="c cl" x="706" y="2" rx="2" ry="2"/><rect class="c cm" x="706" y="18" rx="2" ry="2"/><rect class="c cn" x="706" y="34" rx="2" ry="2"/><rect class="c co" x="706" y="50" rx="2" ry="2"/><rect class="c cp" x="706" y="66" rx="2" ry="2"/><rect class="c cq" x="706" y="82" rx="2" ry="2"/><rect class="c cr" x="706" y="98" rx="2" ry="2"/><rect class="c cs" x="722" y="2" rx="2" ry="2"/><rect class="c ct" x="722" y="18" rx="2" ry="2"/><rect class="c cu" x="722" y="34" rx="2" ry="2"/><rect class="c cv" x="722" y="50" rx="2" ry="2"/><rect class="c cw" x="722" y="66" rx="2" ry="2"/><rect class="c cx" x="722" y="82" rx="2" ry="2"/><rect class="c cy" x="722" y="98" rx="2" ry="2"/><rect class="c cz" x="738" y="2" rx="2" ry="2"/><rect class="c c10" x="738" y="18" rx="2" ry="2"/><rect class="c c11" x="738" y="34" rx="2" ry="2"/><rect class="c c12" x="738" y="50" rx="2" ry="2"/><rect class="c c13" x="738" y="66" rx="2" ry="2"/><rect class="c c14" x="738" y="82" rx="2" ry="2"/><rect class="c c15" x="738" y="98" rx="2" ry="2"/><rect class="c c16" x="754" y="2" rx="2" ry="2"/><rect class="c c17" x="754" y="18" rx="2" ry="2"/><rect class="c c18" x="754" y="34" rx="2" ry="2"/><rect class="c c19" x="754" y="50" rx="2" ry="2"/><rect class="c c1a" x="754" y="66" rx="2" ry="2"/><rect class="c c1b" x="754" y="82" rx="2" ry="2"/><rect class="c c1c" x="754" y="98" rx="2" ry="2"/><rect class="c c1d" x="770" y="2" rx="2" ry="2"/><rect class="c c1e" x="770" y="18" rx="2" ry="2"/><rect class="c c1f" x="770" y="34" rx="2" ry="2"/><rect class="c c1g" x="770" y="50" rx="2" ry="2"/><rect class="c c1h" x="770" y="66" rx="2" ry="2"/><rect class="c c1i" x="770" y="82" rx="2" ry="2"/><rect class="c c1j" x="770" y="98" rx="2" ry="2"/><rect class="c c1k" x="786" y="2" rx="2" ry="2"/><rect class="c c1l" x="786" y="18" rx="2" ry="2"/><rect class="c c1m" x="786" y="34" rx="2" ry="2"/><rect class="c c1n" x="786" y="50" rx="2" ry="2"/><rect class="c c1o" x="786" y="66" rx="2" ry="2"/><rect class="c c1p" x="786" y="82" rx="2" ry="2"/><rect class="c c1q" x="786" y="98" rx="2" ry="2"/><rect class="c c1r" x="802" y="2" rx="2" ry="2"/><rect class="c c1s" x="802" y="18" rx="2" ry="2"/><rect class="c c1t" x="802" y="34" rx="2" ry="2"/><rect class="c c1u" x="802" y="50" rx="2" ry="2"/><rect class="c c1v" x="802" y="66" rx="2" ry="2"/><rect class="c c1w" x="802" y="82" rx="2" ry="2"/><rect class="c c1x" x="802" y="98" rx="2" ry="2"/><rect class="c c1y" x="818" y="2" rx="2" ry="2"/><rect class="c c1z" x="818" y="18" rx="2" ry="2"/><rect class="c c20" x="818" y="34" rx="2" ry="2"/><rect class="c c21" x="818" y="50" rx="2" ry="2"/><rect class="c c22" x="818" y="66" rx="2" ry="2"/><rect class="c c23" x="818" y="82" rx="2" ry="2"/><rect class="c c24" x="818" y="98" rx="2" ry="2"/><rect class="c c25" x="834" y="2" rx="2" ry="2"/><rect class="c c26" x="834" y="18" rx="2" ry="2"/><rect class="c c27" x="834" y="34" rx="2" ry="2"/><rect class="c" x="834" y="50" rx="2" ry="2"/><rect class="u u0" height="12" width="392.8" x="0.0" y="144"/><rect class="u u1" height="12" width="11.2" x="392.2" y="144"/><rect class="u u2" height="12" width="21.8" x="402.8" y="144"/><rect class="u u3" height="12" width="21.8" x="424.0" y="144"/><rect class="u u4" height="12" width="11.2" x="445.2" y="144"/><rect class="u u5" height="12" width="180.8" x="455.8" y="144"/><rect class="u u6" height="12" width="11.2" x="636.0" y="144"/><rect class="u u7" height="12" width="11.2" x="646.6" y="144"/><rect class="u u8" height="12" width="11.2" x="657.2" y="144"/><rect class="u u9" height="12" width="11.2" x="667.8" y="144"/><rect class="u ua" height="12" width="11.2" x="678.4" y="144"/><rect class="u ub" height="12" width="11.2" x="689.0" y="144"/><rect class="u uc" height="12" width="85.4" x="699.6" y="144"/><rect class="u ud" height="12" width="64.2" x="784.4" y="144"/><rect class="s s0" x="0.8" y="0.8" width="14.4" height="14.4" rx="4.5" ry="4.5"/><rect class="s s1" x="1.8" y="1.8" width="12.3" height="12.3" rx="4.1" ry="4.1"/><rect class="s s2" x="2.6" y="2.6" width="10.8" height="10.8" rx="3.6" ry="3.6"/><rect class="s s3" x="3.0" y="3.0" width="9.9" height="9.9" rx="3.3" ry="3.3"/></svg>