<svg viewBox="-16 -32 880 192" width="880" height="192" xmlns="http://www.w3.org/2000/svg"><desc>Generated with https://github.com/Platane/snk</desc><style>:root{--cb:#1b1f230a;--cs:blue;--ce:#161b22;--c0:#161b22;--c1:#01311f;--c2:#034525;--c3:#0f6d31;--c4:#00c647}.c{shape-rendering:geometricPrecision;fill:var(--ce);stroke-width:1px;stroke:var(--cb);animation:none 22300ms linear infinite;width:12px;height:12px}@keyframes c0{32.73%{fill:var(--c1)}32.75%,100%{fill:var(--ce)}}.c.c0{fill:var(--c1);animation-name:c0}@keyframes c1{32.28%{fill:var(--c1)}32.3%,100%{fill:var(--ce)}}.c.c1{fill:var(--c1);animation-name:c1}@keyframes c2{52.46%{fill:var(--c2)}52.48%,100%{fill:var(--ce)}}.c.c2{fill:var(--c2);animation-name:c2}@keyframes c3{21.51%{fill:var(--c1)}21.53%,100%{fill:var(--ce)}}.c.c3{fill:var(--c1);animation-name:c3}@keyframes c4{67.7%{fill:var(--c3)}67.72%,100%{fill:var(--ce)}}.c.c4{fill:var(--c3);animation-name:c4}@keyframes c5{70.84%{fill:var(--c4)}70.86%,100%{fill:var(--ce)}}.c.c5{fill:var(--c4);animation-name:c5}@keyframes c6{69.5%{fill:var(--c3)}69.52%,100%{fill:var(--ce)}}.c.c6{fill:var(--c3);animation-name:c6}@keyframes c7{71.74%{fill:var(--c4)}71.76%,100%{fill:var(--ce)}}.c.c7{fill:var(--c4);animation-name:c7}@keyframes c8{21.96%{fill:var(--c1)}21.98%,100%{fill:var(--ce)}}.c.c8{fill:var(--c1);animation-name:c8}@keyframes c9{67.25%{fill:var(--c3)}67.27%,100%{fill:var(--ce)}}.c.c9{fill:var(--c3);animation-name:c9}@keyframes ca{70.39%{fill:var(--c4)}70.41%,100%{fill:var(--ce)}}.c.ca{fill:var(--c4);animation-name:ca}@keyframes cb{69.95%{fill:var(--c4)}69.97%,100%{fill:var(--ce)}}.c.cb{fill:var(--c4);animation-name:cb}@keyframes cc{61.42%{fill:var(--c2)}61.44%,100%{fill:var(--ce)}}.c.cc{fill:var(--c2);animation-name:cc}@keyframes cd{29.59%{fill:var(--c1)}29.61%,100%{fill:var(--ce)}}.c.cd{fill:var(--c1);animation-name:cd}@keyframes ce{22.86%{fill:var(--c1)}22.88%,100%{fill:var(--ce)}}.c.ce{fill:var(--c1);animation-name:ce}@keyframes cf{55.6%{fill:var(--c2)}55.62%,100%{fill:var(--ce)}}.c.cf{fill:var(--c2);animation-name:cf}@keyframes cg{63.22%{fill:var(--c3)}63.24%,100%{fill:var(--ce)}}.c.cg{fill:var(--c3);animation-name:cg}@keyframes ch{48.42%{fill:var(--c2)}48.44%,100%{fill:var(--ce)}}.c.ch{fill:var(--c2);animation-name:ch}@keyframes ci{48.87%{fill:var(--c2)}48.89%,100%{fill:var(--ce)}}.c.ci{fill:var(--c2);animation-name:ci}@keyframes cj{61.87%{fill:var(--c3)}61.89%,100%{fill:var(--ce)}}.c.cj{fill:var(--c3);animation-name:cj}@keyframes ck{29.14%{fill:var(--c1)}29.16%,100%{fill:var(--ce)}}.c.ck{fill:var(--c1);animation-name:ck}@keyframes cl{23.31%{fill:var(--c1)}23.33%,100%{fill:var(--ce)}}.c.cl{fill:var(--c1);animation-name:cl}@keyframes cm{42.59%{fill:var(--c1)}42.61%,100%{fill:var(--ce)}}.c.cm{fill:var(--c1);animation-name:cm}@keyframes cn{63.67%{fill:var(--c3)}63.69%,100%{fill:var(--ce)}}.c.cn{fill:var(--c3);animation-name:cn}@keyframes co{47.97%{fill:var(--c2)}47.99%,100%{fill:var(--ce)}}.c.co{fill:var(--c2);animation-name:co}@keyframes cp{37.66%{fill:var(--c1)}37.68%,100%{fill:var(--ce)}}.c.cp{fill:var(--c1);animation-name:cp}@keyframes cq{37.21%{fill:var(--c1)}37.23%,100%{fill:var(--ce)}}.c.cq{fill:var(--c1);animation-name:cq}@keyframes cr{28.69%{fill:var(--c1)}28.71%,100%{fill:var(--ce)}}.c.cr{fill:var(--c1);animation-name:cr}@keyframes cs{23.76%{fill:var(--c1)}23.78%,100%{fill:var(--ce)}}.c.cs{fill:var(--c1);animation-name:cs}@keyframes ct{43.04%{fill:var(--c2)}43.06%,100%{fill:var(--ce)}}.c.ct{fill:var(--c2);animation-name:ct}@keyframes cu{74.88%{fill:var(--c4)}74.9%,100%{fill:var(--ce)}}.c.cu{fill:var(--c4);animation-name:cu}@keyframes cv{64.56%{fill:var(--c3)}64.58%,100%{fill:var(--ce)}}.c.cv{fill:var(--c3);animation-name:cv}@keyframes cw{38.11%{fill:var(--c2)}38.13%,100%{fill:var(--ce)}}.c.cw{fill:var(--c2);animation-name:cw}@keyframes cx{46.63%{fill:var(--c2)}46.65%,100%{fill:var(--ce)}}.c.cx{fill:var(--c2);animation-name:cx}@keyframes cy{28.24%{fill:var(--c1)}28.26%,100%{fill:var(--ce)}}.c.cy{fill:var(--c1);animation-name:cy}@keyframes cz{24.21%{fill:var(--c1)}24.23%,100%{fill:var(--ce)}}.c.cz{fill:var(--c1);animation-name:cz}@keyframes c10{43.49%{fill:var(--c2)}43.51%,100%{fill:var(--ce)}}.c.c10{fill:var(--c2);animation-name:c10}@keyframes c11{75.33%{fill:var(--c4)}75.35%,100%{fill:var(--ce)}}.c.c11{fill:var(--c4);animation-name:c11}@keyframes c12{45.28%{fill:var(--c2)}45.3%,100%{fill:var(--ce)}}.c.c12{fill:var(--c2);animation-name:c12}@keyframes c13{26.9%{fill:var(--c1)}26.92%,100%{fill:var(--ce)}}.c.c13{fill:var(--c1);animation-name:c13}@keyframes c14{27.34%{fill:var(--c1)}27.36%,100%{fill:var(--ce)}}.c.c14{fill:var(--c1);animation-name:c14}@keyframes c15{27.79%{fill:var(--c1)}27.81%,100%{fill:var(--ce)}}.c.c15{fill:var(--c1);animation-name:c15}.u{transform-origin:0 0;transform:scale(0,1);animation:none linear 22300ms infinite}@keyframes u0{21.51%{transform:scale(0.000,1)}21.53%,21.96%{transform:scale(0.059,1)}21.98%,22.86%{transform:scale(0.118,1)}22.88%,23.31%{transform:scale(0.176,1)}23.33%,23.76%{transform:scale(0.235,1)}23.78%,24.21%{transform:scale(0.294,1)}24.23%,26.9%{transform:scale(0.353,1)}26.92%,27.34%{transform:scale(0.412,1)}27.36%,27.79%{transform:scale(0.471,1)}27.81%,28.24%{transform:scale(0.529,1)}28.26%,28.69%{transform:scale(0.588,1)}28.71%,29.14%{transform:scale(0.647,1)}29.16%,29.59%{transform:scale(0.706,1)}29.61%,32.28%{transform:scale(0.765,1)}32.3%,32.73%{transform:scale(0.824,1)}32.75%,37.21%{transform:scale(0.882,1)}37.23%,37.66%{transform:scale(0.941,1)}37.68%,100%{transform:scale(1.000,1)}}.u.u0{fill:var(--c1);animation-name:u0;transform-origin:0.0px 0}@keyframes u1{38.11%{transform:scale(0.000,1)}38.13%,100%{transform:scale(1.000,1)}}.u.u1{fill:var(--c2);animation-name:u1;transform-origin:343.2px 0}@keyframes u2{42.59%{transform:scale(0.000,1)}42.61%,100%{transform:scale(1.000,1)}}.u.u2{fill:var(--c1);animation-name:u2;transform-origin:363.4px 0}@keyframes u3{43.04%{transform:scale(0.000,1)}43.06%,43.49%{transform:scale(0.100,1)}43.51%,45.28%{transform:scale(0.200,1)}45.3%,46.63%{transform:scale(0.300,1)}46.65%,47.97%{transform:scale(0.400,1)}47.99%,48.42%{transform:scale(0.500,1)}48.44%,48.87%{transform:scale(0.600,1)}48.89%,52.46%{transform:scale(0.700,1)}52.48%,55.6%{transform:scale(0.800,1)}55.62%,61.42%{transform:scale(0.900,1)}61.44%,100%{transform:scale(1.000,1)}}.u.u3{fill:var(--c2);animation-name:u3;transform-origin:383.6px 0}@keyframes u4{61.87%{transform:scale(0.000,1)}61.89%,63.22%{transform:scale(0.143,1)}63.24%,63.67%{transform:scale(0.286,1)}63.69%,64.56%{transform:scale(0.429,1)}64.58%,67.25%{transform:scale(0.571,1)}67.27%,67.7%{transform:scale(0.714,1)}67.72%,69.5%{transform:scale(0.857,1)}69.52%,100%{transform:scale(1.000,1)}}.u.u4{fill:var(--c3);animation-name:u4;transform-origin:585.5px 0}@keyframes u5{69.95%{transform:scale(0.000,1)}69.97%,70.39%{transform:scale(0.167,1)}70.41%,70.84%{transform:scale(0.333,1)}70.86%,71.74%{transform:scale(0.500,1)}71.76%,74.88%{transform:scale(0.667,1)}74.9%,75.33%{transform:scale(0.833,1)}75.35%,100%{transform:scale(1.000,1)}}.u.u5{fill:var(--c4);animation-name:u5;transform-origin:726.9px 0}.s{shape-rendering:geometricPrecision;fill:var(--cs);animation:none linear 22300ms infinite}@keyframes s0{0%,99.55%{transform:translate(0px,-16px)}0.45%{transform:translate(0px,0px)}21.08%,56.95%{transform:translate(736px,0px)}21.52%,57.4%{transform:translate(736px,16px)}21.97%{transform:translate(752px,16px)}22.42%{transform:translate(752px,0px)}24.66%,40.81%{transform:translate(832px,0px)}26.46%,39.01%{transform:translate(832px,64px)}26.91%,45.74%{transform:translate(816px,64px)}27.8%{transform:translate(816px,96px)}30.94%,34.53%{transform:translate(704px,96px)}31.84%{transform:translate(704px,64px)}32.29%,69.06%{transform:translate(720px,64px)}32.74%{transform:translate(720px,48px)}33.18%{transform:translate(704px,48px)}36.77%,50.22%{transform:translate(784px,96px)}37.67%,49.33%,65.47%{transform:translate(784px,64px)}42.15%{transform:translate(784px,0px)}42.6%{transform:translate(784px,16px)}43.95%{transform:translate(832px,16px)}44.84%{transform:translate(832px,48px)}45.29%{transform:translate(816px,48px)}46.19%,65.02%{transform:translate(800px,64px)}46.64%,73.54%{transform:translate(800px,80px)}47.09%{transform:translate(784px,80px)}47.98%,64.13%{transform:translate(784px,48px)}48.43%{transform:translate(768px,48px)}48.88%{transform:translate(768px,64px)}52.02%,60.09%{transform:translate(720px,96px)}54.26%,57.85%{transform:translate(720px,16px)}55.61%{transform:translate(768px,16px)}56.05%{transform:translate(768px,0px)}60.99%{transform:translate(752px,96px)}61.43%{transform:translate(752px,80px)}61.88%{transform:translate(768px,80px)}63.23%{transform:translate(768px,32px)}63.68%,66.37%{transform:translate(784px,32px)}64.57%{transform:translate(800px,48px)}68.16%{transform:translate(720px,32px)}69.96%{transform:translate(752px,64px)}70.4%{transform:translate(752px,48px)}70.85%{transform:translate(736px,48px)}71.75%{transform:translate(736px,80px)}74.89%{transform:translate(800px,32px)}75.34%{transform:translate(816px,32px)}75.78%{transform:translate(816px,16px)}96.41%{transform:translate(80px,16px)}97.31%{transform:translate(80px,-16px)}}.s.s0{transform:translate(0px,-16px);animation-name:s0}@keyframes s1{0%,99.55%{transform:translate(16px,-16px)}0.45%{transform:translate(0px,-16px)}0.9%{transform:translate(0px,0px)}21.52%,57.4%{transform:translate(736px,0px)}21.97%,57.85%{transform:translate(736px,16px)}22.42%{transform:translate(752px,16px)}22.87%{transform:translate(752px,0px)}25.11%,41.26%{transform:translate(832px,0px)}26.91%,39.46%{transform:translate(832px,64px)}27.35%,46.19%{transform:translate(816px,64px)}28.25%{transform:translate(816px,96px)}31.39%,34.98%{transform:translate(704px,96px)}32.29%{transform:translate(704px,64px)}32.74%,69.51%{transform:translate(720px,64px)}33.18%{transform:translate(720px,48px)}33.63%{transform:translate(704px,48px)}37.22%,50.67%{transform:translate(784px,96px)}38.12%,49.78%,65.92%{transform:translate(784px,64px)}42.6%{transform:translate(784px,0px)}43.05%{transform:translate(784px,16px)}44.39%{transform:translate(832px,16px)}45.29%{transform:translate(832px,48px)}45.74%{transform:translate(816px,48px)}46.64%,65.47%{transform:translate(800px,64px)}47.09%,73.99%{transform:translate(800px,80px)}47.53%{transform:translate(784px,80px)}48.43%,64.57%{transform:translate(784px,48px)}48.88%{transform:translate(768px,48px)}49.33%{transform:translate(768px,64px)}52.47%,60.54%{transform:translate(720px,96px)}54.71%,58.3%{transform:translate(720px,16px)}56.05%{transform:translate(768px,16px)}56.5%{transform:translate(768px,0px)}61.43%{transform:translate(752px,96px)}61.88%{transform:translate(752px,80px)}62.33%{transform:translate(768px,80px)}63.68%{transform:translate(768px,32px)}64.13%,66.82%{transform:translate(784px,32px)}65.02%{transform:translate(800px,48px)}68.61%{transform:translate(720px,32px)}70.4%{transform:translate(752px,64px)}70.85%{transform:translate(752px,48px)}71.3%{transform:translate(736px,48px)}72.2%{transform:translate(736px,80px)}75.34%{transform:translate(800px,32px)}75.78%{transform:translate(816px,32px)}76.23%{transform:translate(816px,16px)}96.86%{transform:translate(80px,16px)}97.76%{transform:translate(80px,-16px)}}.s.s1{transform:translate(16px,-16px);animation-name:s1}@keyframes s2{0%,99.55%{transform:translate(32px,-16px)}0.9%{transform:translate(0px,-16px)}1.35%{transform:translate(0px,0px)}21.97%,57.85%{transform:translate(736px,0px)}22.42%,58.3%{transform:translate(736px,16px)}22.87%{transform:translate(752px,16px)}23.32%{transform:translate(752px,0px)}25.56%,41.7%{transform:translate(832px,0px)}27.35%,39.91%{transform:translate(832px,64px)}27.8%,46.64%{transform:translate(816px,64px)}28.7%{transform:translate(816px,96px)}31.84%,35.43%{transform:translate(704px,96px)}32.74%{transform:translate(704px,64px)}33.18%,69.96%{transform:translate(720px,64px)}33.63%{transform:translate(720px,48px)}34.08%{transform:translate(704px,48px)}37.67%,51.12%{transform:translate(784px,96px)}38.57%,50.22%,66.37%{transform:translate(784px,64px)}43.05%{transform:translate(784px,0px)}43.5%{transform:translate(784px,16px)}44.84%{transform:translate(832px,16px)}45.74%{transform:translate(832px,48px)}46.19%{transform:translate(816px,48px)}47.09%,65.92%{transform:translate(800px,64px)}47.53%,74.44%{transform:translate(800px,80px)}47.98%{transform:translate(784px,80px)}48.88%,65.02%{transform:translate(784px,48px)}49.33%{transform:translate(768px,48px)}49.78%{transform:translate(768px,64px)}52.91%,60.99%{transform:translate(720px,96px)}55.16%,58.74%{transform:translate(720px,16px)}56.5%{transform:translate(768px,16px)}56.95%{transform:translate(768px,0px)}61.88%{transform:translate(752px,96px)}62.33%{transform:translate(752px,80px)}62.78%{transform:translate(768px,80px)}64.13%{transform:translate(768px,32px)}64.57%,67.26%{transform:translate(784px,32px)}65.47%{transform:translate(800px,48px)}69.06%{transform:translate(720px,32px)}70.85%{transform:translate(752px,64px)}71.3%{transform:translate(752px,48px)}71.75%{transform:translate(736px,48px)}72.65%{transform:translate(736px,80px)}75.78%{transform:translate(800px,32px)}76.23%{transform:translate(816px,32px)}76.68%{transform:translate(816px,16px)}97.31%{transform:translate(80px,16px)}98.21%{transform:translate(80px,-16px)}}.s.s2{transform:translate(32px,-16px);animation-name:s2}@keyframes s3{0%,99.55%{transform:translate(48px,-16px)}1.35%{transform:translate(0px,-16px)}1.79%{transform:translate(0px,0px)}22.42%,58.3%{transform:translate(736px,0px)}22.87%,58.74%{transform:translate(736px,16px)}23.32%{transform:translate(752px,16px)}23.77%{transform:translate(752px,0px)}26.01%,42.15%{transform:translate(832px,0px)}27.8%,40.36%{transform:translate(832px,64px)}28.25%,47.09%{transform:translate(816px,64px)}29.15%{transform:translate(816px,96px)}32.29%,35.87%{transform:translate(704px,96px)}33.18%{transform:translate(704px,64px)}33.63%,70.4%{transform:translate(720px,64px)}34.08%{transform:translate(720px,48px)}34.53%{transform:translate(704px,48px)}38.12%,51.57%{transform:translate(784px,96px)}39.01%,50.67%,66.82%{transform:translate(784px,64px)}43.5%{transform:translate(784px,0px)}43.95%{transform:translate(784px,16px)}45.29%{transform:translate(832px,16px)}46.19%{transform:translate(832px,48px)}46.64%{transform:translate(816px,48px)}47.53%,66.37%{transform:translate(800px,64px)}47.98%,74.89%{transform:translate(800px,80px)}48.43%{transform:translate(784px,80px)}49.33%,65.47%{transform:translate(784px,48px)}49.78%{transform:translate(768px,48px)}50.22%{transform:translate(768px,64px)}53.36%,61.43%{transform:translate(720px,96px)}55.61%,59.19%{transform:translate(720px,16px)}56.95%{transform:translate(768px,16px)}57.4%{transform:translate(768px,0px)}62.33%{transform:translate(752px,96px)}62.78%{transform:translate(752px,80px)}63.23%{transform:translate(768px,80px)}64.57%{transform:translate(768px,32px)}65.02%,67.71%{transform:translate(784px,32px)}65.92%{transform:translate(800px,48px)}69.51%{transform:translate(720px,32px)}71.3%{transform:translate(752px,64px)}71.75%{transform:translate(752px,48px)}72.2%{transform:translate(736px,48px)}73.09%{transform:translate(736px,80px)}76.23%{transform:translate(800px,32px)}76.68%{transform:translate(816px,32px)}77.13%{transform:translate(816px,16px)}97.76%{transform:translate(80px,16px)}98.65%{transform:translate(80px,-16px)}}.s.s3{transform:translate(48px,-16px);animation-name:s3}</style><rect class="c" x="2" y="2" rx="2" ry="2"/><rect class="c" x="2" y="18" rx="2" ry="2"/><rect class="c" x="2" y="34" rx="2" ry="2"/><rect class="c" x="2" y="50" rx="2" ry="2"/><rect class="c" x="2" y="66" rx="2" ry="2"/><rect class="c" x="2" y="82" rx="2" ry="2"/><rect class="c" x="2" y="98" rx="2" ry="2"/><rect class="c" x="18" y="2" rx="2" ry="2"/><rect class="c" x="18" y="18" rx="2" ry="2"/><rect class="c" x="18" y="34" rx="2" ry="2"/><rect class="c" x="18" y="50" rx="2" ry="2"/><rect class="c" x="18" y="66" rx="2" ry="2"/><rect class="c" x="18" y="82" rx="2" ry="2"/><rect class="c" x="18" y="98" rx="2" ry="2"/><rect class="c" x="34" y="2" rx="2" ry="2"/><rect class="c" x="34" y="18" rx="2" ry="2"/><rect class="c" x="34" y="34" rx="2" ry="2"/><rect class="c" x="34" y="50" rx="2" ry="2"/><rect class="c" x="34" y="66" rx="2" ry="2"/><rect class="c" x="34" y="82" rx="2" ry="2"/><rect class="c" x="34" y="98" rx="2" ry="2"/><rect class="c" x="50" y="2" rx="2" ry="2"/><rect class="c" x="50" y="18" rx="2" ry="2"/><rect class="c" x="50" y="34" rx="2" ry="2"/><rect class="c" x="50" y="50" rx="2" ry="2"/><rect class="c" x="50" y="66" rx="2" ry="2"/><rect class="c" x="50" y="82" rx="2" ry="2"/><rect class="c" x="50" y="98" rx="2" ry="2"/><rect class="c" x="66" y="2" rx="2" ry="2"/><rect class="c" x="66" y="18" rx="2" ry="2"/><rect class="c" x="66" y="34" rx="2" ry="2"/><rect class="c" x="66" y="50" rx="2" ry="2"/><rect class="c" x="66" y="66" rx="2" ry="2"/><rect class="c" x="66" y="82" rx="2" ry="2"/><rect class="c" x="66" y="98" rx="2" ry="2"/><rect class="c" x="82" y="2" rx="2" ry="2"/><rect class="c" x="82" y="18" rx="2" ry="2"/><rect class="c" x="82" y="34" rx="2" ry="2"/><rect class="c" x="82" y="50" rx="2" ry="2"/><rect class="c" x="82" y="66" rx="2" ry="2"/><rect class="c" x="82" y="82" rx="2" ry="2"/><rect class="c" x="82" y="98" rx="2" ry="2"/><rect class="c" x="98" y="2" rx="2" ry="2"/><rect class="c" x="98" y="18" rx="2" ry="2"/><rect class="c" x="98" y="34" rx="2" ry="2"/><rect class="c" x="98" y="50" rx="2" ry="2"/><rect class="c" x="98" y="66" rx="2" ry="2"/><rect class="c" x="98" y="82" rx="2" ry="2"/><rect class="c" x="98" y="98" rx="2" ry="2"/><rect class="c" x="114" y="2" rx="2" ry="2"/><rect class="c" x="114" y="18" rx="2" ry="2"/><rect class="c" x="114" y="34" rx="2" ry="2"/><rect class="c" x="114" y="50" rx="2" ry="2"/><rect class="c" x="114" y="66" rx="2" ry="2"/><rect class="c" x="114" y="82" rx="2" ry="2"/><rect class="c" x="114" y="98" rx="2" ry="2"/><rect class="c" x="130" y="2" rx="2" ry="2"/><rect class="c" x="130" y="18" rx="2" ry="2"/><rect class="c" x="130" y="34" rx="2" ry="2"/><rect class="c" x="130" y="50" rx="2" ry="2"/><rect class="c" x="130" y="66" rx="2" ry="2"/><rect class="c" x="130" y="82" rx="2" ry="2"/><rect class="c" x="130" y="98" rx="2" ry="2"/><rect class="c" x="146" y="2" rx="2" ry="2"/><rect class="c" x="146" y="18" rx="2" ry="2"/><rect class="c" x="146" y="34" rx="2" ry="2"/><rect class="c" x="146" y="50" rx="2" ry="2"/><rect class="c" x="146" y="66" rx="2" ry="2"/><rect class="c" x="146" y="82" rx="2" ry="2"/><rect class="c" x="146" y="98" rx="2" ry="2"/><rect class="c" x="162" y="2" rx="2" ry="2"/><rect class="c" x="162" y="18" rx="2" ry="2"/><rect class="c" x="162" y="34" rx="2" ry="2"/><rect class="c" x="162" y="50" rx="2" ry="2"/><rect class="c" x="162" y="66" rx="2" ry="2"/><rect class="c" x="162" y="82" rx="2" ry="2"/><rect class="c" x="162" y="98" rx="2" ry="2"/><rect class="c" x="178" y="2" rx="2" ry="2"/><rect class="c" x="178" y="18" rx="2" ry="2"/><rect class="c" x="178" y="34" rx="2" ry="2"/><rect class="c" x="178" y="50" rx="2" ry="2"/><rect class="c" x="178" y="66" rx="2" ry="2"/><rect class="c" x="178" y="82" rx="2" ry="2"/><rect class="c" x="178" y="98" rx="2" ry="2"/><rect class="c" x="194" y="2" rx="2" ry="2"/><rect class="c" x="194" y="18" rx="2" ry="2"/><rect class="c" x="194" y="34" rx="2" ry="2"/><rect class="c" x="194" y="50" rx="2" ry="2"/><rect class="c" x="194" y="66" rx="2" ry="2"/><rect class="c" x="194" y="82" rx="2" ry="2"/><rect class="c" x="194" y="98" rx="2" ry="2"/><rect class="c" x="210" y="2" rx="2" ry="2"/><rect class="c" x="210" y="18" rx="2" ry="2"/><rect class="c" x="210" y="34" rx="2" ry="2"/><rect class="c" x="210" y="50" rx="2" ry="2"/><rect class="c" x="210" y="66" rx="2" ry="2"/><rect class="c" x="210" y="82" rx="2" ry="2"/><rect class="c" x="210" y="98" rx="2" ry="2"/><rect class="c" x="226" y="2" rx="2" ry="2"/><rect class="c" x="226" y="18" rx="2" ry="2"/><rect class="c" x="226" y="34" rx="2" ry="2"/><rect class="c" x="226" y="50" rx="2" ry="2"/><rect class="c" x="226" y="66" rx="2" ry="2"/><rect class="c" x="226" y="82" rx="2" ry="2"/><rect class="c" x="226" y="98" rx="2" ry="2"/><rect class="c" x="242" y="2" rx="2" ry="2"/><rect class="c" x="242" y="18" rx="2" ry="2"/><rect class="c" x="242" y="34" rx="2" ry="2"/><rect class="c" x="242" y="50" rx="2" ry="2"/><rect class="c" x="242" y="66" rx="2" ry="2"/><rect class="c" x="242" y="82" rx="2" ry="2"/><rect class="c" x="242" y="98" rx="2" ry="2"/><rect class="c" x="258" y="2" rx="2" ry="2"/><rect class="c" x="258" y="18" rx="2" ry="2"/><rect class="c" x="258" y="34" rx="2" ry="2"/><rect class="c" x="258" y="50" rx="2" ry="2"/><rect class="c" x="258" y="66" rx="2" ry="2"/><rect class="c" x="258" y="82" rx="2" ry="2"/><rect class="c" x="258" y="98" rx="2" ry="2"/><rect class="c" x="274" y="2" rx="2" ry="2"/><rect class="c" x="274" y="18" rx="2" ry="2"/><rect class="c" x="274" y="34" rx="2" ry="2"/><rect class="c" x="274" y="50" rx="2" ry="2"/><rect class="c" x="274" y="66" rx="2" ry="2"/><rect class="c" x="274" y="82" rx="2" ry="2"/><rect class="c" x="274" y="98" rx="2" ry="2"/><rect class="c" x="290" y="2" rx="2" ry="2"/><rect class="c" x="290" y="18" rx="2" ry="2"/><rect class="c" x="290" y="34" rx="2" ry="2"/><rect class="c" x="290" y="50" rx="2" ry="2"/><rect class="c" x="290" y="66" rx="2" ry="2"/><rect class="c" x="290" y="82" rx="2" ry="2"/><rect class="c" x="290" y="98" rx="2" ry="2"/><rect class="c" x="306" y="2" rx="2" ry="2"/><rect class="c" x="306" y="18" rx="2" ry="2"/><rect class="c" x="306" y="34" rx="2" ry="2"/><rect class="c" x="306" y="50" rx="2" ry="2"/><rect class="c" x="306" y="66" rx="2" ry="2"/><rect class="c" x="306" y="82" rx="2" ry="2"/><rect class="c" x="306" y="98" rx="2" ry="2"/><rect class="c" x="322" y="2" rx="2" ry="2"/><rect class="c" x="322" y="18" rx="2" ry="2"/><rect class="c" x="322" y="34" rx="2" ry="2"/><rect class="c" x="322" y="50" rx="2" ry="2"/><rect class="c" x="322" y="66" rx="2" ry="2"/><rect class="c" x="322" y="82" rx="2" ry="2"/><rect class="c" x="322" y="98" rx="2" ry="2"/><rect class="c" x="338" y="2" rx="2" ry="2"/><rect class="c" x="338" y="18" rx="2" ry="2"/><rect class="c" x="338" y="34" rx="2" ry="2"/><rect class="c" x="338" y="50" rx="2" ry="2"/><rect class="c" x="338" y="66" rx="2" ry="2"/><rect class="c" x="338" y="82" rx="2" ry="2"/><rect class="c" x="338" y="98" rx="2" ry="2"/><rect class="c" x="354" y="2" rx="2" ry="2"/><rect class="c" x="354" y="18" rx="2" ry="2"/><rect class="c" x="354" y="34" rx="2" ry="2"/><rect class="c" x="354" y="50" rx="2" ry="2"/><rect class="c" x="354" y="66" rx="2" ry="2"/><rect class="c" x="354" y="82" rx="2" ry="2"/><rect class="c" x="354" y="98" rx="2" ry="2"/><rect class="c" x="370" y="2" rx="2" ry="2"/><rect class="c" x="370" y="18" rx="2" ry="2"/><rect class="c" x="370" y="34" rx="2" ry="2"/><rect class="c" x="370" y="50" rx="2" ry="2"/><rect class="c" x="370" y="66" rx="2" ry="2"/><rect class="c" x="370" y="82" rx="2" ry="2"/><rect class="c" x="370" y="98" rx="2" ry="2"/><rect class="c" x="386" y="2" rx="2" ry="2"/><rect class="c" x="386" y="18" rx="2" ry="2"/><rect class="c" x="386" y="34" rx="2" ry="2"/><rect class="c" x="386" y="50" rx="2" ry="2"/><rect class="c" x="386" y="66" rx="2" ry="2"/><rect class="c" x="386" y="82" rx="2" ry="2"/><rect class="c" x="386" y="98" rx="2" ry="2"/><rect class="c" x="402" y="2" rx="2" ry="2"/><rect class="c" x="402" y="18" rx="2" ry="2"/><rect class="c" x="402" y="34" rx="2" ry="2"/><rect class="c" x="402" y="50" rx="2" ry="2"/><rect class="c" x="402" y="66" rx="2" ry="2"/><rect class="c" x="402" y="82" rx="2" ry="2"/><rect class="c" x="402" y="98" rx="2" ry="2"/><rect class="c" x="418" y="2" rx="2" ry="2"/><rect class="c" x="418" y="18" rx="2" ry="2"/><rect class="c" x="418" y="34" rx="2" ry="2"/><rect class="c" x="418" y="50" rx="2" ry="2"/><rect class="c" x="418" y="66" rx="2" ry="2"/><rect class="c" x="418" y="82" rx="2" ry="2"/><rect class="c" x="418" y="98" rx="2" ry="2"/><rect class="c" x="434" y="2" rx="2" ry="2"/><rect class="c" x="434" y="18" rx="2" ry="2"/><rect class="c" x="434" y="34" rx="2" ry="2"/><rect class="c" x="434" y="50" rx="2" ry="2"/><rect class="c" x="434" y="66" rx="2" ry="2"/><rect class="c" x="434" y="82" rx="2" ry="2"/><rect class="c" x="434" y="98" rx="2" ry="2"/><rect class="c" x="450" y="2" rx="2" ry="2"/><rect class="c" x="450" y="18" rx="2" ry="2"/><rect class="c" x="450" y="34" rx="2" ry="2"/><rect class="c" x="450" y="50" rx="2" ry="2"/><rect class="c" x="450" y="66" rx="2" ry="2"/><rect class="c" x="450" y="82" rx="2" ry="2"/><rect class="c" x="450" y="98" rx="2" ry="2"/><rect class="c" x="466" y="2" rx="2" ry="2"/><rect class="c" x="466" y="18" rx="2" ry="2"/><rect class="c" x="466" y="34" rx="2" ry="2"/><rect class="c" x="466" y="50" rx="2" ry="2"/><rect class="c" x="466" y="66" rx="2" ry="2"/><rect class="c" x="466" y="82" rx="2" ry="2"/><rect class="c" x="466" y="98" rx="2" ry="2"/><rect class="c" x="482" y="2" rx="2" ry="2"/><rect class="c" x="482" y="18" rx="2" ry="2"/><rect class="c" x="482" y="34" rx="2" ry="2"/><rect class="c" x="482" y="50" rx="2" ry="2"/><rect class="c" x="482" y="66" rx="2" ry="2"/><rect class="c" x="482" y="82" rx="2" ry="2"/><rect class="c" x="482" y="98" rx="2" ry="2"/><rect class="c" x="498" y="2" rx="2" ry="2"/><rect class="c" x="498" y="18" rx="2" ry="2"/><rect class="c" x="498" y="34" rx="2" ry="2"/><rect class="c" x="498" y="50" rx="2" ry="2"/><rect class="c" x="498" y="66" rx="2" ry="2"/><rect class="c" x="498" y="82" rx="2" ry="2"/><rect class="c" x="498" y="98" rx="2" ry="2"/><rect class="c" x="514" y="2" rx="2" ry="2"/><rect class="c" x="514" y="18" rx="2" ry="2"/><rect class="c" x="514" y="34" rx="2" ry="2"/><rect class="c" x="514" y="50" rx="2" ry="2"/><rect class="c" x="514" y="66" rx="2" ry="2"/><rect class="c" x="514" y="82" rx="2" ry="2"/><rect class="c" x="514" y="98" rx="2" ry="2"/><rect class="c" x="530" y="2" rx="2" ry="2"/><rect class="c" x="530" y="18" rx="2" ry="2"/><rect class="c" x="530" y="34" rx="2" ry="2"/><rect class="c" x="530" y="50" rx="2" ry="2"/><rect class="c" x="530" y="66" rx="2" ry="2"/><rect class="c" x="530" y="82" rx="2" ry="2"/><rect class="c" x="530" y="98" rx="2" ry="2"/><rect class="c" x="546" y="2" rx="2" ry="2"/><rect class="c" x="546" y="18" rx="2" ry="2"/><rect class="c" x="546" y="34" rx="2" ry="2"/><rect class="c" x="546" y="50" rx="2" ry="2"/><rect class="c" x="546" y="66" rx="2" ry="2"/><rect class="c" x="546" y="82" rx="2" ry="2"/><rect class="c" x="546" y="98" rx="2" ry="2"/><rect class="c" x="562" y="2" rx="2" ry="2"/><rect class="c" x="562" y="18" rx="2" ry="2"/><rect class="c" x="562" y="34" rx="2" ry="2"/><rect class="c" x="562" y="50" rx="2" ry="2"/><rect class="c" x="562" y="66" rx="2" ry="2"/><rect class="c" x="562" y="82" rx="2" ry="2"/><rect class="c" x="562" y="98" rx="2" ry="2"/><rect class="c" x="578" y="2" rx="2" ry="2"/><rect class="c" x="578" y="18" rx="2" ry="2"/><rect class="c" x="578" y="34" rx="2" ry="2"/><rect class="c" x="578" y="50" rx="2" ry="2"/><rect class="c" x="578" y="66" rx="2" ry="2"/><rect class="c" x="578" y="82" rx="2" ry="2"/><rect class="c" x="578" y="98" rx="2" ry="2"/><rect class="c" x="594" y="2" rx="2" ry="2"/><rect class="c" x="594" y="18" rx="2" ry="2"/><rect class="c" x="594" y="34" rx="2" ry="2"/><rect class="c" x="594" y="50" rx="2" ry="2"/><rect class="c" x="594" y="66" rx="2" ry="2"/><rect class="c" x="594" y="82" rx="2" ry="2"/><rect class="c" x="594" y="98" rx="2" ry="2"/><rect class="c" x="610" y="2" rx="2" ry="2"/><rect class="c" x="610" y="18" rx="2" ry="2"/><rect class="c" x="610" y="34" rx="2" ry="2"/><rect class="c" x="610" y="50" rx="2" ry="2"/><rect class="c" x="610" y="66" rx="2" ry="2"/><rect class="c" x="610" y="82" rx="2" ry="2"/><rect class="c" x="610" y="98" rx="2" ry="2"/><rect class="c" x="626" y="2" rx="2" ry="2"/><rect class="c" x="626" y="18" rx="2" ry="2"/><rect class="c" x="626" y="34" rx="2" ry="2"/><rect class="c" x="626" y="50" rx="2" ry="2"/><rect class="c" x="626" y="66" rx="2" ry="2"/><rect class="c" x="626" y="82" rx="2" ry="2"/><rect class="c" x="626" y="98" rx="2" ry="2"/><rect class="c" x="642" y="2" rx="2" ry="2"/><rect class="c" x="642" y="18" rx="2" ry="2"/><rect class="c" x="642" y="34" rx="2" ry="2"/><rect class="c" x="642" y="50" rx="2" ry="2"/><rect class="c" x="642" y="66" rx="2" ry="2"/><rect class="c" x="642" y="82" rx="2" ry="2"/><rect class="c" x="642" y="98" rx="2" ry="2"/><rect class="c" x="658" y="2" rx="2" ry="2"/><rect class="c" x="658" y="18" rx="2" ry="2"/><rect class="c" x="658" y="34" rx="2" ry="2"/><rect class="c" x="658" y="50" rx="2" ry="2"/><rect class="c" x="658" y="66" rx="2" ry="2"/><rect class="c" x="658" y="82" rx="2" ry="2"/><rect class="c" x="658" y="98" rx="2" ry="2"/><rect class="c" x="674" y="2" rx="2" ry="2"/><rect class="c" x="674" y="18" rx="2" ry="2"/><rect class="c" x="674" y="34" rx="2" ry="2"/><rect class="c" x="674" y="50" rx="2" ry="2"/><rect class="c" x="674" y="66" rx="2" ry="2"/><rect class="c" x="674" y="82" rx="2" ry="2"/><rect class="c" x="674" y="98" rx="2" ry="2"/><rect class="c" x="690" y="2" rx="2" ry="2"/><rect class="c" x="690" y="18" rx="2" ry="2"/><rect class="c" x="690" y="34" rx="2" ry="2"/><rect class="c" x="690" y="50" rx="2" ry="2"/><rect class="c" x="690" y="66" rx="2" ry="2"/><rect class="c" x="690" y="82" rx="2" ry="2"/><rect class="c" x="690" y="98" rx="2" ry="2"/><rect class="c" x="706" y="2" rx="2" ry="2"/><rect class="c" x="706" y="18" rx="2" ry="2"/><rect class="c" x="706" y="34" rx="2" ry="2"/><rect class="c" x="706" y="50" rx="2" ry="2"/><rect class="c" x="706" y="66" rx="2" ry="2"/><rect class="c" x="706" y="82" rx="2" ry="2"/><rect class="c" x="706" y="98" rx="2" ry="2"/><rect class="c" x="722" y="2" rx="2" ry="2"/><rect class="c" x="722" y="18" rx="2" ry="2"/><rect class="c" x="722" y="34" rx="2" ry="2"/><rect class="c c0" x="722" y="50" rx="2" ry="2"/><rect class="c c1" x="722" y="66" rx="2" ry="2"/><rect class="c c2" x="722" y="82" rx="2" ry="2"/><rect class="c" x="722" y="98" rx="2" ry="2"/><rect class="c" x="738" y="2" rx="2" ry="2"/><rect class="c c3" x="738" y="18" rx="2" ry="2"/><rect class="c c4" x="738" y="34" rx="2" ry="2"/><rect class="c c5" x="738" y="50" rx="2" ry="2"/><rect class="c c6" x="738" y="66" rx="2" ry="2"/><rect class="c c7" x="738" y="82" rx="2" ry="2"/><rect class="c" x="738" y="98" rx="2" ry="2"/><rect class="c" x="754" y="2" rx="2" ry="2"/><rect class="c c8" x="754" y="18" rx="2" ry="2"/><rect class="c c9" x="754" y="34" rx="2" ry="2"/><rect class="c ca" x="754" y="50" rx="2" ry="2"/><rect class="c cb" x="754" y="66" rx="2" ry="2"/><rect class="c cc" x="754" y="82" rx="2" ry="2"/><rect class="c cd" x="754" y="98" rx="2" ry="2"/><rect class="c ce" x="770" y="2" rx="2" ry="2"/><rect class="c cf" x="770" y="18" rx="2" ry="2"/><rect class="c cg" x="770" y="34" rx="2" ry="2"/><rect class="c ch" x="770" y="50" rx="2" ry="2"/><rect class="c ci" x="770" y="66" rx="2" ry="2"/><rect class="c cj" x="770" y="82" rx="2" ry="2"/><rect class="c ck" x="770" y="98" rx="2" ry="2"/><rect class="c cl" x="786" y="2" rx="2" ry="2"/><rect class="c cm" x="786" y="18" rx="2" ry="2"/><rect class="c cn" x="786" y="34" rx="2" ry="2"/><rect class="c co" x="786" y="50" rx="2" ry="2"/><rect class="c cp" x="786" y="66" rx="2" ry="2"/><rect class="c cq" x="786" y="82" rx="2" ry="2"/><rect class="c cr" x="786" y="98" rx="2" ry="2"/><rect class="c cs" x="802" y="2" rx="2" ry="2"/><rect class="c ct" x="802" y="18" rx="2" ry="2"/><rect class="c cu" x="802" y="34" rx="2" ry="2"/><rect class="c cv" x="802" y="50" rx="2" ry="2"/><rect class="c cw" x="802" y="66" rx="2" ry="2"/><rect class="c cx" x="802" y="82" rx="2" ry="2"/><rect class="c cy" x="802" y="98" rx="2" ry="2"/><rect class="c cz" x="818" y="2" rx="2" ry="2"/><rect class="c c10" x="818" y="18" rx="2" ry="2"/><rect class="c c11" x="818" y="34" rx="2" ry="2"/><rect class="c c12" x="818" y="50" rx="2" ry="2"/><rect class="c c13" x="818" y="66" rx="2" ry="2"/><rect class="c c14" x="818" y="82" rx="2" ry="2"/><rect class="c c15" x="818" y="98" rx="2" ry="2"/><rect class="c" x="834" y="2" rx="2" ry="2"/><rect class="u u0" height="12" width="343.8" x="0.0" y="144"/><rect class="u u1" height="12" width="20.8" x="343.2" y="144"/><rect class="u u2" height="12" width="20.8" x="363.4" y="144"/><rect class="u u3" height="12" width="202.5" x="383.6" y="144"/><rect class="u u4" height="12" width="141.9" x="585.5" y="144"/><rect class="u u5" height="12" width="121.7" x="726.9" y="144"/><rect class="s s0" x="0.8" y="0.8" width="14.4" height="14.4" rx="4.5" ry="4.5"/><rect class="s s1" x="1.8" y="1.8" width="12.3" height="12.3" rx="4.1" ry="4.1"/><rect class="s s2" x="2.6" y="2.6" width="10.8" height="10.8" rx="3.6" ry="3.6"/><rect class="s s3" x="3.0" y="3.0" width="9.9" height="9.9" rx="3.3" ry="3.3"/></svg>