<svg viewBox="-16 -32 880 192" width="880" height="192" xmlns="http://www.w3.org/2000/svg"><desc>Generated with https://github.com/Platane/snk</desc><style>:root{--cb:#1b1f230a;--cs:blue;--ce:#161b22;--c0:#161b22;--c1:#01311f;--c2:#034525;--c3:#0f6d31;--c4:#00c647}.c{shape-rendering:geometricPrecision;fill:var(--ce);stroke-width:1px;stroke:var(--cb);animation:none 25500ms linear infinite;width:12px;height:12px}@keyframes c0{31.36%{fill:var(--c1)}31.38%,100%{fill:var(--ce)}}.c.c0{fill:var(--c1);animation-name:c0}@keyframes c1{30.97%{fill:var(--c1)}30.99%,100%{fill:var(--ce)}}.c.c1{fill:var(--c1);animation-name:c1}@keyframes c2{30.58%{fill:var(--c1)}30.6%,100%{fill:var(--ce)}}.c.c2{fill:var(--c1);animation-name:c2}@keyframes c3{17.64%{fill:var(--c1)}17.66%,100%{fill:var(--ce)}}.c.c3{fill:var(--c1);animation-name:c3}@keyframes c4{54.89%{fill:var(--c2)}54.91%,100%{fill:var(--ce)}}.c.c4{fill:var(--c2);animation-name:c4}@keyframes c5{56.85%{fill:var(--c3)}56.87%,100%{fill:var(--ce)}}.c.c5{fill:var(--c3);animation-name:c5}@keyframes c6{56.46%{fill:var(--c2)}56.48%,100%{fill:var(--ce)}}.c.c6{fill:var(--c2);animation-name:c6}@keyframes c7{70.97%{fill:var(--c3)}70.99%,100%{fill:var(--ce)}}.c.c7{fill:var(--c3);animation-name:c7}@keyframes c8{18.03%{fill:var(--c1)}18.05%,100%{fill:var(--ce)}}.c.c8{fill:var(--c1);animation-name:c8}@keyframes c9{54.5%{fill:var(--c2)}54.52%,100%{fill:var(--ce)}}.c.c9{fill:var(--c2);animation-name:c9}@keyframes ca{72.15%{fill:var(--c3)}72.17%,100%{fill:var(--ce)}}.c.ca{fill:var(--c3);animation-name:ca}@keyframes cb{80.38%{fill:var(--c4)}80.4%,100%{fill:var(--ce)}}.c.cb{fill:var(--c4);animation-name:cb}@keyframes cc{59.6%{fill:var(--c2)}59.62%,100%{fill:var(--ce)}}.c.cc{fill:var(--c2);animation-name:cc}@keyframes cd{29.4%{fill:var(--c1)}29.42%,100%{fill:var(--ce)}}.c.cd{fill:var(--c1);animation-name:cd}@keyframes ce{18.81%{fill:var(--c1)}18.83%,100%{fill:var(--ce)}}.c.ce{fill:var(--c1);animation-name:ce}@keyframes cf{53.72%{fill:var(--c2)}53.74%,100%{fill:var(--ce)}}.c.cf{fill:var(--c2);animation-name:cf}@keyframes cg{72.93%{fill:var(--c3)}72.95%,100%{fill:var(--ce)}}.c.cg{fill:var(--c3);animation-name:cg}@keyframes ch{49.79%{fill:var(--c2)}49.81%,100%{fill:var(--ce)}}.c.ch{fill:var(--c2);animation-name:ch}@keyframes ci{49.4%{fill:var(--c2)}49.42%,100%{fill:var(--ce)}}.c.ci{fill:var(--c2);animation-name:ci}@keyframes cj{59.99%{fill:var(--c3)}60.01%,100%{fill:var(--ce)}}.c.cj{fill:var(--c3);animation-name:cj}@keyframes ck{29.01%{fill:var(--c1)}29.03%,100%{fill:var(--ce)}}.c.ck{fill:var(--c1);animation-name:ck}@keyframes cl{19.21%{fill:var(--c1)}19.23%,100%{fill:var(--ce)}}.c.cl{fill:var(--c1);animation-name:cl}@keyframes cm{36.85%{fill:var(--c1)}36.87%,100%{fill:var(--ce)}}.c.cm{fill:var(--c1);animation-name:cm}@keyframes cn{36.46%{fill:var(--c2)}36.48%,100%{fill:var(--ce)}}.c.cn{fill:var(--c2);animation-name:cn}@keyframes co{36.07%{fill:var(--c1)}36.09%,100%{fill:var(--ce)}}.c.co{fill:var(--c1);animation-name:co}@keyframes cp{35.68%{fill:var(--c1)}35.7%,100%{fill:var(--ce)}}.c.cp{fill:var(--c1);animation-name:cp}@keyframes cq{35.28%{fill:var(--c1)}35.3%,100%{fill:var(--ce)}}.c.cq{fill:var(--c1);animation-name:cq}@keyframes cr{28.62%{fill:var(--c1)}28.64%,100%{fill:var(--ce)}}.c.cr{fill:var(--c1);animation-name:cr}@keyframes cs{19.6%{fill:var(--c1)}19.62%,100%{fill:var(--ce)}}.c.cs{fill:var(--c1);animation-name:cs}@keyframes ct{51.36%{fill:var(--c2)}51.38%,100%{fill:var(--ce)}}.c.ct{fill:var(--c2);animation-name:ct}@keyframes cu{73.72%{fill:var(--c4)}73.74%,100%{fill:var(--ce)}}.c.cu{fill:var(--c4);animation-name:cu}@keyframes cv{47.44%{fill:var(--c2)}47.46%,100%{fill:var(--ce)}}.c.cv{fill:var(--c2);animation-name:cv}@keyframes cw{43.13%{fill:var(--c2)}43.15%,100%{fill:var(--ce)}}.c.cw{fill:var(--c2);animation-name:cw}@keyframes cx{46.66%{fill:var(--c2)}46.68%,100%{fill:var(--ce)}}.c.cx{fill:var(--c2);animation-name:cx}@keyframes cy{28.23%{fill:var(--c1)}28.25%,100%{fill:var(--ce)}}.c.cy{fill:var(--c1);animation-name:cy}@keyframes cz{19.99%{fill:var(--c1)}20.01%,100%{fill:var(--ce)}}.c.cz{fill:var(--c1);animation-name:cz}@keyframes c10{51.75%{fill:var(--c2)}51.77%,100%{fill:var(--ce)}}.c.c10{fill:var(--c2);animation-name:c10}@keyframes c11{67.05%{fill:var(--c3)}67.07%,100%{fill:var(--ce)}}.c.c11{fill:var(--c3);animation-name:c11}@keyframes c12{47.83%{fill:var(--c2)}47.85%,100%{fill:var(--ce)}}.c.c12{fill:var(--c2);animation-name:c12}@keyframes c13{43.52%{fill:var(--c1)}43.54%,100%{fill:var(--ce)}}.c.c13{fill:var(--c1);animation-name:c13}@keyframes c14{43.91%{fill:var(--c2)}43.93%,100%{fill:var(--ce)}}.c.c14{fill:var(--c2);animation-name:c14}@keyframes c15{27.83%{fill:var(--c1)}27.85%,100%{fill:var(--ce)}}.c.c15{fill:var(--c1);animation-name:c15}@keyframes c16{20.38%{fill:var(--c1)}20.4%,100%{fill:var(--ce)}}.c.c16{fill:var(--c1);animation-name:c16}@keyframes c17{39.6%{fill:var(--c2)}39.62%,100%{fill:var(--ce)}}.c.c17{fill:var(--c2);animation-name:c17}@keyframes c18{66.66%{fill:var(--c3)}66.68%,100%{fill:var(--ce)}}.c.c18{fill:var(--c3);animation-name:c18}@keyframes c19{74.89%{fill:var(--c4)}74.91%,100%{fill:var(--ce)}}.c.c19{fill:var(--c4);animation-name:c19}@keyframes c1a{68.23%{fill:var(--c3)}68.25%,100%{fill:var(--ce)}}.c.c1a{fill:var(--c3);animation-name:c1a}@keyframes c1b{44.3%{fill:var(--c2)}44.32%,100%{fill:var(--ce)}}.c.c1b{fill:var(--c2);animation-name:c1b}@keyframes c1c{27.44%{fill:var(--c1)}27.46%,100%{fill:var(--ce)}}.c.c1c{fill:var(--c1);animation-name:c1c}@keyframes c1d{20.77%{fill:var(--c1)}20.79%,100%{fill:var(--ce)}}.c.c1d{fill:var(--c1);animation-name:c1d}@keyframes c1e{39.21%{fill:var(--c1)}39.23%,100%{fill:var(--ce)}}.c.c1e{fill:var(--c1);animation-name:c1e}@keyframes c1f{63.13%{fill:var(--c3)}63.15%,100%{fill:var(--ce)}}.c.c1f{fill:var(--c3);animation-name:c1f}@keyframes c1g{62.74%{fill:var(--c2)}62.76%,100%{fill:var(--ce)}}.c.c1g{fill:var(--c2);animation-name:c1g}@keyframes c1h{24.7%{fill:var(--c1)}24.72%,100%{fill:var(--ce)}}.c.c1h{fill:var(--c1);animation-name:c1h}@keyframes c1i{25.09%{fill:var(--c1)}25.11%,100%{fill:var(--ce)}}.c.c1i{fill:var(--c1);animation-name:c1i}@keyframes c1j{45.09%{fill:var(--c2)}45.11%,100%{fill:var(--ce)}}.c.c1j{fill:var(--c2);animation-name:c1j}@keyframes c1k{65.09%{fill:var(--c3)}65.11%,100%{fill:var(--ce)}}.c.c1k{fill:var(--c3);animation-name:c1k}@keyframes c1l{76.46%{fill:var(--c4)}76.48%,100%{fill:var(--ce)}}.c.c1l{fill:var(--c4);animation-name:c1l}@keyframes c1m{63.52%{fill:var(--c2)}63.54%,100%{fill:var(--ce)}}.c.c1m{fill:var(--c2);animation-name:c1m}@keyframes c1n{75.68%{fill:var(--c4)}75.7%,100%{fill:var(--ce)}}.c.c1n{fill:var(--c4);animation-name:c1n}@keyframes c1o{24.3%{fill:var(--c1)}24.32%,100%{fill:var(--ce)}}.c.c1o{fill:var(--c1);animation-name:c1o}@keyframes c1p{25.48%{fill:var(--c1)}25.5%,100%{fill:var(--ce)}}.c.c1p{fill:var(--c1);animation-name:c1p}@keyframes c1q{25.87%{fill:var(--c1)}25.89%,100%{fill:var(--ce)}}.c.c1q{fill:var(--c1);animation-name:c1q}@keyframes c1r{22.34%{fill:var(--c1)}22.36%,100%{fill:var(--ce)}}.c.c1r{fill:var(--c1);animation-name:c1r}@keyframes c1s{22.74%{fill:var(--c1)}22.76%,100%{fill:var(--ce)}}.c.c1s{fill:var(--c1);animation-name:c1s}.u{transform-origin:0 0;transform:scale(0,1);animation:none linear 25500ms infinite}@keyframes u0{17.64%{transform:scale(0.000,1)}17.66%,18.03%{transform:scale(0.037,1)}18.05%,18.81%{transform:scale(0.074,1)}18.83%,19.21%{transform:scale(0.111,1)}19.23%,19.6%{transform:scale(0.148,1)}19.62%,19.99%{transform:scale(0.185,1)}20.01%,20.38%{transform:scale(0.222,1)}20.4%,20.77%{transform:scale(0.259,1)}20.79%,22.34%{transform:scale(0.296,1)}22.36%,22.74%{transform:scale(0.333,1)}22.76%,24.3%{transform:scale(0.370,1)}24.32%,24.7%{transform:scale(0.407,1)}24.72%,25.09%{transform:scale(0.444,1)}25.11%,25.48%{transform:scale(0.481,1)}25.5%,25.87%{transform:scale(0.519,1)}25.89%,27.44%{transform:scale(0.556,1)}27.46%,27.83%{transform:scale(0.593,1)}27.85%,28.23%{transform:scale(0.630,1)}28.25%,28.62%{transform:scale(0.667,1)}28.64%,29.01%{transform:scale(0.704,1)}29.03%,29.4%{transform:scale(0.741,1)}29.42%,30.58%{transform:scale(0.778,1)}30.6%,30.97%{transform:scale(0.815,1)}30.99%,31.36%{transform:scale(0.852,1)}31.38%,35.28%{transform:scale(0.889,1)}35.3%,35.68%{transform:scale(0.926,1)}35.7%,36.07%{transform:scale(0.963,1)}36.09%,100%{transform:scale(1.000,1)}}.u.u0{fill:var(--c1);animation-name:u0;transform-origin:0.0px 0}@keyframes u1{36.46%{transform:scale(0.000,1)}36.48%,100%{transform:scale(1.000,1)}}.u.u1{fill:var(--c2);animation-name:u1;transform-origin:352.2px 0}@keyframes u2{36.85%{transform:scale(0.000,1)}36.87%,39.21%{transform:scale(0.500,1)}39.23%,100%{transform:scale(1.000,1)}}.u.u2{fill:var(--c1);animation-name:u2;transform-origin:365.3px 0}@keyframes u3{39.6%{transform:scale(0.000,1)}39.62%,43.13%{transform:scale(0.500,1)}43.15%,100%{transform:scale(1.000,1)}}.u.u3{fill:var(--c2);animation-name:u3;transform-origin:391.4px 0}@keyframes u4{43.52%{transform:scale(0.000,1)}43.54%,100%{transform:scale(1.000,1)}}.u.u4{fill:var(--c1);animation-name:u4;transform-origin:417.5px 0}@keyframes u5{43.91%{transform:scale(0.000,1)}43.93%,44.3%{transform:scale(0.071,1)}44.32%,45.09%{transform:scale(0.143,1)}45.11%,46.66%{transform:scale(0.214,1)}46.68%,47.44%{transform:scale(0.286,1)}47.46%,47.83%{transform:scale(0.357,1)}47.85%,49.4%{transform:scale(0.429,1)}49.42%,49.79%{transform:scale(0.500,1)}49.81%,51.36%{transform:scale(0.571,1)}51.38%,51.75%{transform:scale(0.643,1)}51.77%,53.72%{transform:scale(0.714,1)}53.74%,54.5%{transform:scale(0.786,1)}54.52%,54.89%{transform:scale(0.857,1)}54.91%,56.46%{transform:scale(0.929,1)}56.48%,100%{transform:scale(1.000,1)}}.u.u5{fill:var(--c2);animation-name:u5;transform-origin:430.5px 0}@keyframes u6{56.85%{transform:scale(0.000,1)}56.87%,100%{transform:scale(1.000,1)}}.u.u6{fill:var(--c3);animation-name:u6;transform-origin:613.2px 0}@keyframes u7{59.6%{transform:scale(0.000,1)}59.62%,100%{transform:scale(1.000,1)}}.u.u7{fill:var(--c2);animation-name:u7;transform-origin:626.2px 0}@keyframes u8{59.99%{transform:scale(0.000,1)}60.01%,100%{transform:scale(1.000,1)}}.u.u8{fill:var(--c3);animation-name:u8;transform-origin:639.3px 0}@keyframes u9{62.74%{transform:scale(0.000,1)}62.76%,100%{transform:scale(1.000,1)}}.u.u9{fill:var(--c2);animation-name:u9;transform-origin:652.3px 0}@keyframes ua{63.13%{transform:scale(0.000,1)}63.15%,100%{transform:scale(1.000,1)}}.u.ua{fill:var(--c3);animation-name:ua;transform-origin:665.4px 0}@keyframes ub{63.52%{transform:scale(0.000,1)}63.54%,100%{transform:scale(1.000,1)}}.u.ub{fill:var(--c2);animation-name:ub;transform-origin:678.4px 0}@keyframes uc{65.09%{transform:scale(0.000,1)}65.11%,66.66%{transform:scale(0.143,1)}66.68%,67.05%{transform:scale(0.286,1)}67.07%,68.23%{transform:scale(0.429,1)}68.25%,70.97%{transform:scale(0.571,1)}70.99%,72.15%{transform:scale(0.714,1)}72.17%,72.93%{transform:scale(0.857,1)}72.95%,100%{transform:scale(1.000,1)}}.u.uc{fill:var(--c3);animation-name:uc;transform-origin:691.4px 0}@keyframes ud{73.72%{transform:scale(0.000,1)}73.74%,74.89%{transform:scale(0.200,1)}74.91%,75.68%{transform:scale(0.400,1)}75.7%,76.46%{transform:scale(0.600,1)}76.48%,80.38%{transform:scale(0.800,1)}80.4%,100%{transform:scale(1.000,1)}}.u.ud{fill:var(--c4);animation-name:ud;transform-origin:782.8px 0}.s{shape-rendering:geometricPrecision;fill:var(--cs);animation:none linear 25500ms infinite}@keyframes s0{0%,99.61%{transform:translate(0px,-16px)}0.39%{transform:translate(0px,0px)}17.25%{transform:translate(688px,0px)}17.65%{transform:translate(688px,16px)}18.04%,54.12%,79.22%{transform:translate(704px,16px)}18.43%{transform:translate(704px,0px)}20.78%,38.82%{transform:translate(800px,0px)}21.18%{transform:translate(800px,-16px)}21.96%{transform:translate(832px,-16px)}23.92%{transform:translate(832px,64px)}24.71%{transform:translate(800px,64px)}25.1%,44.71%,61.96%{transform:translate(800px,80px)}25.49%{transform:translate(816px,80px)}26.27%{transform:translate(816px,112px)}27.06%{transform:translate(784px,112px)}27.45%,45.49%{transform:translate(784px,96px)}30.2%,58.43%{transform:translate(672px,96px)}31.37%,57.25%{transform:translate(672px,48px)}31.76%{transform:translate(656px,48px)}32.94%{transform:translate(656px,96px)}34.9%{transform:translate(736px,96px)}37.25%,41.18%{transform:translate(736px,0px)}39.22%{transform:translate(800px,16px)}39.61%{transform:translate(784px,16px)}40%,65.88%{transform:translate(784px,0px)}42.75%{transform:translate(736px,64px)}43.53%,48.24%,67.84%{transform:translate(768px,64px)}43.92%{transform:translate(768px,80px)}45.1%{transform:translate(800px,96px)}45.88%,68.63%{transform:translate(784px,80px)}46.67%{transform:translate(752px,80px)}47.45%{transform:translate(752px,48px)}47.84%{transform:translate(768px,48px)}49.41%{transform:translate(720px,64px)}49.8%,72.55%{transform:translate(720px,48px)}50.2%{transform:translate(736px,48px)}50.98%{transform:translate(736px,16px)}51.76%{transform:translate(768px,16px)}52.16%{transform:translate(768px,0px)}53.33%{transform:translate(720px,0px)}53.73%{transform:translate(720px,16px)}54.51%{transform:translate(704px,32px)}55.29%{transform:translate(672px,32px)}56.08%{transform:translate(672px,64px)}56.47%{transform:translate(688px,64px)}56.86%,71.76%{transform:translate(688px,48px)}59.22%{transform:translate(704px,96px)}59.61%{transform:translate(704px,80px)}63.14%{transform:translate(800px,32px)}63.92%{transform:translate(832px,32px)}64.71%{transform:translate(832px,0px)}66.67%,74.51%{transform:translate(784px,32px)}67.06%{transform:translate(768px,32px)}68.24%{transform:translate(784px,64px)}70.98%{transform:translate(688px,80px)}72.94%{transform:translate(720px,32px)}74.9%{transform:translate(784px,48px)}75.69%{transform:translate(816px,48px)}76.47%{transform:translate(816px,16px)}80.39%{transform:translate(704px,64px)}95.69%{transform:translate(80px,64px)}96.86%{transform:translate(80px,16px)}97.25%{transform:translate(64px,16px)}97.65%{transform:translate(64px,0px)}98.04%{transform:translate(48px,0px)}98.43%{transform:translate(48px,-16px)}}.s.s0{transform:translate(0px,-16px);animation-name:s0}@keyframes s1{0%,99.61%{transform:translate(16px,-16px)}0.39%{transform:translate(0px,-16px)}0.78%{transform:translate(0px,0px)}17.65%{transform:translate(688px,0px)}18.04%{transform:translate(688px,16px)}18.43%,54.51%,79.61%{transform:translate(704px,16px)}18.82%{transform:translate(704px,0px)}21.18%,39.22%{transform:translate(800px,0px)}21.57%{transform:translate(800px,-16px)}22.35%{transform:translate(832px,-16px)}24.31%{transform:translate(832px,64px)}25.1%{transform:translate(800px,64px)}25.49%,45.1%,62.35%{transform:translate(800px,80px)}25.88%{transform:translate(816px,80px)}26.67%{transform:translate(816px,112px)}27.45%{transform:translate(784px,112px)}27.84%,45.88%{transform:translate(784px,96px)}30.59%,58.82%{transform:translate(672px,96px)}31.76%,57.65%{transform:translate(672px,48px)}32.16%{transform:translate(656px,48px)}33.33%{transform:translate(656px,96px)}35.29%{transform:translate(736px,96px)}37.65%,41.57%{transform:translate(736px,0px)}39.61%{transform:translate(800px,16px)}40%{transform:translate(784px,16px)}40.39%,66.27%{transform:translate(784px,0px)}43.14%{transform:translate(736px,64px)}43.92%,48.63%,68.24%{transform:translate(768px,64px)}44.31%{transform:translate(768px,80px)}45.49%{transform:translate(800px,96px)}46.27%,69.02%{transform:translate(784px,80px)}47.06%{transform:translate(752px,80px)}47.84%{transform:translate(752px,48px)}48.24%{transform:translate(768px,48px)}49.8%{transform:translate(720px,64px)}50.2%,72.94%{transform:translate(720px,48px)}50.59%{transform:translate(736px,48px)}51.37%{transform:translate(736px,16px)}52.16%{transform:translate(768px,16px)}52.55%{transform:translate(768px,0px)}53.73%{transform:translate(720px,0px)}54.12%{transform:translate(720px,16px)}54.9%{transform:translate(704px,32px)}55.69%{transform:translate(672px,32px)}56.47%{transform:translate(672px,64px)}56.86%{transform:translate(688px,64px)}57.25%,72.16%{transform:translate(688px,48px)}59.61%{transform:translate(704px,96px)}60%{transform:translate(704px,80px)}63.53%{transform:translate(800px,32px)}64.31%{transform:translate(832px,32px)}65.1%{transform:translate(832px,0px)}67.06%,74.9%{transform:translate(784px,32px)}67.45%{transform:translate(768px,32px)}68.63%{transform:translate(784px,64px)}71.37%{transform:translate(688px,80px)}73.33%{transform:translate(720px,32px)}75.29%{transform:translate(784px,48px)}76.08%{transform:translate(816px,48px)}76.86%{transform:translate(816px,16px)}80.78%{transform:translate(704px,64px)}96.08%{transform:translate(80px,64px)}97.25%{transform:translate(80px,16px)}97.65%{transform:translate(64px,16px)}98.04%{transform:translate(64px,0px)}98.43%{transform:translate(48px,0px)}98.82%{transform:translate(48px,-16px)}}.s.s1{transform:translate(16px,-16px);animation-name:s1}@keyframes s2{0%,99.61%{transform:translate(32px,-16px)}0.78%{transform:translate(0px,-16px)}1.18%{transform:translate(0px,0px)}18.04%{transform:translate(688px,0px)}18.43%{transform:translate(688px,16px)}18.82%,54.9%,80%{transform:translate(704px,16px)}19.22%{transform:translate(704px,0px)}21.57%,39.61%{transform:translate(800px,0px)}21.96%{transform:translate(800px,-16px)}22.75%{transform:translate(832px,-16px)}24.71%{transform:translate(832px,64px)}25.49%{transform:translate(800px,64px)}25.88%,45.49%,62.75%{transform:translate(800px,80px)}26.27%{transform:translate(816px,80px)}27.06%{transform:translate(816px,112px)}27.84%{transform:translate(784px,112px)}28.24%,46.27%{transform:translate(784px,96px)}30.98%,59.22%{transform:translate(672px,96px)}32.16%,58.04%{transform:translate(672px,48px)}32.55%{transform:translate(656px,48px)}33.73%{transform:translate(656px,96px)}35.69%{transform:translate(736px,96px)}38.04%,41.96%{transform:translate(736px,0px)}40%{transform:translate(800px,16px)}40.39%{transform:translate(784px,16px)}40.78%,66.67%{transform:translate(784px,0px)}43.53%{transform:translate(736px,64px)}44.31%,49.02%,68.63%{transform:translate(768px,64px)}44.71%{transform:translate(768px,80px)}45.88%{transform:translate(800px,96px)}46.67%,69.41%{transform:translate(784px,80px)}47.45%{transform:translate(752px,80px)}48.24%{transform:translate(752px,48px)}48.63%{transform:translate(768px,48px)}50.2%{transform:translate(720px,64px)}50.59%,73.33%{transform:translate(720px,48px)}50.98%{transform:translate(736px,48px)}51.76%{transform:translate(736px,16px)}52.55%{transform:translate(768px,16px)}52.94%{transform:translate(768px,0px)}54.12%{transform:translate(720px,0px)}54.51%{transform:translate(720px,16px)}55.29%{transform:translate(704px,32px)}56.08%{transform:translate(672px,32px)}56.86%{transform:translate(672px,64px)}57.25%{transform:translate(688px,64px)}57.65%,72.55%{transform:translate(688px,48px)}60%{transform:translate(704px,96px)}60.39%{transform:translate(704px,80px)}63.92%{transform:translate(800px,32px)}64.71%{transform:translate(832px,32px)}65.49%{transform:translate(832px,0px)}67.45%,75.29%{transform:translate(784px,32px)}67.84%{transform:translate(768px,32px)}69.02%{transform:translate(784px,64px)}71.76%{transform:translate(688px,80px)}73.73%{transform:translate(720px,32px)}75.69%{transform:translate(784px,48px)}76.47%{transform:translate(816px,48px)}77.25%{transform:translate(816px,16px)}81.18%{transform:translate(704px,64px)}96.47%{transform:translate(80px,64px)}97.65%{transform:translate(80px,16px)}98.04%{transform:translate(64px,16px)}98.43%{transform:translate(64px,0px)}98.82%{transform:translate(48px,0px)}99.22%{transform:translate(48px,-16px)}}.s.s2{transform:translate(32px,-16px);animation-name:s2}@keyframes s3{0%,99.61%{transform:translate(48px,-16px)}1.18%{transform:translate(0px,-16px)}1.57%{transform:translate(0px,0px)}18.43%{transform:translate(688px,0px)}18.82%{transform:translate(688px,16px)}19.22%,55.29%,80.39%{transform:translate(704px,16px)}19.61%{transform:translate(704px,0px)}21.96%,40%{transform:translate(800px,0px)}22.35%{transform:translate(800px,-16px)}23.14%{transform:translate(832px,-16px)}25.1%{transform:translate(832px,64px)}25.88%{transform:translate(800px,64px)}26.27%,45.88%,63.14%{transform:translate(800px,80px)}26.67%{transform:translate(816px,80px)}27.45%{transform:translate(816px,112px)}28.24%{transform:translate(784px,112px)}28.63%,46.67%{transform:translate(784px,96px)}31.37%,59.61%{transform:translate(672px,96px)}32.55%,58.43%{transform:translate(672px,48px)}32.94%{transform:translate(656px,48px)}34.12%{transform:translate(656px,96px)}36.08%{transform:translate(736px,96px)}38.43%,42.35%{transform:translate(736px,0px)}40.39%{transform:translate(800px,16px)}40.78%{transform:translate(784px,16px)}41.18%,67.06%{transform:translate(784px,0px)}43.92%{transform:translate(736px,64px)}44.71%,49.41%,69.02%{transform:translate(768px,64px)}45.1%{transform:translate(768px,80px)}46.27%{transform:translate(800px,96px)}47.06%,69.8%{transform:translate(784px,80px)}47.84%{transform:translate(752px,80px)}48.63%{transform:translate(752px,48px)}49.02%{transform:translate(768px,48px)}50.59%{transform:translate(720px,64px)}50.98%,73.73%{transform:translate(720px,48px)}51.37%{transform:translate(736px,48px)}52.16%{transform:translate(736px,16px)}52.94%{transform:translate(768px,16px)}53.33%{transform:translate(768px,0px)}54.51%{transform:translate(720px,0px)}54.9%{transform:translate(720px,16px)}55.69%{transform:translate(704px,32px)}56.47%{transform:translate(672px,32px)}57.25%{transform:translate(672px,64px)}57.65%{transform:translate(688px,64px)}58.04%,72.94%{transform:translate(688px,48px)}60.39%{transform:translate(704px,96px)}60.78%{transform:translate(704px,80px)}64.31%{transform:translate(800px,32px)}65.1%{transform:translate(832px,32px)}65.88%{transform:translate(832px,0px)}67.84%,75.69%{transform:translate(784px,32px)}68.24%{transform:translate(768px,32px)}69.41%{transform:translate(784px,64px)}72.16%{transform:translate(688px,80px)}74.12%{transform:translate(720px,32px)}76.08%{transform:translate(784px,48px)}76.86%{transform:translate(816px,48px)}77.65%{transform:translate(816px,16px)}81.57%{transform:translate(704px,64px)}96.86%{transform:translate(80px,64px)}98.04%{transform:translate(80px,16px)}98.43%{transform:translate(64px,16px)}98.82%{transform:translate(64px,0px)}99.22%{transform:translate(48px,0px)}}.s.s3{transform:translate(48px,-16px);animation-name:s3}</style><rect class="c" x="2" y="2" rx="2" ry="2"/><rect class="c" x="2" y="18" rx="2" ry="2"/><rect class="c" x="2" y="34" rx="2" ry="2"/><rect class="c" x="2" y="50" rx="2" ry="2"/><rect class="c" x="2" y="66" rx="2" ry="2"/><rect class="c" x="2" y="82" rx="2" ry="2"/><rect class="c" x="2" y="98" rx="2" ry="2"/><rect class="c" x="18" y="2" rx="2" ry="2"/><rect class="c" x="18" y="18" rx="2" ry="2"/><rect class="c" x="18" y="34" rx="2" ry="2"/><rect class="c" x="18" y="50" rx="2" ry="2"/><rect class="c" x="18" y="66" rx="2" ry="2"/><rect class="c" x="18" y="82" rx="2" ry="2"/><rect class="c" x="18" y="98" rx="2" ry="2"/><rect class="c" x="34" y="2" rx="2" ry="2"/><rect class="c" x="34" y="18" rx="2" ry="2"/><rect class="c" x="34" y="34" rx="2" ry="2"/><rect class="c" x="34" y="50" rx="2" ry="2"/><rect class="c" x="34" y="66" rx="2" ry="2"/><rect class="c" x="34" y="82" rx="2" ry="2"/><rect class="c" x="34" y="98" rx="2" ry="2"/><rect class="c" x="50" y="2" rx="2" ry="2"/><rect class="c" x="50" y="18" rx="2" ry="2"/><rect class="c" x="50" y="34" rx="2" ry="2"/><rect class="c" x="50" y="50" rx="2" ry="2"/><rect class="c" x="50" y="66" rx="2" ry="2"/><rect class="c" x="50" y="82" rx="2" ry="2"/><rect class="c" x="50" y="98" rx="2" ry="2"/><rect class="c" x="66" y="2" rx="2" ry="2"/><rect class="c" x="66" y="18" rx="2" ry="2"/><rect class="c" x="66" y="34" rx="2" ry="2"/><rect class="c" x="66" y="50" rx="2" ry="2"/><rect class="c" x="66" y="66" rx="2" ry="2"/><rect class="c" x="66" y="82" rx="2" ry="2"/><rect class="c" x="66" y="98" rx="2" ry="2"/><rect class="c" x="82" y="2" rx="2" ry="2"/><rect class="c" x="82" y="18" rx="2" ry="2"/><rect class="c" x="82" y="34" rx="2" ry="2"/><rect class="c" x="82" y="50" rx="2" ry="2"/><rect class="c" x="82" y="66" rx="2" ry="2"/><rect class="c" x="82" y="82" rx="2" ry="2"/><rect class="c" x="82" y="98" rx="2" ry="2"/><rect class="c" x="98" y="2" rx="2" ry="2"/><rect class="c" x="98" y="18" rx="2" ry="2"/><rect class="c" x="98" y="34" rx="2" ry="2"/><rect class="c" x="98" y="50" rx="2" ry="2"/><rect class="c" x="98" y="66" rx="2" ry="2"/><rect class="c" x="98" y="82" rx="2" ry="2"/><rect class="c" x="98" y="98" rx="2" ry="2"/><rect class="c" x="114" y="2" rx="2" ry="2"/><rect class="c" x="114" y="18" rx="2" ry="2"/><rect class="c" x="114" y="34" rx="2" ry="2"/><rect class="c" x="114" y="50" rx="2" ry="2"/><rect class="c" x="114" y="66" rx="2" ry="2"/><rect class="c" x="114" y="82" rx="2" ry="2"/><rect class="c" x="114" y="98" rx="2" ry="2"/><rect class="c" x="130" y="2" rx="2" ry="2"/><rect class="c" x="130" y="18" rx="2" ry="2"/><rect class="c" x="130" y="34" rx="2" ry="2"/><rect class="c" x="130" y="50" rx="2" ry="2"/><rect class="c" x="130" y="66" rx="2" ry="2"/><rect class="c" x="130" y="82" rx="2" ry="2"/><rect class="c" x="130" y="98" rx="2" ry="2"/><rect class="c" x="146" y="2" rx="2" ry="2"/><rect class="c" x="146" y="18" rx="2" ry="2"/><rect class="c" x="146" y="34" rx="2" ry="2"/><rect class="c" x="146" y="50" rx="2" ry="2"/><rect class="c" x="146" y="66" rx="2" ry="2"/><rect class="c" x="146" y="82" rx="2" ry="2"/><rect class="c" x="146" y="98" rx="2" ry="2"/><rect class="c" x="162" y="2" rx="2" ry="2"/><rect class="c" x="162" y="18" rx="2" ry="2"/><rect class="c" x="162" y="34" rx="2" ry="2"/><rect class="c" x="162" y="50" rx="2" ry="2"/><rect class="c" x="162" y="66" rx="2" ry="2"/><rect class="c" x="162" y="82" rx="2" ry="2"/><rect class="c" x="162" y="98" rx="2" ry="2"/><rect class="c" x="178" y="2" rx="2" ry="2"/><rect class="c" x="178" y="18" rx="2" ry="2"/><rect class="c" x="178" y="34" rx="2" ry="2"/><rect class="c" x="178" y="50" rx="2" ry="2"/><rect class="c" x="178" y="66" rx="2" ry="2"/><rect class="c" x="178" y="82" rx="2" ry="2"/><rect class="c" x="178" y="98" rx="2" ry="2"/><rect class="c" x="194" y="2" rx="2" ry="2"/><rect class="c" x="194" y="18" rx="2" ry="2"/><rect class="c" x="194" y="34" rx="2" ry="2"/><rect class="c" x="194" y="50" rx="2" ry="2"/><rect class="c" x="194" y="66" rx="2" ry="2"/><rect class="c" x="194" y="82" rx="2" ry="2"/><rect class="c" x="194" y="98" rx="2" ry="2"/><rect class="c" x="210" y="2" rx="2" ry="2"/><rect class="c" x="210" y="18" rx="2" ry="2"/><rect class="c" x="210" y="34" rx="2" ry="2"/><rect class="c" x="210" y="50" rx="2" ry="2"/><rect class="c" x="210" y="66" rx="2" ry="2"/><rect class="c" x="210" y="82" rx="2" ry="2"/><rect class="c" x="210" y="98" rx="2" ry="2"/><rect class="c" x="226" y="2" rx="2" ry="2"/><rect class="c" x="226" y="18" rx="2" ry="2"/><rect class="c" x="226" y="34" rx="2" ry="2"/><rect class="c" x="226" y="50" rx="2" ry="2"/><rect class="c" x="226" y="66" rx="2" ry="2"/><rect class="c" x="226" y="82" rx="2" ry="2"/><rect class="c" x="226" y="98" rx="2" ry="2"/><rect class="c" x="242" y="2" rx="2" ry="2"/><rect class="c" x="242" y="18" rx="2" ry="2"/><rect class="c" x="242" y="34" rx="2" ry="2"/><rect class="c" x="242" y="50" rx="2" ry="2"/><rect class="c" x="242" y="66" rx="2" ry="2"/><rect class="c" x="242" y="82" rx="2" ry="2"/><rect class="c" x="242" y="98" rx="2" ry="2"/><rect class="c" x="258" y="2" rx="2" ry="2"/><rect class="c" x="258" y="18" rx="2" ry="2"/><rect class="c" x="258" y="34" rx="2" ry="2"/><rect class="c" x="258" y="50" rx="2" ry="2"/><rect class="c" x="258" y="66" rx="2" ry="2"/><rect class="c" x="258" y="82" rx="2" ry="2"/><rect class="c" x="258" y="98" rx="2" ry="2"/><rect class="c" x="274" y="2" rx="2" ry="2"/><rect class="c" x="274" y="18" rx="2" ry="2"/><rect class="c" x="274" y="34" rx="2" ry="2"/><rect class="c" x="274" y="50" rx="2" ry="2"/><rect class="c" x="274" y="66" rx="2" ry="2"/><rect class="c" x="274" y="82" rx="2" ry="2"/><rect class="c" x="274" y="98" rx="2" ry="2"/><rect class="c" x="290" y="2" rx="2" ry="2"/><rect class="c" x="290" y="18" rx="2" ry="2"/><rect class="c" x="290" y="34" rx="2" ry="2"/><rect class="c" x="290" y="50" rx="2" ry="2"/><rect class="c" x="290" y="66" rx="2" ry="2"/><rect class="c" x="290" y="82" rx="2" ry="2"/><rect class="c" x="290" y="98" rx="2" ry="2"/><rect class="c" x="306" y="2" rx="2" ry="2"/><rect class="c" x="306" y="18" rx="2" ry="2"/><rect class="c" x="306" y="34" rx="2" ry="2"/><rect class="c" x="306" y="50" rx="2" ry="2"/><rect class="c" x="306" y="66" rx="2" ry="2"/><rect class="c" x="306" y="82" rx="2" ry="2"/><rect class="c" x="306" y="98" rx="2" ry="2"/><rect class="c" x="322" y="2" rx="2" ry="2"/><rect class="c" x="322" y="18" rx="2" ry="2"/><rect class="c" x="322" y="34" rx="2" ry="2"/><rect class="c" x="322" y="50" rx="2" ry="2"/><rect class="c" x="322" y="66" rx="2" ry="2"/><rect class="c" x="322" y="82" rx="2" ry="2"/><rect class="c" x="322" y="98" rx="2" ry="2"/><rect class="c" x="338" y="2" rx="2" ry="2"/><rect class="c" x="338" y="18" rx="2" ry="2"/><rect class="c" x="338" y="34" rx="2" ry="2"/><rect class="c" x="338" y="50" rx="2" ry="2"/><rect class="c" x="338" y="66" rx="2" ry="2"/><rect class="c" x="338" y="82" rx="2" ry="2"/><rect class="c" x="338" y="98" rx="2" ry="2"/><rect class="c" x="354" y="2" rx="2" ry="2"/><rect class="c" x="354" y="18" rx="2" ry="2"/><rect class="c" x="354" y="34" rx="2" ry="2"/><rect class="c" x="354" y="50" rx="2" ry="2"/><rect class="c" x="354" y="66" rx="2" ry="2"/><rect class="c" x="354" y="82" rx="2" ry="2"/><rect class="c" x="354" y="98" rx="2" ry="2"/><rect class="c" x="370" y="2" rx="2" ry="2"/><rect class="c" x="370" y="18" rx="2" ry="2"/><rect class="c" x="370" y="34" rx="2" ry="2"/><rect class="c" x="370" y="50" rx="2" ry="2"/><rect class="c" x="370" y="66" rx="2" ry="2"/><rect class="c" x="370" y="82" rx="2" ry="2"/><rect class="c" x="370" y="98" rx="2" ry="2"/><rect class="c" x="386" y="2" rx="2" ry="2"/><rect class="c" x="386" y="18" rx="2" ry="2"/><rect class="c" x="386" y="34" rx="2" ry="2"/><rect class="c" x="386" y="50" rx="2" ry="2"/><rect class="c" x="386" y="66" rx="2" ry="2"/><rect class="c" x="386" y="82" rx="2" ry="2"/><rect class="c" x="386" y="98" rx="2" ry="2"/><rect class="c" x="402" y="2" rx="2" ry="2"/><rect class="c" x="402" y="18" rx="2" ry="2"/><rect class="c" x="402" y="34" rx="2" ry="2"/><rect class="c" x="402" y="50" rx="2" ry="2"/><rect class="c" x="402" y="66" rx="2" ry="2"/><rect class="c" x="402" y="82" rx="2" ry="2"/><rect class="c" x="402" y="98" rx="2" ry="2"/><rect class="c" x="418" y="2" rx="2" ry="2"/><rect class="c" x="418" y="18" rx="2" ry="2"/><rect class="c" x="418" y="34" rx="2" ry="2"/><rect class="c" x="418" y="50" rx="2" ry="2"/><rect class="c" x="418" y="66" rx="2" ry="2"/><rect class="c" x="418" y="82" rx="2" ry="2"/><rect class="c" x="418" y="98" rx="2" ry="2"/><rect class="c" x="434" y="2" rx="2" ry="2"/><rect class="c" x="434" y="18" rx="2" ry="2"/><rect class="c" x="434" y="34" rx="2" ry="2"/><rect class="c" x="434" y="50" rx="2" ry="2"/><rect class="c" x="434" y="66" rx="2" ry="2"/><rect class="c" x="434" y="82" rx="2" ry="2"/><rect class="c" x="434" y="98" rx="2" ry="2"/><rect class="c" x="450" y="2" rx="2" ry="2"/><rect class="c" x="450" y="18" rx="2" ry="2"/><rect class="c" x="450" y="34" rx="2" ry="2"/><rect class="c" x="450" y="50" rx="2" ry="2"/><rect class="c" x="450" y="66" rx="2" ry="2"/><rect class="c" x="450" y="82" rx="2" ry="2"/><rect class="c" x="450" y="98" rx="2" ry="2"/><rect class="c" x="466" y="2" rx="2" ry="2"/><rect class="c" x="466" y="18" rx="2" ry="2"/><rect class="c" x="466" y="34" rx="2" ry="2"/><rect class="c" x="466" y="50" rx="2" ry="2"/><rect class="c" x="466" y="66" rx="2" ry="2"/><rect class="c" x="466" y="82" rx="2" ry="2"/><rect class="c" x="466" y="98" rx="2" ry="2"/><rect class="c" x="482" y="2" rx="2" ry="2"/><rect class="c" x="482" y="18" rx="2" ry="2"/><rect class="c" x="482" y="34" rx="2" ry="2"/><rect class="c" x="482" y="50" rx="2" ry="2"/><rect class="c" x="482" y="66" rx="2" ry="2"/><rect class="c" x="482" y="82" rx="2" ry="2"/><rect class="c" x="482" y="98" rx="2" ry="2"/><rect class="c" x="498" y="2" rx="2" ry="2"/><rect class="c" x="498" y="18" rx="2" ry="2"/><rect class="c" x="498" y="34" rx="2" ry="2"/><rect class="c" x="498" y="50" rx="2" ry="2"/><rect class="c" x="498" y="66" rx="2" ry="2"/><rect class="c" x="498" y="82" rx="2" ry="2"/><rect class="c" x="498" y="98" rx="2" ry="2"/><rect class="c" x="514" y="2" rx="2" ry="2"/><rect class="c" x="514" y="18" rx="2" ry="2"/><rect class="c" x="514" y="34" rx="2" ry="2"/><rect class="c" x="514" y="50" rx="2" ry="2"/><rect class="c" x="514" y="66" rx="2" ry="2"/><rect class="c" x="514" y="82" rx="2" ry="2"/><rect class="c" x="514" y="98" rx="2" ry="2"/><rect class="c" x="530" y="2" rx="2" ry="2"/><rect class="c" x="530" y="18" rx="2" ry="2"/><rect class="c" x="530" y="34" rx="2" ry="2"/><rect class="c" x="530" y="50" rx="2" ry="2"/><rect class="c" x="530" y="66" rx="2" ry="2"/><rect class="c" x="530" y="82" rx="2" ry="2"/><rect class="c" x="530" y="98" rx="2" ry="2"/><rect class="c" x="546" y="2" rx="2" ry="2"/><rect class="c" x="546" y="18" rx="2" ry="2"/><rect class="c" x="546" y="34" rx="2" ry="2"/><rect class="c" x="546" y="50" rx="2" ry="2"/><rect class="c" x="546" y="66" rx="2" ry="2"/><rect class="c" x="546" y="82" rx="2" ry="2"/><rect class="c" x="546" y="98" rx="2" ry="2"/><rect class="c" x="562" y="2" rx="2" ry="2"/><rect class="c" x="562" y="18" rx="2" ry="2"/><rect class="c" x="562" y="34" rx="2" ry="2"/><rect class="c" x="562" y="50" rx="2" ry="2"/><rect class="c" x="562" y="66" rx="2" ry="2"/><rect class="c" x="562" y="82" rx="2" ry="2"/><rect class="c" x="562" y="98" rx="2" ry="2"/><rect class="c" x="578" y="2" rx="2" ry="2"/><rect class="c" x="578" y="18" rx="2" ry="2"/><rect class="c" x="578" y="34" rx="2" ry="2"/><rect class="c" x="578" y="50" rx="2" ry="2"/><rect class="c" x="578" y="66" rx="2" ry="2"/><rect class="c" x="578" y="82" rx="2" ry="2"/><rect class="c" x="578" y="98" rx="2" ry="2"/><rect class="c" x="594" y="2" rx="2" ry="2"/><rect class="c" x="594" y="18" rx="2" ry="2"/><rect class="c" x="594" y="34" rx="2" ry="2"/><rect class="c" x="594" y="50" rx="2" ry="2"/><rect class="c" x="594" y="66" rx="2" ry="2"/><rect class="c" x="594" y="82" rx="2" ry="2"/><rect class="c" x="594" y="98" rx="2" ry="2"/><rect class="c" x="610" y="2" rx="2" ry="2"/><rect class="c" x="610" y="18" rx="2" ry="2"/><rect class="c" x="610" y="34" rx="2" ry="2"/><rect class="c" x="610" y="50" rx="2" ry="2"/><rect class="c" x="610" y="66" rx="2" ry="2"/><rect class="c" x="610" y="82" rx="2" ry="2"/><rect class="c" x="610" y="98" rx="2" ry="2"/><rect class="c" x="626" y="2" rx="2" ry="2"/><rect class="c" x="626" y="18" rx="2" ry="2"/><rect class="c" x="626" y="34" rx="2" ry="2"/><rect class="c" x="626" y="50" rx="2" ry="2"/><rect class="c" x="626" y="66" rx="2" ry="2"/><rect class="c" x="626" y="82" rx="2" ry="2"/><rect class="c" x="626" y="98" rx="2" ry="2"/><rect class="c" x="642" y="2" rx="2" ry="2"/><rect class="c" x="642" y="18" rx="2" ry="2"/><rect class="c" x="642" y="34" rx="2" ry="2"/><rect class="c" x="642" y="50" rx="2" ry="2"/><rect class="c" x="642" y="66" rx="2" ry="2"/><rect class="c" x="642" y="82" rx="2" ry="2"/><rect class="c" x="642" y="98" rx="2" ry="2"/><rect class="c" x="658" y="2" rx="2" ry="2"/><rect class="c" x="658" y="18" rx="2" ry="2"/><rect class="c" x="658" y="34" rx="2" ry="2"/><rect class="c" x="658" y="50" rx="2" ry="2"/><rect class="c" x="658" y="66" rx="2" ry="2"/><rect class="c" x="658" y="82" rx="2" ry="2"/><rect class="c" x="658" y="98" rx="2" ry="2"/><rect class="c" x="674" y="2" rx="2" ry="2"/><rect class="c" x="674" y="18" rx="2" ry="2"/><rect class="c" x="674" y="34" rx="2" ry="2"/><rect class="c c0" x="674" y="50" rx="2" ry="2"/><rect class="c c1" x="674" y="66" rx="2" ry="2"/><rect class="c c2" x="674" y="82" rx="2" ry="2"/><rect class="c" x="674" y="98" rx="2" ry="2"/><rect class="c" x="690" y="2" rx="2" ry="2"/><rect class="c c3" x="690" y="18" rx="2" ry="2"/><rect class="c c4" x="690" y="34" rx="2" ry="2"/><rect class="c c5" x="690" y="50" rx="2" ry="2"/><rect class="c c6" x="690" y="66" rx="2" ry="2"/><rect class="c c7" x="690" y="82" rx="2" ry="2"/><rect class="c" x="690" y="98" rx="2" ry="2"/><rect class="c" x="706" y="2" rx="2" ry="2"/><rect class="c c8" x="706" y="18" rx="2" ry="2"/><rect class="c c9" x="706" y="34" rx="2" ry="2"/><rect class="c ca" x="706" y="50" rx="2" ry="2"/><rect class="c cb" x="706" y="66" rx="2" ry="2"/><rect class="c cc" x="706" y="82" rx="2" ry="2"/><rect class="c cd" x="706" y="98" rx="2" ry="2"/><rect class="c ce" x="722" y="2" rx="2" ry="2"/><rect class="c cf" x="722" y="18" rx="2" ry="2"/><rect class="c cg" x="722" y="34" rx="2" ry="2"/><rect class="c ch" x="722" y="50" rx="2" ry="2"/><rect class="c ci" x="722" y="66" rx="2" ry="2"/><rect class="c cj" x="722" y="82" rx="2" ry="2"/><rect class="c ck" x="722" y="98" rx="2" ry="2"/><rect class="c cl" x="738" y="2" rx="2" ry="2"/><rect class="c cm" x="738" y="18" rx="2" ry="2"/><rect class="c cn" x="738" y="34" rx="2" ry="2"/><rect class="c co" x="738" y="50" rx="2" ry="2"/><rect class="c cp" x="738" y="66" rx="2" ry="2"/><rect class="c cq" x="738" y="82" rx="2" ry="2"/><rect class="c cr" x="738" y="98" rx="2" ry="2"/><rect class="c cs" x="754" y="2" rx="2" ry="2"/><rect class="c ct" x="754" y="18" rx="2" ry="2"/><rect class="c cu" x="754" y="34" rx="2" ry="2"/><rect class="c cv" x="754" y="50" rx="2" ry="2"/><rect class="c cw" x="754" y="66" rx="2" ry="2"/><rect class="c cx" x="754" y="82" rx="2" ry="2"/><rect class="c cy" x="754" y="98" rx="2" ry="2"/><rect class="c cz" x="770" y="2" rx="2" ry="2"/><rect class="c c10" x="770" y="18" rx="2" ry="2"/><rect class="c c11" x="770" y="34" rx="2" ry="2"/><rect class="c c12" x="770" y="50" rx="2" ry="2"/><rect class="c c13" x="770" y="66" rx="2" ry="2"/><rect class="c c14" x="770" y="82" rx="2" ry="2"/><rect class="c c15" x="770" y="98" rx="2" ry="2"/><rect class="c c16" x="786" y="2" rx="2" ry="2"/><rect class="c c17" x="786" y="18" rx="2" ry="2"/><rect class="c c18" x="786" y="34" rx="2" ry="2"/><rect class="c c19" x="786" y="50" rx="2" ry="2"/><rect class="c c1a" x="786" y="66" rx="2" ry="2"/><rect class="c c1b" x="786" y="82" rx="2" ry="2"/><rect class="c c1c" x="786" y="98" rx="2" ry="2"/><rect class="c c1d" x="802" y="2" rx="2" ry="2"/><rect class="c c1e" x="802" y="18" rx="2" ry="2"/><rect class="c c1f" x="802" y="34" rx="2" ry="2"/><rect class="c c1g" x="802" y="50" rx="2" ry="2"/><rect class="c c1h" x="802" y="66" rx="2" ry="2"/><rect class="c c1i" x="802" y="82" rx="2" ry="2"/><rect class="c c1j" x="802" y="98" rx="2" ry="2"/><rect class="c c1k" x="818" y="2" rx="2" ry="2"/><rect class="c c1l" x="818" y="18" rx="2" ry="2"/><rect class="c c1m" x="818" y="34" rx="2" ry="2"/><rect class="c c1n" x="818" y="50" rx="2" ry="2"/><rect class="c c1o" x="818" y="66" rx="2" ry="2"/><rect class="c c1p" x="818" y="82" rx="2" ry="2"/><rect class="c c1q" x="818" y="98" rx="2" ry="2"/><rect class="c c1r" x="834" y="2" rx="2" ry="2"/><rect class="c c1s" x="834" y="18" rx="2" ry="2"/><rect class="c" x="834" y="34" rx="2" ry="2"/><rect class="u u0" height="12" width="352.8" x="0.0" y="144"/><rect class="u u1" height="12" width="13.6" x="352.2" y="144"/><rect class="u u2" height="12" width="26.7" x="365.3" y="144"/><rect class="u u3" height="12" width="26.7" x="391.4" y="144"/><rect class="u u4" height="12" width="13.6" x="417.5" y="144"/><rect class="u u5" height="12" width="183.2" x="430.5" y="144"/><rect class="u u6" height="12" width="13.6" x="613.2" y="144"/><rect class="u u7" height="12" width="13.6" x="626.2" y="144"/><rect class="u u8" height="12" width="13.6" x="639.3" y="144"/><rect class="u u9" height="12" width="13.6" x="652.3" y="144"/><rect class="u ua" height="12" width="13.6" x="665.4" y="144"/><rect class="u ub" height="12" width="13.6" x="678.4" y="144"/><rect class="u uc" height="12" width="91.9" x="691.4" y="144"/><rect class="u ud" height="12" width="65.8" x="782.8" y="144"/><rect class="s s0" x="0.8" y="0.8" width="14.4" height="14.4" rx="4.5" ry="4.5"/><rect class="s s1" x="1.8" y="1.8" width="12.3" height="12.3" rx="4.1" ry="4.1"/><rect class="s s2" x="2.6" y="2.6" width="10.8" height="10.8" rx="3.6" ry="3.6"/><rect class="s s3" x="3.0" y="3.0" width="9.9" height="9.9" rx="3.3" ry="3.3"/></svg>