<svg viewBox="-16 -32 880 192" width="880" height="192" xmlns="http://www.w3.org/2000/svg"><desc>Generated with https://github.com/Platane/snk</desc><style>:root{--cb:#1b1f230a;--cs:#7845ab;--ce:#ebedf0;--c0:#ebedf0;--c1:#9be9a8;--c2:#40c463;--c3:#30a14e;--c4:#216e39}.c{shape-rendering:geometricPrecision;fill:var(--ce);stroke-width:1px;stroke:var(--cb);animation:none 30100ms linear infinite;width:12px;height:12px}@keyframes c0{32.55%{fill:var(--c1)}32.57%,100%{fill:var(--ce)}}.c.c0{fill:var(--c1);animation-name:c0}@keyframes c1{32.22%{fill:var(--c1)}32.24%,100%{fill:var(--ce)}}.c.c1{fill:var(--c1);animation-name:c1}@keyframes c2{31.88%{fill:var(--c1)}31.9%,100%{fill:var(--ce)}}.c.c2{fill:var(--c1);animation-name:c2}@keyframes c3{14.28%{fill:var(--c1)}14.3%,100%{fill:var(--ce)}}.c.c3{fill:var(--c1);animation-name:c3}@keyframes c4{51.82%{fill:var(--c2)}51.84%,100%{fill:var(--ce)}}.c.c4{fill:var(--c2);animation-name:c4}@keyframes c5{62.12%{fill:var(--c3)}62.14%,100%{fill:var(--ce)}}.c.c5{fill:var(--c3);animation-name:c5}@keyframes c6{61.78%{fill:var(--c2)}61.8%,100%{fill:var(--ce)}}.c.c6{fill:var(--c2);animation-name:c6}@keyframes c7{74.74%{fill:var(--c3)}74.76%,100%{fill:var(--ce)}}.c.c7{fill:var(--c3);animation-name:c7}@keyframes c8{14.61%{fill:var(--c1)}14.63%,100%{fill:var(--ce)}}.c.c8{fill:var(--c1);animation-name:c8}@keyframes c9{51.49%{fill:var(--c2)}51.51%,100%{fill:var(--ce)}}.c.c9{fill:var(--c2);animation-name:c9}@keyframes ca{75.74%{fill:var(--c3)}75.76%,100%{fill:var(--ce)}}.c.ca{fill:var(--c3);animation-name:ca}@keyframes cb{84.04%{fill:var(--c4)}84.06%,100%{fill:var(--ce)}}.c.cb{fill:var(--c4);animation-name:cb}@keyframes cc{59.13%{fill:var(--c2)}59.15%,100%{fill:var(--ce)}}.c.cc{fill:var(--c2);animation-name:cc}@keyframes cd{30.89%{fill:var(--c1)}30.91%,100%{fill:var(--ce)}}.c.cd{fill:var(--c1);animation-name:cd}@keyframes ce{15.27%{fill:var(--c1)}15.29%,100%{fill:var(--ce)}}.c.ce{fill:var(--c1);animation-name:ce}@keyframes cf{50.82%{fill:var(--c2)}50.84%,100%{fill:var(--ce)}}.c.cf{fill:var(--c2);animation-name:cf}@keyframes cg{76.4%{fill:var(--c3)}76.42%,100%{fill:var(--ce)}}.c.cg{fill:var(--c3);animation-name:cg}@keyframes ch{56.8%{fill:var(--c2)}56.82%,100%{fill:var(--ce)}}.c.ch{fill:var(--c2);animation-name:ch}@keyframes ci{56.47%{fill:var(--c2)}56.49%,100%{fill:var(--ce)}}.c.ci{fill:var(--c2);animation-name:ci}@keyframes cj{59.46%{fill:var(--c3)}59.48%,100%{fill:var(--ce)}}.c.cj{fill:var(--c3);animation-name:cj}@keyframes ck{30.55%{fill:var(--c1)}30.57%,100%{fill:var(--ce)}}.c.ck{fill:var(--c1);animation-name:ck}@keyframes cl{15.6%{fill:var(--c1)}15.62%,100%{fill:var(--ce)}}.c.cl{fill:var(--c1);animation-name:cl}@keyframes cm{37.2%{fill:var(--c1)}37.22%,100%{fill:var(--ce)}}.c.cm{fill:var(--c1);animation-name:cm}@keyframes cn{36.87%{fill:var(--c2)}36.89%,100%{fill:var(--ce)}}.c.cn{fill:var(--c2);animation-name:cn}@keyframes co{36.53%{fill:var(--c1)}36.55%,100%{fill:var(--ce)}}.c.co{fill:var(--c1);animation-name:co}@keyframes cp{36.2%{fill:var(--c1)}36.22%,100%{fill:var(--ce)}}.c.cp{fill:var(--c1);animation-name:cp}@keyframes cq{35.87%{fill:var(--c1)}35.89%,100%{fill:var(--ce)}}.c.cq{fill:var(--c1);animation-name:cq}@keyframes cr{30.22%{fill:var(--c1)}30.24%,100%{fill:var(--ce)}}.c.cr{fill:var(--c1);animation-name:cr}@keyframes cs{15.94%{fill:var(--c1)}15.96%,100%{fill:var(--ce)}}.c.cs{fill:var(--c1);animation-name:cs}@keyframes ct{50.16%{fill:var(--c2)}50.18%,100%{fill:var(--ce)}}.c.ct{fill:var(--c2);animation-name:ct}@keyframes cu{77.07%{fill:var(--c4)}77.09%,100%{fill:var(--ce)}}.c.cu{fill:var(--c4);animation-name:cu}@keyframes cv{54.14%{fill:var(--c2)}54.16%,100%{fill:var(--ce)}}.c.cv{fill:var(--c2);animation-name:cv}@keyframes cw{42.51%{fill:var(--c2)}42.53%,100%{fill:var(--ce)}}.c.cw{fill:var(--c2);animation-name:cw}@keyframes cx{55.47%{fill:var(--c2)}55.49%,100%{fill:var(--ce)}}.c.cx{fill:var(--c2);animation-name:cx}@keyframes cy{29.89%{fill:var(--c1)}29.91%,100%{fill:var(--ce)}}.c.cy{fill:var(--c1);animation-name:cy}@keyframes cz{16.27%{fill:var(--c1)}16.29%,100%{fill:var(--ce)}}.c.cz{fill:var(--c1);animation-name:cz}@keyframes c10{49.82%{fill:var(--c2)}49.84%,100%{fill:var(--ce)}}.c.c10{fill:var(--c2);animation-name:c10}@keyframes c11{71.42%{fill:var(--c3)}71.44%,100%{fill:var(--ce)}}.c.c11{fill:var(--c3);animation-name:c11}@keyframes c12{54.48%{fill:var(--c2)}54.5%,100%{fill:var(--ce)}}.c.c12{fill:var(--c2);animation-name:c12}@keyframes c13{42.85%{fill:var(--c1)}42.87%,100%{fill:var(--ce)}}.c.c13{fill:var(--c1);animation-name:c13}@keyframes c14{43.18%{fill:var(--c2)}43.2%,100%{fill:var(--ce)}}.c.c14{fill:var(--c2);animation-name:c14}@keyframes c15{29.56%{fill:var(--c1)}29.58%,100%{fill:var(--ce)}}.c.c15{fill:var(--c1);animation-name:c15}@keyframes c16{16.6%{fill:var(--c1)}16.62%,100%{fill:var(--ce)}}.c.c16{fill:var(--c1);animation-name:c16}@keyframes c17{39.52%{fill:var(--c2)}39.54%,100%{fill:var(--ce)}}.c.c17{fill:var(--c2);animation-name:c17}@keyframes c18{71.09%{fill:var(--c3)}71.11%,100%{fill:var(--ce)}}.c.c18{fill:var(--c3);animation-name:c18}@keyframes c19{78.06%{fill:var(--c4)}78.08%,100%{fill:var(--ce)}}.c.c19{fill:var(--c4);animation-name:c19}@keyframes c1a{72.42%{fill:var(--c3)}72.44%,100%{fill:var(--ce)}}.c.c1a{fill:var(--c3);animation-name:c1a}@keyframes c1b{43.51%{fill:var(--c2)}43.53%,100%{fill:var(--ce)}}.c.c1b{fill:var(--c2);animation-name:c1b}@keyframes c1c{29.23%{fill:var(--c1)}29.25%,100%{fill:var(--ce)}}.c.c1c{fill:var(--c1);animation-name:c1c}@keyframes c1d{16.93%{fill:var(--c1)}16.95%,100%{fill:var(--ce)}}.c.c1d{fill:var(--c1);animation-name:c1d}@keyframes c1e{39.19%{fill:var(--c1)}39.21%,100%{fill:var(--ce)}}.c.c1e{fill:var(--c1);animation-name:c1e}@keyframes c1f{67.43%{fill:var(--c3)}67.45%,100%{fill:var(--ce)}}.c.c1f{fill:var(--c3);animation-name:c1f}@keyframes c1g{67.1%{fill:var(--c2)}67.12%,100%{fill:var(--ce)}}.c.c1g{fill:var(--c2);animation-name:c1g}@keyframes c1h{26.9%{fill:var(--c1)}26.92%,100%{fill:var(--ce)}}.c.c1h{fill:var(--c1);animation-name:c1h}@keyframes c1i{27.23%{fill:var(--c1)}27.25%,100%{fill:var(--ce)}}.c.c1i{fill:var(--c1);animation-name:c1i}@keyframes c1j{44.18%{fill:var(--c2)}44.2%,100%{fill:var(--ce)}}.c.c1j{fill:var(--c2);animation-name:c1j}@keyframes c1k{69.76%{fill:var(--c3)}69.78%,100%{fill:var(--ce)}}.c.c1k{fill:var(--c3);animation-name:c1k}@keyframes c1l{80.72%{fill:var(--c4)}80.74%,100%{fill:var(--ce)}}.c.c1l{fill:var(--c4);animation-name:c1l}@keyframes c1m{67.76%{fill:var(--c2)}67.78%,100%{fill:var(--ce)}}.c.c1m{fill:var(--c2);animation-name:c1m}@keyframes c1n{78.73%{fill:var(--c4)}78.75%,100%{fill:var(--ce)}}.c.c1n{fill:var(--c4);animation-name:c1n}@keyframes c1o{26.57%{fill:var(--c1)}26.59%,100%{fill:var(--ce)}}.c.c1o{fill:var(--c1);animation-name:c1o}@keyframes c1p{26.24%{fill:var(--c1)}26.26%,100%{fill:var(--ce)}}.c.c1p{fill:var(--c1);animation-name:c1p}@keyframes c1q{25.9%{fill:var(--c1)}25.92%,100%{fill:var(--ce)}}.c.c1q{fill:var(--c1);animation-name:c1q}@keyframes c1r{18.26%{fill:var(--c1)}18.28%,100%{fill:var(--ce)}}.c.c1r{fill:var(--c1);animation-name:c1r}@keyframes c1s{21.92%{fill:var(--c1)}21.94%,100%{fill:var(--ce)}}.c.c1s{fill:var(--c1);animation-name:c1s}@keyframes c1t{21.58%{fill:var(--c1)}21.6%,100%{fill:var(--ce)}}.c.c1t{fill:var(--c1);animation-name:c1t}@keyframes c1u{21.25%{fill:var(--c1)}21.27%,100%{fill:var(--ce)}}.c.c1u{fill:var(--c1);animation-name:c1u}@keyframes c1v{20.92%{fill:var(--c1)}20.94%,100%{fill:var(--ce)}}.c.c1v{fill:var(--c1);animation-name:c1v}@keyframes c1w{45.17%{fill:var(--c2)}45.19%,100%{fill:var(--ce)}}.c.c1w{fill:var(--c2);animation-name:c1w}@keyframes c1x{25.57%{fill:var(--c1)}25.59%,100%{fill:var(--ce)}}.c.c1x{fill:var(--c1);animation-name:c1x}@keyframes c1y{18.59%{fill:var(--c1)}18.61%,100%{fill:var(--ce)}}.c.c1y{fill:var(--c1);animation-name:c1y}@keyframes c1z{46.83%{fill:var(--c2)}46.85%,100%{fill:var(--ce)}}.c.c1z{fill:var(--c2);animation-name:c1z}@keyframes c20{68.43%{fill:var(--c3)}68.45%,100%{fill:var(--ce)}}.c.c20{fill:var(--c3);animation-name:c20}@keyframes c21{79.39%{fill:var(--c4)}79.41%,100%{fill:var(--ce)}}.c.c21{fill:var(--c4);animation-name:c21}@keyframes c22{20.59%{fill:var(--c1)}20.61%,100%{fill:var(--ce)}}.c.c22{fill:var(--c1);animation-name:c22}@keyframes c23{24.91%{fill:var(--c1)}24.93%,100%{fill:var(--ce)}}.c.c23{fill:var(--c1);animation-name:c23}@keyframes c24{25.24%{fill:var(--c1)}25.26%,100%{fill:var(--ce)}}.c.c24{fill:var(--c1);animation-name:c24}@keyframes c25{18.93%{fill:var(--c1)}18.95%,100%{fill:var(--ce)}}.c.c25{fill:var(--c1);animation-name:c25}@keyframes c26{19.26%{fill:var(--c1)}19.28%,100%{fill:var(--ce)}}.c.c26{fill:var(--c1);animation-name:c26}.u{transform-origin:0 0;transform:scale(0,1);animation:none linear 30100ms infinite}@keyframes u0{14.28%{transform:scale(0.000,1)}14.3%,14.61%{transform:scale(0.027,1)}14.63%,15.27%{transform:scale(0.054,1)}15.29%,15.6%{transform:scale(0.081,1)}15.62%,15.94%{transform:scale(0.108,1)}15.96%,16.27%{transform:scale(0.135,1)}16.29%,16.6%{transform:scale(0.162,1)}16.62%,16.93%{transform:scale(0.189,1)}16.95%,18.26%{transform:scale(0.216,1)}18.28%,18.59%{transform:scale(0.243,1)}18.61%,18.93%{transform:scale(0.270,1)}18.95%,19.26%{transform:scale(0.297,1)}19.28%,20.59%{transform:scale(0.324,1)}20.61%,20.92%{transform:scale(0.351,1)}20.94%,21.25%{transform:scale(0.378,1)}21.27%,21.58%{transform:scale(0.405,1)}21.6%,21.92%{transform:scale(0.432,1)}21.94%,24.91%{transform:scale(0.459,1)}24.93%,25.24%{transform:scale(0.486,1)}25.26%,25.57%{transform:scale(0.514,1)}25.59%,25.9%{transform:scale(0.541,1)}25.92%,26.24%{transform:scale(0.568,1)}26.26%,26.57%{transform:scale(0.595,1)}26.59%,26.9%{transform:scale(0.622,1)}26.92%,27.23%{transform:scale(0.649,1)}27.25%,29.23%{transform:scale(0.676,1)}29.25%,29.56%{transform:scale(0.703,1)}29.58%,29.89%{transform:scale(0.730,1)}29.91%,30.22%{transform:scale(0.757,1)}30.24%,30.55%{transform:scale(0.784,1)}30.57%,30.89%{transform:scale(0.811,1)}30.91%,31.88%{transform:scale(0.838,1)}31.9%,32.22%{transform:scale(0.865,1)}32.24%,32.55%{transform:scale(0.892,1)}32.57%,35.87%{transform:scale(0.919,1)}35.89%,36.2%{transform:scale(0.946,1)}36.22%,36.53%{transform:scale(0.973,1)}36.55%,100%{transform:scale(1.000,1)}}.u.u0{fill:var(--c1);animation-name:u0;transform-origin:0.0px 0}@keyframes u1{36.87%{transform:scale(0.000,1)}36.89%,100%{transform:scale(1.000,1)}}.u.u1{fill:var(--c2);animation-name:u1;transform-origin:397.2px 0}@keyframes u2{37.2%{transform:scale(0.000,1)}37.22%,39.19%{transform:scale(0.500,1)}39.21%,100%{transform:scale(1.000,1)}}.u.u2{fill:var(--c1);animation-name:u2;transform-origin:407.9px 0}@keyframes u3{39.52%{transform:scale(0.000,1)}39.54%,42.51%{transform:scale(0.500,1)}42.53%,100%{transform:scale(1.000,1)}}.u.u3{fill:var(--c2);animation-name:u3;transform-origin:429.4px 0}@keyframes u4{42.85%{transform:scale(0.000,1)}42.87%,100%{transform:scale(1.000,1)}}.u.u4{fill:var(--c1);animation-name:u4;transform-origin:450.8px 0}@keyframes u5{43.18%{transform:scale(0.000,1)}43.2%,43.51%{transform:scale(0.063,1)}43.53%,44.18%{transform:scale(0.125,1)}44.2%,45.17%{transform:scale(0.188,1)}45.19%,46.83%{transform:scale(0.250,1)}46.85%,49.82%{transform:scale(0.313,1)}49.84%,50.16%{transform:scale(0.375,1)}50.18%,50.82%{transform:scale(0.438,1)}50.84%,51.49%{transform:scale(0.500,1)}51.51%,51.82%{transform:scale(0.563,1)}51.84%,54.14%{transform:scale(0.625,1)}54.16%,54.48%{transform:scale(0.688,1)}54.5%,55.47%{transform:scale(0.750,1)}55.49%,56.47%{transform:scale(0.813,1)}56.49%,56.8%{transform:scale(0.875,1)}56.82%,59.13%{transform:scale(0.938,1)}59.15%,100%{transform:scale(1.000,1)}}.u.u5{fill:var(--c2);animation-name:u5;transform-origin:461.6px 0}@keyframes u6{59.46%{transform:scale(0.000,1)}59.48%,100%{transform:scale(1.000,1)}}.u.u6{fill:var(--c3);animation-name:u6;transform-origin:633.3px 0}@keyframes u7{61.78%{transform:scale(0.000,1)}61.8%,100%{transform:scale(1.000,1)}}.u.u7{fill:var(--c2);animation-name:u7;transform-origin:644.1px 0}@keyframes u8{62.12%{transform:scale(0.000,1)}62.14%,100%{transform:scale(1.000,1)}}.u.u8{fill:var(--c3);animation-name:u8;transform-origin:654.8px 0}@keyframes u9{67.1%{transform:scale(0.000,1)}67.12%,100%{transform:scale(1.000,1)}}.u.u9{fill:var(--c2);animation-name:u9;transform-origin:665.5px 0}@keyframes ua{67.43%{transform:scale(0.000,1)}67.45%,100%{transform:scale(1.000,1)}}.u.ua{fill:var(--c3);animation-name:ua;transform-origin:676.3px 0}@keyframes ub{67.76%{transform:scale(0.000,1)}67.78%,100%{transform:scale(1.000,1)}}.u.ub{fill:var(--c2);animation-name:ub;transform-origin:687.0px 0}@keyframes uc{68.43%{transform:scale(0.000,1)}68.45%,69.76%{transform:scale(0.125,1)}69.78%,71.09%{transform:scale(0.250,1)}71.11%,71.42%{transform:scale(0.375,1)}71.44%,72.42%{transform:scale(0.500,1)}72.44%,74.74%{transform:scale(0.625,1)}74.76%,75.74%{transform:scale(0.750,1)}75.76%,76.4%{transform:scale(0.875,1)}76.42%,100%{transform:scale(1.000,1)}}.u.uc{fill:var(--c3);animation-name:uc;transform-origin:697.7px 0}@keyframes ud{77.07%{transform:scale(0.000,1)}77.09%,78.06%{transform:scale(0.167,1)}78.08%,78.73%{transform:scale(0.333,1)}78.75%,79.39%{transform:scale(0.500,1)}79.41%,80.72%{transform:scale(0.667,1)}80.74%,84.04%{transform:scale(0.833,1)}84.06%,100%{transform:scale(1.000,1)}}.u.ud{fill:var(--c4);animation-name:ud;transform-origin:783.6px 0}.s{shape-rendering:geometricPrecision;fill:var(--cs);animation:none linear 30100ms infinite}@keyframes s0{0%,99.67%{transform:translate(0px,-16px)}0.33%{transform:translate(0px,0px)}13.95%{transform:translate(656px,0px)}14.29%,52.16%{transform:translate(656px,16px)}14.62%,51.16%,83.06%{transform:translate(672px,16px)}14.95%{transform:translate(672px,0px)}16.94%,38.87%{transform:translate(768px,0px)}17.28%{transform:translate(768px,-16px)}17.94%{transform:translate(800px,-16px)}18.27%,22.26%{transform:translate(800px,0px)}18.94%,22.92%{transform:translate(832px,0px)}20.27%,24.25%{transform:translate(832px,64px)}20.93%{transform:translate(800px,64px)}24.58%{transform:translate(816px,64px)}25.25%{transform:translate(816px,96px)}25.91%{transform:translate(784px,96px)}26.58%{transform:translate(784px,64px)}26.91%{transform:translate(768px,64px)}27.24%,43.85%,66.45%{transform:translate(768px,80px)}27.57%{transform:translate(784px,80px)}28.24%{transform:translate(784px,112px)}28.9%{transform:translate(752px,112px)}29.24%{transform:translate(752px,96px)}31.56%,60.8%,63.46%{transform:translate(640px,96px)}32.56%,62.46%{transform:translate(640px,48px)}32.89%{transform:translate(624px,48px)}33.89%{transform:translate(624px,96px)}35.55%,58.14%{transform:translate(704px,96px)}37.54%,40.86%{transform:translate(704px,0px)}39.2%{transform:translate(768px,16px)}39.53%{transform:translate(752px,16px)}39.87%,70.43%{transform:translate(752px,0px)}42.19%,56.15%{transform:translate(704px,64px)}42.86%,54.82%,72.09%{transform:translate(736px,64px)}43.19%{transform:translate(736px,80px)}44.19%{transform:translate(768px,96px)}44.85%{transform:translate(800px,96px)}46.51%{transform:translate(800px,16px)}46.84%,80.07%{transform:translate(816px,16px)}47.51%{transform:translate(816px,-16px)}49.17%{transform:translate(736px,-16px)}49.83%{transform:translate(736px,16px)}51.5%{transform:translate(672px,32px)}51.83%{transform:translate(656px,32px)}53.16%{transform:translate(704px,16px)}53.82%,57.14%{transform:translate(704px,48px)}54.49%{transform:translate(736px,48px)}55.15%{transform:translate(720px,64px)}55.48%{transform:translate(720px,80px)}55.81%{transform:translate(704px,80px)}56.48%{transform:translate(688px,64px)}56.81%,76.08%{transform:translate(688px,48px)}58.8%,64.12%{transform:translate(672px,96px)}59.14%,64.45%{transform:translate(672px,80px)}59.47%{transform:translate(688px,80px)}59.8%{transform:translate(688px,96px)}61.46%{transform:translate(640px,64px)}61.79%{transform:translate(656px,64px)}62.13%,75.42%{transform:translate(656px,48px)}67.44%{transform:translate(768px,32px)}68.44%{transform:translate(816px,32px)}69.1%{transform:translate(816px,0px)}71.1%,77.74%{transform:translate(752px,32px)}71.43%{transform:translate(736px,32px)}72.43%{transform:translate(752px,64px)}72.76%{transform:translate(752px,80px)}74.75%{transform:translate(656px,80px)}76.41%{transform:translate(688px,32px)}78.07%{transform:translate(752px,48px)}79.4%{transform:translate(816px,48px)}84.05%{transform:translate(672px,64px)}96.35%{transform:translate(80px,64px)}97.01%{transform:translate(80px,32px)}97.34%{transform:translate(64px,32px)}98.34%{transform:translate(64px,-16px)}}.s.s0{transform:translate(0px,-16px);animation-name:s0}@keyframes s1{0%,99.67%{transform:translate(16px,-16px)}0.33%{transform:translate(0px,-16px)}0.66%{transform:translate(0px,0px)}14.29%{transform:translate(656px,0px)}14.62%,52.49%{transform:translate(656px,16px)}14.95%,51.5%,83.39%{transform:translate(672px,16px)}15.28%{transform:translate(672px,0px)}17.28%,39.2%{transform:translate(768px,0px)}17.61%{transform:translate(768px,-16px)}18.27%{transform:translate(800px,-16px)}18.6%,22.59%{transform:translate(800px,0px)}19.27%,23.26%{transform:translate(832px,0px)}20.6%,24.58%{transform:translate(832px,64px)}21.26%{transform:translate(800px,64px)}24.92%{transform:translate(816px,64px)}25.58%{transform:translate(816px,96px)}26.25%{transform:translate(784px,96px)}26.91%{transform:translate(784px,64px)}27.24%{transform:translate(768px,64px)}27.57%,44.19%,66.78%{transform:translate(768px,80px)}27.91%{transform:translate(784px,80px)}28.57%{transform:translate(784px,112px)}29.24%{transform:translate(752px,112px)}29.57%{transform:translate(752px,96px)}31.89%,61.13%,63.79%{transform:translate(640px,96px)}32.89%,62.79%{transform:translate(640px,48px)}33.22%{transform:translate(624px,48px)}34.22%{transform:translate(624px,96px)}35.88%,58.47%{transform:translate(704px,96px)}37.87%,41.2%{transform:translate(704px,0px)}39.53%{transform:translate(768px,16px)}39.87%{transform:translate(752px,16px)}40.2%,70.76%{transform:translate(752px,0px)}42.52%,56.48%{transform:translate(704px,64px)}43.19%,55.15%,72.43%{transform:translate(736px,64px)}43.52%{transform:translate(736px,80px)}44.52%{transform:translate(768px,96px)}45.18%{transform:translate(800px,96px)}46.84%{transform:translate(800px,16px)}47.18%,80.4%{transform:translate(816px,16px)}47.84%{transform:translate(816px,-16px)}49.5%{transform:translate(736px,-16px)}50.17%{transform:translate(736px,16px)}51.83%{transform:translate(672px,32px)}52.16%{transform:translate(656px,32px)}53.49%{transform:translate(704px,16px)}54.15%,57.48%{transform:translate(704px,48px)}54.82%{transform:translate(736px,48px)}55.48%{transform:translate(720px,64px)}55.81%{transform:translate(720px,80px)}56.15%{transform:translate(704px,80px)}56.81%{transform:translate(688px,64px)}57.14%,76.41%{transform:translate(688px,48px)}59.14%,64.45%{transform:translate(672px,96px)}59.47%,64.78%{transform:translate(672px,80px)}59.8%{transform:translate(688px,80px)}60.13%{transform:translate(688px,96px)}61.79%{transform:translate(640px,64px)}62.13%{transform:translate(656px,64px)}62.46%,75.75%{transform:translate(656px,48px)}67.77%{transform:translate(768px,32px)}68.77%{transform:translate(816px,32px)}69.44%{transform:translate(816px,0px)}71.43%,78.07%{transform:translate(752px,32px)}71.76%{transform:translate(736px,32px)}72.76%{transform:translate(752px,64px)}73.09%{transform:translate(752px,80px)}75.08%{transform:translate(656px,80px)}76.74%{transform:translate(688px,32px)}78.41%{transform:translate(752px,48px)}79.73%{transform:translate(816px,48px)}84.39%{transform:translate(672px,64px)}96.68%{transform:translate(80px,64px)}97.34%{transform:translate(80px,32px)}97.67%{transform:translate(64px,32px)}98.67%{transform:translate(64px,-16px)}}.s.s1{transform:translate(16px,-16px);animation-name:s1}@keyframes s2{0%,99.67%{transform:translate(32px,-16px)}0.66%{transform:translate(0px,-16px)}1%{transform:translate(0px,0px)}14.62%{transform:translate(656px,0px)}14.95%,52.82%{transform:translate(656px,16px)}15.28%,51.83%,83.72%{transform:translate(672px,16px)}15.61%{transform:translate(672px,0px)}17.61%,39.53%{transform:translate(768px,0px)}17.94%{transform:translate(768px,-16px)}18.6%{transform:translate(800px,-16px)}18.94%,22.92%{transform:translate(800px,0px)}19.6%,23.59%{transform:translate(832px,0px)}20.93%,24.92%{transform:translate(832px,64px)}21.59%{transform:translate(800px,64px)}25.25%{transform:translate(816px,64px)}25.91%{transform:translate(816px,96px)}26.58%{transform:translate(784px,96px)}27.24%{transform:translate(784px,64px)}27.57%{transform:translate(768px,64px)}27.91%,44.52%,67.11%{transform:translate(768px,80px)}28.24%{transform:translate(784px,80px)}28.9%{transform:translate(784px,112px)}29.57%{transform:translate(752px,112px)}29.9%{transform:translate(752px,96px)}32.23%,61.46%,64.12%{transform:translate(640px,96px)}33.22%,63.12%{transform:translate(640px,48px)}33.55%{transform:translate(624px,48px)}34.55%{transform:translate(624px,96px)}36.21%,58.8%{transform:translate(704px,96px)}38.21%,41.53%{transform:translate(704px,0px)}39.87%{transform:translate(768px,16px)}40.2%{transform:translate(752px,16px)}40.53%,71.1%{transform:translate(752px,0px)}42.86%,56.81%{transform:translate(704px,64px)}43.52%,55.48%,72.76%{transform:translate(736px,64px)}43.85%{transform:translate(736px,80px)}44.85%{transform:translate(768px,96px)}45.51%{transform:translate(800px,96px)}47.18%{transform:translate(800px,16px)}47.51%,80.73%{transform:translate(816px,16px)}48.17%{transform:translate(816px,-16px)}49.83%{transform:translate(736px,-16px)}50.5%{transform:translate(736px,16px)}52.16%{transform:translate(672px,32px)}52.49%{transform:translate(656px,32px)}53.82%{transform:translate(704px,16px)}54.49%,57.81%{transform:translate(704px,48px)}55.15%{transform:translate(736px,48px)}55.81%{transform:translate(720px,64px)}56.15%{transform:translate(720px,80px)}56.48%{transform:translate(704px,80px)}57.14%{transform:translate(688px,64px)}57.48%,76.74%{transform:translate(688px,48px)}59.47%,64.78%{transform:translate(672px,96px)}59.8%,65.12%{transform:translate(672px,80px)}60.13%{transform:translate(688px,80px)}60.47%{transform:translate(688px,96px)}62.13%{transform:translate(640px,64px)}62.46%{transform:translate(656px,64px)}62.79%,76.08%{transform:translate(656px,48px)}68.11%{transform:translate(768px,32px)}69.1%{transform:translate(816px,32px)}69.77%{transform:translate(816px,0px)}71.76%,78.41%{transform:translate(752px,32px)}72.09%{transform:translate(736px,32px)}73.09%{transform:translate(752px,64px)}73.42%{transform:translate(752px,80px)}75.42%{transform:translate(656px,80px)}77.08%{transform:translate(688px,32px)}78.74%{transform:translate(752px,48px)}80.07%{transform:translate(816px,48px)}84.72%{transform:translate(672px,64px)}97.01%{transform:translate(80px,64px)}97.67%{transform:translate(80px,32px)}98.01%{transform:translate(64px,32px)}99%{transform:translate(64px,-16px)}}.s.s2{transform:translate(32px,-16px);animation-name:s2}@keyframes s3{0%,99.67%{transform:translate(48px,-16px)}1%{transform:translate(0px,-16px)}1.33%{transform:translate(0px,0px)}14.95%{transform:translate(656px,0px)}15.28%,53.16%{transform:translate(656px,16px)}15.61%,52.16%,84.05%{transform:translate(672px,16px)}15.95%{transform:translate(672px,0px)}17.94%,39.87%{transform:translate(768px,0px)}18.27%{transform:translate(768px,-16px)}18.94%{transform:translate(800px,-16px)}19.27%,23.26%{transform:translate(800px,0px)}19.93%,23.92%{transform:translate(832px,0px)}21.26%,25.25%{transform:translate(832px,64px)}21.93%{transform:translate(800px,64px)}25.58%{transform:translate(816px,64px)}26.25%{transform:translate(816px,96px)}26.91%{transform:translate(784px,96px)}27.57%{transform:translate(784px,64px)}27.91%{transform:translate(768px,64px)}28.24%,44.85%,67.44%{transform:translate(768px,80px)}28.57%{transform:translate(784px,80px)}29.24%{transform:translate(784px,112px)}29.9%{transform:translate(752px,112px)}30.23%{transform:translate(752px,96px)}32.56%,61.79%,64.45%{transform:translate(640px,96px)}33.55%,63.46%{transform:translate(640px,48px)}33.89%{transform:translate(624px,48px)}34.88%{transform:translate(624px,96px)}36.54%,59.14%{transform:translate(704px,96px)}38.54%,41.86%{transform:translate(704px,0px)}40.2%{transform:translate(768px,16px)}40.53%{transform:translate(752px,16px)}40.86%,71.43%{transform:translate(752px,0px)}43.19%,57.14%{transform:translate(704px,64px)}43.85%,55.81%,73.09%{transform:translate(736px,64px)}44.19%{transform:translate(736px,80px)}45.18%{transform:translate(768px,96px)}45.85%{transform:translate(800px,96px)}47.51%{transform:translate(800px,16px)}47.84%,81.06%{transform:translate(816px,16px)}48.5%{transform:translate(816px,-16px)}50.17%{transform:translate(736px,-16px)}50.83%{transform:translate(736px,16px)}52.49%{transform:translate(672px,32px)}52.82%{transform:translate(656px,32px)}54.15%{transform:translate(704px,16px)}54.82%,58.14%{transform:translate(704px,48px)}55.48%{transform:translate(736px,48px)}56.15%{transform:translate(720px,64px)}56.48%{transform:translate(720px,80px)}56.81%{transform:translate(704px,80px)}57.48%{transform:translate(688px,64px)}57.81%,77.08%{transform:translate(688px,48px)}59.8%,65.12%{transform:translate(672px,96px)}60.13%,65.45%{transform:translate(672px,80px)}60.47%{transform:translate(688px,80px)}60.8%{transform:translate(688px,96px)}62.46%{transform:translate(640px,64px)}62.79%{transform:translate(656px,64px)}63.12%,76.41%{transform:translate(656px,48px)}68.44%{transform:translate(768px,32px)}69.44%{transform:translate(816px,32px)}70.1%{transform:translate(816px,0px)}72.09%,78.74%{transform:translate(752px,32px)}72.43%{transform:translate(736px,32px)}73.42%{transform:translate(752px,64px)}73.75%{transform:translate(752px,80px)}75.75%{transform:translate(656px,80px)}77.41%{transform:translate(688px,32px)}79.07%{transform:translate(752px,48px)}80.4%{transform:translate(816px,48px)}85.05%{transform:translate(672px,64px)}97.34%{transform:translate(80px,64px)}98.01%{transform:translate(80px,32px)}98.34%{transform:translate(64px,32px)}99.34%{transform:translate(64px,-16px)}}.s.s3{transform:translate(48px,-16px);animation-name:s3}</style><rect class="c" x="2" y="2" rx="2" ry="2"/><rect class="c" x="2" y="18" rx="2" ry="2"/><rect class="c" x="2" y="34" rx="2" ry="2"/><rect class="c" x="2" y="50" rx="2" ry="2"/><rect class="c" x="2" y="66" rx="2" ry="2"/><rect class="c" x="2" y="82" rx="2" ry="2"/><rect class="c" x="2" y="98" rx="2" ry="2"/><rect class="c" x="18" y="2" rx="2" ry="2"/><rect class="c" x="18" y="18" rx="2" ry="2"/><rect class="c" x="18" y="34" rx="2" ry="2"/><rect class="c" x="18" y="50" rx="2" ry="2"/><rect class="c" x="18" y="66" rx="2" ry="2"/><rect class="c" x="18" y="82" rx="2" ry="2"/><rect class="c" x="18" y="98" rx="2" ry="2"/><rect class="c" x="34" y="2" rx="2" ry="2"/><rect class="c" x="34" y="18" rx="2" ry="2"/><rect class="c" x="34" y="34" rx="2" ry="2"/><rect class="c" x="34" y="50" rx="2" ry="2"/><rect class="c" x="34" y="66" rx="2" ry="2"/><rect class="c" x="34" y="82" rx="2" ry="2"/><rect class="c" x="34" y="98" rx="2" ry="2"/><rect class="c" x="50" y="2" rx="2" ry="2"/><rect class="c" x="50" y="18" rx="2" ry="2"/><rect class="c" x="50" y="34" rx="2" ry="2"/><rect class="c" x="50" y="50" rx="2" ry="2"/><rect class="c" x="50" y="66" rx="2" ry="2"/><rect class="c" x="50" y="82" rx="2" ry="2"/><rect class="c" x="50" y="98" rx="2" ry="2"/><rect class="c" x="66" y="2" rx="2" ry="2"/><rect class="c" x="66" y="18" rx="2" ry="2"/><rect class="c" x="66" y="34" rx="2" ry="2"/><rect class="c" x="66" y="50" rx="2" ry="2"/><rect class="c" x="66" y="66" rx="2" ry="2"/><rect class="c" x="66" y="82" rx="2" ry="2"/><rect class="c" x="66" y="98" rx="2" ry="2"/><rect class="c" x="82" y="2" rx="2" ry="2"/><rect class="c" x="82" y="18" rx="2" ry="2"/><rect class="c" x="82" y="34" rx="2" ry="2"/><rect class="c" x="82" y="50" rx="2" ry="2"/><rect class="c" x="82" y="66" rx="2" ry="2"/><rect class="c" x="82" y="82" rx="2" ry="2"/><rect class="c" x="82" y="98" rx="2" ry="2"/><rect class="c" x="98" y="2" rx="2" ry="2"/><rect class="c" x="98" y="18" rx="2" ry="2"/><rect class="c" x="98" y="34" rx="2" ry="2"/><rect class="c" x="98" y="50" rx="2" ry="2"/><rect class="c" x="98" y="66" rx="2" ry="2"/><rect class="c" x="98" y="82" rx="2" ry="2"/><rect class="c" x="98" y="98" rx="2" ry="2"/><rect class="c" x="114" y="2" rx="2" ry="2"/><rect class="c" x="114" y="18" rx="2" ry="2"/><rect class="c" x="114" y="34" rx="2" ry="2"/><rect class="c" x="114" y="50" rx="2" ry="2"/><rect class="c" x="114" y="66" rx="2" ry="2"/><rect class="c" x="114" y="82" rx="2" ry="2"/><rect class="c" x="114" y="98" rx="2" ry="2"/><rect class="c" x="130" y="2" rx="2" ry="2"/><rect class="c" x="130" y="18" rx="2" ry="2"/><rect class="c" x="130" y="34" rx="2" ry="2"/><rect class="c" x="130" y="50" rx="2" ry="2"/><rect class="c" x="130" y="66" rx="2" ry="2"/><rect class="c" x="130" y="82" rx="2" ry="2"/><rect class="c" x="130" y="98" rx="2" ry="2"/><rect class="c" x="146" y="2" rx="2" ry="2"/><rect class="c" x="146" y="18" rx="2" ry="2"/><rect class="c" x="146" y="34" rx="2" ry="2"/><rect class="c" x="146" y="50" rx="2" ry="2"/><rect class="c" x="146" y="66" rx="2" ry="2"/><rect class="c" x="146" y="82" rx="2" ry="2"/><rect class="c" x="146" y="98" rx="2" ry="2"/><rect class="c" x="162" y="2" rx="2" ry="2"/><rect class="c" x="162" y="18" rx="2" ry="2"/><rect class="c" x="162" y="34" rx="2" ry="2"/><rect class="c" x="162" y="50" rx="2" ry="2"/><rect class="c" x="162" y="66" rx="2" ry="2"/><rect class="c" x="162" y="82" rx="2" ry="2"/><rect class="c" x="162" y="98" rx="2" ry="2"/><rect class="c" x="178" y="2" rx="2" ry="2"/><rect class="c" x="178" y="18" rx="2" ry="2"/><rect class="c" x="178" y="34" rx="2" ry="2"/><rect class="c" x="178" y="50" rx="2" ry="2"/><rect class="c" x="178" y="66" rx="2" ry="2"/><rect class="c" x="178" y="82" rx="2" ry="2"/><rect class="c" x="178" y="98" rx="2" ry="2"/><rect class="c" x="194" y="2" rx="2" ry="2"/><rect class="c" x="194" y="18" rx="2" ry="2"/><rect class="c" x="194" y="34" rx="2" ry="2"/><rect class="c" x="194" y="50" rx="2" ry="2"/><rect class="c" x="194" y="66" rx="2" ry="2"/><rect class="c" x="194" y="82" rx="2" ry="2"/><rect class="c" x="194" y="98" rx="2" ry="2"/><rect class="c" x="210" y="2" rx="2" ry="2"/><rect class="c" x="210" y="18" rx="2" ry="2"/><rect class="c" x="210" y="34" rx="2" ry="2"/><rect class="c" x="210" y="50" rx="2" ry="2"/><rect class="c" x="210" y="66" rx="2" ry="2"/><rect class="c" x="210" y="82" rx="2" ry="2"/><rect class="c" x="210" y="98" rx="2" ry="2"/><rect class="c" x="226" y="2" rx="2" ry="2"/><rect class="c" x="226" y="18" rx="2" ry="2"/><rect class="c" x="226" y="34" rx="2" ry="2"/><rect class="c" x="226" y="50" rx="2" ry="2"/><rect class="c" x="226" y="66" rx="2" ry="2"/><rect class="c" x="226" y="82" rx="2" ry="2"/><rect class="c" x="226" y="98" rx="2" ry="2"/><rect class="c" x="242" y="2" rx="2" ry="2"/><rect class="c" x="242" y="18" rx="2" ry="2"/><rect class="c" x="242" y="34" rx="2" ry="2"/><rect class="c" x="242" y="50" rx="2" ry="2"/><rect class="c" x="242" y="66" rx="2" ry="2"/><rect class="c" x="242" y="82" rx="2" ry="2"/><rect class="c" x="242" y="98" rx="2" ry="2"/><rect class="c" x="258" y="2" rx="2" ry="2"/><rect class="c" x="258" y="18" rx="2" ry="2"/><rect class="c" x="258" y="34" rx="2" ry="2"/><rect class="c" x="258" y="50" rx="2" ry="2"/><rect class="c" x="258" y="66" rx="2" ry="2"/><rect class="c" x="258" y="82" rx="2" ry="2"/><rect class="c" x="258" y="98" rx="2" ry="2"/><rect class="c" x="274" y="2" rx="2" ry="2"/><rect class="c" x="274" y="18" rx="2" ry="2"/><rect class="c" x="274" y="34" rx="2" ry="2"/><rect class="c" x="274" y="50" rx="2" ry="2"/><rect class="c" x="274" y="66" rx="2" ry="2"/><rect class="c" x="274" y="82" rx="2" ry="2"/><rect class="c" x="274" y="98" rx="2" ry="2"/><rect class="c" x="290" y="2" rx="2" ry="2"/><rect class="c" x="290" y="18" rx="2" ry="2"/><rect class="c" x="290" y="34" rx="2" ry="2"/><rect class="c" x="290" y="50" rx="2" ry="2"/><rect class="c" x="290" y="66" rx="2" ry="2"/><rect class="c" x="290" y="82" rx="2" ry="2"/><rect class="c" x="290" y="98" rx="2" ry="2"/><rect class="c" x="306" y="2" rx="2" ry="2"/><rect class="c" x="306" y="18" rx="2" ry="2"/><rect class="c" x="306" y="34" rx="2" ry="2"/><rect class="c" x="306" y="50" rx="2" ry="2"/><rect class="c" x="306" y="66" rx="2" ry="2"/><rect class="c" x="306" y="82" rx="2" ry="2"/><rect class="c" x="306" y="98" rx="2" ry="2"/><rect class="c" x="322" y="2" rx="2" ry="2"/><rect class="c" x="322" y="18" rx="2" ry="2"/><rect class="c" x="322" y="34" rx="2" ry="2"/><rect class="c" x="322" y="50" rx="2" ry="2"/><rect class="c" x="322" y="66" rx="2" ry="2"/><rect class="c" x="322" y="82" rx="2" ry="2"/><rect class="c" x="322" y="98" rx="2" ry="2"/><rect class="c" x="338" y="2" rx="2" ry="2"/><rect class="c" x="338" y="18" rx="2" ry="2"/><rect class="c" x="338" y="34" rx="2" ry="2"/><rect class="c" x="338" y="50" rx="2" ry="2"/><rect class="c" x="338" y="66" rx="2" ry="2"/><rect class="c" x="338" y="82" rx="2" ry="2"/><rect class="c" x="338" y="98" rx="2" ry="2"/><rect class="c" x="354" y="2" rx="2" ry="2"/><rect class="c" x="354" y="18" rx="2" ry="2"/><rect class="c" x="354" y="34" rx="2" ry="2"/><rect class="c" x="354" y="50" rx="2" ry="2"/><rect class="c" x="354" y="66" rx="2" ry="2"/><rect class="c" x="354" y="82" rx="2" ry="2"/><rect class="c" x="354" y="98" rx="2" ry="2"/><rect class="c" x="370" y="2" rx="2" ry="2"/><rect class="c" x="370" y="18" rx="2" ry="2"/><rect class="c" x="370" y="34" rx="2" ry="2"/><rect class="c" x="370" y="50" rx="2" ry="2"/><rect class="c" x="370" y="66" rx="2" ry="2"/><rect class="c" x="370" y="82" rx="2" ry="2"/><rect class="c" x="370" y="98" rx="2" ry="2"/><rect class="c" x="386" y="2" rx="2" ry="2"/><rect class="c" x="386" y="18" rx="2" ry="2"/><rect class="c" x="386" y="34" rx="2" ry="2"/><rect class="c" x="386" y="50" rx="2" ry="2"/><rect class="c" x="386" y="66" rx="2" ry="2"/><rect class="c" x="386" y="82" rx="2" ry="2"/><rect class="c" x="386" y="98" rx="2" ry="2"/><rect class="c" x="402" y="2" rx="2" ry="2"/><rect class="c" x="402" y="18" rx="2" ry="2"/><rect class="c" x="402" y="34" rx="2" ry="2"/><rect class="c" x="402" y="50" rx="2" ry="2"/><rect class="c" x="402" y="66" rx="2" ry="2"/><rect class="c" x="402" y="82" rx="2" ry="2"/><rect class="c" x="402" y="98" rx="2" ry="2"/><rect class="c" x="418" y="2" rx="2" ry="2"/><rect class="c" x="418" y="18" rx="2" ry="2"/><rect class="c" x="418" y="34" rx="2" ry="2"/><rect class="c" x="418" y="50" rx="2" ry="2"/><rect class="c" x="418" y="66" rx="2" ry="2"/><rect class="c" x="418" y="82" rx="2" ry="2"/><rect class="c" x="418" y="98" rx="2" ry="2"/><rect class="c" x="434" y="2" rx="2" ry="2"/><rect class="c" x="434" y="18" rx="2" ry="2"/><rect class="c" x="434" y="34" rx="2" ry="2"/><rect class="c" x="434" y="50" rx="2" ry="2"/><rect class="c" x="434" y="66" rx="2" ry="2"/><rect class="c" x="434" y="82" rx="2" ry="2"/><rect class="c" x="434" y="98" rx="2" ry="2"/><rect class="c" x="450" y="2" rx="2" ry="2"/><rect class="c" x="450" y="18" rx="2" ry="2"/><rect class="c" x="450" y="34" rx="2" ry="2"/><rect class="c" x="450" y="50" rx="2" ry="2"/><rect class="c" x="450" y="66" rx="2" ry="2"/><rect class="c" x="450" y="82" rx="2" ry="2"/><rect class="c" x="450" y="98" rx="2" ry="2"/><rect class="c" x="466" y="2" rx="2" ry="2"/><rect class="c" x="466" y="18" rx="2" ry="2"/><rect class="c" x="466" y="34" rx="2" ry="2"/><rect class="c" x="466" y="50" rx="2" ry="2"/><rect class="c" x="466" y="66" rx="2" ry="2"/><rect class="c" x="466" y="82" rx="2" ry="2"/><rect class="c" x="466" y="98" rx="2" ry="2"/><rect class="c" x="482" y="2" rx="2" ry="2"/><rect class="c" x="482" y="18" rx="2" ry="2"/><rect class="c" x="482" y="34" rx="2" ry="2"/><rect class="c" x="482" y="50" rx="2" ry="2"/><rect class="c" x="482" y="66" rx="2" ry="2"/><rect class="c" x="482" y="82" rx="2" ry="2"/><rect class="c" x="482" y="98" rx="2" ry="2"/><rect class="c" x="498" y="2" rx="2" ry="2"/><rect class="c" x="498" y="18" rx="2" ry="2"/><rect class="c" x="498" y="34" rx="2" ry="2"/><rect class="c" x="498" y="50" rx="2" ry="2"/><rect class="c" x="498" y="66" rx="2" ry="2"/><rect class="c" x="498" y="82" rx="2" ry="2"/><rect class="c" x="498" y="98" rx="2" ry="2"/><rect class="c" x="514" y="2" rx="2" ry="2"/><rect class="c" x="514" y="18" rx="2" ry="2"/><rect class="c" x="514" y="34" rx="2" ry="2"/><rect class="c" x="514" y="50" rx="2" ry="2"/><rect class="c" x="514" y="66" rx="2" ry="2"/><rect class="c" x="514" y="82" rx="2" ry="2"/><rect class="c" x="514" y="98" rx="2" ry="2"/><rect class="c" x="530" y="2" rx="2" ry="2"/><rect class="c" x="530" y="18" rx="2" ry="2"/><rect class="c" x="530" y="34" rx="2" ry="2"/><rect class="c" x="530" y="50" rx="2" ry="2"/><rect class="c" x="530" y="66" rx="2" ry="2"/><rect class="c" x="530" y="82" rx="2" ry="2"/><rect class="c" x="530" y="98" rx="2" ry="2"/><rect class="c" x="546" y="2" rx="2" ry="2"/><rect class="c" x="546" y="18" rx="2" ry="2"/><rect class="c" x="546" y="34" rx="2" ry="2"/><rect class="c" x="546" y="50" rx="2" ry="2"/><rect class="c" x="546" y="66" rx="2" ry="2"/><rect class="c" x="546" y="82" rx="2" ry="2"/><rect class="c" x="546" y="98" rx="2" ry="2"/><rect class="c" x="562" y="2" rx="2" ry="2"/><rect class="c" x="562" y="18" rx="2" ry="2"/><rect class="c" x="562" y="34" rx="2" ry="2"/><rect class="c" x="562" y="50" rx="2" ry="2"/><rect class="c" x="562" y="66" rx="2" ry="2"/><rect class="c" x="562" y="82" rx="2" ry="2"/><rect class="c" x="562" y="98" rx="2" ry="2"/><rect class="c" x="578" y="2" rx="2" ry="2"/><rect class="c" x="578" y="18" rx="2" ry="2"/><rect class="c" x="578" y="34" rx="2" ry="2"/><rect class="c" x="578" y="50" rx="2" ry="2"/><rect class="c" x="578" y="66" rx="2" ry="2"/><rect class="c" x="578" y="82" rx="2" ry="2"/><rect class="c" x="578" y="98" rx="2" ry="2"/><rect class="c" x="594" y="2" rx="2" ry="2"/><rect class="c" x="594" y="18" rx="2" ry="2"/><rect class="c" x="594" y="34" rx="2" ry="2"/><rect class="c" x="594" y="50" rx="2" ry="2"/><rect class="c" x="594" y="66" rx="2" ry="2"/><rect class="c" x="594" y="82" rx="2" ry="2"/><rect class="c" x="594" y="98" rx="2" ry="2"/><rect class="c" x="610" y="2" rx="2" ry="2"/><rect class="c" x="610" y="18" rx="2" ry="2"/><rect class="c" x="610" y="34" rx="2" ry="2"/><rect class="c" x="610" y="50" rx="2" ry="2"/><rect class="c" x="610" y="66" rx="2" ry="2"/><rect class="c" x="610" y="82" rx="2" ry="2"/><rect class="c" x="610" y="98" rx="2" ry="2"/><rect class="c" x="626" y="2" rx="2" ry="2"/><rect class="c" x="626" y="18" rx="2" ry="2"/><rect class="c" x="626" y="34" rx="2" ry="2"/><rect class="c" x="626" y="50" rx="2" ry="2"/><rect class="c" x="626" y="66" rx="2" ry="2"/><rect class="c" x="626" y="82" rx="2" ry="2"/><rect class="c" x="626" y="98" rx="2" ry="2"/><rect class="c" x="642" y="2" rx="2" ry="2"/><rect class="c" x="642" y="18" rx="2" ry="2"/><rect class="c" x="642" y="34" rx="2" ry="2"/><rect class="c c0" x="642" y="50" rx="2" ry="2"/><rect class="c c1" x="642" y="66" rx="2" ry="2"/><rect class="c c2" x="642" y="82" rx="2" ry="2"/><rect class="c" x="642" y="98" rx="2" ry="2"/><rect class="c" x="658" y="2" rx="2" ry="2"/><rect class="c c3" x="658" y="18" rx="2" ry="2"/><rect class="c c4" x="658" y="34" rx="2" ry="2"/><rect class="c c5" x="658" y="50" rx="2" ry="2"/><rect class="c c6" x="658" y="66" rx="2" ry="2"/><rect class="c c7" x="658" y="82" rx="2" ry="2"/><rect class="c" x="658" y="98" rx="2" ry="2"/><rect class="c" x="674" y="2" rx="2" ry="2"/><rect class="c c8" x="674" y="18" rx="2" ry="2"/><rect class="c c9" x="674" y="34" rx="2" ry="2"/><rect class="c ca" x="674" y="50" rx="2" ry="2"/><rect class="c cb" x="674" y="66" rx="2" ry="2"/><rect class="c cc" x="674" y="82" rx="2" ry="2"/><rect class="c cd" x="674" y="98" rx="2" ry="2"/><rect class="c ce" x="690" y="2" rx="2" ry="2"/><rect class="c cf" x="690" y="18" rx="2" ry="2"/><rect class="c cg" x="690" y="34" rx="2" ry="2"/><rect class="c ch" x="690" y="50" rx="2" ry="2"/><rect class="c ci" x="690" y="66" rx="2" ry="2"/><rect class="c cj" x="690" y="82" rx="2" ry="2"/><rect class="c ck" x="690" y="98" rx="2" ry="2"/><rect class="c cl" x="706" y="2" rx="2" ry="2"/><rect class="c cm" x="706" y="18" rx="2" ry="2"/><rect class="c cn" x="706" y="34" rx="2" ry="2"/><rect class="c co" x="706" y="50" rx="2" ry="2"/><rect class="c cp" x="706" y="66" rx="2" ry="2"/><rect class="c cq" x="706" y="82" rx="2" ry="2"/><rect class="c cr" x="706" y="98" rx="2" ry="2"/><rect class="c cs" x="722" y="2" rx="2" ry="2"/><rect class="c ct" x="722" y="18" rx="2" ry="2"/><rect class="c cu" x="722" y="34" rx="2" ry="2"/><rect class="c cv" x="722" y="50" rx="2" ry="2"/><rect class="c cw" x="722" y="66" rx="2" ry="2"/><rect class="c cx" x="722" y="82" rx="2" ry="2"/><rect class="c cy" x="722" y="98" rx="2" ry="2"/><rect class="c cz" x="738" y="2" rx="2" ry="2"/><rect class="c c10" x="738" y="18" rx="2" ry="2"/><rect class="c c11" x="738" y="34" rx="2" ry="2"/><rect class="c c12" x="738" y="50" rx="2" ry="2"/><rect class="c c13" x="738" y="66" rx="2" ry="2"/><rect class="c c14" x="738" y="82" rx="2" ry="2"/><rect class="c c15" x="738" y="98" rx="2" ry="2"/><rect class="c c16" x="754" y="2" rx="2" ry="2"/><rect class="c c17" x="754" y="18" rx="2" ry="2"/><rect class="c c18" x="754" y="34" rx="2" ry="2"/><rect class="c c19" x="754" y="50" rx="2" ry="2"/><rect class="c c1a" x="754" y="66" rx="2" ry="2"/><rect class="c c1b" x="754" y="82" rx="2" ry="2"/><rect class="c c1c" x="754" y="98" rx="2" ry="2"/><rect class="c c1d" x="770" y="2" rx="2" ry="2"/><rect class="c c1e" x="770" y="18" rx="2" ry="2"/><rect class="c c1f" x="770" y="34" rx="2" ry="2"/><rect class="c c1g" x="770" y="50" rx="2" ry="2"/><rect class="c c1h" x="770" y="66" rx="2" ry="2"/><rect class="c c1i" x="770" y="82" rx="2" ry="2"/><rect class="c c1j" x="770" y="98" rx="2" ry="2"/><rect class="c c1k" x="786" y="2" rx="2" ry="2"/><rect class="c c1l" x="786" y="18" rx="2" ry="2"/><rect class="c c1m" x="786" y="34" rx="2" ry="2"/><rect class="c c1n" x="786" y="50" rx="2" ry="2"/><rect class="c c1o" x="786" y="66" rx="2" ry="2"/><rect class="c c1p" x="786" y="82" rx="2" ry="2"/><rect class="c c1q" x="786" y="98" rx="2" ry="2"/><rect class="c c1r" x="802" y="2" rx="2" ry="2"/><rect class="c c1s" x="802" y="18" rx="2" ry="2"/><rect class="c c1t" x="802" y="34" rx="2" ry="2"/><rect class="c c1u" x="802" y="50" rx="2" ry="2"/><rect class="c c1v" x="802" y="66" rx="2" ry="2"/><rect class="c c1w" x="802" y="82" rx="2" ry="2"/><rect class="c c1x" x="802" y="98" rx="2" ry="2"/><rect class="c c1y" x="818" y="2" rx="2" ry="2"/><rect class="c c1z" x="818" y="18" rx="2" ry="2"/><rect class="c c20" x="818" y="34" rx="2" ry="2"/><rect class="c c21" x="818" y="50" rx="2" ry="2"/><rect class="c c22" x="818" y="66" rx="2" ry="2"/><rect class="c c23" x="818" y="82" rx="2" ry="2"/><rect class="c c24" x="818" y="98" rx="2" ry="2"/><rect class="c c25" x="834" y="2" rx="2" ry="2"/><rect class="c c26" x="834" y="18" rx="2" ry="2"/><rect class="u u0" height="12" width="397.8" x="0.0" y="144"/><rect class="u u1" height="12" width="11.3" x="397.2" y="144"/><rect class="u u2" height="12" width="22.1" x="407.9" y="144"/><rect class="u u3" height="12" width="22.1" x="429.4" y="144"/><rect class="u u4" height="12" width="11.3" x="450.8" y="144"/><rect class="u u5" height="12" width="172.3" x="461.6" y="144"/><rect class="u u6" height="12" width="11.3" x="633.3" y="144"/><rect class="u u7" height="12" width="11.3" x="644.1" y="144"/><rect class="u u8" height="12" width="11.3" x="654.8" y="144"/><rect class="u u9" height="12" width="11.3" x="665.5" y="144"/><rect class="u ua" height="12" width="11.3" x="676.3" y="144"/><rect class="u ub" height="12" width="11.3" x="687.0" y="144"/><rect class="u uc" height="12" width="86.5" x="697.7" y="144"/><rect class="u ud" height="12" width="65.0" x="783.6" y="144"/><rect class="s s0" x="0.8" y="0.8" width="14.4" height="14.4" rx="4.5" ry="4.5"/><rect class="s s1" x="1.8" y="1.8" width="12.3" height="12.3" rx="4.1" ry="4.1"/><rect class="s s2" x="2.6" y="2.6" width="10.8" height="10.8" rx="3.6" ry="3.6"/><rect class="s s3" x="3.0" y="3.0" width="9.9" height="9.9" rx="3.3" ry="3.3"/></svg>