<svg viewBox="-16 -32 880 192" width="880" height="192" xmlns="http://www.w3.org/2000/svg"><desc>Generated with https://github.com/Platane/snk</desc><style>:root{--cb:#1b1f230a;--cs:#7845ab;--ce:#ebedf0;--c0:#ebedf0;--c1:#9be9a8;--c2:#40c463;--c3:#30a14e;--c4:#216e39}.c{shape-rendering:geometricPrecision;fill:var(--ce);stroke-width:1px;stroke:var(--cb);animation:none 35100ms linear infinite;width:12px;height:12px}@keyframes c0{26.2%{fill:var(--c1)}26.22%,100%{fill:var(--ce)}}.c.c0{fill:var(--c1);animation-name:c0}@keyframes c1{25.92%{fill:var(--c1)}25.94%,100%{fill:var(--ce)}}.c.c1{fill:var(--c1);animation-name:c1}@keyframes c2{56.97%{fill:var(--c2)}56.99%,100%{fill:var(--ce)}}.c.c2{fill:var(--c2);animation-name:c2}@keyframes c3{12.24%{fill:var(--c1)}12.26%,100%{fill:var(--ce)}}.c.c3{fill:var(--c1);animation-name:c3}@keyframes c4{58.11%{fill:var(--c2)}58.13%,100%{fill:var(--ce)}}.c.c4{fill:var(--c2);animation-name:c4}@keyframes c5{72.07%{fill:var(--c3)}72.09%,100%{fill:var(--ce)}}.c.c5{fill:var(--c3);animation-name:c5}@keyframes c6{72.35%{fill:var(--c3)}72.37%,100%{fill:var(--ce)}}.c.c6{fill:var(--c3);animation-name:c6}@keyframes c7{86.31%{fill:var(--c4)}86.33%,100%{fill:var(--ce)}}.c.c7{fill:var(--c4);animation-name:c7}@keyframes c8{12.53%{fill:var(--c1)}12.55%,100%{fill:var(--ce)}}.c.c8{fill:var(--c1);animation-name:c8}@keyframes c9{58.39%{fill:var(--c2)}58.41%,100%{fill:var(--ce)}}.c.c9{fill:var(--c2);animation-name:c9}@keyframes ca{71.78%{fill:var(--c3)}71.8%,100%{fill:var(--ce)}}.c.ca{fill:var(--c3);animation-name:ca}@keyframes cb{85.74%{fill:var(--c4)}85.76%,100%{fill:var(--ce)}}.c.cb{fill:var(--c4);animation-name:cb}@keyframes cc{69.51%{fill:var(--c2)}69.53%,100%{fill:var(--ce)}}.c.cc{fill:var(--c2);animation-name:cc}@keyframes cd{24.21%{fill:var(--c1)}24.23%,100%{fill:var(--ce)}}.c.cd{fill:var(--c1);animation-name:cd}@keyframes ce{13.1%{fill:var(--c1)}13.12%,100%{fill:var(--ce)}}.c.ce{fill:var(--c1);animation-name:ce}@keyframes cf{58.96%{fill:var(--c2)}58.98%,100%{fill:var(--ce)}}.c.cf{fill:var(--c2);animation-name:cf}@keyframes cg{70.65%{fill:var(--c3)}70.67%,100%{fill:var(--ce)}}.c.cg{fill:var(--c3);animation-name:cg}@keyframes ch{54.41%{fill:var(--c2)}54.43%,100%{fill:var(--ce)}}.c.ch{fill:var(--c2);animation-name:ch}@keyframes ci{54.69%{fill:var(--c2)}54.71%,100%{fill:var(--ce)}}.c.ci{fill:var(--c2);animation-name:ci}@keyframes cj{69.79%{fill:var(--c3)}69.81%,100%{fill:var(--ce)}}.c.cj{fill:var(--c3);animation-name:cj}@keyframes ck{23.92%{fill:var(--c1)}23.94%,100%{fill:var(--ce)}}.c.ck{fill:var(--c1);animation-name:ck}@keyframes cl{13.38%{fill:var(--c1)}13.4%,100%{fill:var(--ce)}}.c.cl{fill:var(--c1);animation-name:cl}@keyframes cm{43.86%{fill:var(--c1)}43.88%,100%{fill:var(--ce)}}.c.cm{fill:var(--c1);animation-name:cm}@keyframes cn{70.93%{fill:var(--c3)}70.95%,100%{fill:var(--ce)}}.c.cn{fill:var(--c3);animation-name:cn}@keyframes co{54.12%{fill:var(--c2)}54.14%,100%{fill:var(--ce)}}.c.co{fill:var(--c2);animation-name:co}@keyframes cp{38.45%{fill:var(--c1)}38.47%,100%{fill:var(--ce)}}.c.cp{fill:var(--c1);animation-name:cp}@keyframes cq{38.74%{fill:var(--c1)}38.76%,100%{fill:var(--ce)}}.c.cq{fill:var(--c1);animation-name:cq}@keyframes cr{23.64%{fill:var(--c1)}23.66%,100%{fill:var(--ce)}}.c.cr{fill:var(--c1);animation-name:cr}@keyframes cs{13.67%{fill:var(--c1)}13.69%,100%{fill:var(--ce)}}.c.cs{fill:var(--c1);animation-name:cs}@keyframes ct{44.15%{fill:var(--c2)}44.17%,100%{fill:var(--ce)}}.c.ct{fill:var(--c2);animation-name:ct}@keyframes cu{84.32%{fill:var(--c4)}84.34%,100%{fill:var(--ce)}}.c.cu{fill:var(--c4);animation-name:cu}@keyframes cv{52.7%{fill:var(--c2)}52.72%,100%{fill:var(--ce)}}.c.cv{fill:var(--c2);animation-name:cv}@keyframes cw{38.17%{fill:var(--c2)}38.19%,100%{fill:var(--ce)}}.c.cw{fill:var(--c2);animation-name:cw}@keyframes cx{52.13%{fill:var(--c2)}52.15%,100%{fill:var(--ce)}}.c.cx{fill:var(--c2);animation-name:cx}@keyframes cy{23.35%{fill:var(--c1)}23.37%,100%{fill:var(--ce)}}.c.cy{fill:var(--c1);animation-name:cy}@keyframes cz{13.95%{fill:var(--c1)}13.97%,100%{fill:var(--ce)}}.c.cz{fill:var(--c1);animation-name:cz}@keyframes c10{59.82%{fill:var(--c2)}59.84%,100%{fill:var(--ce)}}.c.c10{fill:var(--c2);animation-name:c10}@keyframes c11{74.92%{fill:var(--c3)}74.94%,100%{fill:var(--ce)}}.c.c11{fill:var(--c3);animation-name:c11}@keyframes c12{52.98%{fill:var(--c2)}53%,100%{fill:var(--ce)}}.c.c12{fill:var(--c2);animation-name:c12}@keyframes c13{37.88%{fill:var(--c1)}37.9%,100%{fill:var(--ce)}}.c.c13{fill:var(--c1);animation-name:c13}@keyframes c14{37.6%{fill:var(--c2)}37.62%,100%{fill:var(--ce)}}.c.c14{fill:var(--c2);animation-name:c14}@keyframes c15{23.07%{fill:var(--c1)}23.09%,100%{fill:var(--ce)}}.c.c15{fill:var(--c1);animation-name:c15}@keyframes c16{14.24%{fill:var(--c1)}14.26%,100%{fill:var(--ce)}}.c.c16{fill:var(--c1);animation-name:c16}@keyframes c17{60.1%{fill:var(--c2)}60.12%,100%{fill:var(--ce)}}.c.c17{fill:var(--c2);animation-name:c17}@keyframes c18{75.2%{fill:var(--c3)}75.22%,100%{fill:var(--ce)}}.c.c18{fill:var(--c3);animation-name:c18}@keyframes c19{83.47%{fill:var(--c4)}83.49%,100%{fill:var(--ce)}}.c.c19{fill:var(--c4);animation-name:c19}@keyframes c1a{76.34%{fill:var(--c3)}76.36%,100%{fill:var(--ce)}}.c.c1a{fill:var(--c3);animation-name:c1a}@keyframes c1b{51.56%{fill:var(--c2)}51.58%,100%{fill:var(--ce)}}.c.c1b{fill:var(--c2);animation-name:c1b}@keyframes c1c{22.78%{fill:var(--c1)}22.8%,100%{fill:var(--ce)}}.c.c1c{fill:var(--c1);animation-name:c1c}@keyframes c1d{14.52%{fill:var(--c1)}14.54%,100%{fill:var(--ce)}}.c.c1d{fill:var(--c1);animation-name:c1d}@keyframes c1e{60.39%{fill:var(--c2)}60.41%,100%{fill:var(--ce)}}.c.c1e{fill:var(--c2);animation-name:c1e}@keyframes c1f{64.66%{fill:var(--c3)}64.68%,100%{fill:var(--ce)}}.c.c1f{fill:var(--c3);animation-name:c1f}@keyframes c1g{75.77%{fill:var(--c3)}75.79%,100%{fill:var(--ce)}}.c.c1g{fill:var(--c3);animation-name:c1g}@keyframes c1h{20.79%{fill:var(--c1)}20.81%,100%{fill:var(--ce)}}.c.c1h{fill:var(--c1);animation-name:c1h}@keyframes c1i{21.07%{fill:var(--c1)}21.09%,100%{fill:var(--ce)}}.c.c1i{fill:var(--c1);animation-name:c1i}@keyframes c1j{77.2%{fill:var(--c3)}77.22%,100%{fill:var(--ce)}}.c.c1j{fill:var(--c3);animation-name:c1j}@keyframes c1k{80.33%{fill:var(--c3)}80.35%,100%{fill:var(--ce)}}.c.c1k{fill:var(--c3);animation-name:c1k}@keyframes c1l{80.62%{fill:var(--c4)}80.64%,100%{fill:var(--ce)}}.c.c1l{fill:var(--c4);animation-name:c1l}@keyframes c1m{64.38%{fill:var(--c2)}64.4%,100%{fill:var(--ce)}}.c.c1m{fill:var(--c2);animation-name:c1m}@keyframes c1n{81.19%{fill:var(--c4)}81.21%,100%{fill:var(--ce)}}.c.c1n{fill:var(--c4);animation-name:c1n}@keyframes c1o{20.5%{fill:var(--c1)}20.52%,100%{fill:var(--ce)}}.c.c1o{fill:var(--c1);animation-name:c1o}@keyframes c1p{20.22%{fill:var(--c1)}20.24%,100%{fill:var(--ce)}}.c.c1p{fill:var(--c1);animation-name:c1p}@keyframes c1q{19.93%{fill:var(--c1)}19.95%,100%{fill:var(--ce)}}.c.c1q{fill:var(--c1);animation-name:c1q}@keyframes c1r{15.66%{fill:var(--c1)}15.68%,100%{fill:var(--ce)}}.c.c1r{fill:var(--c1);animation-name:c1r}@keyframes c1s{32.47%{fill:var(--c1)}32.49%,100%{fill:var(--ce)}}.c.c1s{fill:var(--c1);animation-name:c1s}@keyframes c1t{32.18%{fill:var(--c2)}32.2%,100%{fill:var(--ce)}}.c.c1t{fill:var(--c2);animation-name:c1t}@keyframes c1u{31.9%{fill:var(--c1)}31.92%,100%{fill:var(--ce)}}.c.c1u{fill:var(--c1);animation-name:c1u}@keyframes c1v{31.61%{fill:var(--c1)}31.63%,100%{fill:var(--ce)}}.c.c1v{fill:var(--c1);animation-name:c1v}@keyframes c1w{50.7%{fill:var(--c2)}50.72%,100%{fill:var(--ce)}}.c.c1w{fill:var(--c2);animation-name:c1w}@keyframes c1x{19.65%{fill:var(--c1)}19.67%,100%{fill:var(--ce)}}.c.c1x{fill:var(--c1);animation-name:c1x}@keyframes c1y{15.94%{fill:var(--c1)}15.96%,100%{fill:var(--ce)}}.c.c1y{fill:var(--c1);animation-name:c1y}@keyframes c1z{62.38%{fill:var(--c2)}62.4%,100%{fill:var(--ce)}}.c.c1z{fill:var(--c2);animation-name:c1z}@keyframes c20{79.19%{fill:var(--c3)}79.21%,100%{fill:var(--ce)}}.c.c20{fill:var(--c3);animation-name:c20}@keyframes c21{81.76%{fill:var(--c4)}81.78%,100%{fill:var(--ce)}}.c.c21{fill:var(--c4);animation-name:c21}@keyframes c22{50.13%{fill:var(--c2)}50.15%,100%{fill:var(--ce)}}.c.c22{fill:var(--c2);animation-name:c22}@keyframes c23{49.28%{fill:var(--c1)}49.3%,100%{fill:var(--ce)}}.c.c23{fill:var(--c1);animation-name:c23}@keyframes c24{19.36%{fill:var(--c1)}19.38%,100%{fill:var(--ce)}}.c.c24{fill:var(--c1);animation-name:c24}@keyframes c25{16.23%{fill:var(--c1)}16.25%,100%{fill:var(--ce)}}.c.c25{fill:var(--c1);animation-name:c25}@keyframes c26{62.67%{fill:var(--c2)}62.69%,100%{fill:var(--ce)}}.c.c26{fill:var(--c2);animation-name:c26}@keyframes c27{17.37%{fill:var(--c1)}17.39%,100%{fill:var(--ce)}}.c.c27{fill:var(--c1);animation-name:c27}@keyframes c28{17.65%{fill:var(--c1)}17.67%,100%{fill:var(--ce)}}.c.c28{fill:var(--c1);animation-name:c28}@keyframes c29{49.85%{fill:var(--c2)}49.87%,100%{fill:var(--ce)}}.c.c29{fill:var(--c2);animation-name:c29}@keyframes c2a{49.56%{fill:var(--c2)}49.58%,100%{fill:var(--ce)}}.c.c2a{fill:var(--c2);animation-name:c2a}.u{transform-origin:0 0;transform:scale(0,1);animation:none linear 35100ms infinite}@keyframes u0{12.24%{transform:scale(0.000,1)}12.26%,12.53%{transform:scale(0.033,1)}12.55%,13.1%{transform:scale(0.067,1)}13.12%,13.38%{transform:scale(0.100,1)}13.4%,13.67%{transform:scale(0.133,1)}13.69%,13.95%{transform:scale(0.167,1)}13.97%,14.24%{transform:scale(0.200,1)}14.26%,14.52%{transform:scale(0.233,1)}14.54%,15.66%{transform:scale(0.267,1)}15.68%,15.94%{transform:scale(0.300,1)}15.96%,16.23%{transform:scale(0.333,1)}16.25%,17.37%{transform:scale(0.367,1)}17.39%,17.65%{transform:scale(0.400,1)}17.67%,19.36%{transform:scale(0.433,1)}19.38%,19.65%{transform:scale(0.467,1)}19.67%,19.93%{transform:scale(0.500,1)}19.95%,20.22%{transform:scale(0.533,1)}20.24%,20.5%{transform:scale(0.567,1)}20.52%,20.79%{transform:scale(0.600,1)}20.81%,21.07%{transform:scale(0.633,1)}21.09%,22.78%{transform:scale(0.667,1)}22.8%,23.07%{transform:scale(0.700,1)}23.09%,23.35%{transform:scale(0.733,1)}23.37%,23.64%{transform:scale(0.767,1)}23.66%,23.92%{transform:scale(0.800,1)}23.94%,24.21%{transform:scale(0.833,1)}24.23%,25.92%{transform:scale(0.867,1)}25.94%,26.2%{transform:scale(0.900,1)}26.22%,31.61%{transform:scale(0.933,1)}31.63%,31.9%{transform:scale(0.967,1)}31.92%,100%{transform:scale(1.000,1)}}.u.u0{fill:var(--c1);animation-name:u0;transform-origin:0.0px 0}@keyframes u1{32.18%{transform:scale(0.000,1)}32.2%,100%{transform:scale(1.000,1)}}.u.u1{fill:var(--c2);animation-name:u1;transform-origin:306.5px 0}@keyframes u2{32.47%{transform:scale(0.000,1)}32.49%,100%{transform:scale(1.000,1)}}.u.u2{fill:var(--c1);animation-name:u2;transform-origin:316.7px 0}@keyframes u3{37.6%{transform:scale(0.000,1)}37.62%,100%{transform:scale(1.000,1)}}.u.u3{fill:var(--c2);animation-name:u3;transform-origin:326.9px 0}@keyframes u4{37.88%{transform:scale(0.000,1)}37.9%,100%{transform:scale(1.000,1)}}.u.u4{fill:var(--c1);animation-name:u4;transform-origin:337.2px 0}@keyframes u5{38.17%{transform:scale(0.000,1)}38.19%,100%{transform:scale(1.000,1)}}.u.u5{fill:var(--c2);animation-name:u5;transform-origin:347.4px 0}@keyframes u6{38.45%{transform:scale(0.000,1)}38.47%,38.74%{transform:scale(0.333,1)}38.76%,43.86%{transform:scale(0.667,1)}43.88%,100%{transform:scale(1.000,1)}}.u.u6{fill:var(--c1);animation-name:u6;transform-origin:357.6px 0}@keyframes u7{44.15%{transform:scale(0.000,1)}44.17%,100%{transform:scale(1.000,1)}}.u.u7{fill:var(--c2);animation-name:u7;transform-origin:388.2px 0}@keyframes u8{49.28%{transform:scale(0.000,1)}49.3%,100%{transform:scale(1.000,1)}}.u.u8{fill:var(--c1);animation-name:u8;transform-origin:398.5px 0}@keyframes u9{49.56%{transform:scale(0.000,1)}49.58%,49.85%{transform:scale(0.048,1)}49.87%,50.13%{transform:scale(0.095,1)}50.15%,50.7%{transform:scale(0.143,1)}50.72%,51.56%{transform:scale(0.190,1)}51.58%,52.13%{transform:scale(0.238,1)}52.15%,52.7%{transform:scale(0.286,1)}52.72%,52.98%{transform:scale(0.333,1)}53%,54.12%{transform:scale(0.381,1)}54.14%,54.41%{transform:scale(0.429,1)}54.43%,54.69%{transform:scale(0.476,1)}54.71%,56.97%{transform:scale(0.524,1)}56.99%,58.11%{transform:scale(0.571,1)}58.13%,58.39%{transform:scale(0.619,1)}58.41%,58.96%{transform:scale(0.667,1)}58.98%,59.82%{transform:scale(0.714,1)}59.84%,60.1%{transform:scale(0.762,1)}60.12%,60.39%{transform:scale(0.810,1)}60.41%,62.38%{transform:scale(0.857,1)}62.4%,62.67%{transform:scale(0.905,1)}62.69%,64.38%{transform:scale(0.952,1)}64.4%,100%{transform:scale(1.000,1)}}.u.u9{fill:var(--c2);animation-name:u9;transform-origin:408.7px 0}@keyframes ua{64.66%{transform:scale(0.000,1)}64.68%,100%{transform:scale(1.000,1)}}.u.ua{fill:var(--c3);animation-name:ua;transform-origin:623.2px 0}@keyframes ub{69.51%{transform:scale(0.000,1)}69.53%,100%{transform:scale(1.000,1)}}.u.ub{fill:var(--c2);animation-name:ub;transform-origin:633.4px 0}@keyframes uc{69.79%{transform:scale(0.000,1)}69.81%,70.65%{transform:scale(0.077,1)}70.67%,70.93%{transform:scale(0.154,1)}70.95%,71.78%{transform:scale(0.231,1)}71.8%,72.07%{transform:scale(0.308,1)}72.09%,72.35%{transform:scale(0.385,1)}72.37%,74.92%{transform:scale(0.462,1)}74.94%,75.2%{transform:scale(0.538,1)}75.22%,75.77%{transform:scale(0.615,1)}75.79%,76.34%{transform:scale(0.692,1)}76.36%,77.2%{transform:scale(0.769,1)}77.22%,79.19%{transform:scale(0.846,1)}79.21%,80.33%{transform:scale(0.923,1)}80.35%,100%{transform:scale(1.000,1)}}.u.uc{fill:var(--c3);animation-name:uc;transform-origin:643.7px 0}@keyframes ud{80.62%{transform:scale(0.000,1)}80.64%,81.19%{transform:scale(0.143,1)}81.21%,81.76%{transform:scale(0.286,1)}81.78%,83.47%{transform:scale(0.429,1)}83.49%,84.32%{transform:scale(0.571,1)}84.34%,85.74%{transform:scale(0.714,1)}85.76%,86.31%{transform:scale(0.857,1)}86.33%,100%{transform:scale(1.000,1)}}.u.ud{fill:var(--c4);animation-name:ud;transform-origin:776.5px 0}.s{shape-rendering:geometricPrecision;fill:var(--cs);animation:none linear 35100ms infinite}@keyframes s0{0%,99.72%{transform:translate(0px,-16px)}0.28%{transform:translate(0px,0px)}11.97%{transform:translate(656px,0px)}12.25%,66.95%{transform:translate(656px,16px)}12.54%,58.69%{transform:translate(672px,16px)}12.82%{transform:translate(672px,0px)}14.53%,45.3%{transform:translate(768px,0px)}14.81%,45.58%,60.97%{transform:translate(768px,-16px)}15.38%,33.62%,46.15%{transform:translate(800px,-16px)}15.67%,32.76%{transform:translate(800px,0px)}16.52%{transform:translate(848px,0px)}17.09%{transform:translate(848px,32px)}17.38%{transform:translate(832px,32px)}17.66%{transform:translate(832px,48px)}17.95%{transform:translate(848px,48px)}18.8%{transform:translate(848px,96px)}19.94%,48.43%{transform:translate(784px,96px)}20.51%,31.34%,35.33%,47.86%{transform:translate(784px,64px)}20.8%,76.07%{transform:translate(768px,64px)}21.08%,76.92%{transform:translate(768px,80px)}21.37%{transform:translate(784px,80px)}21.94%,30.48%,36.18%{transform:translate(784px,112px)}22.51%{transform:translate(752px,112px)}22.79%{transform:translate(752px,96px)}25.07%,40.46%{transform:translate(624px,96px)}25.64%{transform:translate(624px,64px)}25.93%,72.65%{transform:translate(640px,64px)}26.21%,72.93%{transform:translate(640px,48px)}26.5%{transform:translate(624px,48px)}27.64%{transform:translate(624px,112px)}31.62%,35.04%,47.58%,50.43%{transform:translate(800px,64px)}33.05%,63.25%,79.77%{transform:translate(816px,0px)}33.33%,61.82%{transform:translate(816px,-16px)}37.04%{transform:translate(736px,112px)}37.89%,53.28%{transform:translate(736px,64px)}38.46%,54.99%{transform:translate(704px,64px)}39.03%,55.56%{transform:translate(704px,96px)}41.6%{transform:translate(624px,32px)}41.88%,57.83%,67.52%{transform:translate(640px,32px)}42.45%{transform:translate(640px,0px)}43.59%{transform:translate(704px,0px)}43.87%{transform:translate(704px,16px)}44.16%{transform:translate(720px,16px)}44.44%{transform:translate(720px,0px)}49%{transform:translate(816px,96px)}49.29%{transform:translate(816px,80px)}49.57%{transform:translate(832px,80px)}49.86%{transform:translate(832px,64px)}50.71%{transform:translate(800px,80px)}52.14%{transform:translate(720px,80px)}52.71%,53.85%{transform:translate(720px,48px)}52.99%,74.64%,83.76%{transform:translate(736px,48px)}53.56%{transform:translate(720px,64px)}54.42%{transform:translate(688px,48px)}54.7%{transform:translate(688px,64px)}56.7%,68.66%{transform:translate(640px,96px)}58.4%,85.19%{transform:translate(672px,32px)}60.4%,64.96%{transform:translate(768px,16px)}62.39%,63.53%{transform:translate(816px,16px)}62.68%{transform:translate(832px,16px)}62.96%{transform:translate(832px,0px)}63.82%{transform:translate(800px,16px)}64.1%,78.92%{transform:translate(800px,32px)}64.67%,75.5%{transform:translate(768px,32px)}67.24%{transform:translate(656px,32px)}69.23%{transform:translate(672px,96px)}69.52%{transform:translate(672px,80px)}69.8%{transform:translate(688px,80px)}70.66%{transform:translate(688px,32px)}70.94%{transform:translate(704px,32px)}71.23%{transform:translate(704px,48px)}72.08%{transform:translate(656px,48px)}72.36%,86.04%{transform:translate(656px,64px)}74.93%,84.05%{transform:translate(736px,32px)}76.35%{transform:translate(752px,64px)}76.64%{transform:translate(752px,80px)}77.21%{transform:translate(768px,96px)}77.78%{transform:translate(800px,96px)}79.2%,82.05%{transform:translate(816px,32px)}80.34%{transform:translate(784px,0px)}81.2%{transform:translate(784px,48px)}81.77%{transform:translate(816px,48px)}83.19%{transform:translate(752px,32px)}83.48%{transform:translate(752px,48px)}85.75%{transform:translate(672px,64px)}86.32%{transform:translate(656px,80px)}96.87%{transform:translate(64px,80px)}98.58%{transform:translate(64px,-16px)}}.s.s0{transform:translate(0px,-16px);animation-name:s0}@keyframes s1{0%,99.72%{transform:translate(16px,-16px)}0.28%{transform:translate(0px,-16px)}0.57%{transform:translate(0px,0px)}12.25%{transform:translate(656px,0px)}12.54%,67.24%{transform:translate(656px,16px)}12.82%,58.97%{transform:translate(672px,16px)}13.11%{transform:translate(672px,0px)}14.81%,45.58%{transform:translate(768px,0px)}15.1%,45.87%,61.25%{transform:translate(768px,-16px)}15.67%,33.9%,46.44%{transform:translate(800px,-16px)}15.95%,33.05%{transform:translate(800px,0px)}16.81%{transform:translate(848px,0px)}17.38%{transform:translate(848px,32px)}17.66%{transform:translate(832px,32px)}17.95%{transform:translate(832px,48px)}18.23%{transform:translate(848px,48px)}19.09%{transform:translate(848px,96px)}20.23%,48.72%{transform:translate(784px,96px)}20.8%,31.62%,35.61%,48.15%{transform:translate(784px,64px)}21.08%,76.35%{transform:translate(768px,64px)}21.37%,77.21%{transform:translate(768px,80px)}21.65%{transform:translate(784px,80px)}22.22%,30.77%,36.47%{transform:translate(784px,112px)}22.79%{transform:translate(752px,112px)}23.08%{transform:translate(752px,96px)}25.36%,40.74%{transform:translate(624px,96px)}25.93%{transform:translate(624px,64px)}26.21%,72.93%{transform:translate(640px,64px)}26.5%,73.22%{transform:translate(640px,48px)}26.78%{transform:translate(624px,48px)}27.92%{transform:translate(624px,112px)}31.91%,35.33%,47.86%,50.71%{transform:translate(800px,64px)}33.33%,63.53%,80.06%{transform:translate(816px,0px)}33.62%,62.11%{transform:translate(816px,-16px)}37.32%{transform:translate(736px,112px)}38.18%,53.56%{transform:translate(736px,64px)}38.75%,55.27%{transform:translate(704px,64px)}39.32%,55.84%{transform:translate(704px,96px)}41.88%{transform:translate(624px,32px)}42.17%,58.12%,67.81%{transform:translate(640px,32px)}42.74%{transform:translate(640px,0px)}43.87%{transform:translate(704px,0px)}44.16%{transform:translate(704px,16px)}44.44%{transform:translate(720px,16px)}44.73%{transform:translate(720px,0px)}49.29%{transform:translate(816px,96px)}49.57%{transform:translate(816px,80px)}49.86%{transform:translate(832px,80px)}50.14%{transform:translate(832px,64px)}51%{transform:translate(800px,80px)}52.42%{transform:translate(720px,80px)}52.99%,54.13%{transform:translate(720px,48px)}53.28%,74.93%,84.05%{transform:translate(736px,48px)}53.85%{transform:translate(720px,64px)}54.7%{transform:translate(688px,48px)}54.99%{transform:translate(688px,64px)}56.98%,68.95%{transform:translate(640px,96px)}58.69%,85.47%{transform:translate(672px,32px)}60.68%,65.24%{transform:translate(768px,16px)}62.68%,63.82%{transform:translate(816px,16px)}62.96%{transform:translate(832px,16px)}63.25%{transform:translate(832px,0px)}64.1%{transform:translate(800px,16px)}64.39%,79.2%{transform:translate(800px,32px)}64.96%,75.78%{transform:translate(768px,32px)}67.52%{transform:translate(656px,32px)}69.52%{transform:translate(672px,96px)}69.8%{transform:translate(672px,80px)}70.09%{transform:translate(688px,80px)}70.94%{transform:translate(688px,32px)}71.23%{transform:translate(704px,32px)}71.51%{transform:translate(704px,48px)}72.36%{transform:translate(656px,48px)}72.65%,86.32%{transform:translate(656px,64px)}75.21%,84.33%{transform:translate(736px,32px)}76.64%{transform:translate(752px,64px)}76.92%{transform:translate(752px,80px)}77.49%{transform:translate(768px,96px)}78.06%{transform:translate(800px,96px)}79.49%,82.34%{transform:translate(816px,32px)}80.63%{transform:translate(784px,0px)}81.48%{transform:translate(784px,48px)}82.05%{transform:translate(816px,48px)}83.48%{transform:translate(752px,32px)}83.76%{transform:translate(752px,48px)}86.04%{transform:translate(672px,64px)}86.61%{transform:translate(656px,80px)}97.15%{transform:translate(64px,80px)}98.86%{transform:translate(64px,-16px)}}.s.s1{transform:translate(16px,-16px);animation-name:s1}@keyframes s2{0%,99.72%{transform:translate(32px,-16px)}0.57%{transform:translate(0px,-16px)}0.85%{transform:translate(0px,0px)}12.54%{transform:translate(656px,0px)}12.82%,67.52%{transform:translate(656px,16px)}13.11%,59.26%{transform:translate(672px,16px)}13.39%{transform:translate(672px,0px)}15.1%,45.87%{transform:translate(768px,0px)}15.38%,46.15%,61.54%{transform:translate(768px,-16px)}15.95%,34.19%,46.72%{transform:translate(800px,-16px)}16.24%,33.33%{transform:translate(800px,0px)}17.09%{transform:translate(848px,0px)}17.66%{transform:translate(848px,32px)}17.95%{transform:translate(832px,32px)}18.23%{transform:translate(832px,48px)}18.52%{transform:translate(848px,48px)}19.37%{transform:translate(848px,96px)}20.51%,49%{transform:translate(784px,96px)}21.08%,31.91%,35.9%,48.43%{transform:translate(784px,64px)}21.37%,76.64%{transform:translate(768px,64px)}21.65%,77.49%{transform:translate(768px,80px)}21.94%{transform:translate(784px,80px)}22.51%,31.05%,36.75%{transform:translate(784px,112px)}23.08%{transform:translate(752px,112px)}23.36%{transform:translate(752px,96px)}25.64%,41.03%{transform:translate(624px,96px)}26.21%{transform:translate(624px,64px)}26.5%,73.22%{transform:translate(640px,64px)}26.78%,73.5%{transform:translate(640px,48px)}27.07%{transform:translate(624px,48px)}28.21%{transform:translate(624px,112px)}32.19%,35.61%,48.15%,51%{transform:translate(800px,64px)}33.62%,63.82%,80.34%{transform:translate(816px,0px)}33.9%,62.39%{transform:translate(816px,-16px)}37.61%{transform:translate(736px,112px)}38.46%,53.85%{transform:translate(736px,64px)}39.03%,55.56%{transform:translate(704px,64px)}39.6%,56.13%{transform:translate(704px,96px)}42.17%{transform:translate(624px,32px)}42.45%,58.4%,68.09%{transform:translate(640px,32px)}43.02%{transform:translate(640px,0px)}44.16%{transform:translate(704px,0px)}44.44%{transform:translate(704px,16px)}44.73%{transform:translate(720px,16px)}45.01%{transform:translate(720px,0px)}49.57%{transform:translate(816px,96px)}49.86%{transform:translate(816px,80px)}50.14%{transform:translate(832px,80px)}50.43%{transform:translate(832px,64px)}51.28%{transform:translate(800px,80px)}52.71%{transform:translate(720px,80px)}53.28%,54.42%{transform:translate(720px,48px)}53.56%,75.21%,84.33%{transform:translate(736px,48px)}54.13%{transform:translate(720px,64px)}54.99%{transform:translate(688px,48px)}55.27%{transform:translate(688px,64px)}57.26%,69.23%{transform:translate(640px,96px)}58.97%,85.75%{transform:translate(672px,32px)}60.97%,65.53%{transform:translate(768px,16px)}62.96%,64.1%{transform:translate(816px,16px)}63.25%{transform:translate(832px,16px)}63.53%{transform:translate(832px,0px)}64.39%{transform:translate(800px,16px)}64.67%,79.49%{transform:translate(800px,32px)}65.24%,76.07%{transform:translate(768px,32px)}67.81%{transform:translate(656px,32px)}69.8%{transform:translate(672px,96px)}70.09%{transform:translate(672px,80px)}70.37%{transform:translate(688px,80px)}71.23%{transform:translate(688px,32px)}71.51%{transform:translate(704px,32px)}71.79%{transform:translate(704px,48px)}72.65%{transform:translate(656px,48px)}72.93%,86.61%{transform:translate(656px,64px)}75.5%,84.62%{transform:translate(736px,32px)}76.92%{transform:translate(752px,64px)}77.21%{transform:translate(752px,80px)}77.78%{transform:translate(768px,96px)}78.35%{transform:translate(800px,96px)}79.77%,82.62%{transform:translate(816px,32px)}80.91%{transform:translate(784px,0px)}81.77%{transform:translate(784px,48px)}82.34%{transform:translate(816px,48px)}83.76%{transform:translate(752px,32px)}84.05%{transform:translate(752px,48px)}86.32%{transform:translate(672px,64px)}86.89%{transform:translate(656px,80px)}97.44%{transform:translate(64px,80px)}99.15%{transform:translate(64px,-16px)}}.s.s2{transform:translate(32px,-16px);animation-name:s2}@keyframes s3{0%,99.72%{transform:translate(48px,-16px)}0.85%{transform:translate(0px,-16px)}1.14%{transform:translate(0px,0px)}12.82%{transform:translate(656px,0px)}13.11%,67.81%{transform:translate(656px,16px)}13.39%,59.54%{transform:translate(672px,16px)}13.68%{transform:translate(672px,0px)}15.38%,46.15%{transform:translate(768px,0px)}15.67%,46.44%,61.82%{transform:translate(768px,-16px)}16.24%,34.47%,47.01%{transform:translate(800px,-16px)}16.52%,33.62%{transform:translate(800px,0px)}17.38%{transform:translate(848px,0px)}17.95%{transform:translate(848px,32px)}18.23%{transform:translate(832px,32px)}18.52%{transform:translate(832px,48px)}18.8%{transform:translate(848px,48px)}19.66%{transform:translate(848px,96px)}20.8%,49.29%{transform:translate(784px,96px)}21.37%,32.19%,36.18%,48.72%{transform:translate(784px,64px)}21.65%,76.92%{transform:translate(768px,64px)}21.94%,77.78%{transform:translate(768px,80px)}22.22%{transform:translate(784px,80px)}22.79%,31.34%,37.04%{transform:translate(784px,112px)}23.36%{transform:translate(752px,112px)}23.65%{transform:translate(752px,96px)}25.93%,41.31%{transform:translate(624px,96px)}26.5%{transform:translate(624px,64px)}26.78%,73.5%{transform:translate(640px,64px)}27.07%,73.79%{transform:translate(640px,48px)}27.35%{transform:translate(624px,48px)}28.49%{transform:translate(624px,112px)}32.48%,35.9%,48.43%,51.28%{transform:translate(800px,64px)}33.9%,64.1%,80.63%{transform:translate(816px,0px)}34.19%,62.68%{transform:translate(816px,-16px)}37.89%{transform:translate(736px,112px)}38.75%,54.13%{transform:translate(736px,64px)}39.32%,55.84%{transform:translate(704px,64px)}39.89%,56.41%{transform:translate(704px,96px)}42.45%{transform:translate(624px,32px)}42.74%,58.69%,68.38%{transform:translate(640px,32px)}43.3%{transform:translate(640px,0px)}44.44%{transform:translate(704px,0px)}44.73%{transform:translate(704px,16px)}45.01%{transform:translate(720px,16px)}45.3%{transform:translate(720px,0px)}49.86%{transform:translate(816px,96px)}50.14%{transform:translate(816px,80px)}50.43%{transform:translate(832px,80px)}50.71%{transform:translate(832px,64px)}51.57%{transform:translate(800px,80px)}52.99%{transform:translate(720px,80px)}53.56%,54.7%{transform:translate(720px,48px)}53.85%,75.5%,84.62%{transform:translate(736px,48px)}54.42%{transform:translate(720px,64px)}55.27%{transform:translate(688px,48px)}55.56%{transform:translate(688px,64px)}57.55%,69.52%{transform:translate(640px,96px)}59.26%,86.04%{transform:translate(672px,32px)}61.25%,65.81%{transform:translate(768px,16px)}63.25%,64.39%{transform:translate(816px,16px)}63.53%{transform:translate(832px,16px)}63.82%{transform:translate(832px,0px)}64.67%{transform:translate(800px,16px)}64.96%,79.77%{transform:translate(800px,32px)}65.53%,76.35%{transform:translate(768px,32px)}68.09%{transform:translate(656px,32px)}70.09%{transform:translate(672px,96px)}70.37%{transform:translate(672px,80px)}70.66%{transform:translate(688px,80px)}71.51%{transform:translate(688px,32px)}71.79%{transform:translate(704px,32px)}72.08%{transform:translate(704px,48px)}72.93%{transform:translate(656px,48px)}73.22%,86.89%{transform:translate(656px,64px)}75.78%,84.9%{transform:translate(736px,32px)}77.21%{transform:translate(752px,64px)}77.49%{transform:translate(752px,80px)}78.06%{transform:translate(768px,96px)}78.63%{transform:translate(800px,96px)}80.06%,82.91%{transform:translate(816px,32px)}81.2%{transform:translate(784px,0px)}82.05%{transform:translate(784px,48px)}82.62%{transform:translate(816px,48px)}84.05%{transform:translate(752px,32px)}84.33%{transform:translate(752px,48px)}86.61%{transform:translate(672px,64px)}87.18%{transform:translate(656px,80px)}97.72%{transform:translate(64px,80px)}99.43%{transform:translate(64px,-16px)}}.s.s3{transform:translate(48px,-16px);animation-name:s3}</style><rect class="c" x="2" y="2" rx="2" ry="2"/><rect class="c" x="2" y="18" rx="2" ry="2"/><rect class="c" x="2" y="34" rx="2" ry="2"/><rect class="c" x="2" y="50" rx="2" ry="2"/><rect class="c" x="2" y="66" rx="2" ry="2"/><rect class="c" x="2" y="82" rx="2" ry="2"/><rect class="c" x="2" y="98" rx="2" ry="2"/><rect class="c" x="18" y="2" rx="2" ry="2"/><rect class="c" x="18" y="18" rx="2" ry="2"/><rect class="c" x="18" y="34" rx="2" ry="2"/><rect class="c" x="18" y="50" rx="2" ry="2"/><rect class="c" x="18" y="66" rx="2" ry="2"/><rect class="c" x="18" y="82" rx="2" ry="2"/><rect class="c" x="18" y="98" rx="2" ry="2"/><rect class="c" x="34" y="2" rx="2" ry="2"/><rect class="c" x="34" y="18" rx="2" ry="2"/><rect class="c" x="34" y="34" rx="2" ry="2"/><rect class="c" x="34" y="50" rx="2" ry="2"/><rect class="c" x="34" y="66" rx="2" ry="2"/><rect class="c" x="34" y="82" rx="2" ry="2"/><rect class="c" x="34" y="98" rx="2" ry="2"/><rect class="c" x="50" y="2" rx="2" ry="2"/><rect class="c" x="50" y="18" rx="2" ry="2"/><rect class="c" x="50" y="34" rx="2" ry="2"/><rect class="c" x="50" y="50" rx="2" ry="2"/><rect class="c" x="50" y="66" rx="2" ry="2"/><rect class="c" x="50" y="82" rx="2" ry="2"/><rect class="c" x="50" y="98" rx="2" ry="2"/><rect class="c" x="66" y="2" rx="2" ry="2"/><rect class="c" x="66" y="18" rx="2" ry="2"/><rect class="c" x="66" y="34" rx="2" ry="2"/><rect class="c" x="66" y="50" rx="2" ry="2"/><rect class="c" x="66" y="66" rx="2" ry="2"/><rect class="c" x="66" y="82" rx="2" ry="2"/><rect class="c" x="66" y="98" rx="2" ry="2"/><rect class="c" x="82" y="2" rx="2" ry="2"/><rect class="c" x="82" y="18" rx="2" ry="2"/><rect class="c" x="82" y="34" rx="2" ry="2"/><rect class="c" x="82" y="50" rx="2" ry="2"/><rect class="c" x="82" y="66" rx="2" ry="2"/><rect class="c" x="82" y="82" rx="2" ry="2"/><rect class="c" x="82" y="98" rx="2" ry="2"/><rect class="c" x="98" y="2" rx="2" ry="2"/><rect class="c" x="98" y="18" rx="2" ry="2"/><rect class="c" x="98" y="34" rx="2" ry="2"/><rect class="c" x="98" y="50" rx="2" ry="2"/><rect class="c" x="98" y="66" rx="2" ry="2"/><rect class="c" x="98" y="82" rx="2" ry="2"/><rect class="c" x="98" y="98" rx="2" ry="2"/><rect class="c" x="114" y="2" rx="2" ry="2"/><rect class="c" x="114" y="18" rx="2" ry="2"/><rect class="c" x="114" y="34" rx="2" ry="2"/><rect class="c" x="114" y="50" rx="2" ry="2"/><rect class="c" x="114" y="66" rx="2" ry="2"/><rect class="c" x="114" y="82" rx="2" ry="2"/><rect class="c" x="114" y="98" rx="2" ry="2"/><rect class="c" x="130" y="2" rx="2" ry="2"/><rect class="c" x="130" y="18" rx="2" ry="2"/><rect class="c" x="130" y="34" rx="2" ry="2"/><rect class="c" x="130" y="50" rx="2" ry="2"/><rect class="c" x="130" y="66" rx="2" ry="2"/><rect class="c" x="130" y="82" rx="2" ry="2"/><rect class="c" x="130" y="98" rx="2" ry="2"/><rect class="c" x="146" y="2" rx="2" ry="2"/><rect class="c" x="146" y="18" rx="2" ry="2"/><rect class="c" x="146" y="34" rx="2" ry="2"/><rect class="c" x="146" y="50" rx="2" ry="2"/><rect class="c" x="146" y="66" rx="2" ry="2"/><rect class="c" x="146" y="82" rx="2" ry="2"/><rect class="c" x="146" y="98" rx="2" ry="2"/><rect class="c" x="162" y="2" rx="2" ry="2"/><rect class="c" x="162" y="18" rx="2" ry="2"/><rect class="c" x="162" y="34" rx="2" ry="2"/><rect class="c" x="162" y="50" rx="2" ry="2"/><rect class="c" x="162" y="66" rx="2" ry="2"/><rect class="c" x="162" y="82" rx="2" ry="2"/><rect class="c" x="162" y="98" rx="2" ry="2"/><rect class="c" x="178" y="2" rx="2" ry="2"/><rect class="c" x="178" y="18" rx="2" ry="2"/><rect class="c" x="178" y="34" rx="2" ry="2"/><rect class="c" x="178" y="50" rx="2" ry="2"/><rect class="c" x="178" y="66" rx="2" ry="2"/><rect class="c" x="178" y="82" rx="2" ry="2"/><rect class="c" x="178" y="98" rx="2" ry="2"/><rect class="c" x="194" y="2" rx="2" ry="2"/><rect class="c" x="194" y="18" rx="2" ry="2"/><rect class="c" x="194" y="34" rx="2" ry="2"/><rect class="c" x="194" y="50" rx="2" ry="2"/><rect class="c" x="194" y="66" rx="2" ry="2"/><rect class="c" x="194" y="82" rx="2" ry="2"/><rect class="c" x="194" y="98" rx="2" ry="2"/><rect class="c" x="210" y="2" rx="2" ry="2"/><rect class="c" x="210" y="18" rx="2" ry="2"/><rect class="c" x="210" y="34" rx="2" ry="2"/><rect class="c" x="210" y="50" rx="2" ry="2"/><rect class="c" x="210" y="66" rx="2" ry="2"/><rect class="c" x="210" y="82" rx="2" ry="2"/><rect class="c" x="210" y="98" rx="2" ry="2"/><rect class="c" x="226" y="2" rx="2" ry="2"/><rect class="c" x="226" y="18" rx="2" ry="2"/><rect class="c" x="226" y="34" rx="2" ry="2"/><rect class="c" x="226" y="50" rx="2" ry="2"/><rect class="c" x="226" y="66" rx="2" ry="2"/><rect class="c" x="226" y="82" rx="2" ry="2"/><rect class="c" x="226" y="98" rx="2" ry="2"/><rect class="c" x="242" y="2" rx="2" ry="2"/><rect class="c" x="242" y="18" rx="2" ry="2"/><rect class="c" x="242" y="34" rx="2" ry="2"/><rect class="c" x="242" y="50" rx="2" ry="2"/><rect class="c" x="242" y="66" rx="2" ry="2"/><rect class="c" x="242" y="82" rx="2" ry="2"/><rect class="c" x="242" y="98" rx="2" ry="2"/><rect class="c" x="258" y="2" rx="2" ry="2"/><rect class="c" x="258" y="18" rx="2" ry="2"/><rect class="c" x="258" y="34" rx="2" ry="2"/><rect class="c" x="258" y="50" rx="2" ry="2"/><rect class="c" x="258" y="66" rx="2" ry="2"/><rect class="c" x="258" y="82" rx="2" ry="2"/><rect class="c" x="258" y="98" rx="2" ry="2"/><rect class="c" x="274" y="2" rx="2" ry="2"/><rect class="c" x="274" y="18" rx="2" ry="2"/><rect class="c" x="274" y="34" rx="2" ry="2"/><rect class="c" x="274" y="50" rx="2" ry="2"/><rect class="c" x="274" y="66" rx="2" ry="2"/><rect class="c" x="274" y="82" rx="2" ry="2"/><rect class="c" x="274" y="98" rx="2" ry="2"/><rect class="c" x="290" y="2" rx="2" ry="2"/><rect class="c" x="290" y="18" rx="2" ry="2"/><rect class="c" x="290" y="34" rx="2" ry="2"/><rect class="c" x="290" y="50" rx="2" ry="2"/><rect class="c" x="290" y="66" rx="2" ry="2"/><rect class="c" x="290" y="82" rx="2" ry="2"/><rect class="c" x="290" y="98" rx="2" ry="2"/><rect class="c" x="306" y="2" rx="2" ry="2"/><rect class="c" x="306" y="18" rx="2" ry="2"/><rect class="c" x="306" y="34" rx="2" ry="2"/><rect class="c" x="306" y="50" rx="2" ry="2"/><rect class="c" x="306" y="66" rx="2" ry="2"/><rect class="c" x="306" y="82" rx="2" ry="2"/><rect class="c" x="306" y="98" rx="2" ry="2"/><rect class="c" x="322" y="2" rx="2" ry="2"/><rect class="c" x="322" y="18" rx="2" ry="2"/><rect class="c" x="322" y="34" rx="2" ry="2"/><rect class="c" x="322" y="50" rx="2" ry="2"/><rect class="c" x="322" y="66" rx="2" ry="2"/><rect class="c" x="322" y="82" rx="2" ry="2"/><rect class="c" x="322" y="98" rx="2" ry="2"/><rect class="c" x="338" y="2" rx="2" ry="2"/><rect class="c" x="338" y="18" rx="2" ry="2"/><rect class="c" x="338" y="34" rx="2" ry="2"/><rect class="c" x="338" y="50" rx="2" ry="2"/><rect class="c" x="338" y="66" rx="2" ry="2"/><rect class="c" x="338" y="82" rx="2" ry="2"/><rect class="c" x="338" y="98" rx="2" ry="2"/><rect class="c" x="354" y="2" rx="2" ry="2"/><rect class="c" x="354" y="18" rx="2" ry="2"/><rect class="c" x="354" y="34" rx="2" ry="2"/><rect class="c" x="354" y="50" rx="2" ry="2"/><rect class="c" x="354" y="66" rx="2" ry="2"/><rect class="c" x="354" y="82" rx="2" ry="2"/><rect class="c" x="354" y="98" rx="2" ry="2"/><rect class="c" x="370" y="2" rx="2" ry="2"/><rect class="c" x="370" y="18" rx="2" ry="2"/><rect class="c" x="370" y="34" rx="2" ry="2"/><rect class="c" x="370" y="50" rx="2" ry="2"/><rect class="c" x="370" y="66" rx="2" ry="2"/><rect class="c" x="370" y="82" rx="2" ry="2"/><rect class="c" x="370" y="98" rx="2" ry="2"/><rect class="c" x="386" y="2" rx="2" ry="2"/><rect class="c" x="386" y="18" rx="2" ry="2"/><rect class="c" x="386" y="34" rx="2" ry="2"/><rect class="c" x="386" y="50" rx="2" ry="2"/><rect class="c" x="386" y="66" rx="2" ry="2"/><rect class="c" x="386" y="82" rx="2" ry="2"/><rect class="c" x="386" y="98" rx="2" ry="2"/><rect class="c" x="402" y="2" rx="2" ry="2"/><rect class="c" x="402" y="18" rx="2" ry="2"/><rect class="c" x="402" y="34" rx="2" ry="2"/><rect class="c" x="402" y="50" rx="2" ry="2"/><rect class="c" x="402" y="66" rx="2" ry="2"/><rect class="c" x="402" y="82" rx="2" ry="2"/><rect class="c" x="402" y="98" rx="2" ry="2"/><rect class="c" x="418" y="2" rx="2" ry="2"/><rect class="c" x="418" y="18" rx="2" ry="2"/><rect class="c" x="418" y="34" rx="2" ry="2"/><rect class="c" x="418" y="50" rx="2" ry="2"/><rect class="c" x="418" y="66" rx="2" ry="2"/><rect class="c" x="418" y="82" rx="2" ry="2"/><rect class="c" x="418" y="98" rx="2" ry="2"/><rect class="c" x="434" y="2" rx="2" ry="2"/><rect class="c" x="434" y="18" rx="2" ry="2"/><rect class="c" x="434" y="34" rx="2" ry="2"/><rect class="c" x="434" y="50" rx="2" ry="2"/><rect class="c" x="434" y="66" rx="2" ry="2"/><rect class="c" x="434" y="82" rx="2" ry="2"/><rect class="c" x="434" y="98" rx="2" ry="2"/><rect class="c" x="450" y="2" rx="2" ry="2"/><rect class="c" x="450" y="18" rx="2" ry="2"/><rect class="c" x="450" y="34" rx="2" ry="2"/><rect class="c" x="450" y="50" rx="2" ry="2"/><rect class="c" x="450" y="66" rx="2" ry="2"/><rect class="c" x="450" y="82" rx="2" ry="2"/><rect class="c" x="450" y="98" rx="2" ry="2"/><rect class="c" x="466" y="2" rx="2" ry="2"/><rect class="c" x="466" y="18" rx="2" ry="2"/><rect class="c" x="466" y="34" rx="2" ry="2"/><rect class="c" x="466" y="50" rx="2" ry="2"/><rect class="c" x="466" y="66" rx="2" ry="2"/><rect class="c" x="466" y="82" rx="2" ry="2"/><rect class="c" x="466" y="98" rx="2" ry="2"/><rect class="c" x="482" y="2" rx="2" ry="2"/><rect class="c" x="482" y="18" rx="2" ry="2"/><rect class="c" x="482" y="34" rx="2" ry="2"/><rect class="c" x="482" y="50" rx="2" ry="2"/><rect class="c" x="482" y="66" rx="2" ry="2"/><rect class="c" x="482" y="82" rx="2" ry="2"/><rect class="c" x="482" y="98" rx="2" ry="2"/><rect class="c" x="498" y="2" rx="2" ry="2"/><rect class="c" x="498" y="18" rx="2" ry="2"/><rect class="c" x="498" y="34" rx="2" ry="2"/><rect class="c" x="498" y="50" rx="2" ry="2"/><rect class="c" x="498" y="66" rx="2" ry="2"/><rect class="c" x="498" y="82" rx="2" ry="2"/><rect class="c" x="498" y="98" rx="2" ry="2"/><rect class="c" x="514" y="2" rx="2" ry="2"/><rect class="c" x="514" y="18" rx="2" ry="2"/><rect class="c" x="514" y="34" rx="2" ry="2"/><rect class="c" x="514" y="50" rx="2" ry="2"/><rect class="c" x="514" y="66" rx="2" ry="2"/><rect class="c" x="514" y="82" rx="2" ry="2"/><rect class="c" x="514" y="98" rx="2" ry="2"/><rect class="c" x="530" y="2" rx="2" ry="2"/><rect class="c" x="530" y="18" rx="2" ry="2"/><rect class="c" x="530" y="34" rx="2" ry="2"/><rect class="c" x="530" y="50" rx="2" ry="2"/><rect class="c" x="530" y="66" rx="2" ry="2"/><rect class="c" x="530" y="82" rx="2" ry="2"/><rect class="c" x="530" y="98" rx="2" ry="2"/><rect class="c" x="546" y="2" rx="2" ry="2"/><rect class="c" x="546" y="18" rx="2" ry="2"/><rect class="c" x="546" y="34" rx="2" ry="2"/><rect class="c" x="546" y="50" rx="2" ry="2"/><rect class="c" x="546" y="66" rx="2" ry="2"/><rect class="c" x="546" y="82" rx="2" ry="2"/><rect class="c" x="546" y="98" rx="2" ry="2"/><rect class="c" x="562" y="2" rx="2" ry="2"/><rect class="c" x="562" y="18" rx="2" ry="2"/><rect class="c" x="562" y="34" rx="2" ry="2"/><rect class="c" x="562" y="50" rx="2" ry="2"/><rect class="c" x="562" y="66" rx="2" ry="2"/><rect class="c" x="562" y="82" rx="2" ry="2"/><rect class="c" x="562" y="98" rx="2" ry="2"/><rect class="c" x="578" y="2" rx="2" ry="2"/><rect class="c" x="578" y="18" rx="2" ry="2"/><rect class="c" x="578" y="34" rx="2" ry="2"/><rect class="c" x="578" y="50" rx="2" ry="2"/><rect class="c" x="578" y="66" rx="2" ry="2"/><rect class="c" x="578" y="82" rx="2" ry="2"/><rect class="c" x="578" y="98" rx="2" ry="2"/><rect class="c" x="594" y="2" rx="2" ry="2"/><rect class="c" x="594" y="18" rx="2" ry="2"/><rect class="c" x="594" y="34" rx="2" ry="2"/><rect class="c" x="594" y="50" rx="2" ry="2"/><rect class="c" x="594" y="66" rx="2" ry="2"/><rect class="c" x="594" y="82" rx="2" ry="2"/><rect class="c" x="594" y="98" rx="2" ry="2"/><rect class="c" x="610" y="2" rx="2" ry="2"/><rect class="c" x="610" y="18" rx="2" ry="2"/><rect class="c" x="610" y="34" rx="2" ry="2"/><rect class="c" x="610" y="50" rx="2" ry="2"/><rect class="c" x="610" y="66" rx="2" ry="2"/><rect class="c" x="610" y="82" rx="2" ry="2"/><rect class="c" x="610" y="98" rx="2" ry="2"/><rect class="c" x="626" y="2" rx="2" ry="2"/><rect class="c" x="626" y="18" rx="2" ry="2"/><rect class="c" x="626" y="34" rx="2" ry="2"/><rect class="c" x="626" y="50" rx="2" ry="2"/><rect class="c" x="626" y="66" rx="2" ry="2"/><rect class="c" x="626" y="82" rx="2" ry="2"/><rect class="c" x="626" y="98" rx="2" ry="2"/><rect class="c" x="642" y="2" rx="2" ry="2"/><rect class="c" x="642" y="18" rx="2" ry="2"/><rect class="c" x="642" y="34" rx="2" ry="2"/><rect class="c c0" x="642" y="50" rx="2" ry="2"/><rect class="c c1" x="642" y="66" rx="2" ry="2"/><rect class="c c2" x="642" y="82" rx="2" ry="2"/><rect class="c" x="642" y="98" rx="2" ry="2"/><rect class="c" x="658" y="2" rx="2" ry="2"/><rect class="c c3" x="658" y="18" rx="2" ry="2"/><rect class="c c4" x="658" y="34" rx="2" ry="2"/><rect class="c c5" x="658" y="50" rx="2" ry="2"/><rect class="c c6" x="658" y="66" rx="2" ry="2"/><rect class="c c7" x="658" y="82" rx="2" ry="2"/><rect class="c" x="658" y="98" rx="2" ry="2"/><rect class="c" x="674" y="2" rx="2" ry="2"/><rect class="c c8" x="674" y="18" rx="2" ry="2"/><rect class="c c9" x="674" y="34" rx="2" ry="2"/><rect class="c ca" x="674" y="50" rx="2" ry="2"/><rect class="c cb" x="674" y="66" rx="2" ry="2"/><rect class="c cc" x="674" y="82" rx="2" ry="2"/><rect class="c cd" x="674" y="98" rx="2" ry="2"/><rect class="c ce" x="690" y="2" rx="2" ry="2"/><rect class="c cf" x="690" y="18" rx="2" ry="2"/><rect class="c cg" x="690" y="34" rx="2" ry="2"/><rect class="c ch" x="690" y="50" rx="2" ry="2"/><rect class="c ci" x="690" y="66" rx="2" ry="2"/><rect class="c cj" x="690" y="82" rx="2" ry="2"/><rect class="c ck" x="690" y="98" rx="2" ry="2"/><rect class="c cl" x="706" y="2" rx="2" ry="2"/><rect class="c cm" x="706" y="18" rx="2" ry="2"/><rect class="c cn" x="706" y="34" rx="2" ry="2"/><rect class="c co" x="706" y="50" rx="2" ry="2"/><rect class="c cp" x="706" y="66" rx="2" ry="2"/><rect class="c cq" x="706" y="82" rx="2" ry="2"/><rect class="c cr" x="706" y="98" rx="2" ry="2"/><rect class="c cs" x="722" y="2" rx="2" ry="2"/><rect class="c ct" x="722" y="18" rx="2" ry="2"/><rect class="c cu" x="722" y="34" rx="2" ry="2"/><rect class="c cv" x="722" y="50" rx="2" ry="2"/><rect class="c cw" x="722" y="66" rx="2" ry="2"/><rect class="c cx" x="722" y="82" rx="2" ry="2"/><rect class="c cy" x="722" y="98" rx="2" ry="2"/><rect class="c cz" x="738" y="2" rx="2" ry="2"/><rect class="c c10" x="738" y="18" rx="2" ry="2"/><rect class="c c11" x="738" y="34" rx="2" ry="2"/><rect class="c c12" x="738" y="50" rx="2" ry="2"/><rect class="c c13" x="738" y="66" rx="2" ry="2"/><rect class="c c14" x="738" y="82" rx="2" ry="2"/><rect class="c c15" x="738" y="98" rx="2" ry="2"/><rect class="c c16" x="754" y="2" rx="2" ry="2"/><rect class="c c17" x="754" y="18" rx="2" ry="2"/><rect class="c c18" x="754" y="34" rx="2" ry="2"/><rect class="c c19" x="754" y="50" rx="2" ry="2"/><rect class="c c1a" x="754" y="66" rx="2" ry="2"/><rect class="c c1b" x="754" y="82" rx="2" ry="2"/><rect class="c c1c" x="754" y="98" rx="2" ry="2"/><rect class="c c1d" x="770" y="2" rx="2" ry="2"/><rect class="c c1e" x="770" y="18" rx="2" ry="2"/><rect class="c c1f" x="770" y="34" rx="2" ry="2"/><rect class="c c1g" x="770" y="50" rx="2" ry="2"/><rect class="c c1h" x="770" y="66" rx="2" ry="2"/><rect class="c c1i" x="770" y="82" rx="2" ry="2"/><rect class="c c1j" x="770" y="98" rx="2" ry="2"/><rect class="c c1k" x="786" y="2" rx="2" ry="2"/><rect class="c c1l" x="786" y="18" rx="2" ry="2"/><rect class="c c1m" x="786" y="34" rx="2" ry="2"/><rect class="c c1n" x="786" y="50" rx="2" ry="2"/><rect class="c c1o" x="786" y="66" rx="2" ry="2"/><rect class="c c1p" x="786" y="82" rx="2" ry="2"/><rect class="c c1q" x="786" y="98" rx="2" ry="2"/><rect class="c c1r" x="802" y="2" rx="2" ry="2"/><rect class="c c1s" x="802" y="18" rx="2" ry="2"/><rect class="c c1t" x="802" y="34" rx="2" ry="2"/><rect class="c c1u" x="802" y="50" rx="2" ry="2"/><rect class="c c1v" x="802" y="66" rx="2" ry="2"/><rect class="c c1w" x="802" y="82" rx="2" ry="2"/><rect class="c c1x" x="802" y="98" rx="2" ry="2"/><rect class="c c1y" x="818" y="2" rx="2" ry="2"/><rect class="c c1z" x="818" y="18" rx="2" ry="2"/><rect class="c c20" x="818" y="34" rx="2" ry="2"/><rect class="c c21" x="818" y="50" rx="2" ry="2"/><rect class="c c22" x="818" y="66" rx="2" ry="2"/><rect class="c c23" x="818" y="82" rx="2" ry="2"/><rect class="c c24" x="818" y="98" rx="2" ry="2"/><rect class="c c25" x="834" y="2" rx="2" ry="2"/><rect class="c c26" x="834" y="18" rx="2" ry="2"/><rect class="c c27" x="834" y="34" rx="2" ry="2"/><rect class="c c28" x="834" y="50" rx="2" ry="2"/><rect class="c c29" x="834" y="66" rx="2" ry="2"/><rect class="c c2a" x="834" y="82" rx="2" ry="2"/><rect class="u u0" height="12" width="307.1" x="0.0" y="144"/><rect class="u u1" height="12" width="10.8" x="306.5" y="144"/><rect class="u u2" height="12" width="10.8" x="316.7" y="144"/><rect class="u u3" height="12" width="10.8" x="326.9" y="144"/><rect class="u u4" height="12" width="10.8" x="337.2" y="144"/><rect class="u u5" height="12" width="10.8" x="347.4" y="144"/><rect class="u u6" height="12" width="31.3" x="357.6" y="144"/><rect class="u u7" height="12" width="10.8" x="388.2" y="144"/><rect class="u u8" height="12" width="10.8" x="398.5" y="144"/><rect class="u u9" height="12" width="215.2" x="408.7" y="144"/><rect class="u ua" height="12" width="10.8" x="623.2" y="144"/><rect class="u ub" height="12" width="10.8" x="633.4" y="144"/><rect class="u uc" height="12" width="133.4" x="643.7" y="144"/><rect class="u ud" height="12" width="72.1" x="776.5" y="144"/><rect class="s s0" x="0.8" y="0.8" width="14.4" height="14.4" rx="4.5" ry="4.5"/><rect class="s s1" x="1.8" y="1.8" width="12.3" height="12.3" rx="4.1" ry="4.1"/><rect class="s s2" x="2.6" y="2.6" width="10.8" height="10.8" rx="3.6" ry="3.6"/><rect class="s s3" x="3.0" y="3.0" width="9.9" height="9.9" rx="3.3" ry="3.3"/></svg>