<svg viewBox="-16 -32 880 192" width="880" height="192" xmlns="http://www.w3.org/2000/svg"><desc>Generated with https://github.com/Platane/snk</desc><style>:root{--cb:#1b1f230a;--cs:#7845ab;--ce:#ebedf0;--c0:#ebedf0;--c1:#9be9a8;--c2:#40c463;--c3:#30a14e;--c4:#216e39}.c{shape-rendering:geometricPrecision;fill:var(--ce);stroke-width:1px;stroke:var(--cb);animation:none 29100ms linear infinite;width:12px;height:12px}@keyframes c0{28.51%{fill:var(--c1)}28.53%,100%{fill:var(--ce)}}.c.c0{fill:var(--c1);animation-name:c0}@keyframes c1{28.17%{fill:var(--c1)}28.19%,100%{fill:var(--ce)}}.c.c1{fill:var(--c1);animation-name:c1}@keyframes c2{50.51%{fill:var(--c2)}50.53%,100%{fill:var(--ce)}}.c.c2{fill:var(--c2);animation-name:c2}@keyframes c3{15.8%{fill:var(--c1)}15.82%,100%{fill:var(--ce)}}.c.c3{fill:var(--c1);animation-name:c3}@keyframes c4{65.63%{fill:var(--c3)}65.65%,100%{fill:var(--ce)}}.c.c4{fill:var(--c3);animation-name:c4}@keyframes c5{75.59%{fill:var(--c4)}75.61%,100%{fill:var(--ce)}}.c.c5{fill:var(--c4);animation-name:c5}@keyframes c6{74.56%{fill:var(--c3)}74.58%,100%{fill:var(--ce)}}.c.c6{fill:var(--c3);animation-name:c6}@keyframes c7{76.28%{fill:var(--c4)}76.3%,100%{fill:var(--ce)}}.c.c7{fill:var(--c4);animation-name:c7}@keyframes c8{16.14%{fill:var(--c1)}16.16%,100%{fill:var(--ce)}}.c.c8{fill:var(--c1);animation-name:c8}@keyframes c9{65.28%{fill:var(--c3)}65.3%,100%{fill:var(--ce)}}.c.c9{fill:var(--c3);animation-name:c9}@keyframes ca{75.25%{fill:var(--c4)}75.27%,100%{fill:var(--ce)}}.c.ca{fill:var(--c4);animation-name:ca}@keyframes cb{74.9%{fill:var(--c4)}74.92%,100%{fill:var(--ce)}}.c.cb{fill:var(--c4);animation-name:cb}@keyframes cc{62.19%{fill:var(--c2)}62.21%,100%{fill:var(--ce)}}.c.cc{fill:var(--c2);animation-name:cc}@keyframes cd{26.11%{fill:var(--c1)}26.13%,100%{fill:var(--ce)}}.c.cd{fill:var(--c1);animation-name:cd}@keyframes ce{16.83%{fill:var(--c1)}16.85%,100%{fill:var(--ce)}}.c.ce{fill:var(--c1);animation-name:ce}@keyframes cf{52.91%{fill:var(--c2)}52.93%,100%{fill:var(--ce)}}.c.cf{fill:var(--c2);animation-name:cf}@keyframes cg{63.56%{fill:var(--c3)}63.58%,100%{fill:var(--ce)}}.c.cg{fill:var(--c3);animation-name:cg}@keyframes ch{47.41%{fill:var(--c2)}47.43%,100%{fill:var(--ce)}}.c.ch{fill:var(--c2);animation-name:ch}@keyframes ci{47.76%{fill:var(--c2)}47.78%,100%{fill:var(--ce)}}.c.ci{fill:var(--c2);animation-name:ci}@keyframes cj{62.53%{fill:var(--c3)}62.55%,100%{fill:var(--ce)}}.c.cj{fill:var(--c3);animation-name:cj}@keyframes ck{25.76%{fill:var(--c1)}25.78%,100%{fill:var(--ce)}}.c.ck{fill:var(--c1);animation-name:ck}@keyframes cl{17.17%{fill:var(--c1)}17.19%,100%{fill:var(--ce)}}.c.cl{fill:var(--c1);animation-name:cl}@keyframes cm{40.2%{fill:var(--c1)}40.22%,100%{fill:var(--ce)}}.c.cm{fill:var(--c1);animation-name:cm}@keyframes cn{63.91%{fill:var(--c3)}63.93%,100%{fill:var(--ce)}}.c.cn{fill:var(--c3);animation-name:cn}@keyframes co{47.07%{fill:var(--c2)}47.09%,100%{fill:var(--ce)}}.c.co{fill:var(--c2);animation-name:co}@keyframes cp{33.67%{fill:var(--c1)}33.69%,100%{fill:var(--ce)}}.c.cp{fill:var(--c1);animation-name:cp}@keyframes cq{34.01%{fill:var(--c1)}34.03%,100%{fill:var(--ce)}}.c.cq{fill:var(--c1);animation-name:cq}@keyframes cr{25.42%{fill:var(--c1)}25.44%,100%{fill:var(--ce)}}.c.cr{fill:var(--c1);animation-name:cr}@keyframes cs{17.52%{fill:var(--c1)}17.54%,100%{fill:var(--ce)}}.c.cs{fill:var(--c1);animation-name:cs}@keyframes ct{40.54%{fill:var(--c2)}40.56%,100%{fill:var(--ce)}}.c.ct{fill:var(--c2);animation-name:ct}@keyframes cu{78.68%{fill:var(--c4)}78.7%,100%{fill:var(--ce)}}.c.cu{fill:var(--c4);animation-name:cu}@keyframes cv{59.78%{fill:var(--c3)}59.8%,100%{fill:var(--ce)}}.c.cv{fill:var(--c3);animation-name:cv}@keyframes cw{33.32%{fill:var(--c2)}33.34%,100%{fill:var(--ce)}}.c.cw{fill:var(--c2);animation-name:cw}@keyframes cx{46.04%{fill:var(--c2)}46.06%,100%{fill:var(--ce)}}.c.cx{fill:var(--c2);animation-name:cx}@keyframes cy{25.08%{fill:var(--c1)}25.1%,100%{fill:var(--ce)}}.c.cy{fill:var(--c1);animation-name:cy}@keyframes cz{17.86%{fill:var(--c1)}17.88%,100%{fill:var(--ce)}}.c.cz{fill:var(--c1);animation-name:cz}@keyframes c10{40.88%{fill:var(--c2)}40.9%,100%{fill:var(--ce)}}.c.c10{fill:var(--c2);animation-name:c10}@keyframes c11{79.03%{fill:var(--c4)}79.05%,100%{fill:var(--ce)}}.c.c11{fill:var(--c4);animation-name:c11}@keyframes c12{59.44%{fill:var(--c2)}59.46%,100%{fill:var(--ce)}}.c.c12{fill:var(--c2);animation-name:c12}@keyframes c13{32.98%{fill:var(--c1)}33%,100%{fill:var(--ce)}}.c.c13{fill:var(--c1);animation-name:c13}@keyframes c14{32.64%{fill:var(--c2)}32.66%,100%{fill:var(--ce)}}.c.c14{fill:var(--c2);animation-name:c14}@keyframes c15{24.73%{fill:var(--c1)}24.75%,100%{fill:var(--ce)}}.c.c15{fill:var(--c1);animation-name:c15}@keyframes c16{18.2%{fill:var(--c1)}18.22%,100%{fill:var(--ce)}}.c.c16{fill:var(--c1);animation-name:c16}@keyframes c17{41.23%{fill:var(--c2)}41.25%,100%{fill:var(--ce)}}.c.c17{fill:var(--c2);animation-name:c17}@keyframes c18{68.37%{fill:var(--c3)}68.39%,100%{fill:var(--ce)}}.c.c18{fill:var(--c3);animation-name:c18}@keyframes c19{79.72%{fill:var(--c4)}79.74%,100%{fill:var(--ce)}}.c.c19{fill:var(--c4);animation-name:c19}@keyframes c1a{69.75%{fill:var(--c3)}69.77%,100%{fill:var(--ce)}}.c.c1a{fill:var(--c3);animation-name:c1a}@keyframes c1b{45.35%{fill:var(--c2)}45.37%,100%{fill:var(--ce)}}.c.c1b{fill:var(--c2);animation-name:c1b}@keyframes c1c{24.39%{fill:var(--c1)}24.41%,100%{fill:var(--ce)}}.c.c1c{fill:var(--c1);animation-name:c1c}@keyframes c1d{18.55%{fill:var(--c1)}18.57%,100%{fill:var(--ce)}}.c.c1d{fill:var(--c1);animation-name:c1d}@keyframes c1e{41.57%{fill:var(--c2)}41.59%,100%{fill:var(--ce)}}.c.c1e{fill:var(--c2);animation-name:c1e}@keyframes c1f{68.72%{fill:var(--c3)}68.74%,100%{fill:var(--ce)}}.c.c1f{fill:var(--c3);animation-name:c1f}@keyframes c1g{69.06%{fill:var(--c3)}69.08%,100%{fill:var(--ce)}}.c.c1g{fill:var(--c3);animation-name:c1g}@keyframes c1h{21.98%{fill:var(--c1)}22%,100%{fill:var(--ce)}}.c.c1h{fill:var(--c1);animation-name:c1h}@keyframes c1i{22.33%{fill:var(--c1)}22.35%,100%{fill:var(--ce)}}.c.c1i{fill:var(--c1);animation-name:c1i}@keyframes c1j{70.78%{fill:var(--c3)}70.8%,100%{fill:var(--ce)}}.c.c1j{fill:var(--c3);animation-name:c1j}@keyframes c1k{42.26%{fill:var(--c2)}42.28%,100%{fill:var(--ce)}}.c.c1k{fill:var(--c2);animation-name:c1k}@keyframes c1l{81.09%{fill:var(--c4)}81.11%,100%{fill:var(--ce)}}.c.c1l{fill:var(--c4);animation-name:c1l}.u{transform-origin:0 0;transform:scale(0,1);animation:none linear 29100ms infinite}@keyframes u0{15.8%{transform:scale(0.000,1)}15.82%,16.14%{transform:scale(0.056,1)}16.16%,16.83%{transform:scale(0.111,1)}16.85%,17.17%{transform:scale(0.167,1)}17.19%,17.52%{transform:scale(0.222,1)}17.54%,17.86%{transform:scale(0.278,1)}17.88%,18.2%{transform:scale(0.333,1)}18.22%,18.55%{transform:scale(0.389,1)}18.57%,21.98%{transform:scale(0.444,1)}22%,22.33%{transform:scale(0.500,1)}22.35%,24.39%{transform:scale(0.556,1)}24.41%,24.73%{transform:scale(0.611,1)}24.75%,25.08%{transform:scale(0.667,1)}25.1%,25.42%{transform:scale(0.722,1)}25.44%,25.76%{transform:scale(0.778,1)}25.78%,26.11%{transform:scale(0.833,1)}26.13%,28.17%{transform:scale(0.889,1)}28.19%,28.51%{transform:scale(0.944,1)}28.53%,100%{transform:scale(1.000,1)}}.u.u0{fill:var(--c1);animation-name:u0;transform-origin:0.0px 0}@keyframes u1{32.64%{transform:scale(0.000,1)}32.66%,100%{transform:scale(1.000,1)}}.u.u1{fill:var(--c2);animation-name:u1;transform-origin:263.2px 0}@keyframes u2{32.98%{transform:scale(0.000,1)}33%,100%{transform:scale(1.000,1)}}.u.u2{fill:var(--c1);animation-name:u2;transform-origin:277.8px 0}@keyframes u3{33.32%{transform:scale(0.000,1)}33.34%,100%{transform:scale(1.000,1)}}.u.u3{fill:var(--c2);animation-name:u3;transform-origin:292.4px 0}@keyframes u4{33.67%{transform:scale(0.000,1)}33.69%,34.01%{transform:scale(0.333,1)}34.03%,40.2%{transform:scale(0.667,1)}40.22%,100%{transform:scale(1.000,1)}}.u.u4{fill:var(--c1);animation-name:u4;transform-origin:307.0px 0}@keyframes u5{40.54%{transform:scale(0.000,1)}40.56%,40.88%{transform:scale(0.077,1)}40.9%,41.23%{transform:scale(0.154,1)}41.25%,41.57%{transform:scale(0.231,1)}41.59%,42.26%{transform:scale(0.308,1)}42.28%,45.35%{transform:scale(0.385,1)}45.37%,46.04%{transform:scale(0.462,1)}46.06%,47.07%{transform:scale(0.538,1)}47.09%,47.41%{transform:scale(0.615,1)}47.43%,47.76%{transform:scale(0.692,1)}47.78%,50.51%{transform:scale(0.769,1)}50.53%,52.91%{transform:scale(0.846,1)}52.93%,59.44%{transform:scale(0.923,1)}59.46%,100%{transform:scale(1.000,1)}}.u.u5{fill:var(--c2);animation-name:u5;transform-origin:350.9px 0}@keyframes u6{59.78%{transform:scale(0.000,1)}59.8%,100%{transform:scale(1.000,1)}}.u.u6{fill:var(--c3);animation-name:u6;transform-origin:541.0px 0}@keyframes u7{62.19%{transform:scale(0.000,1)}62.21%,100%{transform:scale(1.000,1)}}.u.u7{fill:var(--c2);animation-name:u7;transform-origin:555.6px 0}@keyframes u8{62.53%{transform:scale(0.000,1)}62.55%,63.56%{transform:scale(0.091,1)}63.58%,63.91%{transform:scale(0.182,1)}63.93%,65.28%{transform:scale(0.273,1)}65.3%,65.63%{transform:scale(0.364,1)}65.65%,68.37%{transform:scale(0.455,1)}68.39%,68.72%{transform:scale(0.545,1)}68.74%,69.06%{transform:scale(0.636,1)}69.08%,69.75%{transform:scale(0.727,1)}69.77%,70.78%{transform:scale(0.818,1)}70.8%,74.56%{transform:scale(0.909,1)}74.58%,100%{transform:scale(1.000,1)}}.u.u8{fill:var(--c3);animation-name:u8;transform-origin:570.2px 0}@keyframes u9{74.9%{transform:scale(0.000,1)}74.92%,75.25%{transform:scale(0.125,1)}75.27%,75.59%{transform:scale(0.250,1)}75.61%,76.28%{transform:scale(0.375,1)}76.3%,78.68%{transform:scale(0.500,1)}78.7%,79.03%{transform:scale(0.625,1)}79.05%,79.72%{transform:scale(0.750,1)}79.74%,81.09%{transform:scale(0.875,1)}81.11%,100%{transform:scale(1.000,1)}}.u.u9{fill:var(--c4);animation-name:u9;transform-origin:731.0px 0}.s{shape-rendering:geometricPrecision;fill:var(--cs);animation:none linear 29100ms infinite}@keyframes s0{0%,99.66%{transform:translate(0px,-16px)}0.34%{transform:translate(0px,0px)}15.46%{transform:translate(704px,0px)}15.81%,65.98%{transform:translate(704px,16px)}16.15%,53.95%,64.95%{transform:translate(720px,16px)}16.49%,53.61%{transform:translate(720px,0px)}18.56%,41.92%{transform:translate(816px,0px)}18.9%{transform:translate(816px,-16px)}19.59%{transform:translate(848px,-16px)}20.62%,43.3%{transform:translate(848px,32px)}20.96%,43.64%{transform:translate(832px,32px)}21.65%,44.33%{transform:translate(832px,64px)}21.99%,44.67%,69.42%{transform:translate(816px,64px)}22.34%,45.02%,70.45%{transform:translate(816px,80px)}22.68%{transform:translate(832px,80px)}23.37%{transform:translate(832px,112px)}24.05%{transform:translate(800px,112px)}24.4%{transform:translate(800px,96px)}27.15%,29.9%,36.08%{transform:translate(672px,96px)}27.84%{transform:translate(672px,64px)}28.18%,74.23%{transform:translate(688px,64px)}28.52%{transform:translate(688px,48px)}28.87%{transform:translate(672px,48px)}32.3%{transform:translate(784px,96px)}32.99%,59.11%{transform:translate(784px,64px)}33.68%,46.74%,48.11%,58.42%{transform:translate(752px,64px)}34.36%,48.8%,57.73%{transform:translate(752px,96px)}37.46%{transform:translate(672px,32px)}37.8%{transform:translate(688px,32px)}38.49%{transform:translate(688px,0px)}39.86%{transform:translate(752px,0px)}40.21%,64.26%{transform:translate(752px,16px)}41.58%{transform:translate(816px,16px)}42.61%{transform:translate(848px,0px)}46.05%,77.66%{transform:translate(768px,80px)}46.39%{transform:translate(768px,64px)}47.08%{transform:translate(752px,48px)}47.42%{transform:translate(736px,48px)}47.77%{transform:translate(736px,64px)}50.17%,56.36%,73.54%{transform:translate(688px,96px)}51.89%,54.64%{transform:translate(688px,16px)}52.92%{transform:translate(736px,16px)}53.26%{transform:translate(736px,0px)}59.45%{transform:translate(784px,48px)}59.79%{transform:translate(768px,48px)}60.82%{transform:translate(768px,96px)}61.86%{transform:translate(720px,96px)}62.2%{transform:translate(720px,80px)}62.54%{transform:translate(736px,80px)}63.57%{transform:translate(736px,32px)}63.92%{transform:translate(752px,32px)}65.29%{transform:translate(720px,32px)}65.64%{transform:translate(704px,32px)}68.04%{transform:translate(800px,16px)}68.38%,79.38%{transform:translate(800px,32px)}68.73%{transform:translate(816px,32px)}69.76%{transform:translate(800px,64px)}70.1%{transform:translate(800px,80px)}70.79%{transform:translate(816px,96px)}74.91%{transform:translate(720px,64px)}75.26%{transform:translate(720px,48px)}75.6%{transform:translate(704px,48px)}76.29%{transform:translate(704px,80px)}78.69%{transform:translate(768px,32px)}79.73%{transform:translate(800px,48px)}80.41%{transform:translate(832px,48px)}81.1%{transform:translate(832px,16px)}96.56%{transform:translate(112px,16px)}97.25%{transform:translate(112px,-16px)}}.s.s0{transform:translate(0px,-16px);animation-name:s0}@keyframes s1{0%,99.66%{transform:translate(16px,-16px)}0.34%{transform:translate(0px,-16px)}0.69%{transform:translate(0px,0px)}15.81%{transform:translate(704px,0px)}16.15%,66.32%{transform:translate(704px,16px)}16.49%,54.3%,65.29%{transform:translate(720px,16px)}16.84%,53.95%{transform:translate(720px,0px)}18.9%,42.27%{transform:translate(816px,0px)}19.24%{transform:translate(816px,-16px)}19.93%{transform:translate(848px,-16px)}20.96%,43.64%{transform:translate(848px,32px)}21.31%,43.99%{transform:translate(832px,32px)}21.99%,44.67%{transform:translate(832px,64px)}22.34%,45.02%,69.76%{transform:translate(816px,64px)}22.68%,45.36%,70.79%{transform:translate(816px,80px)}23.02%{transform:translate(832px,80px)}23.71%{transform:translate(832px,112px)}24.4%{transform:translate(800px,112px)}24.74%{transform:translate(800px,96px)}27.49%,30.24%,36.43%{transform:translate(672px,96px)}28.18%{transform:translate(672px,64px)}28.52%,74.57%{transform:translate(688px,64px)}28.87%{transform:translate(688px,48px)}29.21%{transform:translate(672px,48px)}32.65%{transform:translate(784px,96px)}33.33%,59.45%{transform:translate(784px,64px)}34.02%,47.08%,48.45%,58.76%{transform:translate(752px,64px)}34.71%,49.14%,58.08%{transform:translate(752px,96px)}37.8%{transform:translate(672px,32px)}38.14%{transform:translate(688px,32px)}38.83%{transform:translate(688px,0px)}40.21%{transform:translate(752px,0px)}40.55%,64.6%{transform:translate(752px,16px)}41.92%{transform:translate(816px,16px)}42.96%{transform:translate(848px,0px)}46.39%,78.01%{transform:translate(768px,80px)}46.74%{transform:translate(768px,64px)}47.42%{transform:translate(752px,48px)}47.77%{transform:translate(736px,48px)}48.11%{transform:translate(736px,64px)}50.52%,56.7%,73.88%{transform:translate(688px,96px)}52.23%,54.98%{transform:translate(688px,16px)}53.26%{transform:translate(736px,16px)}53.61%{transform:translate(736px,0px)}59.79%{transform:translate(784px,48px)}60.14%{transform:translate(768px,48px)}61.17%{transform:translate(768px,96px)}62.2%{transform:translate(720px,96px)}62.54%{transform:translate(720px,80px)}62.89%{transform:translate(736px,80px)}63.92%{transform:translate(736px,32px)}64.26%{transform:translate(752px,32px)}65.64%{transform:translate(720px,32px)}65.98%{transform:translate(704px,32px)}68.38%{transform:translate(800px,16px)}68.73%,79.73%{transform:translate(800px,32px)}69.07%{transform:translate(816px,32px)}70.1%{transform:translate(800px,64px)}70.45%{transform:translate(800px,80px)}71.13%{transform:translate(816px,96px)}75.26%{transform:translate(720px,64px)}75.6%{transform:translate(720px,48px)}75.95%{transform:translate(704px,48px)}76.63%{transform:translate(704px,80px)}79.04%{transform:translate(768px,32px)}80.07%{transform:translate(800px,48px)}80.76%{transform:translate(832px,48px)}81.44%{transform:translate(832px,16px)}96.91%{transform:translate(112px,16px)}97.59%{transform:translate(112px,-16px)}}.s.s1{transform:translate(16px,-16px);animation-name:s1}@keyframes s2{0%,99.66%{transform:translate(32px,-16px)}0.69%{transform:translate(0px,-16px)}1.03%{transform:translate(0px,0px)}16.15%{transform:translate(704px,0px)}16.49%,66.67%{transform:translate(704px,16px)}16.84%,54.64%,65.64%{transform:translate(720px,16px)}17.18%,54.3%{transform:translate(720px,0px)}19.24%,42.61%{transform:translate(816px,0px)}19.59%{transform:translate(816px,-16px)}20.27%{transform:translate(848px,-16px)}21.31%,43.99%{transform:translate(848px,32px)}21.65%,44.33%{transform:translate(832px,32px)}22.34%,45.02%{transform:translate(832px,64px)}22.68%,45.36%,70.1%{transform:translate(816px,64px)}23.02%,45.7%,71.13%{transform:translate(816px,80px)}23.37%{transform:translate(832px,80px)}24.05%{transform:translate(832px,112px)}24.74%{transform:translate(800px,112px)}25.09%{transform:translate(800px,96px)}27.84%,30.58%,36.77%{transform:translate(672px,96px)}28.52%{transform:translate(672px,64px)}28.87%,74.91%{transform:translate(688px,64px)}29.21%{transform:translate(688px,48px)}29.55%{transform:translate(672px,48px)}32.99%{transform:translate(784px,96px)}33.68%,59.79%{transform:translate(784px,64px)}34.36%,47.42%,48.8%,59.11%{transform:translate(752px,64px)}35.05%,49.48%,58.42%{transform:translate(752px,96px)}38.14%{transform:translate(672px,32px)}38.49%{transform:translate(688px,32px)}39.18%{transform:translate(688px,0px)}40.55%{transform:translate(752px,0px)}40.89%,64.95%{transform:translate(752px,16px)}42.27%{transform:translate(816px,16px)}43.3%{transform:translate(848px,0px)}46.74%,78.35%{transform:translate(768px,80px)}47.08%{transform:translate(768px,64px)}47.77%{transform:translate(752px,48px)}48.11%{transform:translate(736px,48px)}48.45%{transform:translate(736px,64px)}50.86%,57.04%,74.23%{transform:translate(688px,96px)}52.58%,55.33%{transform:translate(688px,16px)}53.61%{transform:translate(736px,16px)}53.95%{transform:translate(736px,0px)}60.14%{transform:translate(784px,48px)}60.48%{transform:translate(768px,48px)}61.51%{transform:translate(768px,96px)}62.54%{transform:translate(720px,96px)}62.89%{transform:translate(720px,80px)}63.23%{transform:translate(736px,80px)}64.26%{transform:translate(736px,32px)}64.6%{transform:translate(752px,32px)}65.98%{transform:translate(720px,32px)}66.32%{transform:translate(704px,32px)}68.73%{transform:translate(800px,16px)}69.07%,80.07%{transform:translate(800px,32px)}69.42%{transform:translate(816px,32px)}70.45%{transform:translate(800px,64px)}70.79%{transform:translate(800px,80px)}71.48%{transform:translate(816px,96px)}75.6%{transform:translate(720px,64px)}75.95%{transform:translate(720px,48px)}76.29%{transform:translate(704px,48px)}76.98%{transform:translate(704px,80px)}79.38%{transform:translate(768px,32px)}80.41%{transform:translate(800px,48px)}81.1%{transform:translate(832px,48px)}81.79%{transform:translate(832px,16px)}97.25%{transform:translate(112px,16px)}97.94%{transform:translate(112px,-16px)}}.s.s2{transform:translate(32px,-16px);animation-name:s2}@keyframes s3{0%,99.66%{transform:translate(48px,-16px)}1.03%{transform:translate(0px,-16px)}1.37%{transform:translate(0px,0px)}16.49%{transform:translate(704px,0px)}16.84%,67.01%{transform:translate(704px,16px)}17.18%,54.98%,65.98%{transform:translate(720px,16px)}17.53%,54.64%{transform:translate(720px,0px)}19.59%,42.96%{transform:translate(816px,0px)}19.93%{transform:translate(816px,-16px)}20.62%{transform:translate(848px,-16px)}21.65%,44.33%{transform:translate(848px,32px)}21.99%,44.67%{transform:translate(832px,32px)}22.68%,45.36%{transform:translate(832px,64px)}23.02%,45.7%,70.45%{transform:translate(816px,64px)}23.37%,46.05%,71.48%{transform:translate(816px,80px)}23.71%{transform:translate(832px,80px)}24.4%{transform:translate(832px,112px)}25.09%{transform:translate(800px,112px)}25.43%{transform:translate(800px,96px)}28.18%,30.93%,37.11%{transform:translate(672px,96px)}28.87%{transform:translate(672px,64px)}29.21%,75.26%{transform:translate(688px,64px)}29.55%{transform:translate(688px,48px)}29.9%{transform:translate(672px,48px)}33.33%{transform:translate(784px,96px)}34.02%,60.14%{transform:translate(784px,64px)}34.71%,47.77%,49.14%,59.45%{transform:translate(752px,64px)}35.4%,49.83%,58.76%{transform:translate(752px,96px)}38.49%{transform:translate(672px,32px)}38.83%{transform:translate(688px,32px)}39.52%{transform:translate(688px,0px)}40.89%{transform:translate(752px,0px)}41.24%,65.29%{transform:translate(752px,16px)}42.61%{transform:translate(816px,16px)}43.64%{transform:translate(848px,0px)}47.08%,78.69%{transform:translate(768px,80px)}47.42%{transform:translate(768px,64px)}48.11%{transform:translate(752px,48px)}48.45%{transform:translate(736px,48px)}48.8%{transform:translate(736px,64px)}51.2%,57.39%,74.57%{transform:translate(688px,96px)}52.92%,55.67%{transform:translate(688px,16px)}53.95%{transform:translate(736px,16px)}54.3%{transform:translate(736px,0px)}60.48%{transform:translate(784px,48px)}60.82%{transform:translate(768px,48px)}61.86%{transform:translate(768px,96px)}62.89%{transform:translate(720px,96px)}63.23%{transform:translate(720px,80px)}63.57%{transform:translate(736px,80px)}64.6%{transform:translate(736px,32px)}64.95%{transform:translate(752px,32px)}66.32%{transform:translate(720px,32px)}66.67%{transform:translate(704px,32px)}69.07%{transform:translate(800px,16px)}69.42%,80.41%{transform:translate(800px,32px)}69.76%{transform:translate(816px,32px)}70.79%{transform:translate(800px,64px)}71.13%{transform:translate(800px,80px)}71.82%{transform:translate(816px,96px)}75.95%{transform:translate(720px,64px)}76.29%{transform:translate(720px,48px)}76.63%{transform:translate(704px,48px)}77.32%{transform:translate(704px,80px)}79.73%{transform:translate(768px,32px)}80.76%{transform:translate(800px,48px)}81.44%{transform:translate(832px,48px)}82.13%{transform:translate(832px,16px)}97.59%{transform:translate(112px,16px)}98.28%{transform:translate(112px,-16px)}}.s.s3{transform:translate(48px,-16px);animation-name:s3}</style><rect class="c" x="2" y="2" rx="2" ry="2"/><rect class="c" x="2" y="18" rx="2" ry="2"/><rect class="c" x="2" y="34" rx="2" ry="2"/><rect class="c" x="2" y="50" rx="2" ry="2"/><rect class="c" x="2" y="66" rx="2" ry="2"/><rect class="c" x="2" y="82" rx="2" ry="2"/><rect class="c" x="2" y="98" rx="2" ry="2"/><rect class="c" x="18" y="2" rx="2" ry="2"/><rect class="c" x="18" y="18" rx="2" ry="2"/><rect class="c" x="18" y="34" rx="2" ry="2"/><rect class="c" x="18" y="50" rx="2" ry="2"/><rect class="c" x="18" y="66" rx="2" ry="2"/><rect class="c" x="18" y="82" rx="2" ry="2"/><rect class="c" x="18" y="98" rx="2" ry="2"/><rect class="c" x="34" y="2" rx="2" ry="2"/><rect class="c" x="34" y="18" rx="2" ry="2"/><rect class="c" x="34" y="34" rx="2" ry="2"/><rect class="c" x="34" y="50" rx="2" ry="2"/><rect class="c" x="34" y="66" rx="2" ry="2"/><rect class="c" x="34" y="82" rx="2" ry="2"/><rect class="c" x="34" y="98" rx="2" ry="2"/><rect class="c" x="50" y="2" rx="2" ry="2"/><rect class="c" x="50" y="18" rx="2" ry="2"/><rect class="c" x="50" y="34" rx="2" ry="2"/><rect class="c" x="50" y="50" rx="2" ry="2"/><rect class="c" x="50" y="66" rx="2" ry="2"/><rect class="c" x="50" y="82" rx="2" ry="2"/><rect class="c" x="50" y="98" rx="2" ry="2"/><rect class="c" x="66" y="2" rx="2" ry="2"/><rect class="c" x="66" y="18" rx="2" ry="2"/><rect class="c" x="66" y="34" rx="2" ry="2"/><rect class="c" x="66" y="50" rx="2" ry="2"/><rect class="c" x="66" y="66" rx="2" ry="2"/><rect class="c" x="66" y="82" rx="2" ry="2"/><rect class="c" x="66" y="98" rx="2" ry="2"/><rect class="c" x="82" y="2" rx="2" ry="2"/><rect class="c" x="82" y="18" rx="2" ry="2"/><rect class="c" x="82" y="34" rx="2" ry="2"/><rect class="c" x="82" y="50" rx="2" ry="2"/><rect class="c" x="82" y="66" rx="2" ry="2"/><rect class="c" x="82" y="82" rx="2" ry="2"/><rect class="c" x="82" y="98" rx="2" ry="2"/><rect class="c" x="98" y="2" rx="2" ry="2"/><rect class="c" x="98" y="18" rx="2" ry="2"/><rect class="c" x="98" y="34" rx="2" ry="2"/><rect class="c" x="98" y="50" rx="2" ry="2"/><rect class="c" x="98" y="66" rx="2" ry="2"/><rect class="c" x="98" y="82" rx="2" ry="2"/><rect class="c" x="98" y="98" rx="2" ry="2"/><rect class="c" x="114" y="2" rx="2" ry="2"/><rect class="c" x="114" y="18" rx="2" ry="2"/><rect class="c" x="114" y="34" rx="2" ry="2"/><rect class="c" x="114" y="50" rx="2" ry="2"/><rect class="c" x="114" y="66" rx="2" ry="2"/><rect class="c" x="114" y="82" rx="2" ry="2"/><rect class="c" x="114" y="98" rx="2" ry="2"/><rect class="c" x="130" y="2" rx="2" ry="2"/><rect class="c" x="130" y="18" rx="2" ry="2"/><rect class="c" x="130" y="34" rx="2" ry="2"/><rect class="c" x="130" y="50" rx="2" ry="2"/><rect class="c" x="130" y="66" rx="2" ry="2"/><rect class="c" x="130" y="82" rx="2" ry="2"/><rect class="c" x="130" y="98" rx="2" ry="2"/><rect class="c" x="146" y="2" rx="2" ry="2"/><rect class="c" x="146" y="18" rx="2" ry="2"/><rect class="c" x="146" y="34" rx="2" ry="2"/><rect class="c" x="146" y="50" rx="2" ry="2"/><rect class="c" x="146" y="66" rx="2" ry="2"/><rect class="c" x="146" y="82" rx="2" ry="2"/><rect class="c" x="146" y="98" rx="2" ry="2"/><rect class="c" x="162" y="2" rx="2" ry="2"/><rect class="c" x="162" y="18" rx="2" ry="2"/><rect class="c" x="162" y="34" rx="2" ry="2"/><rect class="c" x="162" y="50" rx="2" ry="2"/><rect class="c" x="162" y="66" rx="2" ry="2"/><rect class="c" x="162" y="82" rx="2" ry="2"/><rect class="c" x="162" y="98" rx="2" ry="2"/><rect class="c" x="178" y="2" rx="2" ry="2"/><rect class="c" x="178" y="18" rx="2" ry="2"/><rect class="c" x="178" y="34" rx="2" ry="2"/><rect class="c" x="178" y="50" rx="2" ry="2"/><rect class="c" x="178" y="66" rx="2" ry="2"/><rect class="c" x="178" y="82" rx="2" ry="2"/><rect class="c" x="178" y="98" rx="2" ry="2"/><rect class="c" x="194" y="2" rx="2" ry="2"/><rect class="c" x="194" y="18" rx="2" ry="2"/><rect class="c" x="194" y="34" rx="2" ry="2"/><rect class="c" x="194" y="50" rx="2" ry="2"/><rect class="c" x="194" y="66" rx="2" ry="2"/><rect class="c" x="194" y="82" rx="2" ry="2"/><rect class="c" x="194" y="98" rx="2" ry="2"/><rect class="c" x="210" y="2" rx="2" ry="2"/><rect class="c" x="210" y="18" rx="2" ry="2"/><rect class="c" x="210" y="34" rx="2" ry="2"/><rect class="c" x="210" y="50" rx="2" ry="2"/><rect class="c" x="210" y="66" rx="2" ry="2"/><rect class="c" x="210" y="82" rx="2" ry="2"/><rect class="c" x="210" y="98" rx="2" ry="2"/><rect class="c" x="226" y="2" rx="2" ry="2"/><rect class="c" x="226" y="18" rx="2" ry="2"/><rect class="c" x="226" y="34" rx="2" ry="2"/><rect class="c" x="226" y="50" rx="2" ry="2"/><rect class="c" x="226" y="66" rx="2" ry="2"/><rect class="c" x="226" y="82" rx="2" ry="2"/><rect class="c" x="226" y="98" rx="2" ry="2"/><rect class="c" x="242" y="2" rx="2" ry="2"/><rect class="c" x="242" y="18" rx="2" ry="2"/><rect class="c" x="242" y="34" rx="2" ry="2"/><rect class="c" x="242" y="50" rx="2" ry="2"/><rect class="c" x="242" y="66" rx="2" ry="2"/><rect class="c" x="242" y="82" rx="2" ry="2"/><rect class="c" x="242" y="98" rx="2" ry="2"/><rect class="c" x="258" y="2" rx="2" ry="2"/><rect class="c" x="258" y="18" rx="2" ry="2"/><rect class="c" x="258" y="34" rx="2" ry="2"/><rect class="c" x="258" y="50" rx="2" ry="2"/><rect class="c" x="258" y="66" rx="2" ry="2"/><rect class="c" x="258" y="82" rx="2" ry="2"/><rect class="c" x="258" y="98" rx="2" ry="2"/><rect class="c" x="274" y="2" rx="2" ry="2"/><rect class="c" x="274" y="18" rx="2" ry="2"/><rect class="c" x="274" y="34" rx="2" ry="2"/><rect class="c" x="274" y="50" rx="2" ry="2"/><rect class="c" x="274" y="66" rx="2" ry="2"/><rect class="c" x="274" y="82" rx="2" ry="2"/><rect class="c" x="274" y="98" rx="2" ry="2"/><rect class="c" x="290" y="2" rx="2" ry="2"/><rect class="c" x="290" y="18" rx="2" ry="2"/><rect class="c" x="290" y="34" rx="2" ry="2"/><rect class="c" x="290" y="50" rx="2" ry="2"/><rect class="c" x="290" y="66" rx="2" ry="2"/><rect class="c" x="290" y="82" rx="2" ry="2"/><rect class="c" x="290" y="98" rx="2" ry="2"/><rect class="c" x="306" y="2" rx="2" ry="2"/><rect class="c" x="306" y="18" rx="2" ry="2"/><rect class="c" x="306" y="34" rx="2" ry="2"/><rect class="c" x="306" y="50" rx="2" ry="2"/><rect class="c" x="306" y="66" rx="2" ry="2"/><rect class="c" x="306" y="82" rx="2" ry="2"/><rect class="c" x="306" y="98" rx="2" ry="2"/><rect class="c" x="322" y="2" rx="2" ry="2"/><rect class="c" x="322" y="18" rx="2" ry="2"/><rect class="c" x="322" y="34" rx="2" ry="2"/><rect class="c" x="322" y="50" rx="2" ry="2"/><rect class="c" x="322" y="66" rx="2" ry="2"/><rect class="c" x="322" y="82" rx="2" ry="2"/><rect class="c" x="322" y="98" rx="2" ry="2"/><rect class="c" x="338" y="2" rx="2" ry="2"/><rect class="c" x="338" y="18" rx="2" ry="2"/><rect class="c" x="338" y="34" rx="2" ry="2"/><rect class="c" x="338" y="50" rx="2" ry="2"/><rect class="c" x="338" y="66" rx="2" ry="2"/><rect class="c" x="338" y="82" rx="2" ry="2"/><rect class="c" x="338" y="98" rx="2" ry="2"/><rect class="c" x="354" y="2" rx="2" ry="2"/><rect class="c" x="354" y="18" rx="2" ry="2"/><rect class="c" x="354" y="34" rx="2" ry="2"/><rect class="c" x="354" y="50" rx="2" ry="2"/><rect class="c" x="354" y="66" rx="2" ry="2"/><rect class="c" x="354" y="82" rx="2" ry="2"/><rect class="c" x="354" y="98" rx="2" ry="2"/><rect class="c" x="370" y="2" rx="2" ry="2"/><rect class="c" x="370" y="18" rx="2" ry="2"/><rect class="c" x="370" y="34" rx="2" ry="2"/><rect class="c" x="370" y="50" rx="2" ry="2"/><rect class="c" x="370" y="66" rx="2" ry="2"/><rect class="c" x="370" y="82" rx="2" ry="2"/><rect class="c" x="370" y="98" rx="2" ry="2"/><rect class="c" x="386" y="2" rx="2" ry="2"/><rect class="c" x="386" y="18" rx="2" ry="2"/><rect class="c" x="386" y="34" rx="2" ry="2"/><rect class="c" x="386" y="50" rx="2" ry="2"/><rect class="c" x="386" y="66" rx="2" ry="2"/><rect class="c" x="386" y="82" rx="2" ry="2"/><rect class="c" x="386" y="98" rx="2" ry="2"/><rect class="c" x="402" y="2" rx="2" ry="2"/><rect class="c" x="402" y="18" rx="2" ry="2"/><rect class="c" x="402" y="34" rx="2" ry="2"/><rect class="c" x="402" y="50" rx="2" ry="2"/><rect class="c" x="402" y="66" rx="2" ry="2"/><rect class="c" x="402" y="82" rx="2" ry="2"/><rect class="c" x="402" y="98" rx="2" ry="2"/><rect class="c" x="418" y="2" rx="2" ry="2"/><rect class="c" x="418" y="18" rx="2" ry="2"/><rect class="c" x="418" y="34" rx="2" ry="2"/><rect class="c" x="418" y="50" rx="2" ry="2"/><rect class="c" x="418" y="66" rx="2" ry="2"/><rect class="c" x="418" y="82" rx="2" ry="2"/><rect class="c" x="418" y="98" rx="2" ry="2"/><rect class="c" x="434" y="2" rx="2" ry="2"/><rect class="c" x="434" y="18" rx="2" ry="2"/><rect class="c" x="434" y="34" rx="2" ry="2"/><rect class="c" x="434" y="50" rx="2" ry="2"/><rect class="c" x="434" y="66" rx="2" ry="2"/><rect class="c" x="434" y="82" rx="2" ry="2"/><rect class="c" x="434" y="98" rx="2" ry="2"/><rect class="c" x="450" y="2" rx="2" ry="2"/><rect class="c" x="450" y="18" rx="2" ry="2"/><rect class="c" x="450" y="34" rx="2" ry="2"/><rect class="c" x="450" y="50" rx="2" ry="2"/><rect class="c" x="450" y="66" rx="2" ry="2"/><rect class="c" x="450" y="82" rx="2" ry="2"/><rect class="c" x="450" y="98" rx="2" ry="2"/><rect class="c" x="466" y="2" rx="2" ry="2"/><rect class="c" x="466" y="18" rx="2" ry="2"/><rect class="c" x="466" y="34" rx="2" ry="2"/><rect class="c" x="466" y="50" rx="2" ry="2"/><rect class="c" x="466" y="66" rx="2" ry="2"/><rect class="c" x="466" y="82" rx="2" ry="2"/><rect class="c" x="466" y="98" rx="2" ry="2"/><rect class="c" x="482" y="2" rx="2" ry="2"/><rect class="c" x="482" y="18" rx="2" ry="2"/><rect class="c" x="482" y="34" rx="2" ry="2"/><rect class="c" x="482" y="50" rx="2" ry="2"/><rect class="c" x="482" y="66" rx="2" ry="2"/><rect class="c" x="482" y="82" rx="2" ry="2"/><rect class="c" x="482" y="98" rx="2" ry="2"/><rect class="c" x="498" y="2" rx="2" ry="2"/><rect class="c" x="498" y="18" rx="2" ry="2"/><rect class="c" x="498" y="34" rx="2" ry="2"/><rect class="c" x="498" y="50" rx="2" ry="2"/><rect class="c" x="498" y="66" rx="2" ry="2"/><rect class="c" x="498" y="82" rx="2" ry="2"/><rect class="c" x="498" y="98" rx="2" ry="2"/><rect class="c" x="514" y="2" rx="2" ry="2"/><rect class="c" x="514" y="18" rx="2" ry="2"/><rect class="c" x="514" y="34" rx="2" ry="2"/><rect class="c" x="514" y="50" rx="2" ry="2"/><rect class="c" x="514" y="66" rx="2" ry="2"/><rect class="c" x="514" y="82" rx="2" ry="2"/><rect class="c" x="514" y="98" rx="2" ry="2"/><rect class="c" x="530" y="2" rx="2" ry="2"/><rect class="c" x="530" y="18" rx="2" ry="2"/><rect class="c" x="530" y="34" rx="2" ry="2"/><rect class="c" x="530" y="50" rx="2" ry="2"/><rect class="c" x="530" y="66" rx="2" ry="2"/><rect class="c" x="530" y="82" rx="2" ry="2"/><rect class="c" x="530" y="98" rx="2" ry="2"/><rect class="c" x="546" y="2" rx="2" ry="2"/><rect class="c" x="546" y="18" rx="2" ry="2"/><rect class="c" x="546" y="34" rx="2" ry="2"/><rect class="c" x="546" y="50" rx="2" ry="2"/><rect class="c" x="546" y="66" rx="2" ry="2"/><rect class="c" x="546" y="82" rx="2" ry="2"/><rect class="c" x="546" y="98" rx="2" ry="2"/><rect class="c" x="562" y="2" rx="2" ry="2"/><rect class="c" x="562" y="18" rx="2" ry="2"/><rect class="c" x="562" y="34" rx="2" ry="2"/><rect class="c" x="562" y="50" rx="2" ry="2"/><rect class="c" x="562" y="66" rx="2" ry="2"/><rect class="c" x="562" y="82" rx="2" ry="2"/><rect class="c" x="562" y="98" rx="2" ry="2"/><rect class="c" x="578" y="2" rx="2" ry="2"/><rect class="c" x="578" y="18" rx="2" ry="2"/><rect class="c" x="578" y="34" rx="2" ry="2"/><rect class="c" x="578" y="50" rx="2" ry="2"/><rect class="c" x="578" y="66" rx="2" ry="2"/><rect class="c" x="578" y="82" rx="2" ry="2"/><rect class="c" x="578" y="98" rx="2" ry="2"/><rect class="c" x="594" y="2" rx="2" ry="2"/><rect class="c" x="594" y="18" rx="2" ry="2"/><rect class="c" x="594" y="34" rx="2" ry="2"/><rect class="c" x="594" y="50" rx="2" ry="2"/><rect class="c" x="594" y="66" rx="2" ry="2"/><rect class="c" x="594" y="82" rx="2" ry="2"/><rect class="c" x="594" y="98" rx="2" ry="2"/><rect class="c" x="610" y="2" rx="2" ry="2"/><rect class="c" x="610" y="18" rx="2" ry="2"/><rect class="c" x="610" y="34" rx="2" ry="2"/><rect class="c" x="610" y="50" rx="2" ry="2"/><rect class="c" x="610" y="66" rx="2" ry="2"/><rect class="c" x="610" y="82" rx="2" ry="2"/><rect class="c" x="610" y="98" rx="2" ry="2"/><rect class="c" x="626" y="2" rx="2" ry="2"/><rect class="c" x="626" y="18" rx="2" ry="2"/><rect class="c" x="626" y="34" rx="2" ry="2"/><rect class="c" x="626" y="50" rx="2" ry="2"/><rect class="c" x="626" y="66" rx="2" ry="2"/><rect class="c" x="626" y="82" rx="2" ry="2"/><rect class="c" x="626" y="98" rx="2" ry="2"/><rect class="c" x="642" y="2" rx="2" ry="2"/><rect class="c" x="642" y="18" rx="2" ry="2"/><rect class="c" x="642" y="34" rx="2" ry="2"/><rect class="c" x="642" y="50" rx="2" ry="2"/><rect class="c" x="642" y="66" rx="2" ry="2"/><rect class="c" x="642" y="82" rx="2" ry="2"/><rect class="c" x="642" y="98" rx="2" ry="2"/><rect class="c" x="658" y="2" rx="2" ry="2"/><rect class="c" x="658" y="18" rx="2" ry="2"/><rect class="c" x="658" y="34" rx="2" ry="2"/><rect class="c" x="658" y="50" rx="2" ry="2"/><rect class="c" x="658" y="66" rx="2" ry="2"/><rect class="c" x="658" y="82" rx="2" ry="2"/><rect class="c" x="658" y="98" rx="2" ry="2"/><rect class="c" x="674" y="2" rx="2" ry="2"/><rect class="c" x="674" y="18" rx="2" ry="2"/><rect class="c" x="674" y="34" rx="2" ry="2"/><rect class="c" x="674" y="50" rx="2" ry="2"/><rect class="c" x="674" y="66" rx="2" ry="2"/><rect class="c" x="674" y="82" rx="2" ry="2"/><rect class="c" x="674" y="98" rx="2" ry="2"/><rect class="c" x="690" y="2" rx="2" ry="2"/><rect class="c" x="690" y="18" rx="2" ry="2"/><rect class="c" x="690" y="34" rx="2" ry="2"/><rect class="c c0" x="690" y="50" rx="2" ry="2"/><rect class="c c1" x="690" y="66" rx="2" ry="2"/><rect class="c c2" x="690" y="82" rx="2" ry="2"/><rect class="c" x="690" y="98" rx="2" ry="2"/><rect class="c" x="706" y="2" rx="2" ry="2"/><rect class="c c3" x="706" y="18" rx="2" ry="2"/><rect class="c c4" x="706" y="34" rx="2" ry="2"/><rect class="c c5" x="706" y="50" rx="2" ry="2"/><rect class="c c6" x="706" y="66" rx="2" ry="2"/><rect class="c c7" x="706" y="82" rx="2" ry="2"/><rect class="c" x="706" y="98" rx="2" ry="2"/><rect class="c" x="722" y="2" rx="2" ry="2"/><rect class="c c8" x="722" y="18" rx="2" ry="2"/><rect class="c c9" x="722" y="34" rx="2" ry="2"/><rect class="c ca" x="722" y="50" rx="2" ry="2"/><rect class="c cb" x="722" y="66" rx="2" ry="2"/><rect class="c cc" x="722" y="82" rx="2" ry="2"/><rect class="c cd" x="722" y="98" rx="2" ry="2"/><rect class="c ce" x="738" y="2" rx="2" ry="2"/><rect class="c cf" x="738" y="18" rx="2" ry="2"/><rect class="c cg" x="738" y="34" rx="2" ry="2"/><rect class="c ch" x="738" y="50" rx="2" ry="2"/><rect class="c ci" x="738" y="66" rx="2" ry="2"/><rect class="c cj" x="738" y="82" rx="2" ry="2"/><rect class="c ck" x="738" y="98" rx="2" ry="2"/><rect class="c cl" x="754" y="2" rx="2" ry="2"/><rect class="c cm" x="754" y="18" rx="2" ry="2"/><rect class="c cn" x="754" y="34" rx="2" ry="2"/><rect class="c co" x="754" y="50" rx="2" ry="2"/><rect class="c cp" x="754" y="66" rx="2" ry="2"/><rect class="c cq" x="754" y="82" rx="2" ry="2"/><rect class="c cr" x="754" y="98" rx="2" ry="2"/><rect class="c cs" x="770" y="2" rx="2" ry="2"/><rect class="c ct" x="770" y="18" rx="2" ry="2"/><rect class="c cu" x="770" y="34" rx="2" ry="2"/><rect class="c cv" x="770" y="50" rx="2" ry="2"/><rect class="c cw" x="770" y="66" rx="2" ry="2"/><rect class="c cx" x="770" y="82" rx="2" ry="2"/><rect class="c cy" x="770" y="98" rx="2" ry="2"/><rect class="c cz" x="786" y="2" rx="2" ry="2"/><rect class="c c10" x="786" y="18" rx="2" ry="2"/><rect class="c c11" x="786" y="34" rx="2" ry="2"/><rect class="c c12" x="786" y="50" rx="2" ry="2"/><rect class="c c13" x="786" y="66" rx="2" ry="2"/><rect class="c c14" x="786" y="82" rx="2" ry="2"/><rect class="c c15" x="786" y="98" rx="2" ry="2"/><rect class="c c16" x="802" y="2" rx="2" ry="2"/><rect class="c c17" x="802" y="18" rx="2" ry="2"/><rect class="c c18" x="802" y="34" rx="2" ry="2"/><rect class="c c19" x="802" y="50" rx="2" ry="2"/><rect class="c c1a" x="802" y="66" rx="2" ry="2"/><rect class="c c1b" x="802" y="82" rx="2" ry="2"/><rect class="c c1c" x="802" y="98" rx="2" ry="2"/><rect class="c c1d" x="818" y="2" rx="2" ry="2"/><rect class="c c1e" x="818" y="18" rx="2" ry="2"/><rect class="c c1f" x="818" y="34" rx="2" ry="2"/><rect class="c c1g" x="818" y="50" rx="2" ry="2"/><rect class="c c1h" x="818" y="66" rx="2" ry="2"/><rect class="c c1i" x="818" y="82" rx="2" ry="2"/><rect class="c c1j" x="818" y="98" rx="2" ry="2"/><rect class="c c1k" x="834" y="2" rx="2" ry="2"/><rect class="c c1l" x="834" y="18" rx="2" ry="2"/><rect class="c" x="834" y="34" rx="2" ry="2"/><rect class="u u0" height="12" width="263.8" x="0.0" y="144"/><rect class="u u1" height="12" width="15.2" x="263.2" y="144"/><rect class="u u2" height="12" width="15.2" x="277.8" y="144"/><rect class="u u3" height="12" width="15.2" x="292.4" y="144"/><rect class="u u4" height="12" width="44.5" x="307.0" y="144"/><rect class="u u5" height="12" width="190.7" x="350.9" y="144"/><rect class="u u6" height="12" width="15.2" x="541.0" y="144"/><rect class="u u7" height="12" width="15.2" x="555.6" y="144"/><rect class="u u8" height="12" width="161.4" x="570.2" y="144"/><rect class="u u9" height="12" width="117.6" x="731.0" y="144"/><rect class="s s0" x="0.8" y="0.8" width="14.4" height="14.4" rx="4.5" ry="4.5"/><rect class="s s1" x="1.8" y="1.8" width="12.3" height="12.3" rx="4.1" ry="4.1"/><rect class="s s2" x="2.6" y="2.6" width="10.8" height="10.8" rx="3.6" ry="3.6"/><rect class="s s3" x="3.0" y="3.0" width="9.9" height="9.9" rx="3.3" ry="3.3"/></svg>