<svg viewBox="-16 -32 880 192" width="880" height="192" xmlns="http://www.w3.org/2000/svg"><desc>Generated with https://github.com/Platane/snk</desc><style>:root{--cb:#1b1f230a;--cs:#7845ab;--ce:#ebedf0;--c0:#ebedf0;--c1:#9be9a8;--c2:#40c463;--c3:#30a14e;--c4:#216e39}.c{shape-rendering:geometricPrecision;fill:var(--ce);stroke-width:1px;stroke:var(--cb);animation:none 26300ms linear infinite;width:12px;height:12px}@keyframes c0{28.13%{fill:var(--c1)}28.15%,100%{fill:var(--ce)}}.c.c0{fill:var(--c1);animation-name:c0}@keyframes c1{27.75%{fill:var(--c1)}27.77%,100%{fill:var(--ce)}}.c.c1{fill:var(--c1);animation-name:c1}@keyframes c2{49.42%{fill:var(--c2)}49.44%,100%{fill:var(--ce)}}.c.c2{fill:var(--c2);animation-name:c2}@keyframes c3{17.86%{fill:var(--c1)}17.88%,100%{fill:var(--ce)}}.c.c3{fill:var(--c1);animation-name:c3}@keyframes c4{63.87%{fill:var(--c3)}63.89%,100%{fill:var(--ce)}}.c.c4{fill:var(--c3);animation-name:c4}@keyframes c5{74.13%{fill:var(--c4)}74.15%,100%{fill:var(--ce)}}.c.c5{fill:var(--c4);animation-name:c5}@keyframes c6{72.99%{fill:var(--c3)}73.01%,100%{fill:var(--ce)}}.c.c6{fill:var(--c3);animation-name:c6}@keyframes c7{74.89%{fill:var(--c4)}74.91%,100%{fill:var(--ce)}}.c.c7{fill:var(--c4);animation-name:c7}@keyframes c8{18.24%{fill:var(--c1)}18.26%,100%{fill:var(--ce)}}.c.c8{fill:var(--c1);animation-name:c8}@keyframes c9{63.49%{fill:var(--c3)}63.51%,100%{fill:var(--ce)}}.c.c9{fill:var(--c3);animation-name:c9}@keyframes ca{73.75%{fill:var(--c4)}73.77%,100%{fill:var(--ce)}}.c.ca{fill:var(--c4);animation-name:ca}@keyframes cb{73.37%{fill:var(--c4)}73.39%,100%{fill:var(--ce)}}.c.cb{fill:var(--c4);animation-name:cb}@keyframes cc{60.07%{fill:var(--c2)}60.09%,100%{fill:var(--ce)}}.c.cc{fill:var(--c2);animation-name:cc}@keyframes cd{25.47%{fill:var(--c1)}25.49%,100%{fill:var(--ce)}}.c.cd{fill:var(--c1);animation-name:cd}@keyframes ce{19%{fill:var(--c1)}19.02%,100%{fill:var(--ce)}}.c.ce{fill:var(--c1);animation-name:ce}@keyframes cf{52.08%{fill:var(--c2)}52.1%,100%{fill:var(--ce)}}.c.cf{fill:var(--c2);animation-name:cf}@keyframes cg{61.59%{fill:var(--c3)}61.61%,100%{fill:var(--ce)}}.c.cg{fill:var(--c3);animation-name:cg}@keyframes ch{46%{fill:var(--c2)}46.02%,100%{fill:var(--ce)}}.c.ch{fill:var(--c2);animation-name:ch}@keyframes ci{46.38%{fill:var(--c2)}46.4%,100%{fill:var(--ce)}}.c.ci{fill:var(--c2);animation-name:ci}@keyframes cj{60.45%{fill:var(--c3)}60.47%,100%{fill:var(--ce)}}.c.cj{fill:var(--c3);animation-name:cj}@keyframes ck{25.09%{fill:var(--c1)}25.11%,100%{fill:var(--ce)}}.c.ck{fill:var(--c1);animation-name:ck}@keyframes cl{19.38%{fill:var(--c1)}19.4%,100%{fill:var(--ce)}}.c.cl{fill:var(--c1);animation-name:cl}@keyframes cm{40.29%{fill:var(--c1)}40.31%,100%{fill:var(--ce)}}.c.cm{fill:var(--c1);animation-name:cm}@keyframes cn{61.97%{fill:var(--c3)}61.99%,100%{fill:var(--ce)}}.c.cn{fill:var(--c3);animation-name:cn}@keyframes co{45.62%{fill:var(--c2)}45.64%,100%{fill:var(--ce)}}.c.co{fill:var(--c2);animation-name:co}@keyframes cp{33.83%{fill:var(--c1)}33.85%,100%{fill:var(--ce)}}.c.cp{fill:var(--c1);animation-name:cp}@keyframes cq{34.21%{fill:var(--c1)}34.23%,100%{fill:var(--ce)}}.c.cq{fill:var(--c1);animation-name:cq}@keyframes cr{24.7%{fill:var(--c1)}24.72%,100%{fill:var(--ce)}}.c.cr{fill:var(--c1);animation-name:cr}@keyframes cs{19.76%{fill:var(--c1)}19.78%,100%{fill:var(--ce)}}.c.cs{fill:var(--c1);animation-name:cs}@keyframes ct{40.67%{fill:var(--c2)}40.69%,100%{fill:var(--ce)}}.c.ct{fill:var(--c2);animation-name:ct}@keyframes cu{77.56%{fill:var(--c4)}77.58%,100%{fill:var(--ce)}}.c.cu{fill:var(--c4);animation-name:cu}@keyframes cv{57.4%{fill:var(--c3)}57.42%,100%{fill:var(--ce)}}.c.cv{fill:var(--c3);animation-name:cv}@keyframes cw{33.45%{fill:var(--c2)}33.47%,100%{fill:var(--ce)}}.c.cw{fill:var(--c2);animation-name:cw}@keyframes cx{44.48%{fill:var(--c2)}44.5%,100%{fill:var(--ce)}}.c.cx{fill:var(--c2);animation-name:cx}@keyframes cy{24.32%{fill:var(--c1)}24.34%,100%{fill:var(--ce)}}.c.cy{fill:var(--c1);animation-name:cy}@keyframes cz{20.14%{fill:var(--c1)}20.16%,100%{fill:var(--ce)}}.c.cz{fill:var(--c1);animation-name:cz}@keyframes c10{41.05%{fill:var(--c2)}41.07%,100%{fill:var(--ce)}}.c.c10{fill:var(--c2);animation-name:c10}@keyframes c11{77.94%{fill:var(--c4)}77.96%,100%{fill:var(--ce)}}.c.c11{fill:var(--c4);animation-name:c11}@keyframes c12{57.02%{fill:var(--c2)}57.04%,100%{fill:var(--ce)}}.c.c12{fill:var(--c2);animation-name:c12}@keyframes c13{33.07%{fill:var(--c1)}33.09%,100%{fill:var(--ce)}}.c.c13{fill:var(--c1);animation-name:c13}@keyframes c14{32.69%{fill:var(--c2)}32.71%,100%{fill:var(--ce)}}.c.c14{fill:var(--c2);animation-name:c14}@keyframes c15{23.94%{fill:var(--c1)}23.96%,100%{fill:var(--ce)}}.c.c15{fill:var(--c1);animation-name:c15}@keyframes c16{20.52%{fill:var(--c1)}20.54%,100%{fill:var(--ce)}}.c.c16{fill:var(--c1);animation-name:c16}@keyframes c17{41.43%{fill:var(--c2)}41.45%,100%{fill:var(--ce)}}.c.c17{fill:var(--c2);animation-name:c17}@keyframes c18{66.91%{fill:var(--c3)}66.93%,100%{fill:var(--ce)}}.c.c18{fill:var(--c3);animation-name:c18}@keyframes c19{78.7%{fill:var(--c4)}78.72%,100%{fill:var(--ce)}}.c.c19{fill:var(--c4);animation-name:c19}@keyframes c1a{68.43%{fill:var(--c3)}68.45%,100%{fill:var(--ce)}}.c.c1a{fill:var(--c3);animation-name:c1a}@keyframes c1b{43.72%{fill:var(--c2)}43.74%,100%{fill:var(--ce)}}.c.c1b{fill:var(--c2);animation-name:c1b}@keyframes c1c{23.56%{fill:var(--c1)}23.58%,100%{fill:var(--ce)}}.c.c1c{fill:var(--c1);animation-name:c1c}.u{transform-origin:0 0;transform:scale(0,1);animation:none linear 26300ms infinite}@keyframes u0{17.86%{transform:scale(0.000,1)}17.88%,18.24%{transform:scale(0.067,1)}18.26%,19%{transform:scale(0.133,1)}19.02%,19.38%{transform:scale(0.200,1)}19.4%,19.76%{transform:scale(0.267,1)}19.78%,20.14%{transform:scale(0.333,1)}20.16%,20.52%{transform:scale(0.400,1)}20.54%,23.56%{transform:scale(0.467,1)}23.58%,23.94%{transform:scale(0.533,1)}23.96%,24.32%{transform:scale(0.600,1)}24.34%,24.7%{transform:scale(0.667,1)}24.72%,25.09%{transform:scale(0.733,1)}25.11%,25.47%{transform:scale(0.800,1)}25.49%,27.75%{transform:scale(0.867,1)}27.77%,28.13%{transform:scale(0.933,1)}28.15%,100%{transform:scale(1.000,1)}}.u.u0{fill:var(--c1);animation-name:u0;transform-origin:0.0px 0}@keyframes u1{32.69%{transform:scale(0.000,1)}32.71%,100%{transform:scale(1.000,1)}}.u.u1{fill:var(--c2);animation-name:u1;transform-origin:259.6px 0}@keyframes u2{33.07%{transform:scale(0.000,1)}33.09%,100%{transform:scale(1.000,1)}}.u.u2{fill:var(--c1);animation-name:u2;transform-origin:276.9px 0}@keyframes u3{33.45%{transform:scale(0.000,1)}33.47%,100%{transform:scale(1.000,1)}}.u.u3{fill:var(--c2);animation-name:u3;transform-origin:294.2px 0}@keyframes u4{33.83%{transform:scale(0.000,1)}33.85%,34.21%{transform:scale(0.333,1)}34.23%,40.29%{transform:scale(0.667,1)}40.31%,100%{transform:scale(1.000,1)}}.u.u4{fill:var(--c1);animation-name:u4;transform-origin:311.5px 0}@keyframes u5{40.67%{transform:scale(0.000,1)}40.69%,41.05%{transform:scale(0.091,1)}41.07%,41.43%{transform:scale(0.182,1)}41.45%,43.72%{transform:scale(0.273,1)}43.74%,44.48%{transform:scale(0.364,1)}44.5%,45.62%{transform:scale(0.455,1)}45.64%,46%{transform:scale(0.545,1)}46.02%,46.38%{transform:scale(0.636,1)}46.4%,49.42%{transform:scale(0.727,1)}49.44%,52.08%{transform:scale(0.818,1)}52.1%,57.02%{transform:scale(0.909,1)}57.04%,100%{transform:scale(1.000,1)}}.u.u5{fill:var(--c2);animation-name:u5;transform-origin:363.4px 0}@keyframes u6{57.4%{transform:scale(0.000,1)}57.42%,100%{transform:scale(1.000,1)}}.u.u6{fill:var(--c3);animation-name:u6;transform-origin:553.8px 0}@keyframes u7{60.07%{transform:scale(0.000,1)}60.09%,100%{transform:scale(1.000,1)}}.u.u7{fill:var(--c2);animation-name:u7;transform-origin:571.1px 0}@keyframes u8{60.45%{transform:scale(0.000,1)}60.47%,61.59%{transform:scale(0.125,1)}61.61%,61.97%{transform:scale(0.250,1)}61.99%,63.49%{transform:scale(0.375,1)}63.51%,63.87%{transform:scale(0.500,1)}63.89%,66.91%{transform:scale(0.625,1)}66.93%,68.43%{transform:scale(0.750,1)}68.45%,72.99%{transform:scale(0.875,1)}73.01%,100%{transform:scale(1.000,1)}}.u.u8{fill:var(--c3);animation-name:u8;transform-origin:588.4px 0}@keyframes u9{73.37%{transform:scale(0.000,1)}73.39%,73.75%{transform:scale(0.143,1)}73.77%,74.13%{transform:scale(0.286,1)}74.15%,74.89%{transform:scale(0.429,1)}74.91%,77.56%{transform:scale(0.571,1)}77.58%,77.94%{transform:scale(0.714,1)}77.96%,78.7%{transform:scale(0.857,1)}78.72%,100%{transform:scale(1.000,1)}}.u.u9{fill:var(--c4);animation-name:u9;transform-origin:726.9px 0}.s{shape-rendering:geometricPrecision;fill:var(--cs);animation:none linear 26300ms infinite}@keyframes s0{0%,99.62%{transform:translate(0px,-16px)}0.38%{transform:translate(0px,0px)}17.49%{transform:translate(720px,0px)}17.87%,64.26%{transform:translate(720px,16px)}18.25%,63.12%{transform:translate(736px,16px)}18.63%{transform:translate(736px,0px)}20.91%,38.4%{transform:translate(832px,0px)}23.19%,36.12%{transform:translate(832px,96px)}26.62%,29.66%{transform:translate(688px,96px)}27.38%{transform:translate(688px,64px)}27.76%,72.62%{transform:translate(704px,64px)}28.14%{transform:translate(704px,48px)}28.52%{transform:translate(688px,48px)}32.32%{transform:translate(800px,96px)}33.08%{transform:translate(800px,64px)}33.84%,45.25%,46.77%,69.58%{transform:translate(768px,64px)}34.6%,47.53%{transform:translate(768px,96px)}39.92%{transform:translate(768px,0px)}40.3%,62.36%{transform:translate(768px,16px)}41.83%,53.99%{transform:translate(832px,16px)}43.35%,55.51%{transform:translate(832px,80px)}44.49%,76.43%{transform:translate(784px,80px)}44.87%{transform:translate(784px,64px)}45.63%{transform:translate(768px,48px)}46.01%{transform:translate(752px,48px)}46.39%{transform:translate(752px,64px)}49.05%,71.86%{transform:translate(704px,96px)}50.95%{transform:translate(704px,16px)}56.27%{transform:translate(800px,80px)}57.03%{transform:translate(800px,48px)}57.41%{transform:translate(784px,48px)}58.56%{transform:translate(784px,96px)}59.7%{transform:translate(736px,96px)}60.08%{transform:translate(736px,80px)}60.46%,70.34%{transform:translate(752px,80px)}61.6%{transform:translate(752px,32px)}61.98%{transform:translate(768px,32px)}63.5%{transform:translate(736px,32px)}63.88%{transform:translate(720px,32px)}66.54%{transform:translate(816px,16px)}66.92%,78.33%{transform:translate(816px,32px)}67.3%{transform:translate(832px,32px)}68.06%{transform:translate(832px,64px)}69.96%{transform:translate(768px,80px)}70.72%{transform:translate(752px,96px)}73.38%{transform:translate(736px,64px)}73.76%{transform:translate(736px,48px)}74.14%{transform:translate(720px,48px)}74.9%{transform:translate(720px,80px)}77.57%{transform:translate(784px,32px)}78.71%{transform:translate(816px,48px)}96.2%{transform:translate(80px,48px)}96.96%{transform:translate(80px,16px)}97.34%{transform:translate(64px,16px)}98.1%{transform:translate(64px,-16px)}}.s.s0{transform:translate(0px,-16px);animation-name:s0}@keyframes s1{0%,99.62%{transform:translate(16px,-16px)}0.38%{transform:translate(0px,-16px)}0.76%{transform:translate(0px,0px)}17.87%{transform:translate(720px,0px)}18.25%,64.64%{transform:translate(720px,16px)}18.63%,63.5%{transform:translate(736px,16px)}19.01%{transform:translate(736px,0px)}21.29%,38.78%{transform:translate(832px,0px)}23.57%,36.5%{transform:translate(832px,96px)}27%,30.04%{transform:translate(688px,96px)}27.76%{transform:translate(688px,64px)}28.14%,73%{transform:translate(704px,64px)}28.52%{transform:translate(704px,48px)}28.9%{transform:translate(688px,48px)}32.7%{transform:translate(800px,96px)}33.46%{transform:translate(800px,64px)}34.22%,45.63%,47.15%,69.96%{transform:translate(768px,64px)}34.98%,47.91%{transform:translate(768px,96px)}40.3%{transform:translate(768px,0px)}40.68%,62.74%{transform:translate(768px,16px)}42.21%,54.37%{transform:translate(832px,16px)}43.73%,55.89%{transform:translate(832px,80px)}44.87%,76.81%{transform:translate(784px,80px)}45.25%{transform:translate(784px,64px)}46.01%{transform:translate(768px,48px)}46.39%{transform:translate(752px,48px)}46.77%{transform:translate(752px,64px)}49.43%,72.24%{transform:translate(704px,96px)}51.33%{transform:translate(704px,16px)}56.65%{transform:translate(800px,80px)}57.41%{transform:translate(800px,48px)}57.79%{transform:translate(784px,48px)}58.94%{transform:translate(784px,96px)}60.08%{transform:translate(736px,96px)}60.46%{transform:translate(736px,80px)}60.84%,70.72%{transform:translate(752px,80px)}61.98%{transform:translate(752px,32px)}62.36%{transform:translate(768px,32px)}63.88%{transform:translate(736px,32px)}64.26%{transform:translate(720px,32px)}66.92%{transform:translate(816px,16px)}67.3%,78.71%{transform:translate(816px,32px)}67.68%{transform:translate(832px,32px)}68.44%{transform:translate(832px,64px)}70.34%{transform:translate(768px,80px)}71.1%{transform:translate(752px,96px)}73.76%{transform:translate(736px,64px)}74.14%{transform:translate(736px,48px)}74.52%{transform:translate(720px,48px)}75.29%{transform:translate(720px,80px)}77.95%{transform:translate(784px,32px)}79.09%{transform:translate(816px,48px)}96.58%{transform:translate(80px,48px)}97.34%{transform:translate(80px,16px)}97.72%{transform:translate(64px,16px)}98.48%{transform:translate(64px,-16px)}}.s.s1{transform:translate(16px,-16px);animation-name:s1}@keyframes s2{0%,99.62%{transform:translate(32px,-16px)}0.76%{transform:translate(0px,-16px)}1.14%{transform:translate(0px,0px)}18.25%{transform:translate(720px,0px)}18.63%,65.02%{transform:translate(720px,16px)}19.01%,63.88%{transform:translate(736px,16px)}19.39%{transform:translate(736px,0px)}21.67%,39.16%{transform:translate(832px,0px)}23.95%,36.88%{transform:translate(832px,96px)}27.38%,30.42%{transform:translate(688px,96px)}28.14%{transform:translate(688px,64px)}28.52%,73.38%{transform:translate(704px,64px)}28.9%{transform:translate(704px,48px)}29.28%{transform:translate(688px,48px)}33.08%{transform:translate(800px,96px)}33.84%{transform:translate(800px,64px)}34.6%,46.01%,47.53%,70.34%{transform:translate(768px,64px)}35.36%,48.29%{transform:translate(768px,96px)}40.68%{transform:translate(768px,0px)}41.06%,63.12%{transform:translate(768px,16px)}42.59%,54.75%{transform:translate(832px,16px)}44.11%,56.27%{transform:translate(832px,80px)}45.25%,77.19%{transform:translate(784px,80px)}45.63%{transform:translate(784px,64px)}46.39%{transform:translate(768px,48px)}46.77%{transform:translate(752px,48px)}47.15%{transform:translate(752px,64px)}49.81%,72.62%{transform:translate(704px,96px)}51.71%{transform:translate(704px,16px)}57.03%{transform:translate(800px,80px)}57.79%{transform:translate(800px,48px)}58.17%{transform:translate(784px,48px)}59.32%{transform:translate(784px,96px)}60.46%{transform:translate(736px,96px)}60.84%{transform:translate(736px,80px)}61.22%,71.1%{transform:translate(752px,80px)}62.36%{transform:translate(752px,32px)}62.74%{transform:translate(768px,32px)}64.26%{transform:translate(736px,32px)}64.64%{transform:translate(720px,32px)}67.3%{transform:translate(816px,16px)}67.68%,79.09%{transform:translate(816px,32px)}68.06%{transform:translate(832px,32px)}68.82%{transform:translate(832px,64px)}70.72%{transform:translate(768px,80px)}71.48%{transform:translate(752px,96px)}74.14%{transform:translate(736px,64px)}74.52%{transform:translate(736px,48px)}74.9%{transform:translate(720px,48px)}75.67%{transform:translate(720px,80px)}78.33%{transform:translate(784px,32px)}79.47%{transform:translate(816px,48px)}96.96%{transform:translate(80px,48px)}97.72%{transform:translate(80px,16px)}98.1%{transform:translate(64px,16px)}98.86%{transform:translate(64px,-16px)}}.s.s2{transform:translate(32px,-16px);animation-name:s2}@keyframes s3{0%,99.62%{transform:translate(48px,-16px)}1.14%{transform:translate(0px,-16px)}1.52%{transform:translate(0px,0px)}18.63%{transform:translate(720px,0px)}19.01%,65.4%{transform:translate(720px,16px)}19.39%,64.26%{transform:translate(736px,16px)}19.77%{transform:translate(736px,0px)}22.05%,39.54%{transform:translate(832px,0px)}24.33%,37.26%{transform:translate(832px,96px)}27.76%,30.8%{transform:translate(688px,96px)}28.52%{transform:translate(688px,64px)}28.9%,73.76%{transform:translate(704px,64px)}29.28%{transform:translate(704px,48px)}29.66%{transform:translate(688px,48px)}33.46%{transform:translate(800px,96px)}34.22%{transform:translate(800px,64px)}34.98%,46.39%,47.91%,70.72%{transform:translate(768px,64px)}35.74%,48.67%{transform:translate(768px,96px)}41.06%{transform:translate(768px,0px)}41.44%,63.5%{transform:translate(768px,16px)}42.97%,55.13%{transform:translate(832px,16px)}44.49%,56.65%{transform:translate(832px,80px)}45.63%,77.57%{transform:translate(784px,80px)}46.01%{transform:translate(784px,64px)}46.77%{transform:translate(768px,48px)}47.15%{transform:translate(752px,48px)}47.53%{transform:translate(752px,64px)}50.19%,73%{transform:translate(704px,96px)}52.09%{transform:translate(704px,16px)}57.41%{transform:translate(800px,80px)}58.17%{transform:translate(800px,48px)}58.56%{transform:translate(784px,48px)}59.7%{transform:translate(784px,96px)}60.84%{transform:translate(736px,96px)}61.22%{transform:translate(736px,80px)}61.6%,71.48%{transform:translate(752px,80px)}62.74%{transform:translate(752px,32px)}63.12%{transform:translate(768px,32px)}64.64%{transform:translate(736px,32px)}65.02%{transform:translate(720px,32px)}67.68%{transform:translate(816px,16px)}68.06%,79.47%{transform:translate(816px,32px)}68.44%{transform:translate(832px,32px)}69.2%{transform:translate(832px,64px)}71.1%{transform:translate(768px,80px)}71.86%{transform:translate(752px,96px)}74.52%{transform:translate(736px,64px)}74.9%{transform:translate(736px,48px)}75.29%{transform:translate(720px,48px)}76.05%{transform:translate(720px,80px)}78.71%{transform:translate(784px,32px)}79.85%{transform:translate(816px,48px)}97.34%{transform:translate(80px,48px)}98.1%{transform:translate(80px,16px)}98.48%{transform:translate(64px,16px)}99.24%{transform:translate(64px,-16px)}}.s.s3{transform:translate(48px,-16px);animation-name:s3}</style><rect class="c" x="2" y="2" rx="2" ry="2"/><rect class="c" x="2" y="18" rx="2" ry="2"/><rect class="c" x="2" y="34" rx="2" ry="2"/><rect class="c" x="2" y="50" rx="2" ry="2"/><rect class="c" x="2" y="66" rx="2" ry="2"/><rect class="c" x="2" y="82" rx="2" ry="2"/><rect class="c" x="2" y="98" rx="2" ry="2"/><rect class="c" x="18" y="2" rx="2" ry="2"/><rect class="c" x="18" y="18" rx="2" ry="2"/><rect class="c" x="18" y="34" rx="2" ry="2"/><rect class="c" x="18" y="50" rx="2" ry="2"/><rect class="c" x="18" y="66" rx="2" ry="2"/><rect class="c" x="18" y="82" rx="2" ry="2"/><rect class="c" x="18" y="98" rx="2" ry="2"/><rect class="c" x="34" y="2" rx="2" ry="2"/><rect class="c" x="34" y="18" rx="2" ry="2"/><rect class="c" x="34" y="34" rx="2" ry="2"/><rect class="c" x="34" y="50" rx="2" ry="2"/><rect class="c" x="34" y="66" rx="2" ry="2"/><rect class="c" x="34" y="82" rx="2" ry="2"/><rect class="c" x="34" y="98" rx="2" ry="2"/><rect class="c" x="50" y="2" rx="2" ry="2"/><rect class="c" x="50" y="18" rx="2" ry="2"/><rect class="c" x="50" y="34" rx="2" ry="2"/><rect class="c" x="50" y="50" rx="2" ry="2"/><rect class="c" x="50" y="66" rx="2" ry="2"/><rect class="c" x="50" y="82" rx="2" ry="2"/><rect class="c" x="50" y="98" rx="2" ry="2"/><rect class="c" x="66" y="2" rx="2" ry="2"/><rect class="c" x="66" y="18" rx="2" ry="2"/><rect class="c" x="66" y="34" rx="2" ry="2"/><rect class="c" x="66" y="50" rx="2" ry="2"/><rect class="c" x="66" y="66" rx="2" ry="2"/><rect class="c" x="66" y="82" rx="2" ry="2"/><rect class="c" x="66" y="98" rx="2" ry="2"/><rect class="c" x="82" y="2" rx="2" ry="2"/><rect class="c" x="82" y="18" rx="2" ry="2"/><rect class="c" x="82" y="34" rx="2" ry="2"/><rect class="c" x="82" y="50" rx="2" ry="2"/><rect class="c" x="82" y="66" rx="2" ry="2"/><rect class="c" x="82" y="82" rx="2" ry="2"/><rect class="c" x="82" y="98" rx="2" ry="2"/><rect class="c" x="98" y="2" rx="2" ry="2"/><rect class="c" x="98" y="18" rx="2" ry="2"/><rect class="c" x="98" y="34" rx="2" ry="2"/><rect class="c" x="98" y="50" rx="2" ry="2"/><rect class="c" x="98" y="66" rx="2" ry="2"/><rect class="c" x="98" y="82" rx="2" ry="2"/><rect class="c" x="98" y="98" rx="2" ry="2"/><rect class="c" x="114" y="2" rx="2" ry="2"/><rect class="c" x="114" y="18" rx="2" ry="2"/><rect class="c" x="114" y="34" rx="2" ry="2"/><rect class="c" x="114" y="50" rx="2" ry="2"/><rect class="c" x="114" y="66" rx="2" ry="2"/><rect class="c" x="114" y="82" rx="2" ry="2"/><rect class="c" x="114" y="98" rx="2" ry="2"/><rect class="c" x="130" y="2" rx="2" ry="2"/><rect class="c" x="130" y="18" rx="2" ry="2"/><rect class="c" x="130" y="34" rx="2" ry="2"/><rect class="c" x="130" y="50" rx="2" ry="2"/><rect class="c" x="130" y="66" rx="2" ry="2"/><rect class="c" x="130" y="82" rx="2" ry="2"/><rect class="c" x="130" y="98" rx="2" ry="2"/><rect class="c" x="146" y="2" rx="2" ry="2"/><rect class="c" x="146" y="18" rx="2" ry="2"/><rect class="c" x="146" y="34" rx="2" ry="2"/><rect class="c" x="146" y="50" rx="2" ry="2"/><rect class="c" x="146" y="66" rx="2" ry="2"/><rect class="c" x="146" y="82" rx="2" ry="2"/><rect class="c" x="146" y="98" rx="2" ry="2"/><rect class="c" x="162" y="2" rx="2" ry="2"/><rect class="c" x="162" y="18" rx="2" ry="2"/><rect class="c" x="162" y="34" rx="2" ry="2"/><rect class="c" x="162" y="50" rx="2" ry="2"/><rect class="c" x="162" y="66" rx="2" ry="2"/><rect class="c" x="162" y="82" rx="2" ry="2"/><rect class="c" x="162" y="98" rx="2" ry="2"/><rect class="c" x="178" y="2" rx="2" ry="2"/><rect class="c" x="178" y="18" rx="2" ry="2"/><rect class="c" x="178" y="34" rx="2" ry="2"/><rect class="c" x="178" y="50" rx="2" ry="2"/><rect class="c" x="178" y="66" rx="2" ry="2"/><rect class="c" x="178" y="82" rx="2" ry="2"/><rect class="c" x="178" y="98" rx="2" ry="2"/><rect class="c" x="194" y="2" rx="2" ry="2"/><rect class="c" x="194" y="18" rx="2" ry="2"/><rect class="c" x="194" y="34" rx="2" ry="2"/><rect class="c" x="194" y="50" rx="2" ry="2"/><rect class="c" x="194" y="66" rx="2" ry="2"/><rect class="c" x="194" y="82" rx="2" ry="2"/><rect class="c" x="194" y="98" rx="2" ry="2"/><rect class="c" x="210" y="2" rx="2" ry="2"/><rect class="c" x="210" y="18" rx="2" ry="2"/><rect class="c" x="210" y="34" rx="2" ry="2"/><rect class="c" x="210" y="50" rx="2" ry="2"/><rect class="c" x="210" y="66" rx="2" ry="2"/><rect class="c" x="210" y="82" rx="2" ry="2"/><rect class="c" x="210" y="98" rx="2" ry="2"/><rect class="c" x="226" y="2" rx="2" ry="2"/><rect class="c" x="226" y="18" rx="2" ry="2"/><rect class="c" x="226" y="34" rx="2" ry="2"/><rect class="c" x="226" y="50" rx="2" ry="2"/><rect class="c" x="226" y="66" rx="2" ry="2"/><rect class="c" x="226" y="82" rx="2" ry="2"/><rect class="c" x="226" y="98" rx="2" ry="2"/><rect class="c" x="242" y="2" rx="2" ry="2"/><rect class="c" x="242" y="18" rx="2" ry="2"/><rect class="c" x="242" y="34" rx="2" ry="2"/><rect class="c" x="242" y="50" rx="2" ry="2"/><rect class="c" x="242" y="66" rx="2" ry="2"/><rect class="c" x="242" y="82" rx="2" ry="2"/><rect class="c" x="242" y="98" rx="2" ry="2"/><rect class="c" x="258" y="2" rx="2" ry="2"/><rect class="c" x="258" y="18" rx="2" ry="2"/><rect class="c" x="258" y="34" rx="2" ry="2"/><rect class="c" x="258" y="50" rx="2" ry="2"/><rect class="c" x="258" y="66" rx="2" ry="2"/><rect class="c" x="258" y="82" rx="2" ry="2"/><rect class="c" x="258" y="98" rx="2" ry="2"/><rect class="c" x="274" y="2" rx="2" ry="2"/><rect class="c" x="274" y="18" rx="2" ry="2"/><rect class="c" x="274" y="34" rx="2" ry="2"/><rect class="c" x="274" y="50" rx="2" ry="2"/><rect class="c" x="274" y="66" rx="2" ry="2"/><rect class="c" x="274" y="82" rx="2" ry="2"/><rect class="c" x="274" y="98" rx="2" ry="2"/><rect class="c" x="290" y="2" rx="2" ry="2"/><rect class="c" x="290" y="18" rx="2" ry="2"/><rect class="c" x="290" y="34" rx="2" ry="2"/><rect class="c" x="290" y="50" rx="2" ry="2"/><rect class="c" x="290" y="66" rx="2" ry="2"/><rect class="c" x="290" y="82" rx="2" ry="2"/><rect class="c" x="290" y="98" rx="2" ry="2"/><rect class="c" x="306" y="2" rx="2" ry="2"/><rect class="c" x="306" y="18" rx="2" ry="2"/><rect class="c" x="306" y="34" rx="2" ry="2"/><rect class="c" x="306" y="50" rx="2" ry="2"/><rect class="c" x="306" y="66" rx="2" ry="2"/><rect class="c" x="306" y="82" rx="2" ry="2"/><rect class="c" x="306" y="98" rx="2" ry="2"/><rect class="c" x="322" y="2" rx="2" ry="2"/><rect class="c" x="322" y="18" rx="2" ry="2"/><rect class="c" x="322" y="34" rx="2" ry="2"/><rect class="c" x="322" y="50" rx="2" ry="2"/><rect class="c" x="322" y="66" rx="2" ry="2"/><rect class="c" x="322" y="82" rx="2" ry="2"/><rect class="c" x="322" y="98" rx="2" ry="2"/><rect class="c" x="338" y="2" rx="2" ry="2"/><rect class="c" x="338" y="18" rx="2" ry="2"/><rect class="c" x="338" y="34" rx="2" ry="2"/><rect class="c" x="338" y="50" rx="2" ry="2"/><rect class="c" x="338" y="66" rx="2" ry="2"/><rect class="c" x="338" y="82" rx="2" ry="2"/><rect class="c" x="338" y="98" rx="2" ry="2"/><rect class="c" x="354" y="2" rx="2" ry="2"/><rect class="c" x="354" y="18" rx="2" ry="2"/><rect class="c" x="354" y="34" rx="2" ry="2"/><rect class="c" x="354" y="50" rx="2" ry="2"/><rect class="c" x="354" y="66" rx="2" ry="2"/><rect class="c" x="354" y="82" rx="2" ry="2"/><rect class="c" x="354" y="98" rx="2" ry="2"/><rect class="c" x="370" y="2" rx="2" ry="2"/><rect class="c" x="370" y="18" rx="2" ry="2"/><rect class="c" x="370" y="34" rx="2" ry="2"/><rect class="c" x="370" y="50" rx="2" ry="2"/><rect class="c" x="370" y="66" rx="2" ry="2"/><rect class="c" x="370" y="82" rx="2" ry="2"/><rect class="c" x="370" y="98" rx="2" ry="2"/><rect class="c" x="386" y="2" rx="2" ry="2"/><rect class="c" x="386" y="18" rx="2" ry="2"/><rect class="c" x="386" y="34" rx="2" ry="2"/><rect class="c" x="386" y="50" rx="2" ry="2"/><rect class="c" x="386" y="66" rx="2" ry="2"/><rect class="c" x="386" y="82" rx="2" ry="2"/><rect class="c" x="386" y="98" rx="2" ry="2"/><rect class="c" x="402" y="2" rx="2" ry="2"/><rect class="c" x="402" y="18" rx="2" ry="2"/><rect class="c" x="402" y="34" rx="2" ry="2"/><rect class="c" x="402" y="50" rx="2" ry="2"/><rect class="c" x="402" y="66" rx="2" ry="2"/><rect class="c" x="402" y="82" rx="2" ry="2"/><rect class="c" x="402" y="98" rx="2" ry="2"/><rect class="c" x="418" y="2" rx="2" ry="2"/><rect class="c" x="418" y="18" rx="2" ry="2"/><rect class="c" x="418" y="34" rx="2" ry="2"/><rect class="c" x="418" y="50" rx="2" ry="2"/><rect class="c" x="418" y="66" rx="2" ry="2"/><rect class="c" x="418" y="82" rx="2" ry="2"/><rect class="c" x="418" y="98" rx="2" ry="2"/><rect class="c" x="434" y="2" rx="2" ry="2"/><rect class="c" x="434" y="18" rx="2" ry="2"/><rect class="c" x="434" y="34" rx="2" ry="2"/><rect class="c" x="434" y="50" rx="2" ry="2"/><rect class="c" x="434" y="66" rx="2" ry="2"/><rect class="c" x="434" y="82" rx="2" ry="2"/><rect class="c" x="434" y="98" rx="2" ry="2"/><rect class="c" x="450" y="2" rx="2" ry="2"/><rect class="c" x="450" y="18" rx="2" ry="2"/><rect class="c" x="450" y="34" rx="2" ry="2"/><rect class="c" x="450" y="50" rx="2" ry="2"/><rect class="c" x="450" y="66" rx="2" ry="2"/><rect class="c" x="450" y="82" rx="2" ry="2"/><rect class="c" x="450" y="98" rx="2" ry="2"/><rect class="c" x="466" y="2" rx="2" ry="2"/><rect class="c" x="466" y="18" rx="2" ry="2"/><rect class="c" x="466" y="34" rx="2" ry="2"/><rect class="c" x="466" y="50" rx="2" ry="2"/><rect class="c" x="466" y="66" rx="2" ry="2"/><rect class="c" x="466" y="82" rx="2" ry="2"/><rect class="c" x="466" y="98" rx="2" ry="2"/><rect class="c" x="482" y="2" rx="2" ry="2"/><rect class="c" x="482" y="18" rx="2" ry="2"/><rect class="c" x="482" y="34" rx="2" ry="2"/><rect class="c" x="482" y="50" rx="2" ry="2"/><rect class="c" x="482" y="66" rx="2" ry="2"/><rect class="c" x="482" y="82" rx="2" ry="2"/><rect class="c" x="482" y="98" rx="2" ry="2"/><rect class="c" x="498" y="2" rx="2" ry="2"/><rect class="c" x="498" y="18" rx="2" ry="2"/><rect class="c" x="498" y="34" rx="2" ry="2"/><rect class="c" x="498" y="50" rx="2" ry="2"/><rect class="c" x="498" y="66" rx="2" ry="2"/><rect class="c" x="498" y="82" rx="2" ry="2"/><rect class="c" x="498" y="98" rx="2" ry="2"/><rect class="c" x="514" y="2" rx="2" ry="2"/><rect class="c" x="514" y="18" rx="2" ry="2"/><rect class="c" x="514" y="34" rx="2" ry="2"/><rect class="c" x="514" y="50" rx="2" ry="2"/><rect class="c" x="514" y="66" rx="2" ry="2"/><rect class="c" x="514" y="82" rx="2" ry="2"/><rect class="c" x="514" y="98" rx="2" ry="2"/><rect class="c" x="530" y="2" rx="2" ry="2"/><rect class="c" x="530" y="18" rx="2" ry="2"/><rect class="c" x="530" y="34" rx="2" ry="2"/><rect class="c" x="530" y="50" rx="2" ry="2"/><rect class="c" x="530" y="66" rx="2" ry="2"/><rect class="c" x="530" y="82" rx="2" ry="2"/><rect class="c" x="530" y="98" rx="2" ry="2"/><rect class="c" x="546" y="2" rx="2" ry="2"/><rect class="c" x="546" y="18" rx="2" ry="2"/><rect class="c" x="546" y="34" rx="2" ry="2"/><rect class="c" x="546" y="50" rx="2" ry="2"/><rect class="c" x="546" y="66" rx="2" ry="2"/><rect class="c" x="546" y="82" rx="2" ry="2"/><rect class="c" x="546" y="98" rx="2" ry="2"/><rect class="c" x="562" y="2" rx="2" ry="2"/><rect class="c" x="562" y="18" rx="2" ry="2"/><rect class="c" x="562" y="34" rx="2" ry="2"/><rect class="c" x="562" y="50" rx="2" ry="2"/><rect class="c" x="562" y="66" rx="2" ry="2"/><rect class="c" x="562" y="82" rx="2" ry="2"/><rect class="c" x="562" y="98" rx="2" ry="2"/><rect class="c" x="578" y="2" rx="2" ry="2"/><rect class="c" x="578" y="18" rx="2" ry="2"/><rect class="c" x="578" y="34" rx="2" ry="2"/><rect class="c" x="578" y="50" rx="2" ry="2"/><rect class="c" x="578" y="66" rx="2" ry="2"/><rect class="c" x="578" y="82" rx="2" ry="2"/><rect class="c" x="578" y="98" rx="2" ry="2"/><rect class="c" x="594" y="2" rx="2" ry="2"/><rect class="c" x="594" y="18" rx="2" ry="2"/><rect class="c" x="594" y="34" rx="2" ry="2"/><rect class="c" x="594" y="50" rx="2" ry="2"/><rect class="c" x="594" y="66" rx="2" ry="2"/><rect class="c" x="594" y="82" rx="2" ry="2"/><rect class="c" x="594" y="98" rx="2" ry="2"/><rect class="c" x="610" y="2" rx="2" ry="2"/><rect class="c" x="610" y="18" rx="2" ry="2"/><rect class="c" x="610" y="34" rx="2" ry="2"/><rect class="c" x="610" y="50" rx="2" ry="2"/><rect class="c" x="610" y="66" rx="2" ry="2"/><rect class="c" x="610" y="82" rx="2" ry="2"/><rect class="c" x="610" y="98" rx="2" ry="2"/><rect class="c" x="626" y="2" rx="2" ry="2"/><rect class="c" x="626" y="18" rx="2" ry="2"/><rect class="c" x="626" y="34" rx="2" ry="2"/><rect class="c" x="626" y="50" rx="2" ry="2"/><rect class="c" x="626" y="66" rx="2" ry="2"/><rect class="c" x="626" y="82" rx="2" ry="2"/><rect class="c" x="626" y="98" rx="2" ry="2"/><rect class="c" x="642" y="2" rx="2" ry="2"/><rect class="c" x="642" y="18" rx="2" ry="2"/><rect class="c" x="642" y="34" rx="2" ry="2"/><rect class="c" x="642" y="50" rx="2" ry="2"/><rect class="c" x="642" y="66" rx="2" ry="2"/><rect class="c" x="642" y="82" rx="2" ry="2"/><rect class="c" x="642" y="98" rx="2" ry="2"/><rect class="c" x="658" y="2" rx="2" ry="2"/><rect class="c" x="658" y="18" rx="2" ry="2"/><rect class="c" x="658" y="34" rx="2" ry="2"/><rect class="c" x="658" y="50" rx="2" ry="2"/><rect class="c" x="658" y="66" rx="2" ry="2"/><rect class="c" x="658" y="82" rx="2" ry="2"/><rect class="c" x="658" y="98" rx="2" ry="2"/><rect class="c" x="674" y="2" rx="2" ry="2"/><rect class="c" x="674" y="18" rx="2" ry="2"/><rect class="c" x="674" y="34" rx="2" ry="2"/><rect class="c" x="674" y="50" rx="2" ry="2"/><rect class="c" x="674" y="66" rx="2" ry="2"/><rect class="c" x="674" y="82" rx="2" ry="2"/><rect class="c" x="674" y="98" rx="2" ry="2"/><rect class="c" x="690" y="2" rx="2" ry="2"/><rect class="c" x="690" y="18" rx="2" ry="2"/><rect class="c" x="690" y="34" rx="2" ry="2"/><rect class="c" x="690" y="50" rx="2" ry="2"/><rect class="c" x="690" y="66" rx="2" ry="2"/><rect class="c" x="690" y="82" rx="2" ry="2"/><rect class="c" x="690" y="98" rx="2" ry="2"/><rect class="c" x="706" y="2" rx="2" ry="2"/><rect class="c" x="706" y="18" rx="2" ry="2"/><rect class="c" x="706" y="34" rx="2" ry="2"/><rect class="c c0" x="706" y="50" rx="2" ry="2"/><rect class="c c1" x="706" y="66" rx="2" ry="2"/><rect class="c c2" x="706" y="82" rx="2" ry="2"/><rect class="c" x="706" y="98" rx="2" ry="2"/><rect class="c" x="722" y="2" rx="2" ry="2"/><rect class="c c3" x="722" y="18" rx="2" ry="2"/><rect class="c c4" x="722" y="34" rx="2" ry="2"/><rect class="c c5" x="722" y="50" rx="2" ry="2"/><rect class="c c6" x="722" y="66" rx="2" ry="2"/><rect class="c c7" x="722" y="82" rx="2" ry="2"/><rect class="c" x="722" y="98" rx="2" ry="2"/><rect class="c" x="738" y="2" rx="2" ry="2"/><rect class="c c8" x="738" y="18" rx="2" ry="2"/><rect class="c c9" x="738" y="34" rx="2" ry="2"/><rect class="c ca" x="738" y="50" rx="2" ry="2"/><rect class="c cb" x="738" y="66" rx="2" ry="2"/><rect class="c cc" x="738" y="82" rx="2" ry="2"/><rect class="c cd" x="738" y="98" rx="2" ry="2"/><rect class="c ce" x="754" y="2" rx="2" ry="2"/><rect class="c cf" x="754" y="18" rx="2" ry="2"/><rect class="c cg" x="754" y="34" rx="2" ry="2"/><rect class="c ch" x="754" y="50" rx="2" ry="2"/><rect class="c ci" x="754" y="66" rx="2" ry="2"/><rect class="c cj" x="754" y="82" rx="2" ry="2"/><rect class="c ck" x="754" y="98" rx="2" ry="2"/><rect class="c cl" x="770" y="2" rx="2" ry="2"/><rect class="c cm" x="770" y="18" rx="2" ry="2"/><rect class="c cn" x="770" y="34" rx="2" ry="2"/><rect class="c co" x="770" y="50" rx="2" ry="2"/><rect class="c cp" x="770" y="66" rx="2" ry="2"/><rect class="c cq" x="770" y="82" rx="2" ry="2"/><rect class="c cr" x="770" y="98" rx="2" ry="2"/><rect class="c cs" x="786" y="2" rx="2" ry="2"/><rect class="c ct" x="786" y="18" rx="2" ry="2"/><rect class="c cu" x="786" y="34" rx="2" ry="2"/><rect class="c cv" x="786" y="50" rx="2" ry="2"/><rect class="c cw" x="786" y="66" rx="2" ry="2"/><rect class="c cx" x="786" y="82" rx="2" ry="2"/><rect class="c cy" x="786" y="98" rx="2" ry="2"/><rect class="c cz" x="802" y="2" rx="2" ry="2"/><rect class="c c10" x="802" y="18" rx="2" ry="2"/><rect class="c c11" x="802" y="34" rx="2" ry="2"/><rect class="c c12" x="802" y="50" rx="2" ry="2"/><rect class="c c13" x="802" y="66" rx="2" ry="2"/><rect class="c c14" x="802" y="82" rx="2" ry="2"/><rect class="c c15" x="802" y="98" rx="2" ry="2"/><rect class="c c16" x="818" y="2" rx="2" ry="2"/><rect class="c c17" x="818" y="18" rx="2" ry="2"/><rect class="c c18" x="818" y="34" rx="2" ry="2"/><rect class="c c19" x="818" y="50" rx="2" ry="2"/><rect class="c c1a" x="818" y="66" rx="2" ry="2"/><rect class="c c1b" x="818" y="82" rx="2" ry="2"/><rect class="c c1c" x="818" y="98" rx="2" ry="2"/><rect class="c" x="834" y="2" rx="2" ry="2"/><rect class="u u0" height="12" width="260.2" x="0.0" y="144"/><rect class="u u1" height="12" width="17.9" x="259.6" y="144"/><rect class="u u2" height="12" width="17.9" x="276.9" y="144"/><rect class="u u3" height="12" width="17.9" x="294.2" y="144"/><rect class="u u4" height="12" width="52.5" x="311.5" y="144"/><rect class="u u5" height="12" width="191.0" x="363.4" y="144"/><rect class="u u6" height="12" width="17.9" x="553.8" y="144"/><rect class="u u7" height="12" width="17.9" x="571.1" y="144"/><rect class="u u8" height="12" width="139.0" x="588.4" y="144"/><rect class="u u9" height="12" width="121.7" x="726.9" y="144"/><rect class="s s0" x="0.8" y="0.8" width="14.4" height="14.4" rx="4.5" ry="4.5"/><rect class="s s1" x="1.8" y="1.8" width="12.3" height="12.3" rx="4.1" ry="4.1"/><rect class="s s2" x="2.6" y="2.6" width="10.8" height="10.8" rx="3.6" ry="3.6"/><rect class="s s3" x="3.0" y="3.0" width="9.9" height="9.9" rx="3.3" ry="3.3"/></svg>