<svg viewBox="-16 -32 880 192" width="880" height="192" xmlns="http://www.w3.org/2000/svg"><desc>Generated with https://github.com/Platane/snk</desc><style>:root{--cb:#1b1f230a;--cs:#7845ab;--ce:#ebedf0;--c0:#ebedf0;--c1:#9be9a8;--c2:#40c463;--c3:#30a14e;--c4:#216e39}.c{shape-rendering:geometricPrecision;fill:var(--ce);stroke-width:1px;stroke:var(--cb);animation:none 22500ms linear infinite;width:12px;height:12px}@keyframes c0{32.88%{fill:var(--c1)}32.9%,100%{fill:var(--ce)}}.c.c0{fill:var(--c1);animation-name:c0}@keyframes c1{32.43%{fill:var(--c1)}32.45%,100%{fill:var(--ce)}}.c.c1{fill:var(--c1);animation-name:c1}@keyframes c2{52.43%{fill:var(--c2)}52.45%,100%{fill:var(--ce)}}.c.c2{fill:var(--c2);animation-name:c2}@keyframes c3{21.77%{fill:var(--c1)}21.79%,100%{fill:var(--ce)}}.c.c3{fill:var(--c1);animation-name:c3}@keyframes c4{67.55%{fill:var(--c3)}67.57%,100%{fill:var(--ce)}}.c.c4{fill:var(--c3);animation-name:c4}@keyframes c5{70.66%{fill:var(--c4)}70.68%,100%{fill:var(--ce)}}.c.c5{fill:var(--c4);animation-name:c5}@keyframes c6{69.32%{fill:var(--c3)}69.34%,100%{fill:var(--ce)}}.c.c6{fill:var(--c3);animation-name:c6}@keyframes c7{71.55%{fill:var(--c4)}71.57%,100%{fill:var(--ce)}}.c.c7{fill:var(--c4);animation-name:c7}@keyframes c8{22.21%{fill:var(--c1)}22.23%,100%{fill:var(--ce)}}.c.c8{fill:var(--c1);animation-name:c8}@keyframes c9{67.1%{fill:var(--c3)}67.12%,100%{fill:var(--ce)}}.c.c9{fill:var(--c3);animation-name:c9}@keyframes ca{70.21%{fill:var(--c4)}70.23%,100%{fill:var(--ce)}}.c.ca{fill:var(--c4);animation-name:ca}@keyframes cb{69.77%{fill:var(--c4)}69.79%,100%{fill:var(--ce)}}.c.cb{fill:var(--c4);animation-name:cb}@keyframes cc{61.32%{fill:var(--c2)}61.34%,100%{fill:var(--ce)}}.c.cc{fill:var(--c2);animation-name:cc}@keyframes cd{29.77%{fill:var(--c1)}29.79%,100%{fill:var(--ce)}}.c.cd{fill:var(--c1);animation-name:cd}@keyframes ce{23.1%{fill:var(--c1)}23.12%,100%{fill:var(--ce)}}.c.ce{fill:var(--c1);animation-name:ce}@keyframes cf{55.55%{fill:var(--c2)}55.57%,100%{fill:var(--ce)}}.c.cf{fill:var(--c2);animation-name:cf}@keyframes cg{63.1%{fill:var(--c3)}63.12%,100%{fill:var(--ce)}}.c.cg{fill:var(--c3);animation-name:cg}@keyframes ch{48.43%{fill:var(--c2)}48.45%,100%{fill:var(--ce)}}.c.ch{fill:var(--c2);animation-name:ch}@keyframes ci{48.88%{fill:var(--c2)}48.9%,100%{fill:var(--ce)}}.c.ci{fill:var(--c2);animation-name:ci}@keyframes cj{61.77%{fill:var(--c3)}61.79%,100%{fill:var(--ce)}}.c.cj{fill:var(--c3);animation-name:cj}@keyframes ck{29.32%{fill:var(--c1)}29.34%,100%{fill:var(--ce)}}.c.ck{fill:var(--c1);animation-name:ck}@keyframes cl{23.55%{fill:var(--c1)}23.57%,100%{fill:var(--ce)}}.c.cl{fill:var(--c1);animation-name:cl}@keyframes cm{42.66%{fill:var(--c1)}42.68%,100%{fill:var(--ce)}}.c.cm{fill:var(--c1);animation-name:cm}@keyframes cn{63.55%{fill:var(--c3)}63.57%,100%{fill:var(--ce)}}.c.cn{fill:var(--c3);animation-name:cn}@keyframes co{47.99%{fill:var(--c2)}48.01%,100%{fill:var(--ce)}}.c.co{fill:var(--c2);animation-name:co}@keyframes cp{37.77%{fill:var(--c1)}37.79%,100%{fill:var(--ce)}}.c.cp{fill:var(--c1);animation-name:cp}@keyframes cq{37.32%{fill:var(--c1)}37.34%,100%{fill:var(--ce)}}.c.cq{fill:var(--c1);animation-name:cq}@keyframes cr{28.88%{fill:var(--c1)}28.9%,100%{fill:var(--ce)}}.c.cr{fill:var(--c1);animation-name:cr}@keyframes cs{23.99%{fill:var(--c1)}24.01%,100%{fill:var(--ce)}}.c.cs{fill:var(--c1);animation-name:cs}@keyframes ct{43.1%{fill:var(--c2)}43.12%,100%{fill:var(--ce)}}.c.ct{fill:var(--c2);animation-name:ct}@keyframes cu{74.66%{fill:var(--c4)}74.68%,100%{fill:var(--ce)}}.c.cu{fill:var(--c4);animation-name:cu}@keyframes cv{64.43%{fill:var(--c3)}64.45%,100%{fill:var(--ce)}}.c.cv{fill:var(--c3);animation-name:cv}@keyframes cw{38.21%{fill:var(--c2)}38.23%,100%{fill:var(--ce)}}.c.cw{fill:var(--c2);animation-name:cw}@keyframes cx{46.66%{fill:var(--c2)}46.68%,100%{fill:var(--ce)}}.c.cx{fill:var(--c2);animation-name:cx}@keyframes cy{28.43%{fill:var(--c1)}28.45%,100%{fill:var(--ce)}}.c.cy{fill:var(--c1);animation-name:cy}@keyframes cz{24.43%{fill:var(--c1)}24.45%,100%{fill:var(--ce)}}.c.cz{fill:var(--c1);animation-name:cz}@keyframes c10{43.55%{fill:var(--c2)}43.57%,100%{fill:var(--ce)}}.c.c10{fill:var(--c2);animation-name:c10}@keyframes c11{75.1%{fill:var(--c4)}75.12%,100%{fill:var(--ce)}}.c.c11{fill:var(--c4);animation-name:c11}@keyframes c12{45.32%{fill:var(--c2)}45.34%,100%{fill:var(--ce)}}.c.c12{fill:var(--c2);animation-name:c12}@keyframes c13{27.1%{fill:var(--c1)}27.12%,100%{fill:var(--ce)}}.c.c13{fill:var(--c1);animation-name:c13}.u{transform-origin:0 0;transform:scale(0,1);animation:none linear 22500ms infinite}@keyframes u0{21.77%{transform:scale(0.000,1)}21.79%,22.21%{transform:scale(0.067,1)}22.23%,23.1%{transform:scale(0.133,1)}23.12%,23.55%{transform:scale(0.200,1)}23.57%,23.99%{transform:scale(0.267,1)}24.01%,24.43%{transform:scale(0.333,1)}24.45%,27.1%{transform:scale(0.400,1)}27.12%,28.43%{transform:scale(0.467,1)}28.45%,28.88%{transform:scale(0.533,1)}28.9%,29.32%{transform:scale(0.600,1)}29.34%,29.77%{transform:scale(0.667,1)}29.79%,32.43%{transform:scale(0.733,1)}32.45%,32.88%{transform:scale(0.800,1)}32.9%,37.32%{transform:scale(0.867,1)}37.34%,37.77%{transform:scale(0.933,1)}37.79%,100%{transform:scale(1.000,1)}}.u.u0{fill:var(--c1);animation-name:u0;transform-origin:0.0px 0}@keyframes u1{38.21%{transform:scale(0.000,1)}38.23%,100%{transform:scale(1.000,1)}}.u.u1{fill:var(--c2);animation-name:u1;transform-origin:318.0px 0}@keyframes u2{42.66%{transform:scale(0.000,1)}42.68%,100%{transform:scale(1.000,1)}}.u.u2{fill:var(--c1);animation-name:u2;transform-origin:339.2px 0}@keyframes u3{43.1%{transform:scale(0.000,1)}43.12%,43.55%{transform:scale(0.100,1)}43.57%,45.32%{transform:scale(0.200,1)}45.34%,46.66%{transform:scale(0.300,1)}46.68%,47.99%{transform:scale(0.400,1)}48.01%,48.43%{transform:scale(0.500,1)}48.45%,48.88%{transform:scale(0.600,1)}48.9%,52.43%{transform:scale(0.700,1)}52.45%,55.55%{transform:scale(0.800,1)}55.57%,61.32%{transform:scale(0.900,1)}61.34%,100%{transform:scale(1.000,1)}}.u.u3{fill:var(--c2);animation-name:u3;transform-origin:360.4px 0}@keyframes u4{61.77%{transform:scale(0.000,1)}61.79%,63.1%{transform:scale(0.143,1)}63.12%,63.55%{transform:scale(0.286,1)}63.57%,64.43%{transform:scale(0.429,1)}64.45%,67.1%{transform:scale(0.571,1)}67.12%,67.55%{transform:scale(0.714,1)}67.57%,69.32%{transform:scale(0.857,1)}69.34%,100%{transform:scale(1.000,1)}}.u.u4{fill:var(--c3);animation-name:u4;transform-origin:572.4px 0}@keyframes u5{69.77%{transform:scale(0.000,1)}69.79%,70.21%{transform:scale(0.167,1)}70.23%,70.66%{transform:scale(0.333,1)}70.68%,71.55%{transform:scale(0.500,1)}71.57%,74.66%{transform:scale(0.667,1)}74.68%,75.1%{transform:scale(0.833,1)}75.12%,100%{transform:scale(1.000,1)}}.u.u5{fill:var(--c4);animation-name:u5;transform-origin:720.8px 0}.s{shape-rendering:geometricPrecision;fill:var(--cs);animation:none linear 22500ms infinite}@keyframes s0{0%,99.56%{transform:translate(0px,-16px)}0.44%{transform:translate(0px,0px)}21.33%,56.89%{transform:translate(752px,0px)}21.78%,57.33%{transform:translate(752px,16px)}22.22%{transform:translate(768px,16px)}22.67%{transform:translate(768px,0px)}24.89%,40.89%{transform:translate(848px,0px)}26.67%,39.11%{transform:translate(848px,64px)}27.11%,45.78%{transform:translate(832px,64px)}28%{transform:translate(832px,96px)}31.11%,34.67%{transform:translate(720px,96px)}32%{transform:translate(720px,64px)}32.44%,68.89%{transform:translate(736px,64px)}32.89%{transform:translate(736px,48px)}33.33%{transform:translate(720px,48px)}36.89%,50.22%{transform:translate(800px,96px)}37.78%,49.33%,65.33%{transform:translate(800px,64px)}42.22%{transform:translate(800px,0px)}42.67%{transform:translate(800px,16px)}44%{transform:translate(848px,16px)}44.89%{transform:translate(848px,48px)}45.33%{transform:translate(832px,48px)}46.22%,64.89%{transform:translate(816px,64px)}46.67%,73.33%{transform:translate(816px,80px)}47.11%{transform:translate(800px,80px)}48%,64%{transform:translate(800px,48px)}48.44%{transform:translate(784px,48px)}48.89%{transform:translate(784px,64px)}52%,60%{transform:translate(736px,96px)}54.22%,57.78%{transform:translate(736px,16px)}55.56%{transform:translate(784px,16px)}56%{transform:translate(784px,0px)}60.89%{transform:translate(768px,96px)}61.33%{transform:translate(768px,80px)}61.78%{transform:translate(784px,80px)}63.11%{transform:translate(784px,32px)}63.56%,66.22%{transform:translate(800px,32px)}64.44%{transform:translate(816px,48px)}68%{transform:translate(736px,32px)}69.78%{transform:translate(768px,64px)}70.22%{transform:translate(768px,48px)}70.67%{transform:translate(752px,48px)}71.56%{transform:translate(752px,80px)}74.67%{transform:translate(816px,32px)}75.11%{transform:translate(832px,32px)}75.56%{transform:translate(832px,16px)}96.89%{transform:translate(64px,16px)}97.78%{transform:translate(64px,-16px)}}.s.s0{transform:translate(0px,-16px);animation-name:s0}@keyframes s1{0%,99.56%{transform:translate(16px,-16px)}0.44%{transform:translate(0px,-16px)}0.89%{transform:translate(0px,0px)}21.78%,57.33%{transform:translate(752px,0px)}22.22%,57.78%{transform:translate(752px,16px)}22.67%{transform:translate(768px,16px)}23.11%{transform:translate(768px,0px)}25.33%,41.33%{transform:translate(848px,0px)}27.11%,39.56%{transform:translate(848px,64px)}27.56%,46.22%{transform:translate(832px,64px)}28.44%{transform:translate(832px,96px)}31.56%,35.11%{transform:translate(720px,96px)}32.44%{transform:translate(720px,64px)}32.89%,69.33%{transform:translate(736px,64px)}33.33%{transform:translate(736px,48px)}33.78%{transform:translate(720px,48px)}37.33%,50.67%{transform:translate(800px,96px)}38.22%,49.78%,65.78%{transform:translate(800px,64px)}42.67%{transform:translate(800px,0px)}43.11%{transform:translate(800px,16px)}44.44%{transform:translate(848px,16px)}45.33%{transform:translate(848px,48px)}45.78%{transform:translate(832px,48px)}46.67%,65.33%{transform:translate(816px,64px)}47.11%,73.78%{transform:translate(816px,80px)}47.56%{transform:translate(800px,80px)}48.44%,64.44%{transform:translate(800px,48px)}48.89%{transform:translate(784px,48px)}49.33%{transform:translate(784px,64px)}52.44%,60.44%{transform:translate(736px,96px)}54.67%,58.22%{transform:translate(736px,16px)}56%{transform:translate(784px,16px)}56.44%{transform:translate(784px,0px)}61.33%{transform:translate(768px,96px)}61.78%{transform:translate(768px,80px)}62.22%{transform:translate(784px,80px)}63.56%{transform:translate(784px,32px)}64%,66.67%{transform:translate(800px,32px)}64.89%{transform:translate(816px,48px)}68.44%{transform:translate(736px,32px)}70.22%{transform:translate(768px,64px)}70.67%{transform:translate(768px,48px)}71.11%{transform:translate(752px,48px)}72%{transform:translate(752px,80px)}75.11%{transform:translate(816px,32px)}75.56%{transform:translate(832px,32px)}76%{transform:translate(832px,16px)}97.33%{transform:translate(64px,16px)}98.22%{transform:translate(64px,-16px)}}.s.s1{transform:translate(16px,-16px);animation-name:s1}@keyframes s2{0%,99.56%{transform:translate(32px,-16px)}0.89%{transform:translate(0px,-16px)}1.33%{transform:translate(0px,0px)}22.22%,57.78%{transform:translate(752px,0px)}22.67%,58.22%{transform:translate(752px,16px)}23.11%{transform:translate(768px,16px)}23.56%{transform:translate(768px,0px)}25.78%,41.78%{transform:translate(848px,0px)}27.56%,40%{transform:translate(848px,64px)}28%,46.67%{transform:translate(832px,64px)}28.89%{transform:translate(832px,96px)}32%,35.56%{transform:translate(720px,96px)}32.89%{transform:translate(720px,64px)}33.33%,69.78%{transform:translate(736px,64px)}33.78%{transform:translate(736px,48px)}34.22%{transform:translate(720px,48px)}37.78%,51.11%{transform:translate(800px,96px)}38.67%,50.22%,66.22%{transform:translate(800px,64px)}43.11%{transform:translate(800px,0px)}43.56%{transform:translate(800px,16px)}44.89%{transform:translate(848px,16px)}45.78%{transform:translate(848px,48px)}46.22%{transform:translate(832px,48px)}47.11%,65.78%{transform:translate(816px,64px)}47.56%,74.22%{transform:translate(816px,80px)}48%{transform:translate(800px,80px)}48.89%,64.89%{transform:translate(800px,48px)}49.33%{transform:translate(784px,48px)}49.78%{transform:translate(784px,64px)}52.89%,60.89%{transform:translate(736px,96px)}55.11%,58.67%{transform:translate(736px,16px)}56.44%{transform:translate(784px,16px)}56.89%{transform:translate(784px,0px)}61.78%{transform:translate(768px,96px)}62.22%{transform:translate(768px,80px)}62.67%{transform:translate(784px,80px)}64%{transform:translate(784px,32px)}64.44%,67.11%{transform:translate(800px,32px)}65.33%{transform:translate(816px,48px)}68.89%{transform:translate(736px,32px)}70.67%{transform:translate(768px,64px)}71.11%{transform:translate(768px,48px)}71.56%{transform:translate(752px,48px)}72.44%{transform:translate(752px,80px)}75.56%{transform:translate(816px,32px)}76%{transform:translate(832px,32px)}76.44%{transform:translate(832px,16px)}97.78%{transform:translate(64px,16px)}98.67%{transform:translate(64px,-16px)}}.s.s2{transform:translate(32px,-16px);animation-name:s2}@keyframes s3{0%,99.56%{transform:translate(48px,-16px)}1.33%{transform:translate(0px,-16px)}1.78%{transform:translate(0px,0px)}22.67%,58.22%{transform:translate(752px,0px)}23.11%,58.67%{transform:translate(752px,16px)}23.56%{transform:translate(768px,16px)}24%{transform:translate(768px,0px)}26.22%,42.22%{transform:translate(848px,0px)}28%,40.44%{transform:translate(848px,64px)}28.44%,47.11%{transform:translate(832px,64px)}29.33%{transform:translate(832px,96px)}32.44%,36%{transform:translate(720px,96px)}33.33%{transform:translate(720px,64px)}33.78%,70.22%{transform:translate(736px,64px)}34.22%{transform:translate(736px,48px)}34.67%{transform:translate(720px,48px)}38.22%,51.56%{transform:translate(800px,96px)}39.11%,50.67%,66.67%{transform:translate(800px,64px)}43.56%{transform:translate(800px,0px)}44%{transform:translate(800px,16px)}45.33%{transform:translate(848px,16px)}46.22%{transform:translate(848px,48px)}46.67%{transform:translate(832px,48px)}47.56%,66.22%{transform:translate(816px,64px)}48%,74.67%{transform:translate(816px,80px)}48.44%{transform:translate(800px,80px)}49.33%,65.33%{transform:translate(800px,48px)}49.78%{transform:translate(784px,48px)}50.22%{transform:translate(784px,64px)}53.33%,61.33%{transform:translate(736px,96px)}55.56%,59.11%{transform:translate(736px,16px)}56.89%{transform:translate(784px,16px)}57.33%{transform:translate(784px,0px)}62.22%{transform:translate(768px,96px)}62.67%{transform:translate(768px,80px)}63.11%{transform:translate(784px,80px)}64.44%{transform:translate(784px,32px)}64.89%,67.56%{transform:translate(800px,32px)}65.78%{transform:translate(816px,48px)}69.33%{transform:translate(736px,32px)}71.11%{transform:translate(768px,64px)}71.56%{transform:translate(768px,48px)}72%{transform:translate(752px,48px)}72.89%{transform:translate(752px,80px)}76%{transform:translate(816px,32px)}76.44%{transform:translate(832px,32px)}76.89%{transform:translate(832px,16px)}98.22%{transform:translate(64px,16px)}99.11%{transform:translate(64px,-16px)}}.s.s3{transform:translate(48px,-16px);animation-name:s3}</style><rect class="c" x="2" y="2" rx="2" ry="2"/><rect class="c" x="2" y="18" rx="2" ry="2"/><rect class="c" x="2" y="34" rx="2" ry="2"/><rect class="c" x="2" y="50" rx="2" ry="2"/><rect class="c" x="2" y="66" rx="2" ry="2"/><rect class="c" x="2" y="82" rx="2" ry="2"/><rect class="c" x="2" y="98" rx="2" ry="2"/><rect class="c" x="18" y="2" rx="2" ry="2"/><rect class="c" x="18" y="18" rx="2" ry="2"/><rect class="c" x="18" y="34" rx="2" ry="2"/><rect class="c" x="18" y="50" rx="2" ry="2"/><rect class="c" x="18" y="66" rx="2" ry="2"/><rect class="c" x="18" y="82" rx="2" ry="2"/><rect class="c" x="18" y="98" rx="2" ry="2"/><rect class="c" x="34" y="2" rx="2" ry="2"/><rect class="c" x="34" y="18" rx="2" ry="2"/><rect class="c" x="34" y="34" rx="2" ry="2"/><rect class="c" x="34" y="50" rx="2" ry="2"/><rect class="c" x="34" y="66" rx="2" ry="2"/><rect class="c" x="34" y="82" rx="2" ry="2"/><rect class="c" x="34" y="98" rx="2" ry="2"/><rect class="c" x="50" y="2" rx="2" ry="2"/><rect class="c" x="50" y="18" rx="2" ry="2"/><rect class="c" x="50" y="34" rx="2" ry="2"/><rect class="c" x="50" y="50" rx="2" ry="2"/><rect class="c" x="50" y="66" rx="2" ry="2"/><rect class="c" x="50" y="82" rx="2" ry="2"/><rect class="c" x="50" y="98" rx="2" ry="2"/><rect class="c" x="66" y="2" rx="2" ry="2"/><rect class="c" x="66" y="18" rx="2" ry="2"/><rect class="c" x="66" y="34" rx="2" ry="2"/><rect class="c" x="66" y="50" rx="2" ry="2"/><rect class="c" x="66" y="66" rx="2" ry="2"/><rect class="c" x="66" y="82" rx="2" ry="2"/><rect class="c" x="66" y="98" rx="2" ry="2"/><rect class="c" x="82" y="2" rx="2" ry="2"/><rect class="c" x="82" y="18" rx="2" ry="2"/><rect class="c" x="82" y="34" rx="2" ry="2"/><rect class="c" x="82" y="50" rx="2" ry="2"/><rect class="c" x="82" y="66" rx="2" ry="2"/><rect class="c" x="82" y="82" rx="2" ry="2"/><rect class="c" x="82" y="98" rx="2" ry="2"/><rect class="c" x="98" y="2" rx="2" ry="2"/><rect class="c" x="98" y="18" rx="2" ry="2"/><rect class="c" x="98" y="34" rx="2" ry="2"/><rect class="c" x="98" y="50" rx="2" ry="2"/><rect class="c" x="98" y="66" rx="2" ry="2"/><rect class="c" x="98" y="82" rx="2" ry="2"/><rect class="c" x="98" y="98" rx="2" ry="2"/><rect class="c" x="114" y="2" rx="2" ry="2"/><rect class="c" x="114" y="18" rx="2" ry="2"/><rect class="c" x="114" y="34" rx="2" ry="2"/><rect class="c" x="114" y="50" rx="2" ry="2"/><rect class="c" x="114" y="66" rx="2" ry="2"/><rect class="c" x="114" y="82" rx="2" ry="2"/><rect class="c" x="114" y="98" rx="2" ry="2"/><rect class="c" x="130" y="2" rx="2" ry="2"/><rect class="c" x="130" y="18" rx="2" ry="2"/><rect class="c" x="130" y="34" rx="2" ry="2"/><rect class="c" x="130" y="50" rx="2" ry="2"/><rect class="c" x="130" y="66" rx="2" ry="2"/><rect class="c" x="130" y="82" rx="2" ry="2"/><rect class="c" x="130" y="98" rx="2" ry="2"/><rect class="c" x="146" y="2" rx="2" ry="2"/><rect class="c" x="146" y="18" rx="2" ry="2"/><rect class="c" x="146" y="34" rx="2" ry="2"/><rect class="c" x="146" y="50" rx="2" ry="2"/><rect class="c" x="146" y="66" rx="2" ry="2"/><rect class="c" x="146" y="82" rx="2" ry="2"/><rect class="c" x="146" y="98" rx="2" ry="2"/><rect class="c" x="162" y="2" rx="2" ry="2"/><rect class="c" x="162" y="18" rx="2" ry="2"/><rect class="c" x="162" y="34" rx="2" ry="2"/><rect class="c" x="162" y="50" rx="2" ry="2"/><rect class="c" x="162" y="66" rx="2" ry="2"/><rect class="c" x="162" y="82" rx="2" ry="2"/><rect class="c" x="162" y="98" rx="2" ry="2"/><rect class="c" x="178" y="2" rx="2" ry="2"/><rect class="c" x="178" y="18" rx="2" ry="2"/><rect class="c" x="178" y="34" rx="2" ry="2"/><rect class="c" x="178" y="50" rx="2" ry="2"/><rect class="c" x="178" y="66" rx="2" ry="2"/><rect class="c" x="178" y="82" rx="2" ry="2"/><rect class="c" x="178" y="98" rx="2" ry="2"/><rect class="c" x="194" y="2" rx="2" ry="2"/><rect class="c" x="194" y="18" rx="2" ry="2"/><rect class="c" x="194" y="34" rx="2" ry="2"/><rect class="c" x="194" y="50" rx="2" ry="2"/><rect class="c" x="194" y="66" rx="2" ry="2"/><rect class="c" x="194" y="82" rx="2" ry="2"/><rect class="c" x="194" y="98" rx="2" ry="2"/><rect class="c" x="210" y="2" rx="2" ry="2"/><rect class="c" x="210" y="18" rx="2" ry="2"/><rect class="c" x="210" y="34" rx="2" ry="2"/><rect class="c" x="210" y="50" rx="2" ry="2"/><rect class="c" x="210" y="66" rx="2" ry="2"/><rect class="c" x="210" y="82" rx="2" ry="2"/><rect class="c" x="210" y="98" rx="2" ry="2"/><rect class="c" x="226" y="2" rx="2" ry="2"/><rect class="c" x="226" y="18" rx="2" ry="2"/><rect class="c" x="226" y="34" rx="2" ry="2"/><rect class="c" x="226" y="50" rx="2" ry="2"/><rect class="c" x="226" y="66" rx="2" ry="2"/><rect class="c" x="226" y="82" rx="2" ry="2"/><rect class="c" x="226" y="98" rx="2" ry="2"/><rect class="c" x="242" y="2" rx="2" ry="2"/><rect class="c" x="242" y="18" rx="2" ry="2"/><rect class="c" x="242" y="34" rx="2" ry="2"/><rect class="c" x="242" y="50" rx="2" ry="2"/><rect class="c" x="242" y="66" rx="2" ry="2"/><rect class="c" x="242" y="82" rx="2" ry="2"/><rect class="c" x="242" y="98" rx="2" ry="2"/><rect class="c" x="258" y="2" rx="2" ry="2"/><rect class="c" x="258" y="18" rx="2" ry="2"/><rect class="c" x="258" y="34" rx="2" ry="2"/><rect class="c" x="258" y="50" rx="2" ry="2"/><rect class="c" x="258" y="66" rx="2" ry="2"/><rect class="c" x="258" y="82" rx="2" ry="2"/><rect class="c" x="258" y="98" rx="2" ry="2"/><rect class="c" x="274" y="2" rx="2" ry="2"/><rect class="c" x="274" y="18" rx="2" ry="2"/><rect class="c" x="274" y="34" rx="2" ry="2"/><rect class="c" x="274" y="50" rx="2" ry="2"/><rect class="c" x="274" y="66" rx="2" ry="2"/><rect class="c" x="274" y="82" rx="2" ry="2"/><rect class="c" x="274" y="98" rx="2" ry="2"/><rect class="c" x="290" y="2" rx="2" ry="2"/><rect class="c" x="290" y="18" rx="2" ry="2"/><rect class="c" x="290" y="34" rx="2" ry="2"/><rect class="c" x="290" y="50" rx="2" ry="2"/><rect class="c" x="290" y="66" rx="2" ry="2"/><rect class="c" x="290" y="82" rx="2" ry="2"/><rect class="c" x="290" y="98" rx="2" ry="2"/><rect class="c" x="306" y="2" rx="2" ry="2"/><rect class="c" x="306" y="18" rx="2" ry="2"/><rect class="c" x="306" y="34" rx="2" ry="2"/><rect class="c" x="306" y="50" rx="2" ry="2"/><rect class="c" x="306" y="66" rx="2" ry="2"/><rect class="c" x="306" y="82" rx="2" ry="2"/><rect class="c" x="306" y="98" rx="2" ry="2"/><rect class="c" x="322" y="2" rx="2" ry="2"/><rect class="c" x="322" y="18" rx="2" ry="2"/><rect class="c" x="322" y="34" rx="2" ry="2"/><rect class="c" x="322" y="50" rx="2" ry="2"/><rect class="c" x="322" y="66" rx="2" ry="2"/><rect class="c" x="322" y="82" rx="2" ry="2"/><rect class="c" x="322" y="98" rx="2" ry="2"/><rect class="c" x="338" y="2" rx="2" ry="2"/><rect class="c" x="338" y="18" rx="2" ry="2"/><rect class="c" x="338" y="34" rx="2" ry="2"/><rect class="c" x="338" y="50" rx="2" ry="2"/><rect class="c" x="338" y="66" rx="2" ry="2"/><rect class="c" x="338" y="82" rx="2" ry="2"/><rect class="c" x="338" y="98" rx="2" ry="2"/><rect class="c" x="354" y="2" rx="2" ry="2"/><rect class="c" x="354" y="18" rx="2" ry="2"/><rect class="c" x="354" y="34" rx="2" ry="2"/><rect class="c" x="354" y="50" rx="2" ry="2"/><rect class="c" x="354" y="66" rx="2" ry="2"/><rect class="c" x="354" y="82" rx="2" ry="2"/><rect class="c" x="354" y="98" rx="2" ry="2"/><rect class="c" x="370" y="2" rx="2" ry="2"/><rect class="c" x="370" y="18" rx="2" ry="2"/><rect class="c" x="370" y="34" rx="2" ry="2"/><rect class="c" x="370" y="50" rx="2" ry="2"/><rect class="c" x="370" y="66" rx="2" ry="2"/><rect class="c" x="370" y="82" rx="2" ry="2"/><rect class="c" x="370" y="98" rx="2" ry="2"/><rect class="c" x="386" y="2" rx="2" ry="2"/><rect class="c" x="386" y="18" rx="2" ry="2"/><rect class="c" x="386" y="34" rx="2" ry="2"/><rect class="c" x="386" y="50" rx="2" ry="2"/><rect class="c" x="386" y="66" rx="2" ry="2"/><rect class="c" x="386" y="82" rx="2" ry="2"/><rect class="c" x="386" y="98" rx="2" ry="2"/><rect class="c" x="402" y="2" rx="2" ry="2"/><rect class="c" x="402" y="18" rx="2" ry="2"/><rect class="c" x="402" y="34" rx="2" ry="2"/><rect class="c" x="402" y="50" rx="2" ry="2"/><rect class="c" x="402" y="66" rx="2" ry="2"/><rect class="c" x="402" y="82" rx="2" ry="2"/><rect class="c" x="402" y="98" rx="2" ry="2"/><rect class="c" x="418" y="2" rx="2" ry="2"/><rect class="c" x="418" y="18" rx="2" ry="2"/><rect class="c" x="418" y="34" rx="2" ry="2"/><rect class="c" x="418" y="50" rx="2" ry="2"/><rect class="c" x="418" y="66" rx="2" ry="2"/><rect class="c" x="418" y="82" rx="2" ry="2"/><rect class="c" x="418" y="98" rx="2" ry="2"/><rect class="c" x="434" y="2" rx="2" ry="2"/><rect class="c" x="434" y="18" rx="2" ry="2"/><rect class="c" x="434" y="34" rx="2" ry="2"/><rect class="c" x="434" y="50" rx="2" ry="2"/><rect class="c" x="434" y="66" rx="2" ry="2"/><rect class="c" x="434" y="82" rx="2" ry="2"/><rect class="c" x="434" y="98" rx="2" ry="2"/><rect class="c" x="450" y="2" rx="2" ry="2"/><rect class="c" x="450" y="18" rx="2" ry="2"/><rect class="c" x="450" y="34" rx="2" ry="2"/><rect class="c" x="450" y="50" rx="2" ry="2"/><rect class="c" x="450" y="66" rx="2" ry="2"/><rect class="c" x="450" y="82" rx="2" ry="2"/><rect class="c" x="450" y="98" rx="2" ry="2"/><rect class="c" x="466" y="2" rx="2" ry="2"/><rect class="c" x="466" y="18" rx="2" ry="2"/><rect class="c" x="466" y="34" rx="2" ry="2"/><rect class="c" x="466" y="50" rx="2" ry="2"/><rect class="c" x="466" y="66" rx="2" ry="2"/><rect class="c" x="466" y="82" rx="2" ry="2"/><rect class="c" x="466" y="98" rx="2" ry="2"/><rect class="c" x="482" y="2" rx="2" ry="2"/><rect class="c" x="482" y="18" rx="2" ry="2"/><rect class="c" x="482" y="34" rx="2" ry="2"/><rect class="c" x="482" y="50" rx="2" ry="2"/><rect class="c" x="482" y="66" rx="2" ry="2"/><rect class="c" x="482" y="82" rx="2" ry="2"/><rect class="c" x="482" y="98" rx="2" ry="2"/><rect class="c" x="498" y="2" rx="2" ry="2"/><rect class="c" x="498" y="18" rx="2" ry="2"/><rect class="c" x="498" y="34" rx="2" ry="2"/><rect class="c" x="498" y="50" rx="2" ry="2"/><rect class="c" x="498" y="66" rx="2" ry="2"/><rect class="c" x="498" y="82" rx="2" ry="2"/><rect class="c" x="498" y="98" rx="2" ry="2"/><rect class="c" x="514" y="2" rx="2" ry="2"/><rect class="c" x="514" y="18" rx="2" ry="2"/><rect class="c" x="514" y="34" rx="2" ry="2"/><rect class="c" x="514" y="50" rx="2" ry="2"/><rect class="c" x="514" y="66" rx="2" ry="2"/><rect class="c" x="514" y="82" rx="2" ry="2"/><rect class="c" x="514" y="98" rx="2" ry="2"/><rect class="c" x="530" y="2" rx="2" ry="2"/><rect class="c" x="530" y="18" rx="2" ry="2"/><rect class="c" x="530" y="34" rx="2" ry="2"/><rect class="c" x="530" y="50" rx="2" ry="2"/><rect class="c" x="530" y="66" rx="2" ry="2"/><rect class="c" x="530" y="82" rx="2" ry="2"/><rect class="c" x="530" y="98" rx="2" ry="2"/><rect class="c" x="546" y="2" rx="2" ry="2"/><rect class="c" x="546" y="18" rx="2" ry="2"/><rect class="c" x="546" y="34" rx="2" ry="2"/><rect class="c" x="546" y="50" rx="2" ry="2"/><rect class="c" x="546" y="66" rx="2" ry="2"/><rect class="c" x="546" y="82" rx="2" ry="2"/><rect class="c" x="546" y="98" rx="2" ry="2"/><rect class="c" x="562" y="2" rx="2" ry="2"/><rect class="c" x="562" y="18" rx="2" ry="2"/><rect class="c" x="562" y="34" rx="2" ry="2"/><rect class="c" x="562" y="50" rx="2" ry="2"/><rect class="c" x="562" y="66" rx="2" ry="2"/><rect class="c" x="562" y="82" rx="2" ry="2"/><rect class="c" x="562" y="98" rx="2" ry="2"/><rect class="c" x="578" y="2" rx="2" ry="2"/><rect class="c" x="578" y="18" rx="2" ry="2"/><rect class="c" x="578" y="34" rx="2" ry="2"/><rect class="c" x="578" y="50" rx="2" ry="2"/><rect class="c" x="578" y="66" rx="2" ry="2"/><rect class="c" x="578" y="82" rx="2" ry="2"/><rect class="c" x="578" y="98" rx="2" ry="2"/><rect class="c" x="594" y="2" rx="2" ry="2"/><rect class="c" x="594" y="18" rx="2" ry="2"/><rect class="c" x="594" y="34" rx="2" ry="2"/><rect class="c" x="594" y="50" rx="2" ry="2"/><rect class="c" x="594" y="66" rx="2" ry="2"/><rect class="c" x="594" y="82" rx="2" ry="2"/><rect class="c" x="594" y="98" rx="2" ry="2"/><rect class="c" x="610" y="2" rx="2" ry="2"/><rect class="c" x="610" y="18" rx="2" ry="2"/><rect class="c" x="610" y="34" rx="2" ry="2"/><rect class="c" x="610" y="50" rx="2" ry="2"/><rect class="c" x="610" y="66" rx="2" ry="2"/><rect class="c" x="610" y="82" rx="2" ry="2"/><rect class="c" x="610" y="98" rx="2" ry="2"/><rect class="c" x="626" y="2" rx="2" ry="2"/><rect class="c" x="626" y="18" rx="2" ry="2"/><rect class="c" x="626" y="34" rx="2" ry="2"/><rect class="c" x="626" y="50" rx="2" ry="2"/><rect class="c" x="626" y="66" rx="2" ry="2"/><rect class="c" x="626" y="82" rx="2" ry="2"/><rect class="c" x="626" y="98" rx="2" ry="2"/><rect class="c" x="642" y="2" rx="2" ry="2"/><rect class="c" x="642" y="18" rx="2" ry="2"/><rect class="c" x="642" y="34" rx="2" ry="2"/><rect class="c" x="642" y="50" rx="2" ry="2"/><rect class="c" x="642" y="66" rx="2" ry="2"/><rect class="c" x="642" y="82" rx="2" ry="2"/><rect class="c" x="642" y="98" rx="2" ry="2"/><rect class="c" x="658" y="2" rx="2" ry="2"/><rect class="c" x="658" y="18" rx="2" ry="2"/><rect class="c" x="658" y="34" rx="2" ry="2"/><rect class="c" x="658" y="50" rx="2" ry="2"/><rect class="c" x="658" y="66" rx="2" ry="2"/><rect class="c" x="658" y="82" rx="2" ry="2"/><rect class="c" x="658" y="98" rx="2" ry="2"/><rect class="c" x="674" y="2" rx="2" ry="2"/><rect class="c" x="674" y="18" rx="2" ry="2"/><rect class="c" x="674" y="34" rx="2" ry="2"/><rect class="c" x="674" y="50" rx="2" ry="2"/><rect class="c" x="674" y="66" rx="2" ry="2"/><rect class="c" x="674" y="82" rx="2" ry="2"/><rect class="c" x="674" y="98" rx="2" ry="2"/><rect class="c" x="690" y="2" rx="2" ry="2"/><rect class="c" x="690" y="18" rx="2" ry="2"/><rect class="c" x="690" y="34" rx="2" ry="2"/><rect class="c" x="690" y="50" rx="2" ry="2"/><rect class="c" x="690" y="66" rx="2" ry="2"/><rect class="c" x="690" y="82" rx="2" ry="2"/><rect class="c" x="690" y="98" rx="2" ry="2"/><rect class="c" x="706" y="2" rx="2" ry="2"/><rect class="c" x="706" y="18" rx="2" ry="2"/><rect class="c" x="706" y="34" rx="2" ry="2"/><rect class="c" x="706" y="50" rx="2" ry="2"/><rect class="c" x="706" y="66" rx="2" ry="2"/><rect class="c" x="706" y="82" rx="2" ry="2"/><rect class="c" x="706" y="98" rx="2" ry="2"/><rect class="c" x="722" y="2" rx="2" ry="2"/><rect class="c" x="722" y="18" rx="2" ry="2"/><rect class="c" x="722" y="34" rx="2" ry="2"/><rect class="c" x="722" y="50" rx="2" ry="2"/><rect class="c" x="722" y="66" rx="2" ry="2"/><rect class="c" x="722" y="82" rx="2" ry="2"/><rect class="c" x="722" y="98" rx="2" ry="2"/><rect class="c" x="738" y="2" rx="2" ry="2"/><rect class="c" x="738" y="18" rx="2" ry="2"/><rect class="c" x="738" y="34" rx="2" ry="2"/><rect class="c c0" x="738" y="50" rx="2" ry="2"/><rect class="c c1" x="738" y="66" rx="2" ry="2"/><rect class="c c2" x="738" y="82" rx="2" ry="2"/><rect class="c" x="738" y="98" rx="2" ry="2"/><rect class="c" x="754" y="2" rx="2" ry="2"/><rect class="c c3" x="754" y="18" rx="2" ry="2"/><rect class="c c4" x="754" y="34" rx="2" ry="2"/><rect class="c c5" x="754" y="50" rx="2" ry="2"/><rect class="c c6" x="754" y="66" rx="2" ry="2"/><rect class="c c7" x="754" y="82" rx="2" ry="2"/><rect class="c" x="754" y="98" rx="2" ry="2"/><rect class="c" x="770" y="2" rx="2" ry="2"/><rect class="c c8" x="770" y="18" rx="2" ry="2"/><rect class="c c9" x="770" y="34" rx="2" ry="2"/><rect class="c ca" x="770" y="50" rx="2" ry="2"/><rect class="c cb" x="770" y="66" rx="2" ry="2"/><rect class="c cc" x="770" y="82" rx="2" ry="2"/><rect class="c cd" x="770" y="98" rx="2" ry="2"/><rect class="c ce" x="786" y="2" rx="2" ry="2"/><rect class="c cf" x="786" y="18" rx="2" ry="2"/><rect class="c cg" x="786" y="34" rx="2" ry="2"/><rect class="c ch" x="786" y="50" rx="2" ry="2"/><rect class="c ci" x="786" y="66" rx="2" ry="2"/><rect class="c cj" x="786" y="82" rx="2" ry="2"/><rect class="c ck" x="786" y="98" rx="2" ry="2"/><rect class="c cl" x="802" y="2" rx="2" ry="2"/><rect class="c cm" x="802" y="18" rx="2" ry="2"/><rect class="c cn" x="802" y="34" rx="2" ry="2"/><rect class="c co" x="802" y="50" rx="2" ry="2"/><rect class="c cp" x="802" y="66" rx="2" ry="2"/><rect class="c cq" x="802" y="82" rx="2" ry="2"/><rect class="c cr" x="802" y="98" rx="2" ry="2"/><rect class="c cs" x="818" y="2" rx="2" ry="2"/><rect class="c ct" x="818" y="18" rx="2" ry="2"/><rect class="c cu" x="818" y="34" rx="2" ry="2"/><rect class="c cv" x="818" y="50" rx="2" ry="2"/><rect class="c cw" x="818" y="66" rx="2" ry="2"/><rect class="c cx" x="818" y="82" rx="2" ry="2"/><rect class="c cy" x="818" y="98" rx="2" ry="2"/><rect class="c cz" x="834" y="2" rx="2" ry="2"/><rect class="c c10" x="834" y="18" rx="2" ry="2"/><rect class="c c11" x="834" y="34" rx="2" ry="2"/><rect class="c c12" x="834" y="50" rx="2" ry="2"/><rect class="c c13" x="834" y="66" rx="2" ry="2"/><rect class="c" x="834" y="82" rx="2" ry="2"/><rect class="u u0" height="12" width="318.6" x="0.0" y="144"/><rect class="u u1" height="12" width="21.8" x="318.0" y="144"/><rect class="u u2" height="12" width="21.8" x="339.2" y="144"/><rect class="u u3" height="12" width="212.6" x="360.4" y="144"/><rect class="u u4" height="12" width="149.0" x="572.4" y="144"/><rect class="u u5" height="12" width="127.8" x="720.8" y="144"/><rect class="s s0" x="0.8" y="0.8" width="14.4" height="14.4" rx="4.5" ry="4.5"/><rect class="s s1" x="1.8" y="1.8" width="12.3" height="12.3" rx="4.1" ry="4.1"/><rect class="s s2" x="2.6" y="2.6" width="10.8" height="10.8" rx="3.6" ry="3.6"/><rect class="s s3" x="3.0" y="3.0" width="9.9" height="9.9" rx="3.3" ry="3.3"/></svg>