<svg viewBox="-16 -32 880 192" width="880" height="192" xmlns="http://www.w3.org/2000/svg"><desc>Generated with https://github.com/Platane/snk</desc><style>:root{--cb:#1b1f230a;--cs:#7845ab;--ce:#ebedf0;--c0:#ebedf0;--c1:#9be9a8;--c2:#40c463;--c3:#30a14e;--c4:#216e39}.c{shape-rendering:geometricPrecision;fill:var(--ce);stroke-width:1px;stroke:var(--cb);animation:none 35700ms linear infinite;width:12px;height:12px}@keyframes c0{27.72%{fill:var(--c1)}27.74%,100%{fill:var(--ce)}}.c.c0{fill:var(--c1);animation-name:c0}@keyframes c1{27.44%{fill:var(--c1)}27.46%,100%{fill:var(--ce)}}.c.c1{fill:var(--c1);animation-name:c1}@keyframes c2{27.16%{fill:var(--c1)}27.18%,100%{fill:var(--ce)}}.c.c2{fill:var(--c1);animation-name:c2}@keyframes c3{11.75%{fill:var(--c1)}11.77%,100%{fill:var(--ce)}}.c.c3{fill:var(--c1);animation-name:c3}@keyframes c4{55.17%{fill:var(--c2)}55.19%,100%{fill:var(--ce)}}.c.c4{fill:var(--c2);animation-name:c4}@keyframes c5{67.22%{fill:var(--c3)}67.24%,100%{fill:var(--ce)}}.c.c5{fill:var(--c3);animation-name:c5}@keyframes c6{66.94%{fill:var(--c2)}66.96%,100%{fill:var(--ce)}}.c.c6{fill:var(--c2);animation-name:c6}@keyframes c7{76.74%{fill:var(--c3)}76.76%,100%{fill:var(--ce)}}.c.c7{fill:var(--c3);animation-name:c7}@keyframes c8{12.03%{fill:var(--c1)}12.05%,100%{fill:var(--ce)}}.c.c8{fill:var(--c1);animation-name:c8}@keyframes c9{54.89%{fill:var(--c2)}54.91%,100%{fill:var(--ce)}}.c.c9{fill:var(--c2);animation-name:c9}@keyframes ca{67.5%{fill:var(--c3)}67.52%,100%{fill:var(--ce)}}.c.ca{fill:var(--c3);animation-name:ca}@keyframes cb{86.82%{fill:var(--c4)}86.84%,100%{fill:var(--ce)}}.c.cb{fill:var(--c4);animation-name:cb}@keyframes cc{64.7%{fill:var(--c2)}64.72%,100%{fill:var(--ce)}}.c.cc{fill:var(--c2);animation-name:cc}@keyframes cd{26.32%{fill:var(--c1)}26.34%,100%{fill:var(--ce)}}.c.cd{fill:var(--c1);animation-name:cd}@keyframes ce{12.6%{fill:var(--c1)}12.62%,100%{fill:var(--ce)}}.c.ce{fill:var(--c1);animation-name:ce}@keyframes cf{54.33%{fill:var(--c2)}54.35%,100%{fill:var(--ce)}}.c.cf{fill:var(--c2);animation-name:cf}@keyframes cg{68.06%{fill:var(--c3)}68.08%,100%{fill:var(--ce)}}.c.cg{fill:var(--c3);animation-name:cg}@keyframes ch{51.53%{fill:var(--c2)}51.55%,100%{fill:var(--ce)}}.c.ch{fill:var(--c2);animation-name:ch}@keyframes ci{51.25%{fill:var(--c2)}51.27%,100%{fill:var(--ce)}}.c.ci{fill:var(--c2);animation-name:ci}@keyframes cj{64.98%{fill:var(--c3)}65%,100%{fill:var(--ce)}}.c.cj{fill:var(--c3);animation-name:cj}@keyframes ck{26.04%{fill:var(--c1)}26.06%,100%{fill:var(--ce)}}.c.ck{fill:var(--c1);animation-name:ck}@keyframes cl{12.88%{fill:var(--c1)}12.9%,100%{fill:var(--ce)}}.c.cl{fill:var(--c1);animation-name:cl}@keyframes cm{31.64%{fill:var(--c1)}31.66%,100%{fill:var(--ce)}}.c.cm{fill:var(--c1);animation-name:cm}@keyframes cn{31.36%{fill:var(--c2)}31.38%,100%{fill:var(--ce)}}.c.cn{fill:var(--c2);animation-name:cn}@keyframes co{31.08%{fill:var(--c1)}31.1%,100%{fill:var(--ce)}}.c.co{fill:var(--c1);animation-name:co}@keyframes cp{30.8%{fill:var(--c1)}30.82%,100%{fill:var(--ce)}}.c.cp{fill:var(--c1);animation-name:cp}@keyframes cq{30.52%{fill:var(--c1)}30.54%,100%{fill:var(--ce)}}.c.cq{fill:var(--c1);animation-name:cq}@keyframes cr{25.76%{fill:var(--c1)}25.78%,100%{fill:var(--ce)}}.c.cr{fill:var(--c1);animation-name:cr}@keyframes cs{13.16%{fill:var(--c1)}13.18%,100%{fill:var(--ce)}}.c.cs{fill:var(--c1);animation-name:cs}@keyframes ct{52.65%{fill:var(--c2)}52.67%,100%{fill:var(--ce)}}.c.ct{fill:var(--c2);animation-name:ct}@keyframes cu{85.42%{fill:var(--c4)}85.44%,100%{fill:var(--ce)}}.c.cu{fill:var(--c4);animation-name:cu}@keyframes cv{49.85%{fill:var(--c2)}49.87%,100%{fill:var(--ce)}}.c.cv{fill:var(--c2);animation-name:cv}@keyframes cw{36.12%{fill:var(--c2)}36.14%,100%{fill:var(--ce)}}.c.cw{fill:var(--c2);animation-name:cw}@keyframes cx{49.29%{fill:var(--c2)}49.31%,100%{fill:var(--ce)}}.c.cx{fill:var(--c2);animation-name:cx}@keyframes cy{25.48%{fill:var(--c1)}25.5%,100%{fill:var(--ce)}}.c.cy{fill:var(--c1);animation-name:cy}@keyframes cz{13.44%{fill:var(--c1)}13.46%,100%{fill:var(--ce)}}.c.cz{fill:var(--c1);animation-name:cz}@keyframes c10{52.93%{fill:var(--c2)}52.95%,100%{fill:var(--ce)}}.c.c10{fill:var(--c2);animation-name:c10}@keyframes c11{69.46%{fill:var(--c3)}69.48%,100%{fill:var(--ce)}}.c.c11{fill:var(--c3);animation-name:c11}@keyframes c12{50.13%{fill:var(--c2)}50.15%,100%{fill:var(--ce)}}.c.c12{fill:var(--c2);animation-name:c12}@keyframes c13{36.4%{fill:var(--c1)}36.42%,100%{fill:var(--ce)}}.c.c13{fill:var(--c1);animation-name:c13}@keyframes c14{36.68%{fill:var(--c2)}36.7%,100%{fill:var(--ce)}}.c.c14{fill:var(--c2);animation-name:c14}@keyframes c15{25.2%{fill:var(--c1)}25.22%,100%{fill:var(--ce)}}.c.c15{fill:var(--c1);animation-name:c15}@keyframes c16{13.72%{fill:var(--c1)}13.74%,100%{fill:var(--ce)}}.c.c16{fill:var(--c1);animation-name:c16}@keyframes c17{33.6%{fill:var(--c2)}33.62%,100%{fill:var(--ce)}}.c.c17{fill:var(--c2);animation-name:c17}@keyframes c18{69.74%{fill:var(--c3)}69.76%,100%{fill:var(--ce)}}.c.c18{fill:var(--c3);animation-name:c18}@keyframes c19{84.58%{fill:var(--c4)}84.6%,100%{fill:var(--ce)}}.c.c19{fill:var(--c4);animation-name:c19}@keyframes c1a{74.78%{fill:var(--c3)}74.8%,100%{fill:var(--ce)}}.c.c1a{fill:var(--c3);animation-name:c1a}@keyframes c1b{48.73%{fill:var(--c2)}48.75%,100%{fill:var(--ce)}}.c.c1b{fill:var(--c2);animation-name:c1b}@keyframes c1c{24.92%{fill:var(--c1)}24.94%,100%{fill:var(--ce)}}.c.c1c{fill:var(--c1);animation-name:c1c}@keyframes c1d{14%{fill:var(--c1)}14.02%,100%{fill:var(--ce)}}.c.c1d{fill:var(--c1);animation-name:c1d}@keyframes c1e{33.32%{fill:var(--c1)}33.34%,100%{fill:var(--ce)}}.c.c1e{fill:var(--c1);animation-name:c1e}@keyframes c1f{60.49%{fill:var(--c3)}60.51%,100%{fill:var(--ce)}}.c.c1f{fill:var(--c3);animation-name:c1f}@keyframes c1g{60.21%{fill:var(--c2)}60.23%,100%{fill:var(--ce)}}.c.c1g{fill:var(--c2);animation-name:c1g}@keyframes c1h{22.96%{fill:var(--c1)}22.98%,100%{fill:var(--ce)}}.c.c1h{fill:var(--c1);animation-name:c1h}@keyframes c1i{23.24%{fill:var(--c1)}23.26%,100%{fill:var(--ce)}}.c.c1i{fill:var(--c1);animation-name:c1i}@keyframes c1j{58.81%{fill:var(--c2)}58.83%,100%{fill:var(--ce)}}.c.c1j{fill:var(--c2);animation-name:c1j}@keyframes c1k{80.38%{fill:var(--c3)}80.4%,100%{fill:var(--ce)}}.c.c1k{fill:var(--c3);animation-name:c1k}@keyframes c1l{80.66%{fill:var(--c4)}80.68%,100%{fill:var(--ce)}}.c.c1l{fill:var(--c4);animation-name:c1l}@keyframes c1m{60.77%{fill:var(--c2)}60.79%,100%{fill:var(--ce)}}.c.c1m{fill:var(--c2);animation-name:c1m}@keyframes c1n{81.22%{fill:var(--c4)}81.24%,100%{fill:var(--ce)}}.c.c1n{fill:var(--c4);animation-name:c1n}@keyframes c1o{22.68%{fill:var(--c1)}22.7%,100%{fill:var(--ce)}}.c.c1o{fill:var(--c1);animation-name:c1o}@keyframes c1p{22.4%{fill:var(--c1)}22.42%,100%{fill:var(--ce)}}.c.c1p{fill:var(--c1);animation-name:c1p}@keyframes c1q{22.12%{fill:var(--c1)}22.14%,100%{fill:var(--ce)}}.c.c1q{fill:var(--c1);animation-name:c1q}@keyframes c1r{15.12%{fill:var(--c1)}15.14%,100%{fill:var(--ce)}}.c.c1r{fill:var(--c1);animation-name:c1r}@keyframes c1s{17.64%{fill:var(--c1)}17.66%,100%{fill:var(--ce)}}.c.c1s{fill:var(--c1);animation-name:c1s}@keyframes c1t{17.92%{fill:var(--c1)}17.94%,100%{fill:var(--ce)}}.c.c1t{fill:var(--c1);animation-name:c1t}@keyframes c1u{18.2%{fill:var(--c1)}18.22%,100%{fill:var(--ce)}}.c.c1u{fill:var(--c1);animation-name:c1u}@keyframes c1v{18.48%{fill:var(--c1)}18.5%,100%{fill:var(--ce)}}.c.c1v{fill:var(--c1);animation-name:c1v}@keyframes c1w{47.89%{fill:var(--c2)}47.91%,100%{fill:var(--ce)}}.c.c1w{fill:var(--c2);animation-name:c1w}@keyframes c1x{21.84%{fill:var(--c1)}21.86%,100%{fill:var(--ce)}}.c.c1x{fill:var(--c1);animation-name:c1x}@keyframes c1y{15.4%{fill:var(--c1)}15.42%,100%{fill:var(--ce)}}.c.c1y{fill:var(--c1);animation-name:c1y}@keyframes c1z{46.49%{fill:var(--c2)}46.51%,100%{fill:var(--ce)}}.c.c1z{fill:var(--c2);animation-name:c1z}@keyframes c20{70.86%{fill:var(--c3)}70.88%,100%{fill:var(--ce)}}.c.c20{fill:var(--c3);animation-name:c20}@keyframes c21{81.78%{fill:var(--c4)}81.8%,100%{fill:var(--ce)}}.c.c21{fill:var(--c4);animation-name:c21}@keyframes c22{18.76%{fill:var(--c1)}18.78%,100%{fill:var(--ce)}}.c.c22{fill:var(--c1);animation-name:c22}@keyframes c23{19.04%{fill:var(--c1)}19.06%,100%{fill:var(--ce)}}.c.c23{fill:var(--c1);animation-name:c23}@keyframes c24{19.32%{fill:var(--c1)}19.34%,100%{fill:var(--ce)}}.c.c24{fill:var(--c1);animation-name:c24}@keyframes c25{15.68%{fill:var(--c1)}15.7%,100%{fill:var(--ce)}}.c.c25{fill:var(--c1);animation-name:c25}@keyframes c26{46.21%{fill:var(--c2)}46.23%,100%{fill:var(--ce)}}.c.c26{fill:var(--c2);animation-name:c26}@keyframes c27{44.81%{fill:var(--c1)}44.83%,100%{fill:var(--ce)}}.c.c27{fill:var(--c1);animation-name:c27}@keyframes c28{41.17%{fill:var(--c1)}41.19%,100%{fill:var(--ce)}}.c.c28{fill:var(--c1);animation-name:c28}@keyframes c29{41.45%{fill:var(--c2)}41.47%,100%{fill:var(--ce)}}.c.c29{fill:var(--c2);animation-name:c29}@keyframes c2a{82.62%{fill:var(--c4)}82.64%,100%{fill:var(--ce)}}.c.c2a{fill:var(--c4);animation-name:c2a}@keyframes c2b{19.6%{fill:var(--c1)}19.62%,100%{fill:var(--ce)}}.c.c2b{fill:var(--c1);animation-name:c2b}@keyframes c2c{15.96%{fill:var(--c1)}15.98%,100%{fill:var(--ce)}}.c.c2c{fill:var(--c1);animation-name:c2c}@keyframes c2d{71.7%{fill:var(--c3)}71.72%,100%{fill:var(--ce)}}.c.c2d{fill:var(--c3);animation-name:c2d}@keyframes c2e{45.09%{fill:var(--c2)}45.11%,100%{fill:var(--ce)}}.c.c2e{fill:var(--c2);animation-name:c2e}@keyframes c2f{40.89%{fill:var(--c2)}40.91%,100%{fill:var(--ce)}}.c.c2f{fill:var(--c2);animation-name:c2f}@keyframes c2g{73.1%{fill:var(--c3)}73.12%,100%{fill:var(--ce)}}.c.c2g{fill:var(--c3);animation-name:c2g}@keyframes c2h{20.16%{fill:var(--c1)}20.18%,100%{fill:var(--ce)}}.c.c2h{fill:var(--c1);animation-name:c2h}.u{transform-origin:0 0;transform:scale(0,1);animation:none linear 35700ms infinite}@keyframes u0{11.75%{transform:scale(0.000,1)}11.77%,12.03%{transform:scale(0.026,1)}12.05%,12.6%{transform:scale(0.051,1)}12.62%,12.88%{transform:scale(0.077,1)}12.9%,13.16%{transform:scale(0.103,1)}13.18%,13.44%{transform:scale(0.128,1)}13.46%,13.72%{transform:scale(0.154,1)}13.74%,14%{transform:scale(0.179,1)}14.02%,15.12%{transform:scale(0.205,1)}15.14%,15.4%{transform:scale(0.231,1)}15.42%,15.68%{transform:scale(0.256,1)}15.7%,15.96%{transform:scale(0.282,1)}15.98%,17.64%{transform:scale(0.308,1)}17.66%,17.92%{transform:scale(0.333,1)}17.94%,18.2%{transform:scale(0.359,1)}18.22%,18.48%{transform:scale(0.385,1)}18.5%,18.76%{transform:scale(0.410,1)}18.78%,19.04%{transform:scale(0.436,1)}19.06%,19.32%{transform:scale(0.462,1)}19.34%,19.6%{transform:scale(0.487,1)}19.62%,20.16%{transform:scale(0.513,1)}20.18%,21.84%{transform:scale(0.538,1)}21.86%,22.12%{transform:scale(0.564,1)}22.14%,22.4%{transform:scale(0.590,1)}22.42%,22.68%{transform:scale(0.615,1)}22.7%,22.96%{transform:scale(0.641,1)}22.98%,23.24%{transform:scale(0.667,1)}23.26%,24.92%{transform:scale(0.692,1)}24.94%,25.2%{transform:scale(0.718,1)}25.22%,25.48%{transform:scale(0.744,1)}25.5%,25.76%{transform:scale(0.769,1)}25.78%,26.04%{transform:scale(0.795,1)}26.06%,26.32%{transform:scale(0.821,1)}26.34%,27.16%{transform:scale(0.846,1)}27.18%,27.44%{transform:scale(0.872,1)}27.46%,27.72%{transform:scale(0.897,1)}27.74%,30.52%{transform:scale(0.923,1)}30.54%,30.8%{transform:scale(0.949,1)}30.82%,31.08%{transform:scale(0.974,1)}31.1%,100%{transform:scale(1.000,1)}}.u.u0{fill:var(--c1);animation-name:u0;transform-origin:0.0px 0}@keyframes u1{31.36%{transform:scale(0.000,1)}31.38%,100%{transform:scale(1.000,1)}}.u.u1{fill:var(--c2);animation-name:u1;transform-origin:367.5px 0}@keyframes u2{31.64%{transform:scale(0.000,1)}31.66%,33.32%{transform:scale(0.500,1)}33.34%,100%{transform:scale(1.000,1)}}.u.u2{fill:var(--c1);animation-name:u2;transform-origin:376.9px 0}@keyframes u3{33.6%{transform:scale(0.000,1)}33.62%,36.12%{transform:scale(0.500,1)}36.14%,100%{transform:scale(1.000,1)}}.u.u3{fill:var(--c2);animation-name:u3;transform-origin:395.7px 0}@keyframes u4{36.4%{transform:scale(0.000,1)}36.42%,100%{transform:scale(1.000,1)}}.u.u4{fill:var(--c1);animation-name:u4;transform-origin:414.6px 0}@keyframes u5{36.68%{transform:scale(0.000,1)}36.7%,40.89%{transform:scale(0.500,1)}40.91%,100%{transform:scale(1.000,1)}}.u.u5{fill:var(--c2);animation-name:u5;transform-origin:424.0px 0}@keyframes u6{41.17%{transform:scale(0.000,1)}41.19%,100%{transform:scale(1.000,1)}}.u.u6{fill:var(--c1);animation-name:u6;transform-origin:442.8px 0}@keyframes u7{41.45%{transform:scale(0.000,1)}41.47%,100%{transform:scale(1.000,1)}}.u.u7{fill:var(--c2);animation-name:u7;transform-origin:452.3px 0}@keyframes u8{44.81%{transform:scale(0.000,1)}44.83%,100%{transform:scale(1.000,1)}}.u.u8{fill:var(--c1);animation-name:u8;transform-origin:461.7px 0}@keyframes u9{45.09%{transform:scale(0.000,1)}45.11%,46.21%{transform:scale(0.059,1)}46.23%,46.49%{transform:scale(0.118,1)}46.51%,47.89%{transform:scale(0.176,1)}47.91%,48.73%{transform:scale(0.235,1)}48.75%,49.29%{transform:scale(0.294,1)}49.31%,49.85%{transform:scale(0.353,1)}49.87%,50.13%{transform:scale(0.412,1)}50.15%,51.25%{transform:scale(0.471,1)}51.27%,51.53%{transform:scale(0.529,1)}51.55%,52.65%{transform:scale(0.588,1)}52.67%,52.93%{transform:scale(0.647,1)}52.95%,54.33%{transform:scale(0.706,1)}54.35%,54.89%{transform:scale(0.765,1)}54.91%,55.17%{transform:scale(0.824,1)}55.19%,58.81%{transform:scale(0.882,1)}58.83%,60.21%{transform:scale(0.941,1)}60.23%,100%{transform:scale(1.000,1)}}.u.u9{fill:var(--c2);animation-name:u9;transform-origin:471.1px 0}@keyframes ua{60.49%{transform:scale(0.000,1)}60.51%,100%{transform:scale(1.000,1)}}.u.ua{fill:var(--c3);animation-name:ua;transform-origin:631.3px 0}@keyframes ub{60.77%{transform:scale(0.000,1)}60.79%,64.7%{transform:scale(0.500,1)}64.72%,100%{transform:scale(1.000,1)}}.u.ub{fill:var(--c2);animation-name:ub;transform-origin:640.7px 0}@keyframes uc{64.98%{transform:scale(0.000,1)}65%,100%{transform:scale(1.000,1)}}.u.uc{fill:var(--c3);animation-name:uc;transform-origin:659.6px 0}@keyframes ud{66.94%{transform:scale(0.000,1)}66.96%,100%{transform:scale(1.000,1)}}.u.ud{fill:var(--c2);animation-name:ud;transform-origin:669.0px 0}@keyframes ue{67.22%{transform:scale(0.000,1)}67.24%,67.5%{transform:scale(0.091,1)}67.52%,68.06%{transform:scale(0.182,1)}68.08%,69.46%{transform:scale(0.273,1)}69.48%,69.74%{transform:scale(0.364,1)}69.76%,70.86%{transform:scale(0.455,1)}70.88%,71.7%{transform:scale(0.545,1)}71.72%,73.1%{transform:scale(0.636,1)}73.12%,74.78%{transform:scale(0.727,1)}74.8%,76.74%{transform:scale(0.818,1)}76.76%,80.38%{transform:scale(0.909,1)}80.4%,100%{transform:scale(1.000,1)}}.u.ue{fill:var(--c3);animation-name:ue;transform-origin:678.4px 0}@keyframes uf{80.66%{transform:scale(0.000,1)}80.68%,81.22%{transform:scale(0.143,1)}81.24%,81.78%{transform:scale(0.286,1)}81.8%,82.62%{transform:scale(0.429,1)}82.64%,84.58%{transform:scale(0.571,1)}84.6%,85.42%{transform:scale(0.714,1)}85.44%,86.82%{transform:scale(0.857,1)}86.84%,100%{transform:scale(1.000,1)}}.u.uf{fill:var(--c4);animation-name:uf;transform-origin:782.0px 0}.s{shape-rendering:geometricPrecision;fill:var(--cs);animation:none linear 35700ms infinite}@keyframes s0{0%,99.72%{transform:translate(0px,-16px)}0.28%{transform:translate(0px,0px)}11.48%{transform:translate(640px,0px)}11.76%,55.46%{transform:translate(640px,16px)}12.04%,54.62%{transform:translate(656px,16px)}12.32%{transform:translate(656px,0px)}14.01%,33.05%,80.11%{transform:translate(752px,0px)}14.29%{transform:translate(752px,-16px)}14.85%,17.09%{transform:translate(784px,-16px)}15.13%{transform:translate(784px,0px)}15.97%{transform:translate(832px,0px)}16.25%{transform:translate(832px,-16px)}18.49%{transform:translate(784px,64px)}18.77%,41.74%{transform:translate(800px,64px)}19.33%,42.3%{transform:translate(800px,96px)}19.89%,42.86%{transform:translate(832px,96px)}20.17%,43.14%{transform:translate(832px,80px)}20.45%,43.42%{transform:translate(848px,80px)}20.73%,39.78%{transform:translate(848px,96px)}22.13%{transform:translate(768px,96px)}22.69%{transform:translate(768px,64px)}22.97%{transform:translate(752px,64px)}23.25%,58.54%,59.66%{transform:translate(752px,80px)}23.53%{transform:translate(768px,80px)}24.09%{transform:translate(768px,112px)}24.65%,37.54%{transform:translate(736px,112px)}24.93%,37.25%,59.1%{transform:translate(736px,96px)}26.89%,66.11%{transform:translate(624px,96px)}27.73%{transform:translate(624px,48px)}28.01%{transform:translate(608px,48px)}28.85%{transform:translate(608px,96px)}30.25%{transform:translate(688px,96px)}31.93%,34.73%{transform:translate(688px,0px)}33.33%{transform:translate(752px,16px)}33.61%{transform:translate(736px,16px)}33.89%{transform:translate(736px,0px)}35.85%{transform:translate(688px,64px)}36.41%,50.42%{transform:translate(720px,64px)}36.97%{transform:translate(720px,96px)}38.94%{transform:translate(816px,112px)}39.22%{transform:translate(816px,96px)}40.62%,43.98%{transform:translate(848px,48px)}41.18%,44.54%,45.66%,82.07%{transform:translate(816px,48px)}41.46%{transform:translate(816px,64px)}44.82%{transform:translate(816px,32px)}45.1%,71.43%,72.55%{transform:translate(832px,32px)}45.38%{transform:translate(832px,48px)}46.22%{transform:translate(816px,16px)}46.78%{transform:translate(784px,16px)}47.9%{transform:translate(784px,80px)}49.3%{transform:translate(704px,80px)}49.86%{transform:translate(704px,48px)}50.14%,57.42%,78.71%{transform:translate(720px,48px)}51.26%,75.91%{transform:translate(672px,64px)}51.54%,67.79%{transform:translate(672px,48px)}51.82%,56.86%{transform:translate(688px,48px)}52.38%,56.3%,68.63%{transform:translate(688px,16px)}52.94%,69.19%{transform:translate(720px,16px)}53.22%{transform:translate(720px,0px)}54.06%{transform:translate(672px,0px)}54.34%{transform:translate(672px,16px)}54.9%,86.27%{transform:translate(656px,32px)}55.18%{transform:translate(640px,32px)}57.98%{transform:translate(720px,80px)}58.82%{transform:translate(752px,96px)}59.38%{transform:translate(736px,80px)}60.5%,79.55%{transform:translate(752px,32px)}61.06%{transform:translate(784px,32px)}62.18%{transform:translate(784px,96px)}64.43%{transform:translate(656px,96px)}64.71%{transform:translate(656px,80px)}64.99%,76.19%{transform:translate(672px,80px)}65.27%{transform:translate(672px,96px)}66.67%{transform:translate(624px,64px)}66.95%{transform:translate(640px,64px)}67.23%,77.31%{transform:translate(640px,48px)}68.07%{transform:translate(672px,32px)}68.35%{transform:translate(688px,32px)}69.47%,78.99%{transform:translate(720px,32px)}71.71%{transform:translate(832px,16px)}71.99%{transform:translate(848px,16px)}72.27%{transform:translate(848px,32px)}73.11%{transform:translate(832px,64px)}76.75%{transform:translate(640px,80px)}80.39%{transform:translate(768px,0px)}81.23%{transform:translate(768px,48px)}82.63%{transform:translate(816px,80px)}82.91%{transform:translate(800px,80px)}83.47%{transform:translate(800px,48px)}84.59%{transform:translate(736px,48px)}84.87%{transform:translate(736px,32px)}86.83%{transform:translate(656px,64px)}97.2%{transform:translate(64px,64px)}98.6%{transform:translate(64px,-16px)}}.s.s0{transform:translate(0px,-16px);animation-name:s0}@keyframes s1{0%,99.72%{transform:translate(16px,-16px)}0.28%{transform:translate(0px,-16px)}0.56%{transform:translate(0px,0px)}11.76%{transform:translate(640px,0px)}12.04%,55.74%{transform:translate(640px,16px)}12.32%,54.9%{transform:translate(656px,16px)}12.61%{transform:translate(656px,0px)}14.29%,33.33%,80.39%{transform:translate(752px,0px)}14.57%{transform:translate(752px,-16px)}15.13%,17.37%{transform:translate(784px,-16px)}15.41%{transform:translate(784px,0px)}16.25%{transform:translate(832px,0px)}16.53%{transform:translate(832px,-16px)}18.77%{transform:translate(784px,64px)}19.05%,42.02%{transform:translate(800px,64px)}19.61%,42.58%{transform:translate(800px,96px)}20.17%,43.14%{transform:translate(832px,96px)}20.45%,43.42%{transform:translate(832px,80px)}20.73%,43.7%{transform:translate(848px,80px)}21.01%,40.06%{transform:translate(848px,96px)}22.41%{transform:translate(768px,96px)}22.97%{transform:translate(768px,64px)}23.25%{transform:translate(752px,64px)}23.53%,58.82%,59.94%{transform:translate(752px,80px)}23.81%{transform:translate(768px,80px)}24.37%{transform:translate(768px,112px)}24.93%,37.82%{transform:translate(736px,112px)}25.21%,37.54%,59.38%{transform:translate(736px,96px)}27.17%,66.39%{transform:translate(624px,96px)}28.01%{transform:translate(624px,48px)}28.29%{transform:translate(608px,48px)}29.13%{transform:translate(608px,96px)}30.53%{transform:translate(688px,96px)}32.21%,35.01%{transform:translate(688px,0px)}33.61%{transform:translate(752px,16px)}33.89%{transform:translate(736px,16px)}34.17%{transform:translate(736px,0px)}36.13%{transform:translate(688px,64px)}36.69%,50.7%{transform:translate(720px,64px)}37.25%{transform:translate(720px,96px)}39.22%{transform:translate(816px,112px)}39.5%{transform:translate(816px,96px)}40.9%,44.26%{transform:translate(848px,48px)}41.46%,44.82%,45.94%,82.35%{transform:translate(816px,48px)}41.74%{transform:translate(816px,64px)}45.1%{transform:translate(816px,32px)}45.38%,71.71%,72.83%{transform:translate(832px,32px)}45.66%{transform:translate(832px,48px)}46.5%{transform:translate(816px,16px)}47.06%{transform:translate(784px,16px)}48.18%{transform:translate(784px,80px)}49.58%{transform:translate(704px,80px)}50.14%{transform:translate(704px,48px)}50.42%,57.7%,78.99%{transform:translate(720px,48px)}51.54%,76.19%{transform:translate(672px,64px)}51.82%,68.07%{transform:translate(672px,48px)}52.1%,57.14%{transform:translate(688px,48px)}52.66%,56.58%,68.91%{transform:translate(688px,16px)}53.22%,69.47%{transform:translate(720px,16px)}53.5%{transform:translate(720px,0px)}54.34%{transform:translate(672px,0px)}54.62%{transform:translate(672px,16px)}55.18%,86.55%{transform:translate(656px,32px)}55.46%{transform:translate(640px,32px)}58.26%{transform:translate(720px,80px)}59.1%{transform:translate(752px,96px)}59.66%{transform:translate(736px,80px)}60.78%,79.83%{transform:translate(752px,32px)}61.34%{transform:translate(784px,32px)}62.46%{transform:translate(784px,96px)}64.71%{transform:translate(656px,96px)}64.99%{transform:translate(656px,80px)}65.27%,76.47%{transform:translate(672px,80px)}65.55%{transform:translate(672px,96px)}66.95%{transform:translate(624px,64px)}67.23%{transform:translate(640px,64px)}67.51%,77.59%{transform:translate(640px,48px)}68.35%{transform:translate(672px,32px)}68.63%{transform:translate(688px,32px)}69.75%,79.27%{transform:translate(720px,32px)}71.99%{transform:translate(832px,16px)}72.27%{transform:translate(848px,16px)}72.55%{transform:translate(848px,32px)}73.39%{transform:translate(832px,64px)}77.03%{transform:translate(640px,80px)}80.67%{transform:translate(768px,0px)}81.51%{transform:translate(768px,48px)}82.91%{transform:translate(816px,80px)}83.19%{transform:translate(800px,80px)}83.75%{transform:translate(800px,48px)}84.87%{transform:translate(736px,48px)}85.15%{transform:translate(736px,32px)}87.11%{transform:translate(656px,64px)}97.48%{transform:translate(64px,64px)}98.88%{transform:translate(64px,-16px)}}.s.s1{transform:translate(16px,-16px);animation-name:s1}@keyframes s2{0%,99.72%{transform:translate(32px,-16px)}0.56%{transform:translate(0px,-16px)}0.84%{transform:translate(0px,0px)}12.04%{transform:translate(640px,0px)}12.32%,56.02%{transform:translate(640px,16px)}12.61%,55.18%{transform:translate(656px,16px)}12.89%{transform:translate(656px,0px)}14.57%,33.61%,80.67%{transform:translate(752px,0px)}14.85%{transform:translate(752px,-16px)}15.41%,17.65%{transform:translate(784px,-16px)}15.69%{transform:translate(784px,0px)}16.53%{transform:translate(832px,0px)}16.81%{transform:translate(832px,-16px)}19.05%{transform:translate(784px,64px)}19.33%,42.3%{transform:translate(800px,64px)}19.89%,42.86%{transform:translate(800px,96px)}20.45%,43.42%{transform:translate(832px,96px)}20.73%,43.7%{transform:translate(832px,80px)}21.01%,43.98%{transform:translate(848px,80px)}21.29%,40.34%{transform:translate(848px,96px)}22.69%{transform:translate(768px,96px)}23.25%{transform:translate(768px,64px)}23.53%{transform:translate(752px,64px)}23.81%,59.1%,60.22%{transform:translate(752px,80px)}24.09%{transform:translate(768px,80px)}24.65%{transform:translate(768px,112px)}25.21%,38.1%{transform:translate(736px,112px)}25.49%,37.82%,59.66%{transform:translate(736px,96px)}27.45%,66.67%{transform:translate(624px,96px)}28.29%{transform:translate(624px,48px)}28.57%{transform:translate(608px,48px)}29.41%{transform:translate(608px,96px)}30.81%{transform:translate(688px,96px)}32.49%,35.29%{transform:translate(688px,0px)}33.89%{transform:translate(752px,16px)}34.17%{transform:translate(736px,16px)}34.45%{transform:translate(736px,0px)}36.41%{transform:translate(688px,64px)}36.97%,50.98%{transform:translate(720px,64px)}37.54%{transform:translate(720px,96px)}39.5%{transform:translate(816px,112px)}39.78%{transform:translate(816px,96px)}41.18%,44.54%{transform:translate(848px,48px)}41.74%,45.1%,46.22%,82.63%{transform:translate(816px,48px)}42.02%{transform:translate(816px,64px)}45.38%{transform:translate(816px,32px)}45.66%,71.99%,73.11%{transform:translate(832px,32px)}45.94%{transform:translate(832px,48px)}46.78%{transform:translate(816px,16px)}47.34%{transform:translate(784px,16px)}48.46%{transform:translate(784px,80px)}49.86%{transform:translate(704px,80px)}50.42%{transform:translate(704px,48px)}50.7%,57.98%,79.27%{transform:translate(720px,48px)}51.82%,76.47%{transform:translate(672px,64px)}52.1%,68.35%{transform:translate(672px,48px)}52.38%,57.42%{transform:translate(688px,48px)}52.94%,56.86%,69.19%{transform:translate(688px,16px)}53.5%,69.75%{transform:translate(720px,16px)}53.78%{transform:translate(720px,0px)}54.62%{transform:translate(672px,0px)}54.9%{transform:translate(672px,16px)}55.46%,86.83%{transform:translate(656px,32px)}55.74%{transform:translate(640px,32px)}58.54%{transform:translate(720px,80px)}59.38%{transform:translate(752px,96px)}59.94%{transform:translate(736px,80px)}61.06%,80.11%{transform:translate(752px,32px)}61.62%{transform:translate(784px,32px)}62.75%{transform:translate(784px,96px)}64.99%{transform:translate(656px,96px)}65.27%{transform:translate(656px,80px)}65.55%,76.75%{transform:translate(672px,80px)}65.83%{transform:translate(672px,96px)}67.23%{transform:translate(624px,64px)}67.51%{transform:translate(640px,64px)}67.79%,77.87%{transform:translate(640px,48px)}68.63%{transform:translate(672px,32px)}68.91%{transform:translate(688px,32px)}70.03%,79.55%{transform:translate(720px,32px)}72.27%{transform:translate(832px,16px)}72.55%{transform:translate(848px,16px)}72.83%{transform:translate(848px,32px)}73.67%{transform:translate(832px,64px)}77.31%{transform:translate(640px,80px)}80.95%{transform:translate(768px,0px)}81.79%{transform:translate(768px,48px)}83.19%{transform:translate(816px,80px)}83.47%{transform:translate(800px,80px)}84.03%{transform:translate(800px,48px)}85.15%{transform:translate(736px,48px)}85.43%{transform:translate(736px,32px)}87.39%{transform:translate(656px,64px)}97.76%{transform:translate(64px,64px)}99.16%{transform:translate(64px,-16px)}}.s.s2{transform:translate(32px,-16px);animation-name:s2}@keyframes s3{0%,99.72%{transform:translate(48px,-16px)}0.84%{transform:translate(0px,-16px)}1.12%{transform:translate(0px,0px)}12.32%{transform:translate(640px,0px)}12.61%,56.3%{transform:translate(640px,16px)}12.89%,55.46%{transform:translate(656px,16px)}13.17%{transform:translate(656px,0px)}14.85%,33.89%,80.95%{transform:translate(752px,0px)}15.13%{transform:translate(752px,-16px)}15.69%,17.93%{transform:translate(784px,-16px)}15.97%{transform:translate(784px,0px)}16.81%{transform:translate(832px,0px)}17.09%{transform:translate(832px,-16px)}19.33%{transform:translate(784px,64px)}19.61%,42.58%{transform:translate(800px,64px)}20.17%,43.14%{transform:translate(800px,96px)}20.73%,43.7%{transform:translate(832px,96px)}21.01%,43.98%{transform:translate(832px,80px)}21.29%,44.26%{transform:translate(848px,80px)}21.57%,40.62%{transform:translate(848px,96px)}22.97%{transform:translate(768px,96px)}23.53%{transform:translate(768px,64px)}23.81%{transform:translate(752px,64px)}24.09%,59.38%,60.5%{transform:translate(752px,80px)}24.37%{transform:translate(768px,80px)}24.93%{transform:translate(768px,112px)}25.49%,38.38%{transform:translate(736px,112px)}25.77%,38.1%,59.94%{transform:translate(736px,96px)}27.73%,66.95%{transform:translate(624px,96px)}28.57%{transform:translate(624px,48px)}28.85%{transform:translate(608px,48px)}29.69%{transform:translate(608px,96px)}31.09%{transform:translate(688px,96px)}32.77%,35.57%{transform:translate(688px,0px)}34.17%{transform:translate(752px,16px)}34.45%{transform:translate(736px,16px)}34.73%{transform:translate(736px,0px)}36.69%{transform:translate(688px,64px)}37.25%,51.26%{transform:translate(720px,64px)}37.82%{transform:translate(720px,96px)}39.78%{transform:translate(816px,112px)}40.06%{transform:translate(816px,96px)}41.46%,44.82%{transform:translate(848px,48px)}42.02%,45.38%,46.5%,82.91%{transform:translate(816px,48px)}42.3%{transform:translate(816px,64px)}45.66%{transform:translate(816px,32px)}45.94%,72.27%,73.39%{transform:translate(832px,32px)}46.22%{transform:translate(832px,48px)}47.06%{transform:translate(816px,16px)}47.62%{transform:translate(784px,16px)}48.74%{transform:translate(784px,80px)}50.14%{transform:translate(704px,80px)}50.7%{transform:translate(704px,48px)}50.98%,58.26%,79.55%{transform:translate(720px,48px)}52.1%,76.75%{transform:translate(672px,64px)}52.38%,68.63%{transform:translate(672px,48px)}52.66%,57.7%{transform:translate(688px,48px)}53.22%,57.14%,69.47%{transform:translate(688px,16px)}53.78%,70.03%{transform:translate(720px,16px)}54.06%{transform:translate(720px,0px)}54.9%{transform:translate(672px,0px)}55.18%{transform:translate(672px,16px)}55.74%,87.11%{transform:translate(656px,32px)}56.02%{transform:translate(640px,32px)}58.82%{transform:translate(720px,80px)}59.66%{transform:translate(752px,96px)}60.22%{transform:translate(736px,80px)}61.34%,80.39%{transform:translate(752px,32px)}61.9%{transform:translate(784px,32px)}63.03%{transform:translate(784px,96px)}65.27%{transform:translate(656px,96px)}65.55%{transform:translate(656px,80px)}65.83%,77.03%{transform:translate(672px,80px)}66.11%{transform:translate(672px,96px)}67.51%{transform:translate(624px,64px)}67.79%{transform:translate(640px,64px)}68.07%,78.15%{transform:translate(640px,48px)}68.91%{transform:translate(672px,32px)}69.19%{transform:translate(688px,32px)}70.31%,79.83%{transform:translate(720px,32px)}72.55%{transform:translate(832px,16px)}72.83%{transform:translate(848px,16px)}73.11%{transform:translate(848px,32px)}73.95%{transform:translate(832px,64px)}77.59%{transform:translate(640px,80px)}81.23%{transform:translate(768px,0px)}82.07%{transform:translate(768px,48px)}83.47%{transform:translate(816px,80px)}83.75%{transform:translate(800px,80px)}84.31%{transform:translate(800px,48px)}85.43%{transform:translate(736px,48px)}85.71%{transform:translate(736px,32px)}87.68%{transform:translate(656px,64px)}98.04%{transform:translate(64px,64px)}99.44%{transform:translate(64px,-16px)}}.s.s3{transform:translate(48px,-16px);animation-name:s3}</style><rect class="c" x="2" y="2" rx="2" ry="2"/><rect class="c" x="2" y="18" rx="2" ry="2"/><rect class="c" x="2" y="34" rx="2" ry="2"/><rect class="c" x="2" y="50" rx="2" ry="2"/><rect class="c" x="2" y="66" rx="2" ry="2"/><rect class="c" x="2" y="82" rx="2" ry="2"/><rect class="c" x="2" y="98" rx="2" ry="2"/><rect class="c" x="18" y="2" rx="2" ry="2"/><rect class="c" x="18" y="18" rx="2" ry="2"/><rect class="c" x="18" y="34" rx="2" ry="2"/><rect class="c" x="18" y="50" rx="2" ry="2"/><rect class="c" x="18" y="66" rx="2" ry="2"/><rect class="c" x="18" y="82" rx="2" ry="2"/><rect class="c" x="18" y="98" rx="2" ry="2"/><rect class="c" x="34" y="2" rx="2" ry="2"/><rect class="c" x="34" y="18" rx="2" ry="2"/><rect class="c" x="34" y="34" rx="2" ry="2"/><rect class="c" x="34" y="50" rx="2" ry="2"/><rect class="c" x="34" y="66" rx="2" ry="2"/><rect class="c" x="34" y="82" rx="2" ry="2"/><rect class="c" x="34" y="98" rx="2" ry="2"/><rect class="c" x="50" y="2" rx="2" ry="2"/><rect class="c" x="50" y="18" rx="2" ry="2"/><rect class="c" x="50" y="34" rx="2" ry="2"/><rect class="c" x="50" y="50" rx="2" ry="2"/><rect class="c" x="50" y="66" rx="2" ry="2"/><rect class="c" x="50" y="82" rx="2" ry="2"/><rect class="c" x="50" y="98" rx="2" ry="2"/><rect class="c" x="66" y="2" rx="2" ry="2"/><rect class="c" x="66" y="18" rx="2" ry="2"/><rect class="c" x="66" y="34" rx="2" ry="2"/><rect class="c" x="66" y="50" rx="2" ry="2"/><rect class="c" x="66" y="66" rx="2" ry="2"/><rect class="c" x="66" y="82" rx="2" ry="2"/><rect class="c" x="66" y="98" rx="2" ry="2"/><rect class="c" x="82" y="2" rx="2" ry="2"/><rect class="c" x="82" y="18" rx="2" ry="2"/><rect class="c" x="82" y="34" rx="2" ry="2"/><rect class="c" x="82" y="50" rx="2" ry="2"/><rect class="c" x="82" y="66" rx="2" ry="2"/><rect class="c" x="82" y="82" rx="2" ry="2"/><rect class="c" x="82" y="98" rx="2" ry="2"/><rect class="c" x="98" y="2" rx="2" ry="2"/><rect class="c" x="98" y="18" rx="2" ry="2"/><rect class="c" x="98" y="34" rx="2" ry="2"/><rect class="c" x="98" y="50" rx="2" ry="2"/><rect class="c" x="98" y="66" rx="2" ry="2"/><rect class="c" x="98" y="82" rx="2" ry="2"/><rect class="c" x="98" y="98" rx="2" ry="2"/><rect class="c" x="114" y="2" rx="2" ry="2"/><rect class="c" x="114" y="18" rx="2" ry="2"/><rect class="c" x="114" y="34" rx="2" ry="2"/><rect class="c" x="114" y="50" rx="2" ry="2"/><rect class="c" x="114" y="66" rx="2" ry="2"/><rect class="c" x="114" y="82" rx="2" ry="2"/><rect class="c" x="114" y="98" rx="2" ry="2"/><rect class="c" x="130" y="2" rx="2" ry="2"/><rect class="c" x="130" y="18" rx="2" ry="2"/><rect class="c" x="130" y="34" rx="2" ry="2"/><rect class="c" x="130" y="50" rx="2" ry="2"/><rect class="c" x="130" y="66" rx="2" ry="2"/><rect class="c" x="130" y="82" rx="2" ry="2"/><rect class="c" x="130" y="98" rx="2" ry="2"/><rect class="c" x="146" y="2" rx="2" ry="2"/><rect class="c" x="146" y="18" rx="2" ry="2"/><rect class="c" x="146" y="34" rx="2" ry="2"/><rect class="c" x="146" y="50" rx="2" ry="2"/><rect class="c" x="146" y="66" rx="2" ry="2"/><rect class="c" x="146" y="82" rx="2" ry="2"/><rect class="c" x="146" y="98" rx="2" ry="2"/><rect class="c" x="162" y="2" rx="2" ry="2"/><rect class="c" x="162" y="18" rx="2" ry="2"/><rect class="c" x="162" y="34" rx="2" ry="2"/><rect class="c" x="162" y="50" rx="2" ry="2"/><rect class="c" x="162" y="66" rx="2" ry="2"/><rect class="c" x="162" y="82" rx="2" ry="2"/><rect class="c" x="162" y="98" rx="2" ry="2"/><rect class="c" x="178" y="2" rx="2" ry="2"/><rect class="c" x="178" y="18" rx="2" ry="2"/><rect class="c" x="178" y="34" rx="2" ry="2"/><rect class="c" x="178" y="50" rx="2" ry="2"/><rect class="c" x="178" y="66" rx="2" ry="2"/><rect class="c" x="178" y="82" rx="2" ry="2"/><rect class="c" x="178" y="98" rx="2" ry="2"/><rect class="c" x="194" y="2" rx="2" ry="2"/><rect class="c" x="194" y="18" rx="2" ry="2"/><rect class="c" x="194" y="34" rx="2" ry="2"/><rect class="c" x="194" y="50" rx="2" ry="2"/><rect class="c" x="194" y="66" rx="2" ry="2"/><rect class="c" x="194" y="82" rx="2" ry="2"/><rect class="c" x="194" y="98" rx="2" ry="2"/><rect class="c" x="210" y="2" rx="2" ry="2"/><rect class="c" x="210" y="18" rx="2" ry="2"/><rect class="c" x="210" y="34" rx="2" ry="2"/><rect class="c" x="210" y="50" rx="2" ry="2"/><rect class="c" x="210" y="66" rx="2" ry="2"/><rect class="c" x="210" y="82" rx="2" ry="2"/><rect class="c" x="210" y="98" rx="2" ry="2"/><rect class="c" x="226" y="2" rx="2" ry="2"/><rect class="c" x="226" y="18" rx="2" ry="2"/><rect class="c" x="226" y="34" rx="2" ry="2"/><rect class="c" x="226" y="50" rx="2" ry="2"/><rect class="c" x="226" y="66" rx="2" ry="2"/><rect class="c" x="226" y="82" rx="2" ry="2"/><rect class="c" x="226" y="98" rx="2" ry="2"/><rect class="c" x="242" y="2" rx="2" ry="2"/><rect class="c" x="242" y="18" rx="2" ry="2"/><rect class="c" x="242" y="34" rx="2" ry="2"/><rect class="c" x="242" y="50" rx="2" ry="2"/><rect class="c" x="242" y="66" rx="2" ry="2"/><rect class="c" x="242" y="82" rx="2" ry="2"/><rect class="c" x="242" y="98" rx="2" ry="2"/><rect class="c" x="258" y="2" rx="2" ry="2"/><rect class="c" x="258" y="18" rx="2" ry="2"/><rect class="c" x="258" y="34" rx="2" ry="2"/><rect class="c" x="258" y="50" rx="2" ry="2"/><rect class="c" x="258" y="66" rx="2" ry="2"/><rect class="c" x="258" y="82" rx="2" ry="2"/><rect class="c" x="258" y="98" rx="2" ry="2"/><rect class="c" x="274" y="2" rx="2" ry="2"/><rect class="c" x="274" y="18" rx="2" ry="2"/><rect class="c" x="274" y="34" rx="2" ry="2"/><rect class="c" x="274" y="50" rx="2" ry="2"/><rect class="c" x="274" y="66" rx="2" ry="2"/><rect class="c" x="274" y="82" rx="2" ry="2"/><rect class="c" x="274" y="98" rx="2" ry="2"/><rect class="c" x="290" y="2" rx="2" ry="2"/><rect class="c" x="290" y="18" rx="2" ry="2"/><rect class="c" x="290" y="34" rx="2" ry="2"/><rect class="c" x="290" y="50" rx="2" ry="2"/><rect class="c" x="290" y="66" rx="2" ry="2"/><rect class="c" x="290" y="82" rx="2" ry="2"/><rect class="c" x="290" y="98" rx="2" ry="2"/><rect class="c" x="306" y="2" rx="2" ry="2"/><rect class="c" x="306" y="18" rx="2" ry="2"/><rect class="c" x="306" y="34" rx="2" ry="2"/><rect class="c" x="306" y="50" rx="2" ry="2"/><rect class="c" x="306" y="66" rx="2" ry="2"/><rect class="c" x="306" y="82" rx="2" ry="2"/><rect class="c" x="306" y="98" rx="2" ry="2"/><rect class="c" x="322" y="2" rx="2" ry="2"/><rect class="c" x="322" y="18" rx="2" ry="2"/><rect class="c" x="322" y="34" rx="2" ry="2"/><rect class="c" x="322" y="50" rx="2" ry="2"/><rect class="c" x="322" y="66" rx="2" ry="2"/><rect class="c" x="322" y="82" rx="2" ry="2"/><rect class="c" x="322" y="98" rx="2" ry="2"/><rect class="c" x="338" y="2" rx="2" ry="2"/><rect class="c" x="338" y="18" rx="2" ry="2"/><rect class="c" x="338" y="34" rx="2" ry="2"/><rect class="c" x="338" y="50" rx="2" ry="2"/><rect class="c" x="338" y="66" rx="2" ry="2"/><rect class="c" x="338" y="82" rx="2" ry="2"/><rect class="c" x="338" y="98" rx="2" ry="2"/><rect class="c" x="354" y="2" rx="2" ry="2"/><rect class="c" x="354" y="18" rx="2" ry="2"/><rect class="c" x="354" y="34" rx="2" ry="2"/><rect class="c" x="354" y="50" rx="2" ry="2"/><rect class="c" x="354" y="66" rx="2" ry="2"/><rect class="c" x="354" y="82" rx="2" ry="2"/><rect class="c" x="354" y="98" rx="2" ry="2"/><rect class="c" x="370" y="2" rx="2" ry="2"/><rect class="c" x="370" y="18" rx="2" ry="2"/><rect class="c" x="370" y="34" rx="2" ry="2"/><rect class="c" x="370" y="50" rx="2" ry="2"/><rect class="c" x="370" y="66" rx="2" ry="2"/><rect class="c" x="370" y="82" rx="2" ry="2"/><rect class="c" x="370" y="98" rx="2" ry="2"/><rect class="c" x="386" y="2" rx="2" ry="2"/><rect class="c" x="386" y="18" rx="2" ry="2"/><rect class="c" x="386" y="34" rx="2" ry="2"/><rect class="c" x="386" y="50" rx="2" ry="2"/><rect class="c" x="386" y="66" rx="2" ry="2"/><rect class="c" x="386" y="82" rx="2" ry="2"/><rect class="c" x="386" y="98" rx="2" ry="2"/><rect class="c" x="402" y="2" rx="2" ry="2"/><rect class="c" x="402" y="18" rx="2" ry="2"/><rect class="c" x="402" y="34" rx="2" ry="2"/><rect class="c" x="402" y="50" rx="2" ry="2"/><rect class="c" x="402" y="66" rx="2" ry="2"/><rect class="c" x="402" y="82" rx="2" ry="2"/><rect class="c" x="402" y="98" rx="2" ry="2"/><rect class="c" x="418" y="2" rx="2" ry="2"/><rect class="c" x="418" y="18" rx="2" ry="2"/><rect class="c" x="418" y="34" rx="2" ry="2"/><rect class="c" x="418" y="50" rx="2" ry="2"/><rect class="c" x="418" y="66" rx="2" ry="2"/><rect class="c" x="418" y="82" rx="2" ry="2"/><rect class="c" x="418" y="98" rx="2" ry="2"/><rect class="c" x="434" y="2" rx="2" ry="2"/><rect class="c" x="434" y="18" rx="2" ry="2"/><rect class="c" x="434" y="34" rx="2" ry="2"/><rect class="c" x="434" y="50" rx="2" ry="2"/><rect class="c" x="434" y="66" rx="2" ry="2"/><rect class="c" x="434" y="82" rx="2" ry="2"/><rect class="c" x="434" y="98" rx="2" ry="2"/><rect class="c" x="450" y="2" rx="2" ry="2"/><rect class="c" x="450" y="18" rx="2" ry="2"/><rect class="c" x="450" y="34" rx="2" ry="2"/><rect class="c" x="450" y="50" rx="2" ry="2"/><rect class="c" x="450" y="66" rx="2" ry="2"/><rect class="c" x="450" y="82" rx="2" ry="2"/><rect class="c" x="450" y="98" rx="2" ry="2"/><rect class="c" x="466" y="2" rx="2" ry="2"/><rect class="c" x="466" y="18" rx="2" ry="2"/><rect class="c" x="466" y="34" rx="2" ry="2"/><rect class="c" x="466" y="50" rx="2" ry="2"/><rect class="c" x="466" y="66" rx="2" ry="2"/><rect class="c" x="466" y="82" rx="2" ry="2"/><rect class="c" x="466" y="98" rx="2" ry="2"/><rect class="c" x="482" y="2" rx="2" ry="2"/><rect class="c" x="482" y="18" rx="2" ry="2"/><rect class="c" x="482" y="34" rx="2" ry="2"/><rect class="c" x="482" y="50" rx="2" ry="2"/><rect class="c" x="482" y="66" rx="2" ry="2"/><rect class="c" x="482" y="82" rx="2" ry="2"/><rect class="c" x="482" y="98" rx="2" ry="2"/><rect class="c" x="498" y="2" rx="2" ry="2"/><rect class="c" x="498" y="18" rx="2" ry="2"/><rect class="c" x="498" y="34" rx="2" ry="2"/><rect class="c" x="498" y="50" rx="2" ry="2"/><rect class="c" x="498" y="66" rx="2" ry="2"/><rect class="c" x="498" y="82" rx="2" ry="2"/><rect class="c" x="498" y="98" rx="2" ry="2"/><rect class="c" x="514" y="2" rx="2" ry="2"/><rect class="c" x="514" y="18" rx="2" ry="2"/><rect class="c" x="514" y="34" rx="2" ry="2"/><rect class="c" x="514" y="50" rx="2" ry="2"/><rect class="c" x="514" y="66" rx="2" ry="2"/><rect class="c" x="514" y="82" rx="2" ry="2"/><rect class="c" x="514" y="98" rx="2" ry="2"/><rect class="c" x="530" y="2" rx="2" ry="2"/><rect class="c" x="530" y="18" rx="2" ry="2"/><rect class="c" x="530" y="34" rx="2" ry="2"/><rect class="c" x="530" y="50" rx="2" ry="2"/><rect class="c" x="530" y="66" rx="2" ry="2"/><rect class="c" x="530" y="82" rx="2" ry="2"/><rect class="c" x="530" y="98" rx="2" ry="2"/><rect class="c" x="546" y="2" rx="2" ry="2"/><rect class="c" x="546" y="18" rx="2" ry="2"/><rect class="c" x="546" y="34" rx="2" ry="2"/><rect class="c" x="546" y="50" rx="2" ry="2"/><rect class="c" x="546" y="66" rx="2" ry="2"/><rect class="c" x="546" y="82" rx="2" ry="2"/><rect class="c" x="546" y="98" rx="2" ry="2"/><rect class="c" x="562" y="2" rx="2" ry="2"/><rect class="c" x="562" y="18" rx="2" ry="2"/><rect class="c" x="562" y="34" rx="2" ry="2"/><rect class="c" x="562" y="50" rx="2" ry="2"/><rect class="c" x="562" y="66" rx="2" ry="2"/><rect class="c" x="562" y="82" rx="2" ry="2"/><rect class="c" x="562" y="98" rx="2" ry="2"/><rect class="c" x="578" y="2" rx="2" ry="2"/><rect class="c" x="578" y="18" rx="2" ry="2"/><rect class="c" x="578" y="34" rx="2" ry="2"/><rect class="c" x="578" y="50" rx="2" ry="2"/><rect class="c" x="578" y="66" rx="2" ry="2"/><rect class="c" x="578" y="82" rx="2" ry="2"/><rect class="c" x="578" y="98" rx="2" ry="2"/><rect class="c" x="594" y="2" rx="2" ry="2"/><rect class="c" x="594" y="18" rx="2" ry="2"/><rect class="c" x="594" y="34" rx="2" ry="2"/><rect class="c" x="594" y="50" rx="2" ry="2"/><rect class="c" x="594" y="66" rx="2" ry="2"/><rect class="c" x="594" y="82" rx="2" ry="2"/><rect class="c" x="594" y="98" rx="2" ry="2"/><rect class="c" x="610" y="2" rx="2" ry="2"/><rect class="c" x="610" y="18" rx="2" ry="2"/><rect class="c" x="610" y="34" rx="2" ry="2"/><rect class="c" x="610" y="50" rx="2" ry="2"/><rect class="c" x="610" y="66" rx="2" ry="2"/><rect class="c" x="610" y="82" rx="2" ry="2"/><rect class="c" x="610" y="98" rx="2" ry="2"/><rect class="c" x="626" y="2" rx="2" ry="2"/><rect class="c" x="626" y="18" rx="2" ry="2"/><rect class="c" x="626" y="34" rx="2" ry="2"/><rect class="c c0" x="626" y="50" rx="2" ry="2"/><rect class="c c1" x="626" y="66" rx="2" ry="2"/><rect class="c c2" x="626" y="82" rx="2" ry="2"/><rect class="c" x="626" y="98" rx="2" ry="2"/><rect class="c" x="642" y="2" rx="2" ry="2"/><rect class="c c3" x="642" y="18" rx="2" ry="2"/><rect class="c c4" x="642" y="34" rx="2" ry="2"/><rect class="c c5" x="642" y="50" rx="2" ry="2"/><rect class="c c6" x="642" y="66" rx="2" ry="2"/><rect class="c c7" x="642" y="82" rx="2" ry="2"/><rect class="c" x="642" y="98" rx="2" ry="2"/><rect class="c" x="658" y="2" rx="2" ry="2"/><rect class="c c8" x="658" y="18" rx="2" ry="2"/><rect class="c c9" x="658" y="34" rx="2" ry="2"/><rect class="c ca" x="658" y="50" rx="2" ry="2"/><rect class="c cb" x="658" y="66" rx="2" ry="2"/><rect class="c cc" x="658" y="82" rx="2" ry="2"/><rect class="c cd" x="658" y="98" rx="2" ry="2"/><rect class="c ce" x="674" y="2" rx="2" ry="2"/><rect class="c cf" x="674" y="18" rx="2" ry="2"/><rect class="c cg" x="674" y="34" rx="2" ry="2"/><rect class="c ch" x="674" y="50" rx="2" ry="2"/><rect class="c ci" x="674" y="66" rx="2" ry="2"/><rect class="c cj" x="674" y="82" rx="2" ry="2"/><rect class="c ck" x="674" y="98" rx="2" ry="2"/><rect class="c cl" x="690" y="2" rx="2" ry="2"/><rect class="c cm" x="690" y="18" rx="2" ry="2"/><rect class="c cn" x="690" y="34" rx="2" ry="2"/><rect class="c co" x="690" y="50" rx="2" ry="2"/><rect class="c cp" x="690" y="66" rx="2" ry="2"/><rect class="c cq" x="690" y="82" rx="2" ry="2"/><rect class="c cr" x="690" y="98" rx="2" ry="2"/><rect class="c cs" x="706" y="2" rx="2" ry="2"/><rect class="c ct" x="706" y="18" rx="2" ry="2"/><rect class="c cu" x="706" y="34" rx="2" ry="2"/><rect class="c cv" x="706" y="50" rx="2" ry="2"/><rect class="c cw" x="706" y="66" rx="2" ry="2"/><rect class="c cx" x="706" y="82" rx="2" ry="2"/><rect class="c cy" x="706" y="98" rx="2" ry="2"/><rect class="c cz" x="722" y="2" rx="2" ry="2"/><rect class="c c10" x="722" y="18" rx="2" ry="2"/><rect class="c c11" x="722" y="34" rx="2" ry="2"/><rect class="c c12" x="722" y="50" rx="2" ry="2"/><rect class="c c13" x="722" y="66" rx="2" ry="2"/><rect class="c c14" x="722" y="82" rx="2" ry="2"/><rect class="c c15" x="722" y="98" rx="2" ry="2"/><rect class="c c16" x="738" y="2" rx="2" ry="2"/><rect class="c c17" x="738" y="18" rx="2" ry="2"/><rect class="c c18" x="738" y="34" rx="2" ry="2"/><rect class="c c19" x="738" y="50" rx="2" ry="2"/><rect class="c c1a" x="738" y="66" rx="2" ry="2"/><rect class="c c1b" x="738" y="82" rx="2" ry="2"/><rect class="c c1c" x="738" y="98" rx="2" ry="2"/><rect class="c c1d" x="754" y="2" rx="2" ry="2"/><rect class="c c1e" x="754" y="18" rx="2" ry="2"/><rect class="c c1f" x="754" y="34" rx="2" ry="2"/><rect class="c c1g" x="754" y="50" rx="2" ry="2"/><rect class="c c1h" x="754" y="66" rx="2" ry="2"/><rect class="c c1i" x="754" y="82" rx="2" ry="2"/><rect class="c c1j" x="754" y="98" rx="2" ry="2"/><rect class="c c1k" x="770" y="2" rx="2" ry="2"/><rect class="c c1l" x="770" y="18" rx="2" ry="2"/><rect class="c c1m" x="770" y="34" rx="2" ry="2"/><rect class="c c1n" x="770" y="50" rx="2" ry="2"/><rect class="c c1o" x="770" y="66" rx="2" ry="2"/><rect class="c c1p" x="770" y="82" rx="2" ry="2"/><rect class="c c1q" x="770" y="98" rx="2" ry="2"/><rect class="c c1r" x="786" y="2" rx="2" ry="2"/><rect class="c c1s" x="786" y="18" rx="2" ry="2"/><rect class="c c1t" x="786" y="34" rx="2" ry="2"/><rect class="c c1u" x="786" y="50" rx="2" ry="2"/><rect class="c c1v" x="786" y="66" rx="2" ry="2"/><rect class="c c1w" x="786" y="82" rx="2" ry="2"/><rect class="c c1x" x="786" y="98" rx="2" ry="2"/><rect class="c c1y" x="802" y="2" rx="2" ry="2"/><rect class="c c1z" x="802" y="18" rx="2" ry="2"/><rect class="c c20" x="802" y="34" rx="2" ry="2"/><rect class="c c21" x="802" y="50" rx="2" ry="2"/><rect class="c c22" x="802" y="66" rx="2" ry="2"/><rect class="c c23" x="802" y="82" rx="2" ry="2"/><rect class="c c24" x="802" y="98" rx="2" ry="2"/><rect class="c c25" x="818" y="2" rx="2" ry="2"/><rect class="c c26" x="818" y="18" rx="2" ry="2"/><rect class="c c27" x="818" y="34" rx="2" ry="2"/><rect class="c c28" x="818" y="50" rx="2" ry="2"/><rect class="c c29" x="818" y="66" rx="2" ry="2"/><rect class="c c2a" x="818" y="82" rx="2" ry="2"/><rect class="c c2b" x="818" y="98" rx="2" ry="2"/><rect class="c c2c" x="834" y="2" rx="2" ry="2"/><rect class="c c2d" x="834" y="18" rx="2" ry="2"/><rect class="c c2e" x="834" y="34" rx="2" ry="2"/><rect class="c c2f" x="834" y="50" rx="2" ry="2"/><rect class="c c2g" x="834" y="66" rx="2" ry="2"/><rect class="c c2h" x="834" y="82" rx="2" ry="2"/><rect class="c" x="834" y="98" rx="2" ry="2"/><rect class="u u0" height="12" width="368.1" x="0.0" y="144"/><rect class="u u1" height="12" width="10.0" x="367.5" y="144"/><rect class="u u2" height="12" width="19.4" x="376.9" y="144"/><rect class="u u3" height="12" width="19.4" x="395.7" y="144"/><rect class="u u4" height="12" width="10.0" x="414.6" y="144"/><rect class="u u5" height="12" width="19.4" x="424.0" y="144"/><rect class="u u6" height="12" width="10.0" x="442.8" y="144"/><rect class="u u7" height="12" width="10.0" x="452.3" y="144"/><rect class="u u8" height="12" width="10.0" x="461.7" y="144"/><rect class="u u9" height="12" width="160.8" x="471.1" y="144"/><rect class="u ua" height="12" width="10.0" x="631.3" y="144"/><rect class="u ub" height="12" width="19.4" x="640.7" y="144"/><rect class="u uc" height="12" width="10.0" x="659.6" y="144"/><rect class="u ud" height="12" width="10.0" x="669.0" y="144"/><rect class="u ue" height="12" width="104.2" x="678.4" y="144"/><rect class="u uf" height="12" width="66.6" x="782.0" y="144"/><rect class="s s0" x="0.8" y="0.8" width="14.4" height="14.4" rx="4.5" ry="4.5"/><rect class="s s1" x="1.8" y="1.8" width="12.3" height="12.3" rx="4.1" ry="4.1"/><rect class="s s2" x="2.6" y="2.6" width="10.8" height="10.8" rx="3.6" ry="3.6"/><rect class="s s3" x="3.0" y="3.0" width="9.9" height="9.9" rx="3.3" ry="3.3"/></svg>